<?xml version="1.0" encoding="UTF-8" standalone="no"?>
<svg width="104px" height="42px" viewBox="0 0 104 42" version="1.1" xmlns="http://www.w3.org/2000/svg" xmlns:xlink="http://www.w3.org/1999/xlink">
    <!-- Generator: Sketch 42 (36781) - http://www.bohemiancoding.com/sketch -->
    <title>outlines_3-colour</title>
    <desc>Created with Sketch.</desc>
    <defs>
        <linearGradient x1="77.0218039%" y1="0%" x2="40.0482843%" y2="111.576819%" id="linearGradient-1">
            <stop stop-color="#FFB429" offset="0%"></stop>
            <stop stop-color="#FF8A35" offset="36.910393%"></stop>
            <stop stop-color="#FC6428" offset="65.3352552%"></stop>
            <stop stop-color="#424242" offset="100%"></stop>
        </linearGradient>
    </defs>
    <g id="Page-1" stroke="none" stroke-width="1" fill="none" fill-rule="evenodd">
        <g id="outlines_3-colour">
            <path d="M76.928,22.064 C76.928,20.7839936 77.1413312,19.6266718 77.568,18.592 C77.9946688,17.5573282 78.5546632,16.6826702 79.248,15.968 C79.9413368,15.2533298 80.7359955,14.7040019 81.632,14.32 C82.5280045,13.9359981 83.7529044,13.9194361 84.4394658,13.9194361 C85.2858766,13.9194361 86.5333291,13.9359981 87.376,14.32 C88.2186709,14.7040019 88.9226638,15.2373299 89.488,15.92 C90.0533362,16.6026701 90.4746653,17.4079954 90.752,18.336 C91.0293347,19.2640046 91.168,20.2719946 91.168,21.36 C91.168,21.7866688 91.1466669,22.1759982 91.104,22.528 C91.0613331,22.8800018 91.0186669,23.151999 90.976,23.344 L81.472,23.344 C81.6853344,24.5600061 82.1599963,25.4399973 82.896,25.984 C83.6320037,26.5280027 84.533328,26.8 85.6,26.8 C86.7306723,26.8 87.1582701,26.8167888 88.3102759,26.1127853 L90.976,27.9655871 C90.2123177,28.8152732 88.880005,29.5839984 87.888,29.904 C86.895995,30.2240016 85.9200048,30.384 84.96,30.384 C83.8293277,30.384 82.7733382,30.1973352 81.792,29.824 C80.8106618,29.4506648 79.957337,28.9066702 79.232,28.192 C78.506663,27.4773298 77.9413354,26.6080051 77.536,25.584 C77.1306646,24.5599949 76.928,23.3866733 76.928,22.064 Z M87.168,20.432 C87.168,19.5146621 87.1578213,18.7701951 86.752486,18.1941922 C86.3471506,17.6181893 85.7658175,17.328 84.512,17.328 C83.1299567,17.328 82.8782794,17.5676327 82.3129432,18.0689685 C81.7476071,18.5703044 81.6106675,19.365328 81.44,20.432 L87.168,20.432 Z" id="reqfire" fill="#424242"></path>
            <path d="M15.7602066,22.0430669 C15.7602066,21.1405536 15.7813312,19.6266718 16.208,18.592 C16.6346688,17.5573282 17.1946632,16.6826702 17.888,15.968 C18.5813368,15.2533298 19.3759955,14.7040019 20.272,14.32 C21.1680045,13.9359981 22.2752682,13.8925833 23.0441483,13.8925833 C23.8646078,13.8925833 25.1733291,13.9359981 26.016,14.32 C26.8586709,14.7040019 27.5626638,15.2373299 28.128,15.92 C28.6933362,16.6026701 29.1146653,17.4079954 29.392,18.336 C29.6693347,19.2640046 29.808,20.2719946 29.808,21.36 C29.808,21.7866688 29.7866669,22.1759982 29.744,22.528 C29.7013331,22.8800018 29.6586669,23.151999 29.616,23.344 L20.112,23.344 C20.3253344,24.5600061 20.7999963,25.4399973 21.536,25.984 C22.2720037,26.5280027 22.4130717,26.8008563 24.0203428,26.8008563 C25.6276138,26.8008563 27.7103982,26.379792 28.8268517,25.722196 C28.8833374,25.9075769 29.6390729,28.1628406 29.8724347,28.5080877 C28.9851493,29.2044653 27.520005,29.5839984 26.528,29.904 C25.535995,30.2240016 24.2706019,30.1927135 23.6011477,30.1927135 C22.6479151,30.1927135 21.4133382,30.1973352 20.432,29.824 C19.4506618,29.4506648 18.597337,28.9066702 17.872,28.192 C17.146663,27.4773298 16.5813354,26.6080051 16.176,25.584 C15.7706646,24.5599949 15.7602066,22.9455802 15.7602066,22.0430669 Z M25.808,20.432 C25.808,19.5146621 25.625585,18.7386259 25.1938947,18.2268259 C24.7622044,17.7150259 24.0625894,17.4882 23.102597,17.4882 C21.8106489,17.4882 21.2553468,17.9804247 20.8297838,18.3993593 C20.4042209,18.8182939 20.2506675,19.365328 20.08,20.432 L25.808,20.432 Z" id="Combined-Shape" fill="#424242"></path>
            <polygon id="Path" fill="#424242" points="59.75 14.3156876 59.9951019 13.9957733 64 13.9957733 63.992 30 59.75 30"></polygon>
            <path d="M59.995094,10.9991746 C59.8804411,10.8775762 59.8667844,7.11326423 59.995094,6.99997128 C60.1234036,6.88667834 63.8680676,6.87014827 63.996994,6.99997128 C64.1259203,7.12979429 64.1018122,10.9130754 63.996994,10.9991746 C63.8921757,11.0852738 60.109747,11.1207731 59.995094,10.9991746 Z" id="Path" fill="url(#linearGradient-1)"></path>
            <path d="M58.0043215,11.0144442 C57.8260085,10.9683028 56.9700968,10.928 56.634671,10.928 C56.0586681,10.928 55.52608,11.0214184 55.2060784,11.3734201 C54.8860768,11.7254219 54.88,12.3573293 54.88,13.168 L54.88,14.0050507 L58.0043215,14.3244715 L58.0043215,17.808 L54.88,17.808 L54.88,30 L50.176,30 L50.176,17.808 L48.00057,17.808 L48.00057,14.3244715 L50.176,14.16 L50.176,13.296 C50.176,12.4639958 50.2773323,11.6746704 50.48,10.928 C50.6826677,10.1813296 51.0186643,9.53066944 51.488,8.976 C51.9573357,8.42133056 52.5653296,7.9840016 53.312,7.664 C54.0586704,7.3439984 54.6898773,6.92489111 55.7565493,6.92489111 C56.1373346,6.92489111 57.0186389,6.77906333 58.0043215,7.0031719 L58.0043215,11.0144442 Z" id="Path" fill="#424242"></path>
            <path d="M66.0043171,13.9986859 L69.4596535,13.9986859 L69.96,14.128 L70.176631,16.912 L70.2833738,16.912 C70.8593767,15.8239946 71.6773293,15.0240026 72.488,14.512 C73.2986707,13.9999974 74.1093293,13.744 74.92,13.744 C75.3680022,13.744 75.7359986,13.7706664 76.024,13.824 C76.3120014,13.8773336 77.2640431,13.9986859 77.5072156,14.2837762 C76.9129786,15.0079228 75.4538498,17.4720715 75.215459,17.9888803 C74.9167909,17.9035466 74.653335,17.872 74.312,17.872 C73.7146637,17.872 73.0906699,18.0853312 72.44,18.512 C71.7893301,18.9386688 71.2506688,19.6959946 70.824,20.784 L70.824,30 L66.0043171,30 L66.0043171,13.9986859 Z" id="Path" fill="#424242"></path>
            <path d="M5.08,14.128 L8.92,14.128 L9.24,16.912 L9.368,16.912 C9.94400288,15.8239946 10.6373293,15.0240026 11.448,14.512 C12.2586707,13.9999974 13.0693293,13.744 13.88,13.744 C14.3280022,13.744 14.6959986,13.7706664 14.984,13.824 C15.2720014,13.8773336 15.9746847,14.3315686 16.0910931,14.8306584 C16.0910931,14.8306584 14.2995605,17.6158905 14.0934072,18.128331 C13.9142151,18.0734406 13.613335,17.872 13.272,17.872 C12.6746637,17.872 12.0506699,18.0853312 11.4,18.512 C10.7493301,18.9386688 10.2106688,19.6959946 9.784,20.784 L9.784,30 L5.08,30 L5.08,14.128 Z" id="first-r" fill="#424242"></path>
            <g id="Group" transform="translate(4.000000, 32.000000)">
                <rect id="Rectangle-Copy-2" fill="#FC5E18" x="0" y="0" width="8" height="2" rx="0.200000018"></rect>
                <rect id="Rectangle-Copy-3" fill="#FC5E18" x="10" y="0" width="8" height="2" rx="0.200000018"></rect>
                <rect id="Rectangle-Copy-4" fill="#FC5E18" x="20" y="0" width="8" height="2" rx="0.200000018"></rect>
                <rect id="Rectangle-Copy-5" fill="#FF8826" x="30" y="0" width="8" height="2" rx="0.200000018"></rect>
                <rect id="Rectangle-Copy-6" fill="#FF8826" x="40" y="0" width="8" height="2" rx="0.200000018"></rect>
                <rect id="Rectangle-Copy-7" fill="#FF8826" x="50" y="0" width="8" height="2" rx="0.200000018"></rect>
                <rect id="Rectangle-Copy-8" fill="#FFB600" x="60" y="0" width="8" height="2" rx="0.200000018"></rect>
                <rect id="Rectangle-Copy-9" fill="#FFB600" x="70" y="0" width="8" height="2" rx="0.200000018"></rect>
                <rect id="Rectangle-Copy-10" fill="#FFB600" x="80" y="0" width="8" height="2" rx="0.200000018"></rect>
            </g>
            <path d="M31.24,22.064 C31.24,19.9710597 31.4266648,19.6000051 31.8,18.576 C32.1733352,17.5519949 32.663997,16.6826702 33.272,15.968 C33.880003,15.2533298 34.583996,14.7040019 35.384,14.32 C36.184004,13.9359981 36.4015152,13.8972509 37.8279363,13.8972509 C39.2543574,13.8972509 39.4746634,13.8986651 40.136,14.208 C40.7973366,14.5173349 41.6475809,15.0133299 42.2662506,15.696 L42.3137553,15.696 L42.568,14.128 L46.248,14.32 L46.248,35.0096365 L42.0872615,35.0096365 L42.0872615,31.0465179 L42.184,28.2293933 C42.1689389,28.2438519 40.7060932,29.5469503 39.9094534,29.8966647 C39.1128135,30.246379 38.7559432,30.2140485 37.724161,30.2140485 C36.7428228,30.2140485 35.864004,30.1920019 35.064,29.808 C34.263996,29.4239981 33.5813362,28.8746702 33.016,28.16 C32.4506638,27.4453298 32.0133349,26.5760051 31.704,25.552 C31.3946651,24.5279949 31.24,24.1569403 31.24,22.064 Z M35.2849777,22.0491223 C35.2849777,24.7614671 36.0438054,25.5512309 36.3662848,25.9047483 C36.6887642,26.2582656 37.4446407,26.8097999 38.400044,26.8551331 C39.1642731,26.8913952 40.0720241,26.4946908 40.4880262,26.2813564 C40.9040283,26.068022 41.6210335,25.6680558 42.0050354,25.1347198 L42.0050354,18.656 C41.5783666,18.2719981 40.6800022,17.9573341 40.232,17.808 C39.7839978,17.6586659 39.1167664,17.5425413 38.6900976,17.5425413 C37.5740016,17.5425413 36.7515894,18.1690592 36.4950205,18.3814653 C36.2384516,18.5938714 35.2849777,19.3367775 35.2849777,22.0491223 Z" id="Combined-Shape" fill="#424242"></path>
        </g>
    </g>
</svg>