<svg version="1.1" xmlns="http://www.w3.org/2000/svg" width="128" height="128" data-icon="aperture" class="iconic iconic-aperture iconic-size-lg" viewBox="0 0 128 128">
  <g class="iconic-metadata">
    <title>Aperture</title>
  </g>
  <g class="iconic-container" data-width="128" data-height="128">
    <path d="M48.989 86l-35.43-61.367c-8.487 10.859-13.559 24.516-13.559 39.367 0 7.73 1.371 15.14 3.882 22h45.107z" class="iconic-aperture-blade iconic-aperture-blade-6 iconic-property-fill" />
    <path d="M75.547 88h-70.877c8.17 20.176 26.322 35.227 48.337 39.04l22.54-39.04z" class="iconic-aperture-blade iconic-aperture-blade-5 iconic-property-fill" />
    <path d="M90.558 66l-35.434 61.373c2.902.403 5.862.627 8.875.627 19.725 0 37.358-8.929 49.099-22.959l-22.54-39.041z" class="iconic-aperture-blade iconic-aperture-blade-4 iconic-property-fill" />
    <path d="M79.011 42l35.43 61.367c8.487-10.859 13.559-24.516 13.559-39.367 0-7.73-1.371-15.14-3.882-22h-45.107z" class="iconic-aperture-blade iconic-aperture-blade-3 iconic-property-fill" />
    <path d="M52.453 40h70.877c-8.17-20.176-26.322-35.227-48.337-39.04l-22.54 39.04z" class="iconic-aperture-blade iconic-aperture-blade-2 iconic-property-fill" />
    <path d="M37.442 62l35.434-61.373c-2.902-.403-5.862-.627-8.875-.627-19.725 0-37.358 8.929-49.098 22.959l22.54 39.041z" class="iconic-aperture-blade iconic-aperture-blade-1 iconic-property-fill" />
  </g>
</svg>