<svg version="1.1" xmlns="http://www.w3.org/2000/svg" width="32" height="32" data-icon="basket" class="iconic iconic-basket iconic-size-md" viewBox="0 0 32 32">
  <g class="iconic-metadata">
    <title>Basket</title>
  </g>
  <defs>
    <clipPath id="iconic-size-md-basket-clip-0">
      <path d="M25.946 12c.191.938-.164 1.942-.993 2.534-.441.315-.948.466-1.451.466-.78 0-1.548-.364-2.036-1.047l-1.395-1.953h-8.142l-1.395 1.953c-.488.683-1.256 1.047-2.036 1.047-.503 0-1.011-.151-1.451-.466-.829-.592-1.184-1.597-.993-2.534h-6.054v18h32v-18h-6.054zm-17.325 14.985c-.04.01-.081.015-.122.015-.224 0-.428-.151-.484-.379l-2-8c-.067-.268.096-.539.364-.606.266-.07.539.095.606.364l2 8c.067.268-.096.539-.364.606zm4.941.011c-.021.002-.042.004-.063.004-.248 0-.464-.185-.496-.438l-1-8c-.034-.274.16-.524.434-.558.278-.034.523.16.558.434l1 8c.034.274-.16.524-.434.558zm5.434-.434c-.032.253-.247.438-.496.438-.021 0-.042-.002-.063-.004-.274-.034-.468-.284-.434-.558l1-8c.034-.274.285-.468.558-.434.274.034.468.284.434.558l-1 8zm6.989-7.941l-2 8c-.057.228-.26.379-.484.379-.04 0-.081-.005-.122-.015-.268-.067-.431-.338-.364-.606l2-8c.066-.269.336-.434.606-.364.268.067.431.338.364.606z"
      />
    </clipPath>
    <clipPath id="iconic-size-md-basket-clip-1">
      <path d="M17.986 0c.628.832.699 1.999.079 2.908l-7.5 11c-.484.71-1.269 1.092-2.068 1.092h17.502v-15h-8.014z" />
    </clipPath>
  </defs>
  <g class="iconic-container" data-width="32" data-height="30" transform="translate(0 1)">
    <path clip-path="url(#iconic-size-md-basket-clip-0)" d="M25.5 30h-19c-.276 0-.554-.217-.621-.485l-3.757-15.03c-.067-.268.103-.485.379-.485h27c.276 0 .446.217.379.485l-3.757 15.03c-.067.268-.345.485-.621.485z" class="iconic-basket-body iconic-property-fill"
    />
    <path clip-path="url(#iconic-size-md-basket-clip-0)" d="M31.5 15h-31c-.276 0-.5-.224-.5-.5v-2c0-.276.224-.5.5-.5h31c.276 0 .5.224.5.5v2c0 .276-.224.5-.5.5z" class="iconic-basket-lip iconic-property-fill" />
    <path clip-path="url(#iconic-size-md-basket-clip-1)" stroke="#000" stroke-width="3" stroke-linecap="round" class="iconic-basket-handle iconic-basket-handle-right iconic-property-accent iconic-property-stroke" fill="none" d="M23.5 12.5l-7.5-11" />
    <path stroke="#000" stroke-width="3" stroke-linecap="round" class="iconic-basket-handle iconic-basket-handle-left iconic-property-accent iconic-property-stroke" fill="none" d="M8.5 12.5l7.5-11" />
  </g>
</svg>