<svg version="1.1" xmlns="http://www.w3.org/2000/svg" width="16" height="16" data-icon="beaker" class="iconic iconic-beaker iconic-size-sm" viewBox="0 0 16 16">
  <g class="iconic-metadata">
    <title>Beaker</title>
  </g>
  <g class="iconic-container" data-width="16" data-height="16">
    <path d="M14.914 12.086l-1.497-2.086h-3.417c0-.552-.448-1-1-1s-1 .448-1 1h-5.458l-1.455 2.086c-.378.377-.587.879-.587 1.414s.208 1.038.586 1.414c.377.378.879.586 1.414.586h11c.535 0 1.038-.208 1.414-.586.378-.377.586-.879.586-1.414 0-.535-.21-1.04-.586-1.414z"
    class="iconic-beaker-fluid iconic-property-fill" />
    <path stroke="#000" d="M2.5 15.5c-.552 0-1.052-.224-1.414-.586-.362-.362-.586-.862-.586-1.414s.224-1.052.586-1.414l4.414-6.586v-5h5v5l4.414 6.586c.362.362.586.862.586 1.414s-.224 1.052-.586 1.414c-.362.362-.862.586-1.414.586h-11z" class="iconic-beaker-glass iconic-property-stroke"
    fill="none" />
    <path stroke="#000" stroke-linecap="round" class="iconic-beaker-glass iconic-beaker-glass-rim iconic-property-stroke" fill="none" d="M4.5.5h7" />
  </g>
</svg>