<svg version="1.1" xmlns="http://www.w3.org/2000/svg" width="32" height="32" data-icon="beaker" class="iconic iconic-beaker iconic-size-md" viewBox="0 0 32 32">
  <g class="iconic-metadata">
    <title>Beaker</title>
  </g>
  <g class="iconic-container" data-width="32" data-height="32">
    <path d="M30.621 26.379l-4.871-6.379h-7.027c.172-.295.277-.634.277-1 0-1.105-.895-2-2-2s-2 .895-2 2c0 .366.105.705.277 1h-9.52l-4.379 6.379c-.543.543-.879 1.293-.879 2.121s.336 1.578.879 2.121c.543.543 1.293.879 2.121.879h25c.828 0 1.578-.336 2.121-.879.543-.543.879-1.293.879-2.121s-.336-1.578-.879-2.121zm-17.621-1.379c-.552 0-1-.448-1-1s.448-1 1-1 1 .448 1 1-.448 1-1 1zm2.5 3c-.276 0-.5-.224-.5-.5s.224-.5.5-.5.5.224.5.5-.224.5-.5.5z"
    class="iconic-beaker-fluid iconic-property-fill" />
    <path stroke="#000" stroke-linecap="round" class="iconic-beaker-measure-line iconic-beaker-measure-line-4 iconic-property-accent iconic-property-stroke" fill="none" d="M23.5 16.5h-3" />
    <path stroke="#000" stroke-linecap="round" class="iconic-beaker-measure-line iconic-beaker-measure-line-3 iconic-property-accent iconic-property-stroke" fill="none" d="M20.5 12.5h-2" />
    <path stroke="#000" stroke-linecap="round" class="iconic-beaker-measure-line iconic-beaker-measure-line-2 iconic-property-accent iconic-property-stroke" fill="none" d="M20.5 8.5h-2" />
    <path stroke="#000" stroke-linecap="round" class="iconic-beaker-measure-line iconic-beaker-measure-line-1 iconic-property-accent iconic-property-stroke" fill="none" d="M20.5 4.5h-2" />
    <path stroke="#000" stroke-width="2" d="M3.5 31c-.668 0-1.295-.26-1.768-.732s-.732-1.1-.732-1.768.332-1.245.732-1.768l9.268-14.268v-11.464h10v11.464l9.268 14.268c.401.525.732 1.099.732 1.767s-.26 1.295-.732 1.768-1.1.732-1.768.732h-25z" class="iconic-beaker-glass iconic-property-stroke"
    fill="none" />
    <path stroke="#000" stroke-width="2" stroke-linecap="round" class="iconic-beaker-glass iconic-beaker-glass-rim iconic-property-stroke" fill="none" d="M9.5 1h13" />
  </g>
</svg>