<svg version="1.1" xmlns="http://www.w3.org/2000/svg" width="128" height="128" data-icon="beaker" class="iconic iconic-beaker iconic-size-lg" viewBox="0 0 128 128">
  <g class="iconic-metadata">
    <title>Beaker</title>
  </g>
  <g class="iconic-container" data-width="128" data-height="128">
    <path d="M123.657 112.343l-21.346-30.343h-28.334c.633-.838 1.023-1.869 1.023-3 0-2.761-2.239-5-5-5s-5 2.239-5 5c0 1.131.39 2.162 1.023 3h-40.023l-21.657 30.343c-1.448 1.448-2.343 3.448-2.343 5.657s.895 4.209 2.343 5.657c1.448 1.448 3.448 2.343 5.657 2.343h108c2.209 0 4.209-.895 5.657-2.343 1.448-1.448 2.343-3.448 2.343-5.657s-.895-4.209-2.343-5.657zm-62.657-12.343c-1.657 0-3-1.343-3-3s1.343-3 3-3 3 1.343 3 3-1.343 3-3 3zm8 12c-.552 0-1-.448-1-1s.448-1 1-1 1 .448 1 1-.448 1-1 1z"
    class="iconic-beaker-fluid iconic-property-fill" />
    <circle cx="60" cy="68" r="2" class="iconic-beaker-fluid iconic-beaker-fluid-bubble iconic-property-fill" />
    <path stroke="#000" stroke-width="2" stroke-linecap="round" class="iconic-beaker-measure-line iconic-beaker-measure-line-7 iconic-property-accent iconic-property-stroke" fill="none" d="M95 73h-10" />
    <path stroke="#000" stroke-width="2" stroke-linecap="round" class="iconic-beaker-measure-line iconic-beaker-measure-line-6 iconic-property-accent iconic-property-stroke" fill="none" d="M88 63h-9" />
    <path stroke="#000" stroke-width="2" stroke-linecap="round" class="iconic-beaker-measure-line iconic-beaker-measure-line-5 iconic-property-accent iconic-property-stroke" fill="none" d="M81 53h-8" />
    <path stroke="#000" stroke-width="2" stroke-linecap="round" class="iconic-beaker-measure-line iconic-beaker-measure-line-4 iconic-property-accent iconic-property-stroke" fill="none" d="M81 43h-8" />
    <path stroke="#000" stroke-width="2" stroke-linecap="round" class="iconic-beaker-measure-line iconic-beaker-measure-line-3 iconic-property-accent iconic-property-stroke" fill="none" d="M81 33h-8" />
    <path stroke="#000" stroke-width="2" stroke-linecap="round" class="iconic-beaker-measure-line iconic-beaker-measure-line-2 iconic-property-accent iconic-property-stroke" fill="none" d="M81 23h-8" />
    <path stroke="#000" stroke-width="2" stroke-linecap="round" class="iconic-beaker-measure-line iconic-beaker-measure-line-1 iconic-property-accent iconic-property-stroke" fill="none" d="M81 13h-8" />
    <path stroke="#000" stroke-width="4" d="M46 2v50.686l-41.657 59.657c-1.27 1.657-2.343 3.448-2.343 5.657s.895 4.209 2.343 5.657 3.448 2.343 5.657 2.343h108c2.209 0 4.209-.895 5.657-2.343s2.343-3.448 2.343-5.657-1.075-4-2.343-5.657l-41.657-59.657v-50.686h-36z"
    class="iconic-beaker-glass iconic-property-stroke" fill="none" />
    <path stroke="#000" stroke-width="4" stroke-linecap="round" class="iconic-beaker-glass iconic-beaker-glass-rim iconic-property-stroke" fill="none" d="M42 2h44" />
  </g>
</svg>