<svg version="1.1" xmlns="http://www.w3.org/2000/svg" width="128" height="128" data-icon="bell" class="iconic iconic-bell iconic-size-lg" viewBox="0 0 128 128">
  <g class="iconic-metadata">
    <title>Bell</title>
  </g>
  <g class="iconic-container" data-width="112" data-height="128" transform="translate(8)">
    <circle cx="56" cy="6" r="6" class="iconic-bell-crown iconic-property-fill" />
    <path d="M100 82.033c-14.828-10.22-16-24.339-16-39.934v-4.098c0-15.464-12.536-28-28-28s-28 12.536-28 28v4.098c0 15.595-1.172 29.714-16 39.934-7.414 5.11-12 12.169-12 19.967v2h112v-2c0-7.798-4.586-14.857-12-19.967z" class="iconic-bell-body iconic-property-fill"
    />
    <path d="M41.174 106c-.751 1.854-1.174 3.877-1.174 6 0 8.836 7.163 16 16 16s16-7.163 16-16c0-2.123-.423-4.146-1.174-6h-29.652z" class="iconic-bell-clapper iconic-property-accent iconic-property-fill" />
  </g>
</svg>