<svg version="1.1" xmlns="http://www.w3.org/2000/svg" width="16" height="16" data-icon="bitcoin" class="iconic iconic-bitcoin iconic-size-sm" viewBox="0 0 16 16">
  <g class="iconic-metadata">
    <title>Bitcoin</title>
  </g>
  <g class="iconic-container" data-width="9" data-height="16" transform="translate(3)">
    <path stroke="#000" class="iconic-bitcoin-strike iconic-bitcoin-strike-top iconic-bitcoin-strike-left iconic-property-stroke" fill="none" d="M3.5 0v3.5" />
    <path stroke="#000" class="iconic-bitcoin-strike iconic-bitcoin-strike-top iconic-bitcoin-strike-right iconic-property-stroke" fill="none" d="M5.5 0v3.5" />
    <path stroke="#000" class="iconic-bitcoin-strike iconic-bitcoin-strike-bottom iconic-bitcoin-strike-left iconic-property-stroke" fill="none" d="M3.5 12.5v3.5" />
    <path stroke="#000" class="iconic-bitcoin-strike iconic-bitcoin-strike-bottom iconic-bitcoin-strike-right iconic-property-stroke" fill="none" d="M5.5 12.5v3.5" />
    <path d="M7.252 7.281c.461-.454.748-1.083.748-1.781 0-1.381-1.119-2.5-2.5-2.5h-5.5v1c.552 0 1 .448 1 1v6c0 .552-.448 1-1 1v1h6c1.657 0 3-1.343 3-3 0-1.209-.719-2.244-1.748-2.719zm-4.252-3.281h1.5c.828 0 1.5.672 1.5 1.5s-.672 1.5-1.5 1.5h-1.5v-3zm2 8h-2v-4h2c1.105 0 2 .895 2 2s-.895 2-2 2z"
    class="iconic-bitcoin-b iconic-property-fill" />
  </g>
</svg>