<svg version="1.1" xmlns="http://www.w3.org/2000/svg" width="128" height="128" data-icon="bold" class="iconic iconic-bold iconic-size-lg" viewBox="0 0 128 128">
  <g class="iconic-metadata">
    <title>Bold</title>
  </g>
  <g class="iconic-container" data-width="108" data-height="128" transform="translate(10)">
    <path d="M85.654 58.687c8.644-5.729 14.346-15.54 14.346-26.687 0-17.673-14.327-32-32-32h-68v6h12c3.314 0 6 2.686 6 6v104c0 3.314-2.686 6-6 6h-10v6h70c19.882 0 36-16.118 36-36 0-15.048-9.236-27.933-22.346-33.313zm-34.654-52.687c13.807 0 25 11.193 25 25s-11.193 25-25 25h-11v-50h11zm5 116h-16v-60h16c16.569 0 30 13.431 30 30s-13.431 30-30 30z"
    class="iconic-property-fill" />
  </g>
</svg>