<svg version="1.1" xmlns="http://www.w3.org/2000/svg" width="32" height="32" data-icon="bold" class="iconic iconic-bold iconic-size-md" viewBox="0 0 32 32">
  <g class="iconic-metadata">
    <title>Bold</title>
  </g>
  <g class="iconic-container" data-width="26" data-height="32" transform="translate(3)">
    <path d="M20.409 14.673c2.163-1.432 3.591-3.884 3.591-6.673 0-4.418-3.582-8-8-8h-16v2h2c1.105 0 2 .895 2 2v24c0 1.105-.895 2-2 2h-2v2h17c4.971 0 9-4.029 9-9 0-3.763-2.312-6.983-5.591-8.327zm-9.688-12.673h2.279c3.314 0 6 2.686 6 6s-2.686 6-6 6h-4v-12h1.721zm3.279 28h-5v-14h5c3.866 0 7 3.134 7 7s-3.134 7-7 7z"
    class="iconic-property-fill" />
  </g>
</svg>