<svg version="1.1" xmlns="http://www.w3.org/2000/svg" width="128" height="128" data-icon="book" class="iconic iconic-book iconic-size-lg" viewBox="0 0 128 128">
  <g class="iconic-metadata">
    <title>Book</title>
  </g>
  <g class="iconic-container" data-width="120" data-height="128" transform="translate(4)">
    <path d="M6 112c-3.309 0-6 2.691-6 6v4c0 3.314 2.686 6 6 6h114v-3.995h-112c-2.209 0-4-1.791-4-4s1.791-4 4-4h2v-.005h110v-4h-114z" class="iconic-book-bottom iconic-property-fill" />
    <path d="M6 109.666v-109.666h-1v.09c-2.837.477-5 2.938-5 5.91 0 .216.013.429.035.639-.011.121-.035.237-.035.361v105.726c1.467-1.667 3.61-2.726 6-2.726h.067c-.038-.105-.067-.215-.067-.334z" class="iconic-book-spine iconic-property-fill" />
    <path d="M119.983 2.828c-.091-1.575-1.384-2.828-2.982-2.828h-13v52l-6-6-6 6v-52h-84v109.666c0 .118-.03.228-.067.334h112.067v-107.155l-.017-.016z" class="iconic-book-cover iconic-property-fill" />
  </g>
</svg>