<svg version="1.1" xmlns="http://www.w3.org/2000/svg" width="16" height="16" data-icon="book" class="iconic iconic-book iconic-size-sm" viewBox="0 0 16 16">
  <g class="iconic-metadata">
    <title>Book</title>
  </g>
  <g class="iconic-container" data-width="15" data-height="16">
    <path d="M3 12h12v-2h-12c-1.654 0-3 1.346-3 3v.001c.001 1.656 1.343 2.999 3 2.999.009 0 .018-.003.027-.003.005 0 .009.003.014.003h11.959v-2h-12c-.552 0-1-.448-1-1s.448-1 1-1z" class="iconic-book-bottom iconic-property-fill" />
    <path d="M2 .184c-1.163.413-2 1.512-2 2.816v7.382c.521-.597 1.215-1.031 2-1.24v-8.959z" class="iconic-book-spine iconic-property-fill" />
    <path d="M14 0h-1v6l-2-2-2 2v-6h-5.957c-.005 0-.009.003-.014.003-.01 0-.019-.003-.028-.003v9h12v-8c0-.552-.448-1-1-1z" class="iconic-book-cover iconic-property-fill" />
  </g>
</svg>