<svg version="1.1" xmlns="http://www.w3.org/2000/svg" width="16" height="16" data-icon="box" class="iconic iconic-box iconic-size-sm" viewBox="0 0 16 16">
  <g class="iconic-metadata">
    <title>Box</title>
  </g>
  <defs>
    <clipPath id="iconic-size-sm-box-clip-0">
      <path d="M0 3v12h16v-12h-16zm10 3.75c0 .138-.113.25-.25.25h-3.5c-.138 0-.25-.112-.25-.25v-1.5c0-.138.112-.25.25-.25h3.5c.137 0 .25.112.25.25v1.5z" />
    </clipPath>
  </defs>
  <g class="iconic-container" data-width="16" data-height="15">
    <path clip-path="url(#iconic-size-sm-box-clip-0)" d="M15.75 15h-15.5c-.138 0-.25-.112-.25-.25v-12.5c0-.138.112-.25.25-.25h15.5c.138 0 .25.112.25.25v12.5c0 .138-.112.25-.25.25z" class="iconic-box-shell iconic-property-fill" />
    <path class="iconic-box-lid iconic-property-fill" d="M0 0h16v2h-16z" />
  </g>
</svg>