<svg version="1.1" xmlns="http://www.w3.org/2000/svg" width="32" height="32" data-icon="box" class="iconic iconic-box iconic-size-md" viewBox="0 0 32 32">
  <g class="iconic-metadata">
    <title>Box</title>
  </g>
  <defs>
    <clipPath id="iconic-size-md-box-clip-0">
      <path d="M1 4v26h30v-26h-30zm19 5.5c0 .275-.225.5-.5.5h-7c-.275 0-.5-.225-.5-.5v-2c0-.275.225-.5.5-.5h7c.275 0 .5.225.5.5v2z" />
    </clipPath>
  </defs>
  <g class="iconic-container" data-width="32" data-height="30" transform="translate(0 1)">
    <path clip-path="url(#iconic-size-md-box-clip-0)" d="M1 3.5v26c0 .276.224.5.5.5h29c.276 0 .5-.224.5-.5v-26c0-.276-.224-.5-.5-.5h-29c-.276 0-.5.224-.5.5z" class="iconic-box-shell iconic-property-fill" />
    <path stroke="#000" stroke-width="3" stroke-linecap="square" class="iconic-box-lid iconic-property-stroke" fill="none" d="M1.5 1.5h29" />
  </g>
</svg>