<svg version="1.1" xmlns="http://www.w3.org/2000/svg" width="16" height="16" data-icon="brain" class="iconic iconic-brain iconic-size-sm" viewBox="0 0 16 16">
  <g class="iconic-metadata">
    <title>Brain</title>
  </g>
  <g class="iconic-container" data-width="15" data-height="16">
    <path d="M6.5 8c-.276 0-.5-.224-.5-.5s.224-.5.5-.5h.5v-6c0-.552-.448-1-1-1-2.628 0-4.387 1.731-5.289 4.051.169.08.289.249.289.449 0 .276-.224.5-.5.5-.04 0-.076.014-.113.023-.257.949-.387 1.963-.387 2.977 0 .986.062 1.972.213 2.898.082.059.178.101.287.101.276 0 .5.224.5.5s-.224.5-.5.5c-.017 0-.033-.004-.05-.005.611 2.296 1.938 4.005 4.55 4.005 1.105 0 2-.895 2-2v-6h-.5zm-1-7c.276 0 .5.224.5.5s-.224.5-.5.5c-.827 0-1.5.673-1.5 1.5 0 .276-.224.5-.5.5s-.5-.224-.5-.5c0-1.378 1.122-2.5 2.5-2.5zm-3 7c-.276 0-.5-.224-.5-.5 0-1.378 1.122-2.5 2.5-2.5.276 0 .5-.224.5-.5s.224-.5.5-.5.5.224.5.5c0 .827-.673 1.5-1.5 1.5s-1.5.673-1.5 1.5c0 .276-.224.5-.5.5zm2 7c-.827 0-1.5-.673-1.5-1.5 0-.276.224-.5.5-.5s.5.224.5.5.224.5.5.5.5-.224.5-.5.224-.5.5-.5.5.224.5.5c0 .827-.673 1.5-1.5 1.5zm0-3c-.276 0-.5-.224-.5-.5s.224-.5.5-.5.5-.224.5-.5-.224-.5-.5-.5-.5-.224-.5-.5.224-.5.5-.5c.827 0 1.5.673 1.5 1.5s-.673 1.5-1.5 1.5z"
    class="iconic-brain-hemisphere iconic-brain-hemisphere-left iconic-property-fill" />
    <path d="M14.5 12c-.276 0-.5-.224-.5-.5s.224-.5.5-.5c.109 0 .204-.042.287-.102.152-.926.213-1.912.213-2.899 0-1.026-.134-2.052-.397-3.01-.035.002-.068.01-.103.01-.276 0-.5-.224-.5-.5 0-.2.119-.369.289-.45-.901-2.319-2.66-4.05-5.289-4.05-.552 0-1 .448-1 1v6h.5c.276 0 .5.224.5.5s-.224.5-.5.5h-.5v6c0 1.105.895 2 2 2 2.611 0 3.939-1.709 4.55-4.005-.017 0-.033.005-.05.005zm-5-11c1.378 0 2.5 1.122 2.5 2.5 0 .276-.224.5-.5.5s-.5-.224-.5-.5c0-.827-.673-1.5-1.5-1.5-.276 0-.5-.224-.5-.5s.224-.5.5-.5zm1 8c.276 0 .5.224.5.5s-.224.5-.5.5-.5.224-.5.5.224.5.5.5.5.224.5.5-.224.5-.5.5c-.827 0-1.5-.673-1.5-1.5s.673-1.5 1.5-1.5zm0 6c-.827 0-1.5-.673-1.5-1.5 0-.276.224-.5.5-.5s.5.224.5.5.224.5.5.5.5-.224.5-.5.224-.5.5-.5.5.224.5.5c0 .827-.673 1.5-1.5 1.5zm2-7c-.276 0-.5-.224-.5-.5 0-.827-.673-1.5-1.5-1.5s-1.5-.673-1.5-1.5c0-.276.224-.5.5-.5s.5.224.5.5.224.5.5.5c1.378 0 2.5 1.122 2.5 2.5 0 .276-.224.5-.5.5z"
    class="iconic-brain-hemisphere iconic-brain-hemisphere-right iconic-property-fill" />
  </g>
</svg>