<svg version="1.1" xmlns="http://www.w3.org/2000/svg" width="128" height="128" data-icon="brain" class="iconic iconic-brain iconic-size-lg" viewBox="0 0 128 128">
  <g class="iconic-metadata">
    <title>Brain</title>
  </g>
  <g class="iconic-container" data-width="122" data-height="128" transform="translate(3)">
    <path d="M55 98c-.552 0-1-.448-1-1s.448-1 1-1c2.757 0 5-2.243 5-5v-18c0-3.86-3.14-7-7-7h-6c-.552 0-1-.448-1-1s.448-1 1-1h6c3.86 0 7-3.14 7-7v-24c0-2.757-2.243-5-5-5-.552 0-1-.448-1-1s.448-1 1-1c2.757 0 5-2.243 5-5v-13c0-4.25-3.317-7.716-7.502-7.975l.002-.025c-.104 0-.205.009-.309.01-.064-.001-.127-.01-.191-.01-.274 0-.545.014-.813.041-24.066.668-41.416 19.538-48.123 42.593.306 1.904 1.947 3.366 3.936 3.366.552 0 1 .448 1 1s-.448 1-1 1c-2.444 0-4.641 1.247-5.916 3.283-.707 4.189-1.084 8.451-1.084 12.717 0 6.159.471 12.314 1.448 18.243.911 2.255 3.097 3.757 5.552 3.757.552 0 1 .448 1 1s-.448 1-1 1c-1.743 0-3.214 1.128-3.76 2.687 1.656 6.298 3.979 12.172 7.038 17.313h.723c1.654 0 3-1.346 3-3v-4c0-2.757 2.243-5 5-5s5 2.243 5 5c0 .552-.448 1-1 1s-1-.448-1-1c0-1.654-1.346-3-3-3s-3 1.346-3 3v4c0 2.588-1.985 4.699-4.508 4.95 3.574 5.441 8.052 9.937 13.518 13.08 1.898.628 3.899.973 5.956.976.012-.001.021-.007.033-.007 1.654 0 3-1.346 3-3v-10c0-.552.448-1 1-1s1 .448 1 1v10c0 2.579-1.973 4.678-4.484 4.941 3.548 1.186 7.419 1.896 11.652 2.017.277.014.551.042.831.042.065 0 .128-.009.192-.01.104.001.203.01.308.01l.002-.025c8.602-.267 15.498-7.308 15.498-15.975v-9c0-2.757-2.243-5-5-5zm-6-18c1.654 0 3-1.346 3-3s-1.346-3-3-3c-.552 0-1-.448-1-1s.448-1 1-1c2.757 0 5 2.243 5 5s-2.243 5-5 5h-3c-.552 0-1-.448-1-1s.448-1 1-1h3zm0-74c2.757 0 5 2.243 5 5 0 .552-.448 1-1 1s-1-.448-1-1c0-1.654-1.346-3-3-3s-3 1.346-3 3c0 .552-.448 1-1 1s-1-.448-1-1c0-2.757 2.243-5 5-5zm0 14c1.654 0 3-1.346 3-3 0-.552.448-1 1-1s1 .448 1 1c0 2.757-2.243 5-5 5s-5 2.243-5 5 2.243 5 5 5 5 2.243 5 5c0 .552-.448 1-1 1s-1-.448-1-1c0-1.654-1.346-3-3-3-3.86 0-7-3.14-7-7s3.14-7 7-7zm5 27c0 .552-.448 1-1 1s-1-.448-1-1c0-1.654-1.346-3-3-3-.552 0-1-.448-1-1s.448-1 1-1c2.757 0 5 2.243 5 5zm-43-3c-.552 0-1-.448-1-1s.448-1 1-1c2.757 0 5 2.243 5 5s-2.243 5-5 5c-.552 0-1-.448-1-1s.448-1 1-1c1.654 0 3-1.346 3-3s-1.346-3-3-3zm0 48c-.552 0-1-.448-1-1s.448-1 1-1c1.654 0 3-1.346 3-3s-1.346-3-3-3c-2.757 0-5-2.243-5-5s2.243-5 5-5c.552 0 1 .448 1 1s-.448 1-1 1c-1.654 0-3 1.346-3 3s1.346 3 3 3c2.757 0 5 2.243 5 5s-2.243 5-5 5zm6-16c-.552 0-1-.448-1-1 0-1.654-1.346-3-3-3-.552 0-1-.448-1-1s.448-1 1-1c2.757 0 5 2.243 5 5 0 .552-.448 1-1 1zm-6-16c-.552 0-1-.448-1-1s.448-1 1-1c6.065 0 11-4.935 11-11 0-.552.448-1 1-1s1 .448 1 1c0 7.169-5.831 13-13 13zm20-30c-.552 0-1-.448-1-1 0-1.654-1.346-3-3-3s-3 1.346-3 3c0 .552-.448 1-1 1s-1-.448-1-1c0-2.757 2.243-5 5-5s5 2.243 5 5c0 .552-.448 1-1 1zm10 26h8c1.654 0 3-1.346 3-3 0-.552.448-1 1-1s1 .448 1 1c0 2.757-2.243 5-5 5h-8c-3.86 0-7 3.14-7 7s3.14 7 7 7c.552 0 1 .448 1 1s-.448 1-1 1c-4.962 0-9-4.038-9-9s4.038-9 9-9zm-8 29c0-2.757 2.243-5 5-5h3c.552 0 1 .448 1 1s-.448 1-1 1h-3c-1.654 0-3 1.346-3 3s1.346 3 3 3c.552 0 1 .448 1 1s-.448 1-1 1c-2.757 0-5-2.243-5-5zm20 7c-2.757 0-5 2.243-5 5v10c0 2.757-2.243 5-5 5s-5-2.243-5-5c0-1.654-1.346-3-3-3-.552 0-1-.448-1-1s.448-1 1-1c2.757 0 5 2.243 5 5 0 1.654 1.346 3 3 3s3-1.346 3-3v-10c0-3.86 3.14-7 7-7 .552 0 1 .448 1 1s-.448 1-1 1z"
    class="iconic-brain-hemisphere iconic-brain-hemisphere-left iconic-property-fill" />
    <path d="M86 121v-10c0-.552.448-1 1-1s1 .448 1 1v10c0 1.654 1.346 3 3 3 .012 0 .021.006.033.007 2.057-.004 4.058-.348 5.957-.976 5.467-3.143 9.944-7.639 13.518-13.08-2.523-.251-4.508-2.362-4.508-4.95v-4c0-1.654-1.346-3-3-3s-3 1.346-3 3c0 .552-.448 1-1 1s-1-.448-1-1c0-2.757 2.243-5 5-5s5 2.243 5 5v4c0 1.654 1.346 3 3 3h.723c3.059-5.141 5.382-11.015 7.038-17.313-.547-1.559-2.017-2.687-3.76-2.687-.552 0-1-.448-1-1s.448-1 1-1c2.455 0 4.641-1.501 5.552-3.757.977-5.929 1.448-12.084 1.448-18.243 0-4.265-.376-8.528-1.084-12.717-1.275-2.036-3.472-3.283-5.916-3.283-.552 0-1-.448-1-1s.448-1 1-1c1.988 0 3.63-1.463 3.936-3.366-6.707-23.055-24.057-41.925-48.123-42.593-.267-.027-.538-.041-.813-.041-.065 0-.127.008-.191.01-.104-.001-.205-.01-.309-.01l.002.025c-4.185.259-7.502 3.725-7.502 7.975v13c0 2.757 2.243 5 5 5 .552 0 1 .448 1 1s-.448 1-1 1c-2.757 0-5 2.243-5 5v24c0 3.86 3.14 7 7 7h6c.552 0 1 .448 1 1s-.448 1-1 1h-6c-3.86 0-7 3.14-7 7v18c0 2.757 2.243 5 5 5 .552 0 1 .448 1 1s-.448 1-1 1c-2.757 0-5 2.243-5 5v9c0 8.667 6.896 15.707 15.498 15.975l.002.025c.105 0 .204-.009.308-.01.065.001.127.01.192.01.281 0 .554-.028.831-.042 4.234-.121 8.104-.831 11.652-2.017-2.511-.263-4.484-2.362-4.484-4.941zm-2-31c-.552 0-1-.448-1-1s.448-1 1-1c1.654 0 3-1.346 3-3s-1.346-3-3-3h-3c-.552 0-1-.448-1-1s.448-1 1-1h3c2.757 0 5 2.243 5 5s-2.243 5-5 5zm21-14c-.552 0-1-.448-1-1 0-2.757 2.243-5 5-5 .552 0 1 .448 1 1s-.448 1-1 1c-1.654 0-3 1.346-3 3 0 .552-.448 1-1 1zm11 3c0 2.757-2.243 5-5 5-1.654 0-3 1.346-3 3s1.346 3 3 3c.552 0 1 .448 1 1s-.448 1-1 1c-2.757 0-5-2.243-5-5s2.243-5 5-5c1.654 0 3-1.346 3-3s-1.346-3-3-3c-.552 0-1-.448-1-1s.448-1 1-1c2.757 0 5 2.243 5 5zm-5-37c.552 0 1 .448 1 1s-.448 1-1 1c-1.654 0-3 1.346-3 3s1.346 3 3 3c.552 0 1 .448 1 1s-.448 1-1 1c-2.757 0-5-2.243-5-5s2.243-5 5-5zm0 16c.552 0 1 .448 1 1s-.448 1-1 1c-7.168 0-13-5.832-13-13 0-.552.448-1 1-1s1 .448 1 1c0 6.065 4.935 11 11 11zm-16-34c2.757 0 5 2.243 5 5 0 .552-.448 1-1 1s-1-.448-1-1c0-1.654-1.346-3-3-3s-3 1.346-3 3c0 .552-.448 1-1 1s-1-.448-1-1c0-2.757 2.243-5 5-5zm-22-18c2.757 0 5 2.243 5 5 0 .552-.448 1-1 1s-1-.448-1-1c0-1.654-1.346-3-3-3s-3 1.346-3 3c0 .552-.448 1-1 1s-1-.448-1-1c0-2.757 2.243-5 5-5zm0 26c2.757 0 5-2.243 5-5s-2.243-5-5-5-5-2.243-5-5c0-.552.448-1 1-1s1 .448 1 1c0 1.654 1.346 3 3 3 3.86 0 7 3.14 7 7s-3.14 7-7 7c-1.654 0-3 1.346-3 3 0 .552-.448 1-1 1s-1-.448-1-1c0-2.757 2.243-5 5-5zm0 10c.552 0 1 .448 1 1s-.448 1-1 1c-1.654 0-3 1.346-3 3 0 .552-.448 1-1 1s-1-.448-1-1c0-2.757 2.243-5 5-5zm0 16c-2.757 0-5-2.243-5-5 0-.552.448-1 1-1s1 .448 1 1c0 1.654 1.346 3 3 3h8c4.962 0 9 4.038 9 9s-4.038 9-9 9c-.552 0-1-.448-1-1s.448-1 1-1c3.86 0 7-3.14 7-7s-3.14-7-7-7h-8zm0 14c.552 0 1 .448 1 1s-.448 1-1 1c-1.654 0-3 1.346-3 3s1.346 3 3 3h3c.552 0 1 .448 1 1s-.448 1-1 1h-3c-2.757 0-5-2.243-5-5s2.243-5 5-5zm11 35c0 2.757-2.243 5-5 5s-5-2.243-5-5v-10c0-2.757-2.243-5-5-5-.552 0-1-.448-1-1s.448-1 1-1c3.86 0 7 3.14 7 7v10c0 1.654 1.346 3 3 3s3-1.346 3-3c0-2.757 2.243-5 5-5 .552 0 1 .448 1 1s-.448 1-1 1c-1.654 0-3 1.346-3 3z"
    class="iconic-brain-hemisphere iconic-brain-hemisphere-right iconic-property-fill" />
  </g>
</svg>