<svg version="1.1" xmlns="http://www.w3.org/2000/svg" width="32" height="32" data-icon="brain" class="iconic iconic-brain iconic-size-md" viewBox="0 0 32 32">
  <g class="iconic-metadata">
    <title>Brain</title>
  </g>
  <g class="iconic-container" data-width="31" data-height="32">
    <path d="M13.5 17h-3c-.276 0-.5-.224-.5-.5s.224-.5.5-.5h3c.827 0 1.5-.673 1.5-1.5v-6c0-.827-.673-1.5-1.5-1.5-.276 0-.5-.224-.5-.5s.224-.5.5-.5c.827 0 1.5-.673 1.5-1.5v-2.5c0-1.105-.895-2-2-2-6.229 0-10.626 4.855-12.273 10.779.227.137.489.221.773.221.276 0 .5.224.5.5s-.224.5-.5.5c-.486 0-.914.236-1.188.595-.199 1.121-.312 2.262-.312 3.405 0 1.492.105 2.983.327 4.423.275.349.696.577 1.173.577.276 0 .5.224.5.5s-.224.5-.5.5c-.3 0-.579.091-.814.243 1.278 5.449 4.447 9.757 10.314 9.757 2.209 0 4-1.791 4-4v-9.5c0-.827-.673-1.5-1.5-1.5zm-2-14c.276 0 .5-.224.5-.5s.224-.5.5-.5.5.224.5.5c0 .827-.673 1.5-1.5 1.5-1.378 0-2.5 1.122-2.5 2.5s1.122 2.5 2.5 2.5c.276 0 .5.224.5.5s-.224.5-.5.5c-1.93 0-3.5-1.57-3.5-3.5s1.57-3.5 3.5-3.5zm-3 10h3c.827 0 1.5-.673 1.5-1.5 0-.276.224-.5.5-.5s.5.224.5.5c0 1.378-1.122 2.5-2.5 2.5h-3c-1.378 0-2.5 1.122-2.5 2.5s1.122 2.5 2.5 2.5c.276 0 .5.224.5.5s-.224.5-.5.5c-1.93 0-3.5-1.57-3.5-3.5s1.57-3.5 3.5-3.5zm4 15c-.276 0-.5-.224-.5-.5s-.224-.5-.5-.5-.5.224-.5.5c0 1.378-1.122 2.5-2.5 2.5s-2.5-1.122-2.5-2.5c0-.276.224-.5.5-.5s.5.224.5.5c0 .827.673 1.5 1.5 1.5s1.5-.673 1.5-1.5.673-1.5 1.5-1.5 1.5.673 1.5 1.5c0 .276-.224.5-.5.5zm-1-4h-1.5c-.551 0-1 .449-1 1v1.5c0 .276-.224.5-.5.5s-.5-.224-.5-.5v-1.5c0-1.103.897-2 2-2h1.5c.827 0 1.5-.673 1.5-1.5s-.673-1.5-1.5-1.5c-.276 0-.5-.224-.5-.5s.224-.5.5-.5c1.378 0 2.5 1.122 2.5 2.5s-1.122 2.5-2.5 2.5z"
    class="iconic-brain-hemisphere iconic-brain-hemisphere-left iconic-property-fill" />
    <path d="M29.5 22c-.276 0-.5-.224-.5-.5s.224-.5.5-.5c.477 0 .899-.229 1.173-.577.222-1.44.326-2.931.326-4.423 0-1.144-.114-2.285-.312-3.405-.274-.359-.702-.595-1.188-.595-.276 0-.5-.224-.5-.5s.224-.5.5-.5c.284 0 .547-.084.773-.221-1.647-5.924-6.044-10.779-12.273-10.779-1.105 0-2 .895-2 2v2.5c0 .827.673 1.5 1.5 1.5.276 0 .5.224.5.5s-.224.5-.5.5c-.827 0-1.5.673-1.5 1.5v6c0 .827.673 1.5 1.5 1.5h3c.276 0 .5.224.5.5s-.224.5-.5.5h-3c-.827 0-1.5.673-1.5 1.5v9.5c0 2.209 1.791 4 4 4 5.867 0 9.036-4.307 10.314-9.757-.235-.153-.514-.243-.814-.243zm-11-20c.276 0 .5.224.5.5s.224.5.5.5c1.93 0 3.5 1.57 3.5 3.5s-1.57 3.5-3.5 3.5c-.276 0-.5-.224-.5-.5s.224-.5.5-.5c1.378 0 2.5-1.122 2.5-2.5s-1.122-2.5-2.5-2.5c-.827 0-1.5-.673-1.5-1.5 0-.276.224-.5.5-.5zm-1.5 19.5c0-1.378 1.122-2.5 2.5-2.5.276 0 .5.224.5.5s-.224.5-.5.5c-.827 0-1.5.673-1.5 1.5s.673 1.5 1.5 1.5h1.5c1.103 0 2 .897 2 2v1.5c0 .276-.224.5-.5.5s-.5-.224-.5-.5v-1.5c0-.551-.449-1-1-1h-1.5c-1.378 0-2.5-1.122-2.5-2.5zm5.5 8.5c-1.378 0-2.5-1.122-2.5-2.5 0-.276-.224-.5-.5-.5s-.5.224-.5.5-.224.5-.5.5-.5-.224-.5-.5c0-.827.673-1.5 1.5-1.5s1.5.673 1.5 1.5.673 1.5 1.5 1.5 1.5-.673 1.5-1.5c0-.276.224-.5.5-.5s.5.224.5.5c0 1.378-1.122 2.5-2.5 2.5zm0-10c-.276 0-.5-.224-.5-.5s.224-.5.5-.5c1.378 0 2.5-1.122 2.5-2.5s-1.122-2.5-2.5-2.5h-3c-1.378 0-2.5-1.122-2.5-2.5 0-.276.224-.5.5-.5s.5.224.5.5c0 .827.673 1.5 1.5 1.5h3c1.93 0 3.5 1.57 3.5 3.5s-1.57 3.5-3.5 3.5z"
    class="iconic-brain-hemisphere iconic-brain-hemisphere-right iconic-property-fill" />
  </g>
</svg>