<svg version="1.1" xmlns="http://www.w3.org/2000/svg" width="16" height="16" data-icon="browser-viewport" class="iconic iconic-browser-viewport iconic-size-sm" viewBox="0 0 16 16">
  <g class="iconic-metadata">
    <title>Browser Viewport</title>
  </g>
  <defs>
    <clipPath id="iconic-size-sm-browser-viewport-clip-0">
      <path d="M0 2.5v11.5h16v-11.5h-16zm15 10.5h-14v-10h14v10z" />
    </clipPath>
    <clipPath id="iconic-size-sm-browser-viewport-clip-1">
      <path d="M0 0v3h16v-3h-16zm1.5 2c-.276 0-.5-.224-.5-.5s.224-.5.5-.5.5.224.5.5-.224.5-.5.5zm2 0c-.276 0-.5-.224-.5-.5s.224-.5.5-.5.5.224.5.5-.224.5-.5.5zm10 0h-8c-.276 0-.5-.224-.5-.5s.224-.5.5-.5h8c.276 0 .5.224.5.5s-.224.5-.5.5z" />
    </clipPath>
  </defs>
  <g class="iconic-container" data-width="16" data-height="14" transform="translate(0 1)">
    <path stroke="#000" class="iconic-browser-viewport-bound iconic-browser-viewport-bound-top iconic-browser-viewport-bound-left iconic-browser-viewport-bound-top-left iconic-property-accent iconic-property-stroke" fill="none" d="M2.5 7v-2.5h2.5" />
    <path stroke="#000" class="iconic-browser-viewport-bound iconic-browser-viewport-bound-bottom iconic-browser-viewport-bound-right iconic-browser-viewport-bound-bottom-right iconic-property-accent iconic-property-stroke" fill="none" d="M13.5 9v2.5h-2.5"
    />
    <path stroke="#000" class="iconic-browser-viewport-bound iconic-browser-viewport-bound-bottom iconic-browser-viewport-bound-left iconic-browser-viewport-bound-bottom-left iconic-property-accent iconic-property-stroke" fill="none" d="M5 11.5h-2.5v-2.5"
    />
    <path stroke="#000" class="iconic-browser-viewport-bound iconic-browser-viewport-bound-top iconic-browser-viewport-bound-right iconic-browser-viewport-bound-top-right iconic-property-accent iconic-property-stroke" fill="none" d="M11 4.5h2.5v2.5" />
    <path clip-path="url(#iconic-size-sm-browser-viewport-clip-0)" class="iconic-browser-viewport-border iconic-property-fill" d="M0 2.5h16v11.5h-16z" />
    <path clip-path="url(#iconic-size-sm-browser-viewport-clip-1)" class="iconic-browser-viewport-top iconic-property-fill" d="M0 0h16v3h-16z" />
  </g>
</svg>