<svg version="1.1" xmlns="http://www.w3.org/2000/svg" data-icon="browser-type-internetexplorer" width="16" height="16" class="iconic iconic-browser-type iconic-size-sm iconic-browser-type-internetexplorer" viewBox="0 0 16 16">
  <g>
    <title>Browser Type Internetexplorer</title>
  </g>
  <!-- Chrome -->
  <!-- Firefox -->
  <!-- IE -->
  <!-- Safari -->
  <!-- Chrome -->
  <!-- Firefox -->
  <!-- IE -->
  <!-- Safari -->
  <!-- Chrome -->
  <!-- Firefox -->
  <!-- IE -->
  <g data-width="16" data-height="16" class="iconic-container iconic-browser-type-internetexplorer" transform="scale(1 1 ) translate(0 ) ">
    <path d="M16 8.224c0-1.265-.327-2.453-.9-3.486 2.444-5.532-2.619-4.722-2.901-4.667-1.073.21-2.065.547-2.981.974-1.43-.08-2.869.27-4.098 1.006-1.158.694-2.111 1.715-2.723 2.918-.264.52-.465 1.072-.595 1.641 1.801-2.02 3.061-2.835 3.816-3.161-1.384 1.237-2.568 2.697-3.557 4.265-.439.696-.842 1.414-1.201 2.154-.118.244-.258.441-.458 1.042-2.047 7.31 4.337 4.223 5.228 3.763 1.476.729 3.192.926 4.796.558 1.355-.311 2.605-1.024 3.569-2.027.705-.733 1.251-1.615 1.592-2.573h-3.778c-.756 1.277-2.357 1.843-3.77 1.468-1.284-.341-2.312-1.454-2.378-2.808-.002-.047-.003-.094-.003-.141h10.283c.039-.303.059-.612.059-.926zm-1.343-7.075c.619.418 1.116 1.074.263 3.284-.818-1.315-2.049-2.347-3.511-2.914.665-.321 2.313-1.001 3.248-.37.619.418-.935-.631 0 0zm-13.158 13.51c-.504-.517-.593-1.777.519-4.072.562 1.615 1.682 2.968 3.131 3.826-.72.396-2.633 1.289-3.65.246-.504-.517 1.017 1.043 0 0zm4.142-7.475c.048-1.359 1.061-2.496 2.352-2.845 1.328-.359 2.821.126 3.615 1.265.323.464.511 1.015.531 1.58h-6.498z"
    class="iconic-property-fill"></path>
  </g>
  <!-- Safari -->
</svg>