<svg version="1.1" xmlns="http://www.w3.org/2000/svg" data-icon="browser-type-safari" width="128" height="128" class="iconic iconic-browser-type iconic-size-lg iconic-browser-type-safari" viewBox="0 0 128 128">
  <g>
    <title>Browser Type Safari</title>
  </g>
  <!-- Chrome -->
  <!-- Firefox -->
  <!-- IE -->
  <!-- Safari -->
  <g data-width="128" data-height="128" class="iconic-container iconic-browser-type-safari" transform="translate(0 ) scale(1 1 ) ">
    <path d="M64 4c33.084 0 60 26.916 60 60s-26.916 60-60 60-60-26.916-60-60 26.916-60 60-60m0-4c-35.346 0-64 28.654-64 64s28.654 64 64 64 64-28.654 64-64-28.654-64-64-64z" class="iconic-browser-type-safari-border iconic-property-fill"></path>
    <path class="iconic-browser-type-safari-needle iconic-property-fill" d="M103.779 24.044l-32.177 47.028-47.381 32.884 32.884-46.674z"></path>
    <path stroke="#000" stroke-width="1.414" class="iconic-browser-type-safari-tick iconic-browser-type-safari-tick-large iconic-property-stroke" d="M64 7.484v11.551m-11.026-10.465l2.254 11.329m-12.856-8.113l4.421 10.672m-14.191-5.449l6.417 9.604m-14.982-2.576l8.168 8.168m-15.196.397l9.604 6.417m-14.827 3.353l10.672 4.421m-13.888 6.181l11.329 2.254m-12.415 8.772h11.551m-10.465 11.026l11.329-2.254m-8.113 12.856l10.672-4.421m-5.449 14.191l9.604-6.417m5.989 22.01l6.417-9.604m3.353 14.827l4.421-10.672m6.181 13.888l2.254-11.329m8.772 12.415v-11.551m11.026 10.465l-2.254-11.329m12.856 8.113l-4.421-10.672m14.191 5.449l-6.417-9.604m14.982 2.576l-8.168-8.168m15.196-.397l-9.604-6.417m14.827-3.353l-10.672-4.421m13.888-6.181l-11.329-2.254m12.415-8.772h-11.551m10.465-11.026l-11.329 2.254m8.113-12.856l-10.672 4.421m5.449-14.191l-9.604 6.417m-5.989-22.01l-6.417 9.604m-3.353-14.827l-4.421 10.672m-6.181-13.888l-2.254 11.329"
    fill="none"></path>
    <path stroke="#000" stroke-width="1.414" class="iconic-browser-type-safari-tick iconic-browser-type-safari-tick-small iconic-property-stroke" d="M58.461 7.756l.577 5.865m-11.444-3.703l1.711 5.639m-11.946-1.399l2.778 5.197m-11.99.958l3.738 4.555m-11.572 3.279l4.555 3.738m-10.71 5.474l5.197 2.778m-9.437 7.457l5.639 1.711m-7.801 9.156l5.865.577m-5.865 10.502l5.865-.578m-3.703 11.444l5.639-1.711m-1.399 11.946l5.197-2.778m.958 11.99l4.555-3.738m3.279 11.572l3.738-4.555m5.474 10.71l2.778-5.197m7.457 9.437l1.711-5.639m9.156 7.8l.577-5.864m10.502 5.864l-.578-5.864m11.444 3.703l-1.711-5.639m11.946 1.399l-2.778-5.197m11.99-.958l-3.738-4.555m11.572-3.279l-4.555-3.738m10.71-5.474l-5.197-2.778m9.437-7.457l-5.639-1.711m7.8-9.155l-5.864-.578m5.864-10.501l-5.864.577m3.703-11.444l-5.639 1.711m1.399-11.946l-5.197 2.778m-.958-11.99l-4.555 3.738m-3.279-11.572l-3.738 4.555m-5.474-10.71l-2.778 5.197m-7.457-9.437l-1.711 5.639m-9.155-7.801l-.578 5.865"
    fill="none"></path>
  </g>
  <!-- Chrome -->
  <!-- Firefox -->
  <!-- IE -->
  <!-- Safari -->
  <!-- Chrome -->
  <!-- Firefox -->
  <!-- IE -->
  <!-- Safari -->
</svg>