<svg version="1.1" xmlns="http://www.w3.org/2000/svg" data-icon="browser-type-firefox" width="16" height="16" class="iconic iconic-browser-type iconic-size-sm iconic-browser-type-firefox" viewBox="0 0 16 16">
  <g>
    <title>Browser Type Firefox</title>
  </g>
  <!-- Chrome -->
  <!-- Firefox -->
  <!-- IE -->
  <!-- Safari -->
  <!-- Chrome -->
  <!-- Firefox -->
  <!-- IE -->
  <!-- Safari -->
  <!-- Chrome -->
  <!-- Firefox -->
  <g data-width="16" data-height="16" class="iconic-container iconic-browser-type-firefox" transform="scale(1 1 ) translate(0 ) ">
    <path d="M7.975.5c3.825 0 6.936 3.114 6.936 6.941 0 3.828-3.112 6.942-6.936 6.942-3.825 0-6.937-3.114-6.937-6.942 0-3.827 3.112-6.941 6.937-6.941m0-.5c-4.101 0-7.437 3.338-7.437 7.441s3.336 7.442 7.437 7.442c4.1 0 7.436-3.338 7.436-7.442 0-4.103-3.336-7.441-7.436-7.441z"
    class="iconic-browser-type-firefox-border iconic-property-fill"></path>
    <path d="M13.784 11.987c.066-.125.136-.241.208-.351-.008.017-.017.034-.024.049.118-.187.252-.371.388-.549.299-.376.594-.689.788-1.034.04-.071.083-.154.128-.248.428-.835.885-2.281.674-3.661-.035-.246-.091-.489-.174-.725.004.014.007.029.011.043-.006-.017-.009-.026-.009-.026s-.131.395-.306.986c.091-.857.026-1.75-.273-2.576-.132-.363-.292-.671-.452-.922-.234-.397-.498-.702-.706-.844.024.018.047.039.07.062-.044-.041-.07-.062-.07-.062.011.013.022.025.033.038-.028-.026-.045-.04-.045-.04s.017.089.045.247c-.434-.682-1.094-1.002-1.094-1.002s.033.185.083.58c-.629-.502-1.387-.914-2.29-1.163 1.474.972 2.025 1.798 2.373 2.533-.394-.403-1.069-.824-1.525-.859.683.508 1.827 2.016 1.705 4.3-.175-.368-.496-.944-.724-1.145.245 2.243.03 2.725-.118 3.321-.033-.274-.131-.479-.188-.605 0 0-.026.701-.482 1.7-.345.757-.701.99-.859.964-.043-.003-.066-.021-.065-.023.011-.098.021-.201-.005-.266 0 0-.145.05-.239.182-.038.053-.087.105-.151.154-.011.009.104-.147.095-.14-.057.046-.117.1-.178.163-.224.232-.425.489-.53.416.098-.03.176-.154.197-.276-.088.061-.311.228-.81.302-.204.03-1.074.188-2.23-.39.169-.019.421-.079.613.035-.192-.21-.657-.166-.99-.272-.29-.092-.669-.499-.887-.705.89.218 1.835.061 2.381-.313.552-.378.879-.653 1.173-.588.293.066.488-.229.26-.49-.227-.262-.779-.613-1.53-.425-.575.144-1.065.605-1.872.285-.049-.019-.099-.042-.151-.067-.051-.026.169.031.114-.002-.155-.057-.437-.187-.507-.236-.011-.009.117.023.104.015-.766-.453-.716-.816-.716-1.04 0-.179.109-.422.314-.536.111.039.179.075.179.075s-.051-.078-.083-.116c.007-.003.015-.005.023-.007.09.031.293.105.396.157.139.07.186.141.186.141s.033-.021-.002-.092c-.014-.03-.063-.116-.201-.2.003 0 .005 0 .007-.001.072.029.149.065.234.113.026-.123.079-.25.044-.473-.025-.157-.022-.197-.061-.254-.034-.049.009-.07.061-.026-.011-.033-.026-.067-.043-.1.002-.001.003-.003.004-.007.239-.289 1.191-.732 1.405-.957.025-.027.046-.05.064-.07-.001.003-.002.007-.003.01.125-.094.179-.186.233-.319.056-.136.119-.455-.063-.522-.15-.036-.277-.062-.519-.057-.187-.011-.436-.016-.77-.013-.336.003-.555-.193-.687-.379-.027-.041-.051-.079-.072-.114-.029-.052-.049-.098-.064-.135.147-.533.441-.995.9-1.37.028-.023-.109.016-.083-.009.031-.029.225-.122.262-.142.047-.027-.212-.096-.432-.05-.222.046-.265.072-.38.131.046-.048.197-.124.16-.116-.241.054-.525.212-.767.383-.002-.022 0-.04.005-.074-.114.059-.39.271-.46.434 0-.035 0-.053-.004-.092-.079.072-.154.157-.222.251-.001.001-.002.002-.003.004-.718-.178-1.328-.135-1.837.028-.17-.138-.428-.383-.624-.7-.002-.003-.003-.004-.005-.005-.014-.012-.017.052-.029.044-.001-.001-.002-.003-.003-.005-.121-.218-.225-.59-.234-.856 0 0-.001.001-.001.001s-.198.115-.328.523c-.023.072-.039.115-.055.154 0 .001 0 .001-.001 0-.002-.009.01-.125.005-.12 0-.001-.001-.001-.001 0-.025.051-.095.131-.118.224-.017.069-.045.111-.056.197-.001.002-.001.003-.002.005-.002-.021-.003-.086-.007-.086-.001-.001-.002-.001-.002.001-.046.121-.089.258-.127.407-.008.031-.016.063-.023.096-.001.006-.003.011-.004.017-.001.005-.002.011-.003.016-.03.139-.054.29-.071.453-.025.23-.036.496-.014.798 0 .044.006.086.005.125-.124.171-.22.326-.286.445-.264.45-.543 1.192-.763 2.433 0 0 .006-.018.017-.051-.003.016-.006.03-.008.046 0 0 .125-.395.375-.85-.188.592-.334 1.504-.246 2.861.001-.009.003-.028.006-.056.001.016.002.032.003.049.004-.045.044-.393.147-.862.05.916.267 2.042.981 3.262.543.931 1.976 3.094 5.57 3.903-.395-.114-.64-.342-.64-.342s1.342.431 2.322.395c-.307-.053-.368-.202-.368-.202s3.483.197 4.688-1.446c-.412.482-1.454.618-1.849.622.6-.552 1.927-.539 3.365-1.954.788-.776.874-1.367.96-1.919-.132.723-.819 1.156-1.538 1.551z"
    class="iconic-browser-type-firefox-fox iconic-property-fill"></path>
  </g>
  <!-- IE -->
  <!-- Safari -->
</svg>