<svg version="1.1" xmlns="http://www.w3.org/2000/svg" width="32" height="32" data-icon="browser-full-page" class="iconic iconic-browser-full-page iconic-size-md" viewBox="0 0 32 32">
  <g class="iconic-metadata">
    <title>Browser Full Page</title>
  </g>
  <defs>
    <clipPath id="iconic-size-md-browser-full-page-clip-0">
      <path d="M0 4v23h32v-23h-32zm30 21h-28v-20h28v20z" />
    </clipPath>
    <clipPath id="iconic-size-md-browser-full-page-clip-1">
      <path d="M0 0v5h32v-5h-32zm3 3l-1-.5 1-.5v1zm1 0v-1l1 .5-1 .5zm25.5 0h-23c-.276 0-.5-.224-.5-.5s.224-.5.5-.5h23c.276 0 .5.224.5.5s-.224.5-.5.5z" />
    </clipPath>
  </defs>
  <g class="iconic-container" data-width="32" data-height="32">
    <path stroke="#000" class="iconic-browser-full-page-bound iconic-browser-full-page-bound-top iconic-browser-full-page-bound-left iconic-browser-full-page-bound-top-left iconic-property-accent iconic-property-stroke" fill="none" d="M3.5 10v-3.5h3.5"
    />
    <path stroke="#000" class="iconic-browser-full-page-bound iconic-browser-full-page-bound-bottom iconic-browser-full-page-bound-right iconic-browser-full-page-bound-bottom-right iconic-property-accent iconic-property-stroke" fill="none" d="M28.5 28v3.5h-3.5"
    />
    <path stroke="#000" class="iconic-browser-full-page-bound iconic-browser-full-page-bound-bottom iconic-browser-full-page-bound-left iconic-browser-full-page-bound-bottom-left iconic-property-accent iconic-property-stroke" fill="none" d="M7 31.5h-3.5v-3.5"
    />
    <path stroke="#000" class="iconic-browser-full-page-bound iconic-browser-full-page-bound-top iconic-browser-full-page-bound-right iconic-browser-full-page-bound-top-right iconic-property-accent iconic-property-stroke" fill="none" d="M25 6.5h3.5v3.5"
    />
    <path class="iconic-browser-full-page-arrow iconic-browser-full-page-arrow-line iconic-property-accent iconic-property-fill" d="M14 10h4v13h-4z" />
    <path d="M15.68 27.616l-4.36-5.232c-.177-.212-.096-.384.18-.384h9c.276 0 .357.172.18.384l-4.36 5.232c-.177.212-.463.212-.64 0z" class="iconic-browser-full-page-arrow iconic-browser-full-page-arrow-head iconic-property-accent iconic-property-fill"
    />
    <path clip-path="url(#iconic-size-md-browser-full-page-clip-0)" class="iconic-browser-full-page-border iconic-property-fill" d="M0 0h32v23h-32z" />
    <path clip-path="url(#iconic-size-md-browser-full-page-clip-1)" d="M31.5 5h-31c-.276 0-.5-.224-.5-.5v-4c0-.276.224-.5.5-.5h31c.276 0 .5.224.5.5v4c0 .276-.224.5-.5.5z" class="iconic-browser-full-page-top iconic-property-fill" />
  </g>
</svg>