<svg version="1.1" xmlns="http://www.w3.org/2000/svg" data-icon="browser-type-chrome" width="16" height="16" class="iconic iconic-browser-type iconic-size-sm iconic-browser-type-chrome" viewBox="0 0 16 16">
  <g>
    <title>Browser Type Chrome</title>
  </g>
  <!-- Chrome -->
  <!-- Firefox -->
  <!-- IE -->
  <!-- Safari -->
  <!-- Chrome -->
  <!-- Firefox -->
  <!-- IE -->
  <!-- Safari -->
  <!-- Chrome -->
  <g data-width="16" data-height="16" class="iconic-container iconic-browser-type-chrome" transform="scale(1 1 ) translate(0 ) ">
    <path d="M9.14 11.938c-.37.107-.755.162-1.14.162-1.483 0-2.855-.805-3.58-2.1l-3.383-5.94c-.66 1.163-1.037 2.508-1.037 3.94 0 4.001 2.938 7.314 6.774 7.904l2.366-3.966z" class="iconic-browser-type-chrome-rim iconic-browser-type-chrome-rim-left iconic-property-fill"></path>
    <path d="M4.009 7.056c.426-1.819 2.055-3.156 3.991-3.156h6.87c-1.397-2.335-3.95-3.9-6.87-3.9-2.545 0-4.812 1.189-6.277 3.042l2.286 4.014z" class="iconic-browser-type-chrome-rim iconic-browser-type-chrome-rim-top iconic-property-fill"></path>
    <path d="M10.794 5c.829.769 1.306 1.846 1.306 3 0 .802-.232 1.579-.67 2.247l-3.431 5.753h.001c4.418 0 8-3.582 8-8 0-1.061-.207-2.074-.582-3h-4.624z" class="iconic-browser-type-chrome-rim iconic-browser-type-chrome-rim-right iconic-property-fill"></path>
    <path d="M8 5c-1.654 0-3 1.346-3 3 0 .513.131 1.018.38 1.462.531.949 1.535 1.538 2.62 1.538 1.01 0 1.945-.503 2.503-1.346l.002-.002c.324-.49.495-1.061.495-1.652 0-1.654-1.346-3-3-3z" class="iconic-browser-type-chrome-center iconic-property-fill"></path>
  </g>
  <!-- Firefox -->
  <!-- IE -->
  <!-- Safari -->
</svg>