<svg version="1.1" xmlns="http://www.w3.org/2000/svg" data-icon="browser-type-internetexplorer" width="32" height="32" class="iconic iconic-browser-type iconic-size-md iconic-browser-type-internetexplorer" viewBox="0 0 32 32">
  <g>
    <title>Browser Type Internetexplorer</title>
  </g>
  <!-- Chrome -->
  <!-- Firefox -->
  <!-- IE -->
  <!-- Safari -->
  <!-- Chrome -->
  <!-- Firefox -->
  <!-- IE -->
  <g data-width="32" data-height="32" class="iconic-container iconic-browser-type-internetexplorer" transform="scale(1 1 ) translate(0 ) ">
    <path d="M32 16.449c0-2.53-.654-4.906-1.801-6.971 4.889-11.064-5.238-9.443-5.802-9.333-2.145.42-4.13 1.094-5.961 1.948-2.86-.161-5.738.539-8.196 2.013-2.316 1.388-4.222 3.429-5.446 5.837-.529 1.04-.929 2.145-1.19 3.282 3.601-4.04 6.122-5.67 7.631-6.323-2.768 2.473-5.136 5.393-7.113 8.53-.877 1.392-1.685 2.828-2.402 4.308-.236.488-.515.882-.916 2.084-4.093 14.62 8.674 8.447 10.455 7.525 2.953 1.459 6.384 1.853 9.592 1.116 2.711-.623 5.211-2.048 7.137-4.053 1.409-1.466 2.502-3.23 3.183-5.146h-7.556c-1.512 2.555-4.713 3.686-7.54 2.935-2.568-.682-4.624-2.909-4.756-5.615-.005-.094-.007-.189-.007-.283h20.567c.078-.606.118-1.224.118-1.852zm-2.686-14.15c1.238.836 2.232 2.148.526 6.568-1.636-2.631-4.097-4.695-7.022-5.829 1.331-.643 4.626-2.002 6.497-.739 1.238.836-1.87-1.263 0 0zm-26.315 27.02c-1.008-1.034-1.187-3.554 1.039-8.144 1.123 3.229 3.365 5.935 6.261 7.652-1.441.793-5.266 2.578-7.3.492-1.009-1.034 2.035 2.087 0 0zm8.285-14.95c.095-2.718 2.122-4.992 4.703-5.689 2.655-.718 5.642.251 7.231 2.53.647.927 1.023 2.029 1.062 3.16h-12.997z"
    class="iconic-property-fill"></path>
  </g>
  <!-- Safari -->
  <!-- Chrome -->
  <!-- Firefox -->
  <!-- IE -->
  <!-- Safari -->
</svg>