<svg version="1.1" xmlns="http://www.w3.org/2000/svg" data-icon="browser-type-firefox" width="128" height="128" class="iconic iconic-browser-type iconic-size-lg iconic-browser-type-firefox" viewBox="0 0 128 128">
  <g>
    <title>Browser Type Firefox</title>
  </g>
  <!-- Chrome -->
  <!-- Firefox -->
  <g data-width="128" data-height="124" class="iconic-container iconic-browser-type-firefox" transform="translate(0 2 ) scale(1 1 ) ">
    <path d="M63.802 4c30.597 0 55.49 24.911 55.49 55.532 0 30.621-24.893 55.534-55.49 55.534-30.599 0-55.494-24.912-55.494-55.534 0-30.62 24.894-55.532 55.494-55.532m0-4c-32.805 0-59.494 26.706-59.494 59.532 0 32.827 26.689 59.534 59.494 59.534 32.803 0 59.49-26.707 59.49-59.534 0-32.826-26.687-59.532-59.49-59.532z"
    class="iconic-browser-type-firefox-border iconic-property-fill"></path>
    <path d="M110.269 95.899c.53-.997 1.09-1.926 1.666-2.811-.067.139-.132.269-.195.39.948-1.497 2.016-2.965 3.107-4.394 2.395-3.005 4.748-5.515 6.306-8.276.32-.568.666-1.233 1.027-1.981 3.423-6.682 7.081-18.25 5.396-29.285-.28-1.97-.729-3.915-1.395-5.798.03.115.057.23.086.346-.045-.135-.072-.208-.072-.208s-1.049 3.157-2.45 7.886c.731-6.857.21-13.998-2.181-20.605-1.053-2.908-2.34-5.366-3.615-7.377-1.87-3.176-3.987-5.614-5.646-6.749.189.142.376.308.56.495-.355-.33-.56-.495-.56-.495.091.1.175.201.265.301-.226-.209-.357-.32-.357-.32s.132.714.362 1.973c-3.47-5.455-8.751-8.02-8.751-8.02s.263 1.48.66 4.638c-5.033-4.018-11.093-7.309-18.319-9.302 11.794 7.777 16.199 14.383 18.987 20.261-3.152-3.224-8.552-6.59-12.197-6.87 5.467 4.066 14.615 16.127 13.642 34.399-1.402-2.943-3.968-7.551-5.79-9.163 1.962 17.947.244 21.801-.948 26.567-.262-2.19-1.05-3.836-1.506-4.837 0 0-.21 5.609-3.854 13.6-2.76 6.052-5.61 7.922-6.87 7.71-.342-.024-.526-.171-.523-.184.09-.783.171-1.605-.037-2.128 0 0-1.164.403-1.915 1.459-.303.425-.695.842-1.21 1.232-.088.068.832-1.179.762-1.121-.453.368-.938.8-1.426 1.305-1.788 1.857-3.398 3.912-4.237 3.331.781-.239 1.405-1.233 1.574-2.208-.703.491-2.485 1.822-6.483 2.417-1.635.244-8.591 1.508-17.841-3.119 1.349-.154 3.367-.63 4.905.28-1.538-1.68-5.255-1.331-7.92-2.172-2.322-.735-5.352-3.993-7.093-5.639 7.119 1.744 14.68.485 19.051-2.503 4.418-3.022 7.035-5.228 9.382-4.706 2.343.524 3.906-1.829 2.08-3.92-1.819-2.092-6.233-4.906-12.239-3.398-4.598 1.151-8.517 4.842-14.975 2.278-.391-.155-.794-.334-1.207-.539-.412-.205 1.35.245.916-.012-1.241-.457-3.498-1.493-4.059-1.885-.092-.068.935.186.828.12-6.13-3.626-5.729-6.528-5.729-8.324 0-1.436.872-3.379 2.51-4.29.884.315 1.433.603 1.433.603s-.408-.627-.667-.931c.06-.022.121-.038.184-.056.722.244 2.346.844 3.169 1.258 1.115.56 1.49 1.131 1.49 1.131s.26-.165-.012-.736c-.112-.239-.505-.928-1.609-1.598.02-.002.039-.003.052-.006.579.23 1.193.521 1.871.905.211-.983.635-2.003.349-3.785-.201-1.254-.175-1.577-.489-2.032-.269-.39.073-.562.489-.211-.086-.267-.206-.533-.342-.799.012-.004.022-.021.029-.058 1.909-2.314 9.53-5.856 11.238-7.659.203-.215.371-.398.514-.562-.009.025-.018.056-.027.078.998-.754 1.428-1.485 1.866-2.554.445-1.087.95-3.644-.507-4.179-1.2-.287-2.219-.496-4.15-.459-1.494-.09-3.487-.128-6.159-.105-2.687.02-4.437-1.543-5.494-3.034-.213-.324-.404-.633-.574-.911-.232-.415-.388-.782-.508-1.08 1.174-4.262 3.527-7.962 7.199-10.959.222-.186-.875.127-.667-.071.248-.233 1.803-.975 2.094-1.139.377-.212-1.692-.77-3.46-.403-1.774.367-2.122.578-3.036 1.051.37-.384 1.575-.993 1.279-.928-1.926.432-4.199 1.7-6.134 3.067-.015-.174 0-.316.04-.596-.913.474-3.119 2.172-3.681 3.47 0-.282 0-.423-.035-.737-.628.577-1.231 1.254-1.777 2.01-.006.011-.016.019-.022.029-5.745-1.428-10.622-1.082-14.698.225-1.361-1.104-3.427-3.066-4.995-5.597-.014-.023-.027-.033-.039-.036-.111-.099-.139.412-.235.353-.008-.009-.017-.021-.026-.037-.97-1.745-1.796-4.719-1.875-6.848 0 0-.006.004-.01.006v-.001s-1.583.921-2.622 4.184c-.183.578-.31.92-.443 1.235-.002.005-.003.004-.005.004-.017-.068.082-1 .044-.959-.002-.006-.004-.008-.007-.001-.198.407-.761 1.051-.944 1.789-.138.551-.361.886-.449 1.576-.005.015-.01.029-.018.043-.012-.169-.023-.689-.059-.687-.005-.007-.012-.006-.018.011-.367.971-.712 2.06-1.012 3.259-.063.25-.124.505-.183.766-.01.046-.022.088-.032.134-.008.042-.017.085-.025.128-.241 1.116-.436 2.324-.567 3.627-.199 1.839-.286 3.965-.115 6.381-.003.348.052.685.041.997-.992 1.367-1.761 2.609-2.29 3.564-2.109 3.602-4.345 9.54-6.105 19.463 0 0 .046-.146.137-.408-.022.124-.045.242-.068.368 0 0 1.002-3.159 2.999-6.798-1.507 4.739-2.67 12.034-1.972 22.888.005-.068.021-.222.049-.449.008.13.015.257.023.388.029-.363.352-3.146 1.175-6.899.4 7.326 2.139 16.333 7.845 26.099 4.348 7.448 15.807 24.752 44.561 31.227-3.156-.91-5.118-2.733-5.118-2.733s10.739 3.451 18.578 3.156c-2.454-.423-2.945-1.612-2.945-1.612s27.867 1.576 37.502-11.568c-3.293 3.854-11.635 4.941-14.79 4.975 4.802-4.413 15.419-4.311 26.92-15.63 6.308-6.212 6.99-10.936 7.677-15.352-1.052 5.782-6.556 9.251-12.304 12.408z"
    class="iconic-browser-type-firefox-fox iconic-property-fill"></path>
  </g>
  <!-- IE -->
  <!-- Safari -->
  <!-- Chrome -->
  <!-- Firefox -->
  <!-- IE -->
  <!-- Safari -->
  <!-- Chrome -->
  <!-- Firefox -->
  <!-- IE -->
  <!-- Safari -->
</svg>