<svg version="1.1" xmlns="http://www.w3.org/2000/svg" data-icon="browser-type-firefox" width="32" height="32" class="iconic iconic-browser-type iconic-size-md iconic-browser-type-firefox" viewBox="0 0 32 32">
  <g>
    <title>Browser Type Firefox</title>
  </g>
  <!-- Chrome -->
  <!-- Firefox -->
  <!-- IE -->
  <!-- Safari -->
  <!-- Chrome -->
  <!-- Firefox -->
  <g data-width="32" data-height="31" class="iconic-container iconic-browser-type-firefox" transform="scale(1 1 ) translate(0 ) ">
    <path d="M15.951 1c7.649 0 13.873 6.228 13.873 13.883 0 7.655-6.223 13.883-13.873 13.883-7.65 0-13.873-6.228-13.873-13.883 0-7.655 6.224-13.883 13.873-13.883m0-1c-8.201 0-14.873 6.676-14.873 14.883 0 8.207 6.672 14.883 14.873 14.883s14.873-6.677 14.873-14.883c0-8.207-6.672-14.883-14.873-14.883z"
    class="iconic-browser-type-firefox-border iconic-property-fill"></path>
    <path d="M27.567 23.975c.133-.249.273-.482.416-.703-.017.035-.033.067-.049.098.237-.374.504-.741.777-1.099.599-.751 1.187-1.379 1.576-2.069.08-.142.167-.308.257-.495.856-1.671 1.77-4.563 1.349-7.321-.07-.492-.182-.979-.349-1.45.007.029.014.058.021.086-.011-.034-.018-.052-.018-.052s-.262.789-.612 1.972c.183-1.714.053-3.499-.545-5.151-.263-.727-.585-1.342-.904-1.844-.468-.794-.997-1.403-1.411-1.687.047.035.094.077.14.124-.089-.082-.14-.124-.14-.124.023.025.044.05.066.075-.056-.052-.089-.08-.089-.08s.033.178.09.493c-.868-1.364-2.188-2.005-2.188-2.005s.066.37.165 1.159c-1.258-1.004-2.773-1.827-4.58-2.325 2.949 1.944 4.05 3.596 4.747 5.065-.788-.806-2.138-1.647-3.049-1.718 1.367 1.016 3.654 4.032 3.411 8.6-.35-.736-.992-1.888-1.448-2.291.49 4.487.061 5.45-.237 6.642-.065-.548-.263-.959-.376-1.209 0 0-.053 1.402-.964 3.4-.69 1.513-1.403 1.98-1.717 1.927-.086-.006-.132-.043-.131-.046.022-.196.043-.401-.009-.532 0 0-.291.101-.479.365-.076.106-.174.21-.302.308-.022.017.208-.295.191-.28-.113.092-.234.2-.356.326-.447.464-.85.978-1.059.833.195-.06.351-.308.394-.552-.176.123-.621.456-1.621.604-.409.061-2.148.377-4.46-.78.337-.038.842-.157 1.226.07-.385-.42-1.314-.333-1.98-.543-.581-.184-1.338-.998-1.773-1.41 1.78.436 3.67.121 4.763-.626 1.104-.755 1.759-1.307 2.345-1.177.586.131.977-.457.52-.98-.455-.523-1.558-1.226-3.06-.85-1.149.288-2.129 1.211-3.744.569-.098-.039-.199-.084-.302-.135-.103-.051.338.061.229-.003-.31-.114-.875-.373-1.015-.471-.023-.017.234.047.207.03-1.532-.907-1.432-1.632-1.432-2.081 0-.359.218-.845.627-1.073.221.079.358.151.358.151s-.102-.157-.167-.233c.015-.006.03-.01.046-.014.18.061.587.211.792.315.279.14.372.283.372.283s.065-.041-.003-.184c-.028-.06-.126-.232-.402-.4.005 0 .01-.001.013-.002.145.057.298.13.468.226.053-.246.159-.501.087-.946-.05-.314-.044-.394-.122-.508-.067-.098.018-.141.122-.053-.021-.067-.051-.133-.086-.2.003-.001.005-.005.007-.015.477-.579 2.382-1.464 2.809-1.915.051-.054.093-.1.129-.141-.002.006-.005.014-.007.019.25-.189.357-.371.467-.639.111-.272.238-.911-.127-1.045-.3-.072-.555-.124-1.038-.115-.373-.022-.872-.032-1.54-.026-.672.005-1.109-.386-1.373-.758-.053-.081-.101-.158-.143-.228-.058-.104-.097-.196-.127-.27.294-1.065.882-1.99 1.8-2.74.056-.047-.219.032-.167-.018.062-.058.451-.244.523-.285.094-.053-.423-.193-.865-.101-.444.092-.53.144-.759.263.093-.096.394-.248.32-.232-.482.108-1.05.425-1.534.767-.004-.043 0-.079.01-.149-.229.119-.78.543-.921.868 0-.071 0-.106-.009-.184-.157.144-.308.314-.444.502-.002.003-.004.005-.005.007-1.436-.357-2.655-.271-3.675.056-.34-.276-.857-.767-1.249-1.399-.004-.006-.007-.008-.01-.009-.028-.025-.035.103-.059.088-.002-.002-.004-.005-.006-.009-.242-.436-.449-1.18-.469-1.712 0 0-.002.001-.003.002 0 0-.396.23-.655 1.046-.046.144-.078.23-.111.309 0 .001-.001.001-.001.001-.004-.017.02-.25.011-.24-.001-.002-.001-.002-.002 0-.05.102-.19.263-.236.447-.035.138-.09.222-.112.394-.001.004-.003.007-.005.011-.003-.042-.006-.172-.015-.172-.001-.002-.003-.001-.005.003-.092.243-.178.515-.253.815-.016.063-.031.126-.046.192-.002.011-.005.022-.008.034-.002.01-.004.021-.006.032-.06.279-.109.581-.142.907-.05.46-.072.991-.029 1.595-.001.087.013.171.01.249-.248.342-.44.652-.572.891-.527.901-1.086 2.385-1.526 4.866 0 0 .011-.036.034-.102-.006.031-.011.061-.017.092 0 0 .251-.79.75-1.7-.377 1.185-.667 3.009-.493 5.722.001-.017.005-.056.012-.112.002.032.004.064.006.097.007-.091.088-.787.294-1.725.1 1.831.535 4.083 1.961 6.525 1.087 1.862 3.952 6.188 11.14 7.807-.789-.228-1.28-.683-1.28-.683s2.685.863 4.644.789c-.614-.106-.736-.403-.736-.403s6.967.394 9.376-2.892c-.823.964-2.909 1.235-3.697 1.244 1.2-1.103 3.855-1.078 6.73-3.908 1.577-1.553 1.748-2.734 1.919-3.838-.263 1.445-1.639 2.313-3.076 3.102z"
    class="iconic-browser-type-firefox-fox iconic-property-fill"></path>
  </g>
  <!-- IE -->
  <!-- Safari -->
  <!-- Chrome -->
  <!-- Firefox -->
  <!-- IE -->
  <!-- Safari -->
</svg>