<svg version="1.1" xmlns="http://www.w3.org/2000/svg" data-icon="browser-type-internetexplorer" width="128" height="128" class="iconic iconic-browser-type iconic-size-lg iconic-browser-type-internetexplorer" viewBox="0 0 128 128">
  <g>
    <title>Browser Type Internetexplorer</title>
  </g>
  <!-- Chrome -->
  <!-- Firefox -->
  <!-- IE -->
  <g data-width="128" data-height="126" class="iconic-container iconic-browser-type-internetexplorer" transform="translate(0 1 ) scale(1 1 ) ">
    <path d="M128 65.795c0-10.118-2.616-19.625-7.204-27.885 19.554-44.255-20.953-37.773-23.208-37.332-8.582 1.679-16.521 4.375-23.845 7.793-11.441-.644-22.951 2.158-32.784 8.05-9.265 5.552-16.889 13.717-21.783 23.347-2.115 4.16-3.717 8.579-4.759 13.128 14.405-16.161 24.487-22.682 30.524-25.291-11.072 9.893-20.546 21.573-28.453 34.119-3.508 5.566-6.739 11.311-9.608 17.233-.946 1.952-2.06 3.527-3.662 8.335-16.373 58.479 34.697 33.786 41.821 30.1 11.811 5.835 25.535 7.412 38.37 4.464 10.844-2.491 20.843-8.192 28.549-16.213 5.636-5.866 10.009-12.92 12.733-20.586h-30.222c-6.049 10.219-18.854 14.744-30.16 11.74-10.272-2.729-18.497-11.636-19.023-22.461-.018-.377-.027-.754-.027-1.131h82.267c.312-2.426.474-4.898.474-7.408zm-10.745-56.601c4.953 3.343 8.926 8.593 2.103 26.274-6.543-10.523-16.388-18.778-28.09-23.316 5.323-2.571 18.505-8.008 25.986-2.958 4.953 3.343-7.482-5.05 0 0zm-105.262 108.079c-4.034-4.137-4.747-14.214 4.155-32.576 4.493 12.917 13.458 23.74 25.046 30.61-5.763 3.172-21.062 10.314-29.2 1.967-4.034-4.137 8.138 8.347 0 0zm33.139-59.799c.38-10.872 8.488-19.968 18.813-22.758 10.621-2.87 22.567 1.004 28.924 10.118 2.586 3.708 4.091 8.118 4.249 12.64h-51.985z"
    class="iconic-property-fill"></path>
  </g>
  <!-- Safari -->
  <!-- Chrome -->
  <!-- Firefox -->
  <!-- IE -->
  <!-- Safari -->
  <!-- Chrome -->
  <!-- Firefox -->
  <!-- IE -->
  <!-- Safari -->
</svg>