<svg version="1.1" xmlns="http://www.w3.org/2000/svg" width="32" height="32" data-icon="browser-viewport" class="iconic iconic-browser-viewport iconic-size-md" viewBox="0 0 32 32">
  <g class="iconic-metadata">
    <title>Browser Viewport</title>
  </g>
  <defs>
    <clipPath id="iconic-size-md-browser-viewport-clip-0">
      <path d="M0 4v23h32v-23h-32zm30 21h-28v-20h28v20z" />
    </clipPath>
    <clipPath id="iconic-size-md-browser-viewport-clip-1">
      <path d="M0 0v5h32v-5h-32zm3 3l-1-.5 1-.5v1zm1 0v-1l1 .5-1 .5zm25.5 0h-23c-.276 0-.5-.224-.5-.5s.224-.5.5-.5h23c.276 0 .5.224.5.5s-.224.5-.5.5z" />
    </clipPath>
  </defs>
  <g class="iconic-container" data-width="32" data-height="27" transform="translate(0 2)">
    <path stroke="#000" class="iconic-browser-viewport-bound iconic-browser-viewport-bound-top iconic-browser-viewport-bound-left iconic-browser-viewport-bound-top-left iconic-property-accent iconic-property-stroke" fill="none" d="M3.5 10v-3.5h3.5" />
    <path stroke="#000" class="iconic-browser-viewport-bound iconic-browser-viewport-bound-bottom iconic-browser-viewport-bound-right iconic-browser-viewport-bound-bottom-right iconic-property-accent iconic-property-stroke" fill="none" d="M28.5 20v3.5h-3.5"
    />
    <path stroke="#000" class="iconic-browser-viewport-bound iconic-browser-viewport-bound-bottom iconic-browser-viewport-bound-left iconic-browser-viewport-bound-bottom-left iconic-property-accent iconic-property-stroke" fill="none" d="M7 23.5h-3.5v-3.5"
    />
    <path stroke="#000" class="iconic-browser-viewport-bound iconic-browser-viewport-bound-top iconic-browser-viewport-bound-right iconic-browser-viewport-bound-top-right iconic-property-accent iconic-property-stroke" fill="none" d="M25 6.5h3.5v3.5" />
    <path clip-path="url(#iconic-size-md-browser-viewport-clip-0)" d="M31.5 27h-31c-.276 0-.5-.224-.5-.5v-22c0-.276.224-.5.5-.5h31c.276 0 .5.224.5.5v22c0 .276-.224.5-.5.5z" class="iconic-browser-viewport-border iconic-property-fill" />
    <path clip-path="url(#iconic-size-md-browser-viewport-clip-1)" d="M31.5 5h-31c-.276 0-.5-.224-.5-.5v-4c0-.276.224-.5.5-.5h31c.276 0 .5.224.5.5v4c0 .276-.224.5-.5.5z" class="iconic-browser-viewport-top iconic-property-fill" />
  </g>
</svg>