<svg version="1.1" xmlns="http://www.w3.org/2000/svg" data-icon="browser-type-safari" width="32" height="32" class="iconic iconic-browser-type iconic-size-md iconic-browser-type-safari" viewBox="0 0 32 32">
  <g>
    <title>Browser Type Safari</title>
  </g>
  <!-- Chrome -->
  <!-- Firefox -->
  <!-- IE -->
  <!-- Safari -->
  <!-- Chrome -->
  <!-- Firefox -->
  <!-- IE -->
  <!-- Safari -->
  <g data-width="32" data-height="32" class="iconic-container iconic-browser-type-safari" transform="scale(1 1 ) translate(0 ) ">
    <path d="M16 1c8.271 0 15 6.729 15 15s-6.729 15-15 15-15-6.729-15-15 6.729-15 15-15m0-1c-8.837 0-16 7.163-16 16s7.163 16 16 16 16-7.163 16-16-7.163-16-16-16z" class="iconic-browser-type-safari-border iconic-property-fill"></path>
    <path class="iconic-browser-type-safari-needle iconic-property-fill" d="M25.945 6.011l-8.044 11.757-11.845 8.221 8.221-11.669z"></path>
    <path stroke="#000" stroke-width=".354" class="iconic-browser-type-safari-tick iconic-browser-type-safari-tick-large iconic-property-stroke" d="M16 1.871v2.888m-2.756-2.616l.563 2.832m-3.214-2.028l1.105 2.667m-3.548-1.362l1.605 2.401m-3.746-.644l2.042 2.042m-3.799.099l2.401 1.605m-3.706.838l2.667 1.105m-3.471 1.546l2.832.563m-3.104 2.193h2.888m-2.616 2.756l2.832-.563m-2.028 3.214l2.667-1.105m-1.362 3.548l2.401-1.605m1.497 5.503l1.605-2.401m.838 3.706l1.105-2.667m1.546 3.471l.563-2.832m2.193 3.104v-2.888m2.756 2.616l-.563-2.832m3.214 2.028l-1.105-2.667m3.548 1.362l-1.605-2.401m3.746.644l-2.042-2.042m3.799-.099l-2.401-1.605m3.706-.838l-2.667-1.105m3.471-1.546l-2.832-.563m3.104-2.193h-2.888m2.616-2.756l-2.832.563m2.028-3.214l-2.667 1.105m1.362-3.548l-2.401 1.605m-1.497-5.503l-1.605 2.401m-.838-3.706l-1.105 2.667m-1.546-3.471l-.563 2.832"
    fill="none"></path>
    <path stroke="#000" stroke-width=".354" class="iconic-browser-type-safari-tick iconic-browser-type-safari-tick-small iconic-property-stroke" d="M14.615 1.939l.144 1.466m-2.86-.926l.427 1.41m-2.986-.35l.694 1.3m-2.997.239l.934 1.139m-2.893.82l1.139.934m-2.678 1.369l1.3.694m-2.36 1.865l1.41.427m-1.95 2.289l1.466.144m-1.466 2.626l1.466-.144m-.926 2.86l1.41-.427m-.35 2.986l1.3-.694m.239 2.997l1.139-.934m.82 2.893l.934-1.139m1.369 2.678l.694-1.3m1.865 2.359l.427-1.409m2.289 1.95l.144-1.466m2.626 1.466l-.144-1.466m2.86.925l-.427-1.409m2.986.35l-.694-1.3m2.997-.239l-.934-1.139m2.893-.82l-1.139-.934m2.678-1.369l-1.3-.694m2.359-1.865l-1.409-.427m1.95-2.289l-1.466-.144m1.466-2.626l-1.466.144m.925-2.86l-1.409.427m.35-2.986l-1.3.694m-.239-2.997l-1.139.934m-.82-2.893l-.934 1.139m-1.369-2.678l-.694 1.3m-1.865-2.36l-.427 1.41m-2.289-1.95l-.144 1.466"
    fill="none"></path>
  </g>
  <!-- Chrome -->
  <!-- Firefox -->
  <!-- IE -->
  <!-- Safari -->
</svg>