<svg version="1.1" xmlns="http://www.w3.org/2000/svg" width="32" height="32" data-icon="bug" class="iconic iconic-bug iconic-size-md" viewBox="0 0 32 32">
  <g class="iconic-metadata">
    <title>Bug</title>
  </g>
  <g class="iconic-container" data-width="29" data-height="32" transform="translate(1)">
    <path stroke="#000" stroke-linecap="round" class="iconic-bug-leg iconic-bug-leg-right iconic-bug-leg-top iconic-bug-leg-top-right iconic-property-accent iconic-property-stroke" fill="none" d="M18.5 11.5l3-1v-3l3-2" />
    <path stroke="#000" stroke-linecap="round" stroke-linejoin="round" class="iconic-bug-leg iconic-bug-leg-right iconic-bug-leg-bottom iconic-bug-leg-bottom-right iconic-property-accent iconic-property-stroke" fill="none" d="M20.5 20.5l5 2-3 8 1 1" />
    <path stroke="#000" stroke-linecap="round" stroke-linejoin="round" class="iconic-bug-leg iconic-bug-leg-right iconic-bug-leg-middle iconic-bug-leg-middle-right iconic-property-accent iconic-property-stroke" fill="none" d="M19.5 14.5l3-1 3 5 3 1" />
    <path stroke="#000" stroke-linecap="round" class="iconic-bug-leg iconic-bug-leg-left iconic-bug-leg-top iconic-bug-leg-top-left iconic-property-accent iconic-property-stroke" fill="none" d="M10.5 11.5l-3-1v-3l-3-2" />
    <path stroke="#000" stroke-linecap="round" stroke-linejoin="round" class="iconic-bug-leg iconic-bug-leg-left iconic-bug-leg-bottom iconic-bug-leg-bottom-left iconic-property-accent iconic-property-stroke" fill="none" d="M8.5 20.5l-5 2 3 8-1 1" />
    <path stroke="#000" stroke-linecap="round" stroke-linejoin="round" class="iconic-bug-leg iconic-bug-leg-left iconic-bug-leg-middle iconic-bug-leg-middle-left iconic-property-accent iconic-property-stroke" fill="none" d="M9.5 14.5l-3-1-3 5-3 1" />
    <path stroke="#000" stroke-linecap="round" d="M12.5 7.5s-1-7-5-7" class="iconic-bug-antenna iconic-bug-antenna-left iconic-property-accent iconic-property-stroke" fill="none" />
    <path stroke="#000" stroke-linecap="round" d="M15.5 7.5s1-7 5-7" class="iconic-bug-antenna iconic-bug-antenna-right iconic-property-accent iconic-property-stroke" fill="none" />
    <path d="M14.533 3.5c3.842 0 5.862 5.728 3.355 8.5h-6.776c-2.561-2.703-.421-8.5 3.421-8.5z" class="iconic-bug-head iconic-property-fill" />
    <path d="M11.821 31.265c1.164-.876 2.179-2.45 2.179-4.265v-12.5c0-.276.224-.5.5-.5s.5.224.5.5v12.501c0 1.815 1.015 3.388 2.179 4.264 2.817-1.583 4.821-5.576 4.821-10.265 0-6.075-3.358-11-7.5-11s-7.5 4.925-7.5 11c0 4.689 2.004 8.682 4.821 10.265z"
    class="iconic-bug-thorax iconic-property-fill" />
  </g>
</svg>