<svg version="1.1" xmlns="http://www.w3.org/2000/svg" width="128" height="128" data-icon="bug" class="iconic iconic-bug iconic-size-lg" viewBox="0 0 128 128">
  <g class="iconic-metadata">
    <title>Bug</title>
  </g>
  <g class="iconic-container" data-width="116" data-height="128" transform="translate(6)">
    <path stroke="#000" stroke-width="2" stroke-linecap="round" stroke-linejoin="round" class="iconic-bug-leg iconic-bug-leg-right iconic-bug-leg-top iconic-bug-leg-top-right iconic-property-accent iconic-property-stroke" fill="none" d="M72 46l15-5v-12l12-8"
    />
    <path stroke="#000" stroke-width="2" stroke-linecap="round" stroke-linejoin="round" class="iconic-bug-leg iconic-bug-leg-right iconic-bug-leg-bottom iconic-bug-leg-bottom-right iconic-property-accent iconic-property-stroke" fill="none" d="M85 81l18 8-12 34 4 4"
    />
    <path stroke="#000" stroke-width="2" stroke-linecap="round" stroke-linejoin="round" class="iconic-bug-leg iconic-bug-leg-right iconic-bug-leg-middle iconic-bug-leg-middle-right iconic-property-accent iconic-property-stroke" fill="none" d="M79 57l12-4 12 20 12 4"
    />
    <path stroke="#000" stroke-width="2" stroke-linecap="round" stroke-linejoin="round" class="iconic-bug-leg iconic-bug-leg-left iconic-bug-leg-top iconic-bug-leg-top-left iconic-property-accent iconic-property-stroke" fill="none" d="M44 46l-15-5v-12l-12-8"
    />
    <path stroke="#000" stroke-width="2" stroke-linecap="round" stroke-linejoin="round" class="iconic-bug-leg iconic-bug-leg-left iconic-bug-leg-bottom iconic-bug-leg-bottom-left iconic-property-accent iconic-property-stroke" fill="none" d="M31 81l-18 8 12 34-4 4"
    />
    <path stroke="#000" stroke-width="2" stroke-linecap="round" stroke-linejoin="round" class="iconic-bug-leg iconic-bug-leg-left iconic-bug-leg-middle iconic-bug-leg-middle-left iconic-property-accent iconic-property-stroke" fill="none" d="M37 57l-12-4-12 20-12 4"
    />
    <path stroke="#000" stroke-width="2" stroke-linecap="round" d="M53.905 29.444s-4.064-28.444-20.317-28.444" class="iconic-bug-antenna iconic-bug-antenna-left iconic-property-accent iconic-property-stroke" fill="none" />
    <path stroke="#000" stroke-width="2" stroke-linecap="round" d="M62.095 29.444s4.064-28.444 20.317-28.444" class="iconic-bug-antenna iconic-bug-antenna-right iconic-property-accent iconic-property-stroke" fill="none" />
    <path d="M58.151 16c15.367 0 23.45 20.258 13.418 32h-27.102c-10.245-11.45-1.684-32 13.684-32z" class="iconic-bug-head iconic-property-fill" />
    <path d="M47.809 125.137c4.452-3.681 8.191-10.012 8.191-17.137v-50c0-1.105.895-2 2-2s2 .895 2 2v50c0 7.125 3.739 13.457 8.191 17.137 11.552-6.716 19.809-24.519 19.809-45.43 0-26.671-13.431-37.707-30-37.707s-30 11.036-30 37.707c0 20.911 8.258 38.714 19.809 45.43zm24.759-16.739c4.723-7.602 7.432-18.318 7.432-29.398 0-.552.448-1 1-1s1 .448 1 1c0 11.443-2.819 22.543-7.733 30.454-.19.305-.516.472-.851.472-.18 0-.362-.048-.527-.15-.469-.291-.613-.908-.322-1.377zm-30.835 1.056c-4.914-7.911-7.733-19.011-7.733-30.454 0-.552.448-1 1-1s1 .448 1 1c0 11.081 2.709 21.796 7.432 29.398.291.469.147 1.086-.322 1.377-.165.102-.347.15-.527.15-.334 0-.661-.167-.85-.472z"
    class="iconic-bug-thorax iconic-property-fill" />
  </g>
</svg>