<svg version="1.1" xmlns="http://www.w3.org/2000/svg" width="16" height="16" data-icon="calculator" class="iconic iconic-calculator iconic-size-sm" viewBox="0 0 16 16">
  <g class="iconic-metadata">
    <title>Calculator</title>
  </g>
  <defs>
    <clipPath id="iconic-size-sm-calculator-clip-0">
      <path d="M0 0v16h15v-16h-15zm4 14h-2v-2h2v2zm0-3h-2v-2h2v2zm0-3h-2v-2h2v2zm3 6h-2v-2h2v2zm0-3h-2v-2h2v2zm0-3h-2v-2h2v2zm3 6h-2v-2h2v2zm0-3h-2v-2h2v2zm0-3h-2v-2h2v2zm3 6h-2v-5h2v5zm0-6h-2v-2h2v2zm0-3h-11v-3h11v3z" />
    </clipPath>
  </defs>
  <g class="iconic-container" data-width="15" data-height="16">
    <path clip-path="url(#iconic-size-sm-calculator-clip-0)" d="M14.75 16h-14.5c-.138 0-.25-.112-.25-.25v-15.5c0-.138.112-.25.25-.25h14.5c.138 0 .25.112.25.25v15.5c0 .138-.112.25-.25.25z" class="iconic-calculator-body iconic-property-fill" />
  </g>
</svg>