<svg version="1.1" xmlns="http://www.w3.org/2000/svg" width="32" height="32" data-icon="camera-slr" class="iconic iconic-camera-slr iconic-size-md" viewBox="0 0 32 32">
  <g class="iconic-metadata">
    <title>Camera Slr</title>
  </g>
  <defs>
    <clipPath id="iconic-size-md-camera-slr-clip-0">
      <path d="M0 0v30h32v-30h-32zm5 12c-.552 0-1-.448-1-1s.448-1 1-1 1 .448 1 1-.448 1-1 1zm22 7c-.024 0-.044-.012-.067-.014-.489 3.947-3.856 7.014-7.933 7.014-4.411 0-8-3.589-8-8s3.589-8 8-8c4.077 0 7.444 3.067 7.933 7.014.023-.002.043-.014.067-.014.552 0 1 .448 1 1s-.448 1-1 1z"
      />
    </clipPath>
  </defs>
  <g class="iconic-container" data-width="32" data-height="30" transform="translate(0 1)">
    <path clip-path="url(#iconic-size-md-camera-slr-clip-0)" d="M26.723 5.584l-3.445-5.168c-.153-.23-.501-.416-.777-.416h-7c-.276 0-.624.186-.777.416l-3.445 5.168c-.153.23-.501.416-.777.416h-4.5c-3.314 0-6 2.686-6 6v17.5c0 .276.224.5.5.5h31c.276 0 .5-.224.5-.5v-23c0-.276-.224-.5-.5-.5h-4c-.276 0-.624-.186-.777-.416z"
    class="iconic-camera-slr-body iconic-property-fill" />
    <path d="M19 12c-3.314 0-6 2.686-6 6s2.686 6 6 6 6-2.686 6-6-2.686-6-6-6zm0 2c-2.206 0-4 1.794-4 4 0 .276-.224.5-.5.5s-.5-.224-.5-.5c0-2.757 2.243-5 5-5 .276 0 .5.224.5.5s-.224.5-.5.5z" class="iconic-camera-slr-lens iconic-property-accent iconic-property-fill"
    />
  </g>
</svg>