<svg version="1.1" xmlns="http://www.w3.org/2000/svg" width="128" height="128" data-icon="camera-slr" class="iconic iconic-camera-slr iconic-size-lg" viewBox="0 0 128 128">
  <g class="iconic-metadata">
    <title>Camera Slr</title>
  </g>
  <defs>
    <clipPath id="iconic-size-lg-camera-slr-clip-0">
      <path d="M0 112h128v6h-128v-6zm128-112v110h-128v-110h128zm-112 38c0 2.209 1.791 4 4 4s4-1.791 4-4-1.791-4-4-4-4 1.791-4 4zm24-1c0-.552-.448-1-1-1s-1 .448-1 1v3c0 1.377-.855 3.44-1.828 4.414l-1.758 1.758c-.974.974-3.037 1.828-4.414 1.828h-24c-.552 0-1 .448-1 1s.448 1 1 1h24c.755 0 1.61-.17 2.453-.453-.283.843-.453 1.697-.453 2.453v9c0 .552.448 1 1 1s1-.448 1-1v-9c0-1.377.855-3.44 1.828-4.414l1.758-1.758c1.354-1.353 2.414-3.913 2.414-5.828v-3zm78 33c0-3.314-2.686-6-6-6-1.686 0-3.208.698-4.298 1.818-2.042-14.569-14.58-25.818-29.702-25.818-16.542 0-30 13.458-30 30s13.458 30 30 30c15.122 0 27.66-11.249 29.702-25.818 1.09 1.12 2.611 1.818 4.298 1.818 3.314 0 6-2.686 6-6z"
      />
    </clipPath>
  </defs>
  <g class="iconic-container" data-width="128" data-height="118" transform="translate(0 5)">
    <circle cx="112" cy="70" r="4" class="iconic-camera-slr-lens-release iconic-property-fill" />
    <path d="M78 44c-14.359 0-26 11.641-26 26s11.641 26 26 26 26-11.641 26-26-11.641-26-26-26zm0 49.649c-13.04 0-23.649-10.609-23.649-23.649s10.609-23.649 23.649-23.649 23.649 10.609 23.649 23.649-10.609 23.649-23.649 23.649z" class="iconic-camera-slr-lens iconic-camera-slr-lens-barrel iconic-property-fill"
    />
    <path class="iconic-camera-slr-flash-mount iconic-property-fill" d="M72 0h14v3h-14z" />
    <path d="M78 47.982c-12.141 0-22.018 9.877-22.018 22.018s9.877 22.018 22.018 22.018 22.018-9.877 22.018-22.018-9.877-22.018-22.018-22.018zm0 5.018c-9.374 0-17 7.626-17 17 0 .552-.448 1-1 1s-1-.448-1-1c0-10.477 8.523-19 19-19 .552 0 1 .448 1 1s-.448 1-1 1z"
    class="iconic-camera-slr-lens iconic-camera-slr-lens-glass iconic-property-accent iconic-property-fill" />
    <path clip-path="url(#iconic-size-lg-camera-slr-clip-0)" d="M108.126 19.657l-12.252-15.315c-1.035-1.294-3.217-2.343-4.874-2.343h-26c-1.657 0-3.839 1.049-4.874 2.343l-12.252 15.315c-1.035 1.294-3.217 2.343-4.874 2.343h-19c-13.255 0-24 10.745-24 24v69c0 1.657 1.343 3 3 3h122c1.657 0 3-1.343 3-3v-90c0-1.657-1.343-3-3-3h-12c-1.657 0-3.839-1.049-4.874-2.343z"
    class="iconic-camera-slr-body iconic-property-fill" />
  </g>
</svg>