<svg version="1.1" xmlns="http://www.w3.org/2000/svg" width="32" height="32" data-icon="camera-rangefinder" class="iconic iconic-camera-rangefinder iconic-size-md" viewBox="0 0 32 32">
  <g class="iconic-metadata">
    <title>Camera Rangefinder</title>
  </g>
  <defs>
    <clipPath id="iconic-size-md-camera-rangefinder-clip-0">
      <path d="M12 0v1h-12v19h32v-20h-20zm6 2.125c0-.069.056-.125.125-.125h3.75c.069 0 .125.056.125.125v1.75c0 .069-.056.125-.125.125h-3.75c-.069 0-.125-.056-.125-.125v-1.75zm0 15.875c-2.978 0-5.443-2.172-5.913-5.018-.03.003-.056.018-.087.018h-1c-.552 0-1-.448-1-1s.448-1 1-1h1c.031 0 .057.015.087.018.47-2.845 2.934-5.018 5.913-5.018 3.314 0 6 2.686 6 6s-2.686 6-6 6zm11-13.125c0 .069-.056.125-.125.125h-4.75c-.069 0-.125-.056-.125-.125v-3.75c0-.069.056-.125.125-.125h4.75c.069 0 .125.056.125.125v3.75z"
      />
    </clipPath>
  </defs>
  <g class="iconic-container" data-width="32" data-height="20" transform="translate(0 6)">
    <path class="iconic-camera-rangefinder-controls iconic-camera-rangefinder-controls-shutter-release iconic-property-fill" d="M3 0h3v1h-3z" />
    <path class="iconic-camera-rangefinder-controls iconic-camera-rangefinder-controls-shutter-speed-dial iconic-property-fill" d="M7 0h4v1h-4z" />
    <path d="M31 20h-30c-.552 0-1-.448-1-1v-17c0-.552.448-1 1-1h10c.552 0 1-.224 1-.5s.448-.5 1-.5h18c.552 0 1 .448 1 1v18c0 .552-.448 1-1 1z" clip-path="url(#iconic-size-md-camera-rangefinder-clip-0)" class="iconic-camera-rangefinder-body iconic-property-fill"
    />
    <path d="M18 7c-2.761 0-5 2.239-5 5s2.239 5 5 5 5-2.239 5-5-2.239-5-5-5zm0 2c-1.654 0-3 1.346-3 3 0 .276-.224.5-.5.5s-.5-.224-.5-.5c0-2.206 1.794-4 4-4 .276 0 .5.224.5.5s-.224.5-.5.5z" class="iconic-camera-rangefinder-lens iconic-camera-rangefinder-lens-glass iconic-property-accent iconic-property-fill"
    />
  </g>
</svg>