<svg version="1.1" xmlns="http://www.w3.org/2000/svg" width="32" height="32" data-icon="cart" class="iconic iconic-cart iconic-size-md" viewBox="0 0 32 32">
  <g class="iconic-metadata">
    <title>Cart</title>
  </g>
  <defs>
    <clipPath id="iconic-size-md-cart-clip-0">
      <path d="M0 0v28h5.058c-.651-.636-1.058-1.52-1.058-2.5 0-1.93 1.57-3.5 3.5-3.5s3.5 1.57 3.5 3.5c0 .98-.407 1.864-1.058 2.5h14.116c-.651-.636-1.058-1.52-1.058-2.5 0-1.93 1.57-3.5 3.5-3.5s3.5 1.57 3.5 3.5c0 .98-.407 1.864-1.058 2.5h3.058v-28h-32z" />
    </clipPath>
  </defs>
  <g class="iconic-container" data-width="32" data-height="28" transform="translate(0 2)">
    <path d="M8.742 17.034l-3.485-13.068c-.142-.534.19-.966.742-.966h25c.552 0 .912.439.804.981l-2.608 13.039c-.108.542-.644.981-1.196.981h-18c-.552 0-1.115-.433-1.258-.966z" class="iconic-cart-basket iconic-property-fill" />
    <circle cx="7.5" cy="25.5" r="2.5" class="iconic-cart-wheel iconic-cart-wheel-back iconic-property-fill" />
    <circle cx="26.5" cy="25.5" r="2.5" class="iconic-cart-wheel iconic-cart-wheel-front iconic-property-fill" />
    <path clip-path="url(#iconic-size-md-cart-clip-0)" stroke="#000" d="M27 24.5h-20c-.276 0-.42-.209-.321-.467l2.141-5.567c.099-.258.124-.683.055-.951l-4.251-16.531c-.069-.267-.348-.484-.625-.484h-3" class="iconic-cart-body iconic-property-stroke" fill="none"
    />
    <circle cx="1" cy="1" r="1" class="iconic-cart-handle iconic-property-fill" />
  </g>
</svg>