<svg version="1.1" xmlns="http://www.w3.org/2000/svg" width="128" height="128" data-icon="chat" class="iconic iconic-chat iconic-size-lg" viewBox="0 0 128 128">
  <g class="iconic-metadata">
    <title>Chat</title>
  </g>
  <defs>
    <clipPath id="iconic-size-lg-chat-clip-0">
      <path d="M46 72h-46v-72h83v16h-37z" />
    </clipPath>
  </defs>
  <g class="iconic-container" data-width="128" data-height="90" transform="translate(0 19)">
    <path d="M48 19.5v55c0 .828.672 1.5 1.5 1.5h65c.828 0 1.937.51 2.476 1.139l10.048 11.722c.539.629.976.467.976-.361v-69c0-.828-.672-1.5-1.5-1.5h-77c-.828 0-1.5.672-1.5 1.5z" class="iconic-chat-bubble iconic-chat-bubble-front iconic-property-fill" />
    <path d="M0 1.5v69c0 .828.437.99.976.361l10.048-11.722c.539-.629 1.648-1.139 2.476-1.139h65c.828 0 1.5-.672 1.5-1.5v-55c0-.828-.672-1.5-1.5-1.5h-77c-.828 0-1.5.672-1.5 1.5z" clip-path="url(#iconic-size-lg-chat-clip-0)" class="iconic-chat-bubble iconic-chat-bubble-back iconic-property-accent iconic-property-fill"
    />
  </g>
</svg>