<svg version="1.1" xmlns="http://www.w3.org/2000/svg" width="32" height="32" data-icon="chat" class="iconic iconic-chat iconic-size-md" viewBox="0 0 32 32">
  <g class="iconic-metadata">
    <title>Chat</title>
  </g>
  <defs>
    <clipPath id="iconic-size-md-chat-clip-0">
      <path d="M11 18.875h-11v-18.875h22v6h-11z" />
    </clipPath>
  </defs>
  <g class="iconic-container" data-width="32" data-height="26" transform="translate(0 3)">
    <path d="M12 7.5v14c0 .276.224.5.5.5h15c.276 0 .658.158.854.354l3.293 3.293c.195.195.354.13.354-.146v-18c0-.276-.224-.5-.5-.5h-19c-.276 0-.5.224-.5.5z" class="iconic-chat-bubble iconic-chat-bubble-front iconic-property-fill" />
    <path d="M0 .5v18c0 .276.158.342.354.146l3.293-3.293c.195-.195.577-.354.853-.354h15c.276 0 .5-.224.5-.5v-14c0-.276-.224-.5-.5-.5h-19c-.276 0-.5.224-.5.5z" clip-path="url(#iconic-size-md-chat-clip-0)" class="iconic-chat-bubble iconic-chat-bubble-back iconic-property-accent iconic-property-fill"
    />
  </g>
</svg>