<svg version="1.1" xmlns="http://www.w3.org/2000/svg" width="32" height="32" data-icon="clipboard" class="iconic iconic-clipboard iconic-size-md" viewBox="0 0 32 32">
  <g class="iconic-metadata">
    <title>Clipboard</title>
  </g>
  <defs>
    <clipPath id="iconic-size-md-clipboard-clip-0">
      <path d="M20.444 6c.345.591.556 1.268.556 2v2h-18v-2c0-.732.212-1.409.556-2h-3.556v26h24v-26h-3.556z" />
    </clipPath>
  </defs>
  <g class="iconic-container" data-width="24" data-height="32" transform="translate(4)">
    <path clip-path="url(#iconic-size-md-clipboard-clip-0)" d="M23.5 32h-23c-.276 0-.5-.224-.5-.5v-25c0-.276.224-.5.5-.5h23c.276 0 .5.224.5.5v25c0 .276-.224.5-.5.5z" class="iconic-clipboard-board iconic-property-fill" />
    <path d="M12 0c-1.654 0-3 1.346-3 3v3h6v-3c0-1.654-1.346-3-3-3zm0 4c-.552 0-1-.448-1-1s.448-1 1-1 1 .448 1 1-.448 1-1 1z" class="iconic-clipboard-clip iconic-clipboard-clip-loop iconic-property-accent iconic-property-fill" />
    <path d="M17 5h-10c-1.657 0-3 1.343-3 3v1h16v-1c0-1.657-1.343-3-3-3z" class="iconic-clipboard-clip iconic-clipboard-clip-base iconic-property-accent iconic-property-fill" />
  </g>
</svg>