<svg version="1.1" xmlns="http://www.w3.org/2000/svg" width="16" height="16" data-icon="clipboard" class="iconic iconic-clipboard iconic-size-sm" viewBox="0 0 16 16">
  <g class="iconic-metadata">
    <title>Clipboard</title>
  </g>
  <defs>
    <clipPath id="iconic-size-sm-clipboard-clip-0">
      <path d="M11 3v2h-9v-2h-2v13h13v-13z" />
    </clipPath>
  </defs>
  <g class="iconic-container" data-width="13" data-height="16" transform="translate(1)">
    <path clip-path="url(#iconic-size-sm-clipboard-clip-0)" d="M12.75 16h-12.5c-.138 0-.25-.112-.25-.25v-12.5c0-.138.112-.25.25-.25h12.5c.138 0 .25.112.25.25v12.5c0 .138-.112.25-.25.25z" class="iconic-clipboard-board iconic-property-fill" />
    <path stroke="#000" d="M7.5 3.021v-1.521c0-.552-.448-1-1-1s-1 .448-1 1v1.479" class="iconic-clipboard-clip iconic-clipboard-clip-loop iconic-property-accent iconic-property-stroke" fill="none" />
    <path d="M9 2h-5c-.55 0-1 .45-1 1v1h7v-1c0-.55-.45-1-1-1z" class="iconic-clipboard-clip iconic-clipboard-clip-base iconic-property-accent iconic-property-fill" />
  </g>
</svg>