<svg version="1.1" xmlns="http://www.w3.org/2000/svg" width="16" height="16" data-icon="cloudy" class="iconic iconic-cloudy iconic-size-sm" viewBox="0 0 16 16">
  <g class="iconic-metadata">
    <title>Cloudy</title>
  </g>
  <defs>
    <clipPath id="iconic-size-sm-cloudy-clip-0">
      <path d="M2.248 7.325c.735-2.54 3.063-4.325 5.752-4.325.702 0 1.373.127 2 .35v-3.35h-10v9h.012c.562-.744 1.326-1.336 2.237-1.675z" />
    </clipPath>
  </defs>
  <g class="iconic-container" data-width="16" data-height="16">
    <circle cx="5" cy="5" r="5" clip-path="url(#iconic-size-sm-cloudy-clip-0)" class="iconic-cloudy-sun iconic-property-accent iconic-property-fill" />
    <path d="M13 10v-1c0-2.757-2.243-5-5-5-2.454 0-4.49 1.78-4.91 4.114-1.767.415-3.09 1.995-3.09 3.886 0 2.206 1.794 4 4 4h9c1.654 0 3-1.346 3-3s-1.346-3-3-3z" class="iconic-cloudy-cloud iconic-property-fill" />
  </g>
</svg>