<svg version="1.1" xmlns="http://www.w3.org/2000/svg" width="32" height="32" data-icon="cloudy" class="iconic iconic-cloudy iconic-size-md" viewBox="0 0 32 32">
  <g class="iconic-metadata">
    <title>Cloudy</title>
  </g>
  <defs>
    <clipPath id="iconic-size-md-cloudy-clip-0">
      <path d="M3.184 15.562c1.01-4.964 5.45-8.567 10.813-8.567 2.17 0 4.193.618 5.905 1.681-.649-4.896-4.829-8.676-9.902-8.676-5.523 0-10 4.477-10 10 0 2.331.804 4.47 2.141 6.17.334-.225.681-.432 1.043-.608z" />
    </clipPath>
  </defs>
  <g class="iconic-container" data-width="32" data-height="31">
    <circle cx="10" cy="10" r="10" clip-path="url(#iconic-size-md-cloudy-clip-0)" class="iconic-cloudy-sun iconic-property-accent iconic-property-fill" />
    <path d="M27 21c-.401-1.976-2.065-3.524-4.046-3.909-.457-4.537-4.298-8.091-8.954-8.091-4.721 0-8.634 3.371-9 8-2.906.852-5 3.822-5 7 0 3.527 2.603 6.521 6 7 4.323 0 20.923 0 21 0 2.76 0 5-2.24 5-5s-2.24-5-5-5z" class="iconic-cloudy-cloud iconic-property-fill"
    />
  </g>
</svg>