<svg version="1.1" xmlns="http://www.w3.org/2000/svg" width="16" height="16" data-icon="cog" class="iconic iconic-cog iconic-size-sm" viewBox="0 0 16 16">
  <g class="iconic-metadata">
    <title>Cog</title>
  </g>
  <g class="iconic-container" data-width="16" data-height="16">
    <path d="M16 8.984v-1.984l-1.971-.986c-.099-.3-.221-.59-.362-.869l.833-2.146-1.5-1.5-2.146.833c-.279-.141-.568-.263-.869-.362l-1.001-1.971h-1.984l-.986 1.971c-.3.099-.59.221-.869.362l-2.146-.833-1.5 1.5.833 2.146c-.141.279-.263.568-.362.869l-1.971 1.001v1.984l1.971.986c.099.3.221.59.362.868l-.833 2.146 1.5 1.5 2.146-.833c.279.141.568.263.869.362l1.001 1.971h1.984l.986-1.971c.3-.099.59-.221.869-.362l2.146.833 1.5-1.5-.833-2.146c.141-.279.263-.568.362-.869l1.971-1.001zm-8 2.016c-1.657 0-3-1.343-3-3s1.343-3 3-3 3 1.343 3 3-1.343 3-3 3z"
    class="iconic-cog-body iconic-property-fill" />
  </g>
</svg>