<svg version="1.1" xmlns="http://www.w3.org/2000/svg" width="32" height="32" data-icon="cog" class="iconic iconic-cog iconic-size-md" viewBox="0 0 32 32">
  <g class="iconic-metadata">
    <title>Cog</title>
  </g>
  <g class="iconic-container" data-width="32" data-height="32">
    <path d="M32 17.969v-3.969l-3.96-1.32c-.278-1.01-.675-1.969-1.183-2.86l1.849-3.742-2.806-2.807-3.73 1.865c-.891-.507-1.851-.903-2.861-1.18l-1.339-3.957h-3.969l-1.32 3.96c-1.01.278-1.969.675-2.86 1.183l-3.742-1.849-2.806 2.806 1.865 3.73c-.507.891-.903 1.851-1.18 2.861l-3.957 1.339v3.969l3.96 1.32c.278 1.01.675 1.969 1.183 2.86l-1.849 3.742 2.806 2.806 3.73-1.865c.891.507 1.851.903 2.861 1.18l1.34 3.957h3.969l1.32-3.96c1.01-.278 1.969-.675 2.86-1.183l3.742 1.849 2.806-2.806-1.865-3.73c.507-.891.903-1.851 1.18-2.861l3.957-1.34zm-16 5.031c-3.866 0-7-3.134-7-7s3.134-7 7-7 7 3.134 7 7-3.134 7-7 7z"
    class="iconic-cog-body iconic-property-fill" />
  </g>
</svg>