<svg version="1.1" xmlns="http://www.w3.org/2000/svg" width="128" height="128" data-icon="cog" class="iconic iconic-cog iconic-size-lg" viewBox="0 0 128 128">
  <g class="iconic-metadata">
    <title>Cog</title>
  </g>
  <g class="iconic-container" data-width="128" data-height="128">
    <path d="M128 73.875v-19.875l-14.323-3.581c-1.156-4.239-2.841-8.257-4.979-11.986l7.539-12.706-14.054-14.054-12.666 7.599c-3.731-2.133-7.751-3.814-11.992-4.966l-3.651-14.308h-19.875l-3.581 14.323c-4.239 1.156-8.257 2.841-11.986 4.978l-12.706-7.539-14.054 14.054 7.599 12.666c-2.133 3.731-3.814 7.751-4.966 11.992l-14.308 3.651v19.875l14.323 3.581c1.156 4.239 2.841 8.257 4.979 11.986l-7.539 12.706 14.054 14.054 12.666-7.599c3.731 2.133 7.751 3.814 11.992 4.966l3.651 14.308h19.875l3.581-14.323c4.239-1.156 8.257-2.841 11.986-4.979l12.705 7.539 14.054-14.054-7.599-12.666c2.133-3.731 3.814-7.751 4.966-11.992l14.308-3.651zm-64 24.125c-18.778 0-34-15.222-34-34s15.222-34 34-34 34 15.222 34 34-15.222 34-34 34z"
    class="iconic-cog-body iconic-property-fill" />
  </g>
</svg>