<svg version="1.1" xmlns="http://www.w3.org/2000/svg" width="16" height="16" data-icon="cogs" class="iconic iconic-cogs iconic-size-sm" viewBox="0 0 16 16">
  <g class="iconic-metadata">
    <title>Cogs</title>
  </g>
  <g class="iconic-container" data-width="16" data-height="16">
    <path d="M8.984 5.283c.014-.19.011-.379-.002-.571l.002.005.921-1.076-.48-1.158-1.408-.1.002.005c-.126-.146-.259-.281-.402-.406l-.033-1.47-1.238-.513-1.063 1.016c-.19-.014-.379-.012-.571.002l.005-.002-1.076-.921-1.158.48-.1 1.408.005-.002c-.146.126-.281.259-.406.402l-1.47.033-.513 1.237 1.016 1.063c-.014.19-.012.379.002.571l-.002-.005-.921 1.076.479 1.158 1.408.1-.002-.005c.126.146.259.281.402.406l.033 1.47 1.237.513 1.063-1.016c.19.014.379.012.571-.002l-.005.002 1.076.921 1.158-.479.1-1.408-.005.002c.146-.126.281-.259.406-.402l1.47-.033.513-1.238-1.016-1.063zm-3.259 1.467c-.967.4-2.075-.059-2.475-1.025-.4-.967.059-2.075 1.025-2.475.967-.4 2.075.059 2.475 1.025.401.967-.059 2.075-1.025 2.475z"
    class="iconic-cogs-cog iconic-cogs-cog-large iconic-property-fill" />
    <path d="M16 12.492v-.992l-1-.5v.004c-.048-.145-.104-.284-.171-.419l.421-1.086-.75-.75-1.086.421c-.135-.068-.274-.123-.419-.171h.004l-.508-1h-.992l-.5 1h.004c-.145.048-.284.104-.419.171l-1.086-.421-.75.75.421 1.085c-.068.135-.123.274-.171.419v-.004l-1 .508v.992l1 .5v-.004c.048.145.104.284.171.419l-.421 1.086.75.75 1.086-.421c.135.068.274.123.419.171h-.004l.508 1h.992l.5-1h-.004c.145-.048.284-.104.419-.171l1.086.421.75-.75-.421-1.086c.068-.135.123-.274.171-.419v.004l1-.508zm-4 1.008c-.828 0-1.5-.672-1.5-1.5s.672-1.5 1.5-1.5 1.5.672 1.5 1.5-.672 1.5-1.5 1.5z"
    class="iconic-cogs-cog iconic-cogs-cog-small iconic-property-accent iconic-property-fill" />
  </g>
</svg>