<svg version="1.1" xmlns="http://www.w3.org/2000/svg" width="32" height="32" data-icon="command" class="iconic iconic-command iconic-size-md" viewBox="0 0 32 32">
  <g class="iconic-metadata">
    <title>Command</title>
  </g>
  <g class="iconic-container" data-width="32" data-height="32">
    <path stroke="#000" stroke-width="3" d="M6.5 11.5c-2.761 0-5-2.239-5-5s2.239-5 5-5 5 2.239 5 5v19c0 2.761-2.239 5-5 5s-5-2.239-5-5 2.239-5 5-5h19c2.761 0 5 2.239 5 5s-2.239 5-5 5-5-2.239-5-5v-19c0-2.761 2.239-5 5-5s5 2.239 5 5-2.239 5-5 5h-19z" class="iconic-property-stroke"
    fill="none" />
  </g>
</svg>