<svg version="1.1" xmlns="http://www.w3.org/2000/svg" width="128" height="128" data-icon="connections" class="iconic iconic-connections iconic-size-lg" viewBox="0 0 128 128">
  <g class="iconic-metadata">
    <title>Connections</title>
  </g>
  <defs>
    <clipPath id="iconic-size-lg-connections-clip-0">
      <path d="M94 104c0-9.925 8.075-18 18-18 6.967 0 13.009 3.986 16 9.791v-79.173c-2.151 3.239-5.829 5.381-10 5.381-6.617 0-12-5.383-12-12 0-4.171 2.142-7.849 5.381-10h-111.381v42.025c1.825-2.438 4.727-4.025 8-4.025 5.514 0 10 4.486 10 10s-4.486 10-10 10c-3.273 0-6.175-1.588-8-4.026v66.025h103.791c-5.805-2.99-9.791-9.033-9.791-16zm-30-18c-12.131 0-22-9.869-22-22s9.869-22 22-22 22 9.869 22 22-9.869 22-22 22z"
      />
    </clipPath>
  </defs>
  <g class="iconic-container" data-width="128" data-height="120" transform="translate(0 4)">
    <path clip-path="url(#iconic-size-lg-connections-clip-0)" stroke="#000" stroke-width="4" class="iconic-connections-line iconic-connections-line-top-right iconic-property-stroke" fill="none" d="M118 10l-54 54" />
    <path clip-path="url(#iconic-size-lg-connections-clip-0)" stroke="#000" stroke-width="4" class="iconic-connections-line iconic-connections-line-left iconic-property-stroke" fill="none" d="M64 64l-56-16" />
    <path clip-path="url(#iconic-size-lg-connections-clip-0)" stroke="#000" stroke-width="4" class="iconic-connections-line iconic-connections-line-bottom-right iconic-property-stroke" fill="none" d="M112 104l-48-40" />
    <circle cx="64" cy="64" r="20" class="iconic-connections-dot iconic-connections-dot-center iconic-property-accent iconic-property-fill" />
    <circle cx="8" cy="48" r="8" class="iconic-connections-dot iconic-connections-dot-left iconic-property-fill" />
    <circle cx="118" cy="10" r="10" class="iconic-connections-dot iconic-connections-dot-top-right iconic-property-fill" />
    <circle cx="112" cy="104" r="16" class="iconic-connections-dot iconic-connections-dot-bottom-right iconic-property-fill" />
  </g>
</svg>