<svg version="1.1" xmlns="http://www.w3.org/2000/svg" width="128" height="128" data-icon="cpu" class="iconic iconic-cpu iconic-size-lg" viewBox="0 0 128 128">
  <g class="iconic-metadata">
    <title>Cpu</title>
  </g>
  <g class="iconic-container" data-width="128" data-height="128">
    <path stroke="#000" stroke-width="2" stroke-linecap="square" class="iconic-cpu-pin iconic-cpu-pin-top iconic-cpu-pin-top-1 iconic-property-stroke" fill="none" d="M19 1v12" />
    <path stroke="#000" stroke-width="2" stroke-linecap="square" class="iconic-cpu-pin iconic-cpu-pin-top iconic-cpu-pin-top-2 iconic-property-stroke" fill="none" d="M25 1v12" />
    <path stroke="#000" stroke-width="2" stroke-linecap="square" class="iconic-cpu-pin iconic-cpu-pin-top iconic-cpu-pin-top-3 iconic-property-stroke" fill="none" d="M31 1v12" />
    <path stroke="#000" stroke-width="2" stroke-linecap="square" class="iconic-cpu-pin iconic-cpu-pin-top iconic-cpu-pin-top-4 iconic-property-stroke" fill="none" d="M37 1v12" />
    <path stroke="#000" stroke-width="2" stroke-linecap="square" class="iconic-cpu-pin iconic-cpu-pin-top iconic-cpu-pin-top-5 iconic-property-stroke" fill="none" d="M43 1v12" />
    <path stroke="#000" stroke-width="2" stroke-linecap="square" class="iconic-cpu-pin iconic-cpu-pin-top iconic-cpu-pin-top-6 iconic-property-stroke" fill="none" d="M49 1v12" />
    <path stroke="#000" stroke-width="2" stroke-linecap="square" class="iconic-cpu-pin iconic-cpu-pin-top iconic-cpu-pin-top-7 iconic-property-stroke" fill="none" d="M55 1v12" />
    <path stroke="#000" stroke-width="2" stroke-linecap="square" class="iconic-cpu-pin iconic-cpu-pin-top iconic-cpu-pin-top-8 iconic-property-stroke" fill="none" d="M61 1v12" />
    <path stroke="#000" stroke-width="2" stroke-linecap="square" class="iconic-cpu-pin iconic-cpu-pin-top iconic-cpu-pin-top-9 iconic-property-stroke" fill="none" d="M67 1v12" />
    <path stroke="#000" stroke-width="2" stroke-linecap="square" class="iconic-cpu-pin iconic-cpu-pin-top iconic-cpu-pin-top-10 iconic-property-stroke" fill="none" d="M73 1v12" />
    <path stroke="#000" stroke-width="2" stroke-linecap="square" class="iconic-cpu-pin iconic-cpu-pin-top iconic-cpu-pin-top-11 iconic-property-stroke" fill="none" d="M79 1v12" />
    <path stroke="#000" stroke-width="2" stroke-linecap="square" class="iconic-cpu-pin iconic-cpu-pin-top iconic-cpu-pin-top-12 iconic-property-stroke" fill="none" d="M85 1v12" />
    <path stroke="#000" stroke-width="2" stroke-linecap="square" class="iconic-cpu-pin iconic-cpu-pin-top iconic-cpu-pin-top-13 iconic-property-stroke" fill="none" d="M91 1v12" />
    <path stroke="#000" stroke-width="2" stroke-linecap="square" class="iconic-cpu-pin iconic-cpu-pin-top iconic-cpu-pin-top-14 iconic-property-stroke" fill="none" d="M97 1v12" />
    <path stroke="#000" stroke-width="2" stroke-linecap="square" class="iconic-cpu-pin iconic-cpu-pin-top iconic-cpu-pin-top-15 iconic-property-stroke" fill="none" d="M103 1v12" />
    <path stroke="#000" stroke-width="2" stroke-linecap="square" class="iconic-cpu-pin iconic-cpu-pin-top iconic-cpu-pin-top-16 iconic-property-stroke" fill="none" d="M109 1v12" />
    <path stroke="#000" stroke-width="2" stroke-linecap="square" class="iconic-cpu-pin iconic-cpu-pin-bottom iconic-cpu-pin-bottom-1 iconic-property-stroke" fill="none" d="M19 115v12" />
    <path stroke="#000" stroke-width="2" stroke-linecap="square" class="iconic-cpu-pin iconic-cpu-pin-bottom iconic-cpu-pin-bottom-2 iconic-property-stroke" fill="none" d="M25 115v12" />
    <path stroke="#000" stroke-width="2" stroke-linecap="square" class="iconic-cpu-pin iconic-cpu-pin-bottom iconic-cpu-pin-bottom-3 iconic-property-stroke" fill="none" d="M31 115v12" />
    <path stroke="#000" stroke-width="2" stroke-linecap="square" class="iconic-cpu-pin iconic-cpu-pin-bottom iconic-cpu-pin-bottom-4 iconic-property-stroke" fill="none" d="M37 115v12" />
    <path stroke="#000" stroke-width="2" stroke-linecap="square" class="iconic-cpu-pin iconic-cpu-pin-bottom iconic-cpu-pin-bottom-5 iconic-property-stroke" fill="none" d="M43 115v12" />
    <path stroke="#000" stroke-width="2" stroke-linecap="square" class="iconic-cpu-pin iconic-cpu-pin-bottom iconic-cpu-pin-bottom-6 iconic-property-stroke" fill="none" d="M49 115v12" />
    <path stroke="#000" stroke-width="2" stroke-linecap="square" class="iconic-cpu-pin iconic-cpu-pin-bottom iconic-cpu-pin-bottom-7 iconic-property-stroke" fill="none" d="M55 115v12" />
    <path stroke="#000" stroke-width="2" stroke-linecap="square" class="iconic-cpu-pin iconic-cpu-pin-bottom iconic-cpu-pin-bottom-8 iconic-property-stroke" fill="none" d="M61 115v12" />
    <path stroke="#000" stroke-width="2" stroke-linecap="square" class="iconic-cpu-pin iconic-cpu-pin-bottom iconic-cpu-pin-bottom-9 iconic-property-stroke" fill="none" d="M67 115v12" />
    <path stroke="#000" stroke-width="2" stroke-linecap="square" class="iconic-cpu-pin iconic-cpu-pin-bottom iconic-cpu-pin-bottom-10 iconic-property-stroke" fill="none" d="M73 115v12" />
    <path stroke="#000" stroke-width="2" stroke-linecap="square" class="iconic-cpu-pin iconic-cpu-pin-bottom iconic-cpu-pin-bottom-11 iconic-property-stroke" fill="none" d="M79 115v12" />
    <path stroke="#000" stroke-width="2" stroke-linecap="square" class="iconic-cpu-pin iconic-cpu-pin-bottom iconic-cpu-pin-bottom-12 iconic-property-stroke" fill="none" d="M85 115v12" />
    <path stroke="#000" stroke-width="2" stroke-linecap="square" class="iconic-cpu-pin iconic-cpu-pin-bottom iconic-cpu-pin-bottom-13 iconic-property-stroke" fill="none" d="M91 115v12" />
    <path stroke="#000" stroke-width="2" stroke-linecap="square" class="iconic-cpu-pin iconic-cpu-pin-bottom iconic-cpu-pin-bottom-14 iconic-property-stroke" fill="none" d="M97 115v12" />
    <path stroke="#000" stroke-width="2" stroke-linecap="square" class="iconic-cpu-pin iconic-cpu-pin-bottom iconic-cpu-pin-bottom-15 iconic-property-stroke" fill="none" d="M103 115v12" />
    <path stroke="#000" stroke-width="2" stroke-linecap="square" class="iconic-cpu-pin iconic-cpu-pin-bottom iconic-cpu-pin-bottom-16 iconic-property-stroke" fill="none" d="M109 115v12" />
    <path stroke="#000" stroke-width="2" stroke-linecap="square" class="iconic-cpu-pin iconic-cpu-pin-right iconic-cpu-pin-right-1 iconic-property-stroke" fill="none" d="M127 19h-12" />
    <path stroke="#000" stroke-width="2" stroke-linecap="square" class="iconic-cpu-pin iconic-cpu-pin-right iconic-cpu-pin-right-2 iconic-property-stroke" fill="none" d="M127 25h-12" />
    <path stroke="#000" stroke-width="2" stroke-linecap="square" class="iconic-cpu-pin iconic-cpu-pin-right iconic-cpu-pin-right-3 iconic-property-stroke" fill="none" d="M127 31h-12" />
    <path stroke="#000" stroke-width="2" stroke-linecap="square" class="iconic-cpu-pin iconic-cpu-pin-right iconic-cpu-pin-right-4 iconic-property-stroke" fill="none" d="M127 37h-12" />
    <path stroke="#000" stroke-width="2" stroke-linecap="square" class="iconic-cpu-pin iconic-cpu-pin-right iconic-cpu-pin-right-5 iconic-property-stroke" fill="none" d="M127 43h-12" />
    <path stroke="#000" stroke-width="2" stroke-linecap="square" class="iconic-cpu-pin iconic-cpu-pin-right iconic-cpu-pin-right-6 iconic-property-stroke" fill="none" d="M127 49h-12" />
    <path stroke="#000" stroke-width="2" stroke-linecap="square" class="iconic-cpu-pin iconic-cpu-pin-right iconic-cpu-pin-right-7 iconic-property-stroke" fill="none" d="M127 55h-12" />
    <path stroke="#000" stroke-width="2" stroke-linecap="square" class="iconic-cpu-pin iconic-cpu-pin-right iconic-cpu-pin-right-8 iconic-property-stroke" fill="none" d="M127 61h-12" />
    <path stroke="#000" stroke-width="2" stroke-linecap="square" class="iconic-cpu-pin iconic-cpu-pin-right iconic-cpu-pin-right-9 iconic-property-stroke" fill="none" d="M127 67h-12" />
    <path stroke="#000" stroke-width="2" stroke-linecap="square" class="iconic-cpu-pin iconic-cpu-pin-right iconic-cpu-pin-right-10 iconic-property-stroke" fill="none" d="M127 73h-12" />
    <path stroke="#000" stroke-width="2" stroke-linecap="square" class="iconic-cpu-pin iconic-cpu-pin-right iconic-cpu-pin-right-11 iconic-property-stroke" fill="none" d="M127 79h-12" />
    <path stroke="#000" stroke-width="2" stroke-linecap="square" class="iconic-cpu-pin iconic-cpu-pin-right iconic-cpu-pin-right-12 iconic-property-stroke" fill="none" d="M127 85h-12" />
    <path stroke="#000" stroke-width="2" stroke-linecap="square" class="iconic-cpu-pin iconic-cpu-pin-right iconic-cpu-pin-right-13 iconic-property-stroke" fill="none" d="M127 91h-12" />
    <path stroke="#000" stroke-width="2" stroke-linecap="square" class="iconic-cpu-pin iconic-cpu-pin-right iconic-cpu-pin-right-14 iconic-property-stroke" fill="none" d="M127 97h-12" />
    <path stroke="#000" stroke-width="2" stroke-linecap="square" class="iconic-cpu-pin iconic-cpu-pin-right iconic-cpu-pin-right-15 iconic-property-stroke" fill="none" d="M127 103h-12" />
    <path stroke="#000" stroke-width="2" stroke-linecap="square" class="iconic-cpu-pin iconic-cpu-pin-right iconic-cpu-pin-right-16 iconic-property-stroke" fill="none" d="M127 109h-12" />
    <path stroke="#000" stroke-width="2" stroke-linecap="square" class="iconic-cpu-pin iconic-cpu-pin-left iconic-cpu-pin-left-1 iconic-property-stroke" fill="none" d="M13 19h-12" />
    <path stroke="#000" stroke-width="2" stroke-linecap="square" class="iconic-cpu-pin iconic-cpu-pin-left iconic-cpu-pin-left-2 iconic-property-stroke" fill="none" d="M13 25h-12" />
    <path stroke="#000" stroke-width="2" stroke-linecap="square" class="iconic-cpu-pin iconic-cpu-pin-left iconic-cpu-pin-left-3 iconic-property-stroke" fill="none" d="M13 31h-12" />
    <path stroke="#000" stroke-width="2" stroke-linecap="square" class="iconic-cpu-pin iconic-cpu-pin-left iconic-cpu-pin-left-4 iconic-property-stroke" fill="none" d="M13 37h-12" />
    <path stroke="#000" stroke-width="2" stroke-linecap="square" class="iconic-cpu-pin iconic-cpu-pin-left iconic-cpu-pin-left-5 iconic-property-stroke" fill="none" d="M13 43h-12" />
    <path stroke="#000" stroke-width="2" stroke-linecap="square" class="iconic-cpu-pin iconic-cpu-pin-left iconic-cpu-pin-left-6 iconic-property-stroke" fill="none" d="M13 49h-12" />
    <path stroke="#000" stroke-width="2" stroke-linecap="square" class="iconic-cpu-pin iconic-cpu-pin-left iconic-cpu-pin-left-7 iconic-property-stroke" fill="none" d="M13 55h-12" />
    <path stroke="#000" stroke-width="2" stroke-linecap="square" class="iconic-cpu-pin iconic-cpu-pin-left iconic-cpu-pin-left-8 iconic-property-stroke" fill="none" d="M13 61h-12" />
    <path stroke="#000" stroke-width="2" stroke-linecap="square" class="iconic-cpu-pin iconic-cpu-pin-left iconic-cpu-pin-left-9 iconic-property-stroke" fill="none" d="M13 67h-12" />
    <path stroke="#000" stroke-width="2" stroke-linecap="square" class="iconic-cpu-pin iconic-cpu-pin-left iconic-cpu-pin-left-10 iconic-property-stroke" fill="none" d="M13 73h-12" />
    <path stroke="#000" stroke-width="2" stroke-linecap="square" class="iconic-cpu-pin iconic-cpu-pin-left iconic-cpu-pin-left-11 iconic-property-stroke" fill="none" d="M13 79h-12" />
    <path stroke="#000" stroke-width="2" stroke-linecap="square" class="iconic-cpu-pin iconic-cpu-pin-left iconic-cpu-pin-left-12 iconic-property-stroke" fill="none" d="M13 85h-12" />
    <path stroke="#000" stroke-width="2" stroke-linecap="square" class="iconic-cpu-pin iconic-cpu-pin-left iconic-cpu-pin-left-13 iconic-property-stroke" fill="none" d="M13 91h-12" />
    <path stroke="#000" stroke-width="2" stroke-linecap="square" class="iconic-cpu-pin iconic-cpu-pin-left iconic-cpu-pin-left-14 iconic-property-stroke" fill="none" d="M13 97h-12" />
    <path stroke="#000" stroke-width="2" stroke-linecap="square" class="iconic-cpu-pin iconic-cpu-pin-left iconic-cpu-pin-left-15 iconic-property-stroke" fill="none" d="M13 103h-12" />
    <path stroke="#000" stroke-width="2" stroke-linecap="square" class="iconic-cpu-pin iconic-cpu-pin-left iconic-cpu-pin-left-16 iconic-property-stroke" fill="none" d="M13 109h-12" />
    <path d="M110 16h-92c-1.1 0-2 .9-2 2v92c0 1.1.9 2 2 2h92c1.1 0 2-.9 2-2v-92c0-1.1-.9-2-2-2zm-6 57.125c0 .55-.403 1.201-.894 1.447l-2.211 1.105c-.492.246-.894.897-.894 1.447v21.875c0 .55-.45 1-1 1h-70c-.55 0-1-.45-1-1v-22c0-.55-.403-1.201-.894-1.447l-2.211-1.105c-.492-.246-.894-.897-.894-1.447v-18c0-.55.403-1.201.894-1.447l2.211-1.106c.492-.246.894-.897.894-1.447v-22c0-.55.45-1 1-1h70c.55 0 1 .45 1 1v22c0 .55.403 1.201.894 1.447l2.211 1.105c.492.246.894.897.894 1.447v18.125z"
    class="iconic-cpu-wafer iconic-cpu-wafer-outer iconic-property-fill" />
    <path d="M97 30h-66c-.55 0-1 .45-1 1v66c0 .55.45 1 1 1h66c.55 0 1-.45 1-1v-66c0-.55-.45-1-1-1z" class="iconic-cpu-wafer iconic-cpu-wafer-inner iconic-property-fill" />
  </g>
</svg>