<svg version="1.1" xmlns="http://www.w3.org/2000/svg" width="32" height="32" data-icon="credit-card" class="iconic iconic-credit-card iconic-size-md" viewBox="0 0 32 32">
  <g class="iconic-metadata">
    <title>Credit Card</title>
  </g>
  <defs>
    <clipPath id="iconic-size-md-credit-card-clip-0">
      <path d="M0 0v20h32v-20h-32zm8 16.75c0 .137-.112.25-.25.25h-4.5c-.138 0-.25-.113-.25-.25v-2.5c0-.137.112-.25.25-.25h4.5c.138 0 .25.113.25.25v2.5zm15-6c0 .138-.113.25-.25.25h-19.5c-.138 0-.25-.113-.25-.25v-1.5c0-.137.112-.25.25-.25h19.5c.137 0 .25.113.25.25v1.5zm5 0c0 .138-.113.25-.25.25h-3.5c-.137 0-.25-.113-.25-.25v-1.5c0-.137.113-.25.25-.25h3.5c.137 0 .25.113.25.25v1.5zm3-4.75h-30v-3h30v3z"
      />
    </clipPath>
  </defs>
  <g class="iconic-container" data-width="32" data-height="20" transform="translate(0 6)">
    <path clip-path="url(#iconic-size-md-credit-card-clip-0)" d="M31 20h-30c-.552 0-1-.448-1-1v-18c0-.552.448-1 1-1h30c.552 0 1 .448 1 1v18c0 .552-.448 1-1 1z" class="iconic-credit-card-body iconic-property-fill" />
  </g>
</svg>