<svg version="1.1" xmlns="http://www.w3.org/2000/svg" width="128" height="128" data-icon="dashboard" class="iconic iconic-dashboard iconic-size-lg" viewBox="0 0 128 128">
  <g class="iconic-metadata">
    <title>Dashboard</title>
  </g>
  <defs>
    <clipPath id="iconic-size-lg-dashboard-clip-0">
      <path d="M0 0v122h128v-122h-128zm73.9 73.9c-2.644 2.644-6.16 4.1-9.9 4.1s-7.255-1.456-9.899-4.101c-4.01-4.01-25.253-37.144-29.471-43.746-1.011-1.582-.785-3.655.542-4.982.772-.772 1.796-1.172 2.83-1.172.743 0 1.49.206 2.152.629 6.601 4.218 39.736 25.461 43.746 29.471 2.645 2.644 4.101 6.16 4.101 9.9s-1.456 7.255-4.1 9.9z"
      />
    </clipPath>
  </defs>
  <g class="iconic-container" data-width="128" data-height="122" transform="translate(0 3)">
    <path stroke="#000" stroke-width="8" d="M90 118.001c2.562-1.244 5.204-2.666 7.547-4.248 3.192-2.156 6.165-4.612 8.88-7.327 2.715-2.715 5.17-5.688 7.327-8.88 2.156-3.192 4.014-6.603 5.532-10.192s2.697-7.357 3.496-11.263 1.219-7.95 1.219-12.092-.42-8.186-1.219-12.092-1.978-7.673-3.496-11.263c-1.518-3.589-3.376-7-5.532-10.192s-4.612-6.165-7.327-8.88c-2.715-2.715-5.688-5.17-8.88-7.327-3.192-2.156-6.603-4.014-10.192-5.532s-7.357-2.697-11.263-3.496-7.95-1.219-12.092-1.219-8.186.42-12.092 1.219-7.673 1.978-11.263 3.496c-3.589 1.518-7 3.376-10.192 5.532s-6.165 4.612-8.88 7.327-5.17 5.688-7.327 8.88-4.014 6.603-5.532 10.192c-1.518 3.589-2.697 7.357-3.496 11.263s-1.219 7.95-1.219 12.092.42 8.186 1.219 12.092 1.978 7.673 3.496 11.263 3.376 7 5.532 10.192 4.612 6.165 7.327 8.88c2.715 2.715 5.688 5.17 8.88 7.327 2.397 1.619 4.918 2.982 7.544 4.247l52.002.001z"
    class="iconic-dashboard-body iconic-property-stroke" fill="none" />
    <path clip-path="url(#iconic-size-lg-dashboard-clip-0)" stroke="#000" stroke-width="4" stroke-linecap="round" d="M32.887 94.779c-3.981-3.981-7.203-8.722-9.43-13.986-2.227-5.264-3.458-11.052-3.458-17.127s1.231-11.863 3.458-17.127 5.448-10.005 9.43-13.986c3.981-3.981 8.722-7.203 13.986-9.43s11.052-3.458 17.127-3.458 11.863 1.231 17.127 3.458c5.264 2.227 10.005 5.448 13.986 9.43 3.981 3.981 7.203 8.722 9.43 13.986 2.226 5.264 3.458 11.052 3.458 17.127s-1.231 11.863-3.458 17.127c-2.227 5.264-5.448 10.005-9.43 13.986"
    class="iconic-dashboard-values iconic-property-accent iconic-property-stroke" fill="none" />
    <path d="M71.071 56.929c-3.905-3.905-43.071-28.929-43.071-28.929s25.024 39.166 28.929 43.071c3.905 3.905 10.237 3.905 14.142 0 3.905-3.905 3.905-10.237 0-14.142zm-7.071 9.071c-1.105 0-2-.895-2-2s.895-2 2-2 2 .895 2 2-.895 2-2 2z" class="iconic-dashboard-needle iconic-property-fill"
    />
  </g>
</svg>