<svg version="1.1" xmlns="http://www.w3.org/2000/svg" width="128" height="128" data-icon="database" class="iconic iconic-database iconic-size-lg" viewBox="0 0 128 128">
  <g class="iconic-metadata">
    <title>Database</title>
  </g>
  <g class="iconic-container" data-width="72" data-height="128" transform="translate(28)">
    <path d="M36 72c19.851 0 36-16.149 36-36 0-19.882-16.118-36-36-36s-36 16.118-36 36c0 19.851 16.149 36 36 36z" class="iconic-database-disc iconic-database-disc-top iconic-property-fill" />
    <path d="M36 100c19.851 0 36-16.149 36-36v-10.577c-6.488 13.351-20.186 22.577-36 22.577s-29.512-9.226-36-22.577v10.577c0 19.851 16.149 36 36 36z" class="iconic-database-disc iconic-database-disc-middle iconic-property-accent iconic-property-fill"
    />
    <path d="M36 104c-15.814 0-29.512-9.226-36-22.577v10.577c0 19.882 16.118 36 36 36s36-16.118 36-36v-10.577c-6.488 13.351-20.186 22.577-36 22.577z" class="iconic-database-disc iconic-database-disc-bottom iconic-property-fill" />
  </g>
</svg>