<svg version="1.1" xmlns="http://www.w3.org/2000/svg" width="128" height="128" data-icon="eyedropper" class="iconic iconic-eyedropper iconic-size-lg" viewBox="0 0 128 128">
  <g class="iconic-metadata">
    <title>Eyedropper</title>
  </g>
  <g class="iconic-container" data-width="127" data-height="127">
    <path class="iconic-eyedropper-fluid iconic-property-fill" d="M16.787 94.781l16.213 16.213-13.104 12.966-17.896.034v-14.606z" />
    <path stroke="#000" stroke-width="4" d="M103.372 40.417l-84.415 84.482c-.586.586-1.732 1.063-2.56 1.064l-12.896.027c-.828.002-1.5-.668-1.5-1.497v-12.863c0-.828.475-1.975 1.061-2.561l84.883-84.883" class="iconic-eyedropper-tube iconic-property-stroke"
    fill="none" />
    <path d="M86.922 25.976l22.849-22.849c4.169-4.169 10.927-4.169 15.096 0s4.169 10.927 0 15.096l-22.294 22.294-15.651-14.541z" class="iconic-eyedropper-top iconic-eyedropper-top-suction iconic-property-fill" />
    <path transform="matrix(.707 -.707 .707 .707 5.495 77.253)" class="iconic-eyedropper-top iconic-eyedropper-top-lip iconic-property-fill" d="M93.172 9.366h5.657v45.255h-5.657z" />
  </g>
</svg>