<svg version="1.1" xmlns="http://www.w3.org/2000/svg" data-icon="flow-three-up" width="128" height="128" class="iconic iconic-flow iconic-orientation-square iconic-size-lg iconic-flow-three-up" viewBox="0 0 128 128">
  <g>
    <title>Flow Three Up</title>
  </g>
  <g data-width="128" data-height="128" class="iconic-container iconic-flow-three-up" transform="translate(0 ) scale(1 1 ) ">
    <path d="M126.5 128h-33c-.828 0-1.5-.672-1.5-1.5v-79c0-.828.672-1.5 1.5-1.5h33c.828 0 1.5.672 1.5 1.5v79c0 .828-.672 1.5-1.5 1.5z" class="iconic-flow-three-up-item iconic-flow-three-up-item-7 iconic-flow-three-up-column-3 iconic-property-fill"></path>
    <path d="M80.5 128h-33c-.828 0-1.5-.672-1.5-1.5v-19c0-.828.672-1.5 1.5-1.5h33c.828 0 1.5.672 1.5 1.5v19c0 .828-.672 1.5-1.5 1.5z" class="iconic-flow-three-up-item iconic-flow-three-up-item-5 iconic-flow-three-up-column-2 iconic-property-fill"></path>
    <path d="M34.5 128h-33c-.828 0-1.5-.672-1.5-1.5v-37c0-.828.672-1.5 1.5-1.5h33c.828 0 1.5.672 1.5 1.5v37c0 .828-.672 1.5-1.5 1.5z" class="iconic-flow-three-up-item iconic-flow-three-up-item-2 iconic-flow-three-up-column-1 iconic-property-fill"></path>
    <path d="M80.5 96h-33c-.828 0-1.5-.672-1.5-1.5v-61c0-.828.672-1.5 1.5-1.5h33c.828 0 1.5.672 1.5 1.5v61c0 .828-.672 1.5-1.5 1.5z" class="iconic-flow-three-up-item iconic-flow-three-up-item-4 iconic-flow-three-up-column-2 iconic-property-fill"></path>
    <path d="M80.5 22h-33c-.828 0-1.5-.672-1.5-1.5v-19c0-.828.672-1.5 1.5-1.5h33c.828 0 1.5.672 1.5 1.5v19c0 .828-.672 1.5-1.5 1.5z" class="iconic-flow-three-up-item iconic-flow-three-up-item-3 iconic-flow-three-up-column-2 iconic-property-fill"></path>
    <path d="M126.5 36h-33c-.828 0-1.5-.672-1.5-1.5v-33c0-.828.672-1.5 1.5-1.5h33c.828 0 1.5.672 1.5 1.5v33c0 .828-.672 1.5-1.5 1.5z" class="iconic-flow-three-up-item iconic-flow-three-up-item-6 iconic-flow-three-up-column-3 iconic-property-fill"></path>
    <path d="M34.5 78h-33c-.828 0-1.5-.672-1.5-1.5v-75c0-.828.672-1.5 1.5-1.5h33c.828 0 1.5.672 1.5 1.5v75c0 .828-.672 1.5-1.5 1.5z" class="iconic-flow-three-up-item iconic-flow-three-up-item-1 iconic-flow-three-up-column-1 iconic-property-fill"></path>
  </g>
</svg>