<svg version="1.1" xmlns="http://www.w3.org/2000/svg" data-icon="flow-four-up" width="16" height="16" class="iconic iconic-flow iconic-orientation-square iconic-size-sm iconic-flow-four-up" viewBox="0 0 16 16">
  <g>
    <title>Flow Four Up</title>
  </g>
  <g data-width="14" data-height="16" class="iconic-container iconic-flow-four-up" transform="scale(1 1 ) translate(1 ) ">
    <path class="iconic-flow-four-up-item iconic-flow-four-up-item-11 iconic-flow-four-up-column-4 iconic-property-fill" d="M12 14h2v2h-2z"></path>
    <path class="iconic-flow-four-up-item iconic-flow-four-up-item-6 iconic-flow-four-up-column-2 iconic-property-fill" d="M4 9h2v7h-2z"></path>
    <path class="iconic-flow-four-up-item iconic-flow-four-up-item-3 iconic-flow-four-up-column-1 iconic-property-fill" d="M0 12h2v4h-2z"></path>
    <path class="iconic-flow-four-up-item iconic-flow-four-up-item-10 iconic-flow-four-up-column-4 iconic-property-fill" d="M12 6h2v6h-2z"></path>
    <path class="iconic-flow-four-up-item iconic-flow-four-up-item-8 iconic-flow-four-up-column-3 iconic-property-fill" d="M8 10h2v6h-2z"></path>
    <path class="iconic-flow-four-up-item iconic-flow-four-up-item-2 iconic-flow-four-up-column-1 iconic-property-fill" d="M0 8h2v2h-2z"></path>
    <path class="iconic-flow-four-up-item iconic-flow-four-up-item-7 iconic-flow-four-up-column-3 iconic-property-fill" d="M8 0h2v8h-2z"></path>
    <path class="iconic-flow-four-up-item iconic-flow-four-up-item-5 iconic-flow-four-up-column-2 iconic-property-fill" d="M4 5h2v2h-2z"></path>
    <path class="iconic-flow-four-up-item iconic-flow-four-up-item-9 iconic-flow-four-up-column-4 iconic-property-fill" d="M12 0h2v4h-2z"></path>
    <path class="iconic-flow-four-up-item iconic-flow-four-up-item-4 iconic-flow-four-up-column-2 iconic-property-fill" d="M4 0h2v3h-2z"></path>
    <path class="iconic-flow-four-up-item iconic-flow-four-up-item-1 iconic-flow-four-up-column-1 iconic-property-fill" d="M0 0h2v6h-2z"></path>
  </g>
</svg>