<svg version="1.1" xmlns="http://www.w3.org/2000/svg" data-icon="flow-four-up" width="128" height="128" class="iconic iconic-flow iconic-orientation-square iconic-size-lg iconic-flow-four-up" viewBox="0 0 128 128">
  <g>
    <title>Flow Four Up</title>
  </g>
  <g data-width="128" data-height="128" class="iconic-container iconic-flow-four-up" transform="translate(0 ) scale(1 1 ) ">
    <path d="M18.5 50h-17c-.828 0-1.5-.672-1.5-1.5v-47c0-.828.672-1.5 1.5-1.5h17c.828 0 1.5.672 1.5 1.5v47c0 .828-.672 1.5-1.5 1.5z" class="iconic-flow-four-up-item iconic-flow-four-up-item-1 iconic-flow-four-up-column-1 iconic-property-fill"></path>
    <path d="M126.5 128h-17c-.828 0-1.5-.672-1.5-1.5v-17c0-.828.672-1.5 1.5-1.5h17c.828 0 1.5.672 1.5 1.5v17c0 .828-.672 1.5-1.5 1.5z" class="iconic-flow-four-up-item iconic-flow-four-up-item-11 iconic-flow-four-up-column-4 iconic-property-fill"></path>
    <path d="M18.5 128h-17c-.828 0-1.5-.672-1.5-1.5v-23c0-.828.672-1.5 1.5-1.5h17c.828 0 1.5.672 1.5 1.5v23c0 .828-.672 1.5-1.5 1.5z" class="iconic-flow-four-up-item iconic-flow-four-up-item-3 iconic-flow-four-up-column-1 iconic-property-fill"></path>
    <path d="M126.5 92h-17c-.828 0-1.5-.672-1.5-1.5v-47c0-.828.672-1.5 1.5-1.5h17c.828 0 1.5.672 1.5 1.5v47c0 .828-.672 1.5-1.5 1.5z" class="iconic-flow-four-up-item iconic-flow-four-up-item-10 iconic-flow-four-up-column-4 iconic-property-fill"></path>
    <path d="M90.5 128h-17c-.828 0-1.5-.672-1.5-1.5v-45c0-.828.672-1.5 1.5-1.5h17c.828 0 1.5.672 1.5 1.5v45c0 .828-.672 1.5-1.5 1.5z" class="iconic-flow-four-up-item iconic-flow-four-up-item-8 iconic-flow-four-up-column-3 iconic-property-fill"></path>
    <path d="M54.5 128h-17c-.828 0-1.5-.672-1.5-1.5v-53c0-.828.672-1.5 1.5-1.5h17c.828 0 1.5.672 1.5 1.5v53c0 .828-.672 1.5-1.5 1.5z" class="iconic-flow-four-up-item iconic-flow-four-up-item-6 iconic-flow-four-up-column-2 iconic-property-fill"></path>
    <path d="M18.5 86h-17c-.828 0-1.5-.672-1.5-1.5v-17c0-.828.672-1.5 1.5-1.5h17c.828 0 1.5.672 1.5 1.5v17c0 .828-.672 1.5-1.5 1.5z" class="iconic-flow-four-up-item iconic-flow-four-up-item-2 iconic-flow-four-up-column-1 iconic-property-fill"></path>
    <path d="M90.5 64h-17c-.828 0-1.5-.672-1.5-1.5v-61c0-.828.672-1.5 1.5-1.5h17c.828 0 1.5.672 1.5 1.5v61c0 .828-.672 1.5-1.5 1.5z" class="iconic-flow-four-up-item iconic-flow-four-up-item-7 iconic-flow-four-up-column-3 iconic-property-fill"></path>
    <path d="M54.5 56h-17c-.828 0-1.5-.672-1.5-1.5v-17c0-.828.672-1.5 1.5-1.5h17c.828 0 1.5.672 1.5 1.5v17c0 .828-.672 1.5-1.5 1.5z" class="iconic-flow-four-up-item iconic-flow-four-up-item-5 iconic-flow-four-up-column-2 iconic-property-fill"></path>
    <path d="M126.5 26h-17c-.828 0-1.5-.672-1.5-1.5v-23c0-.828.672-1.5 1.5-1.5h17c.828 0 1.5.672 1.5 1.5v23c0 .828-.672 1.5-1.5 1.5z" class="iconic-flow-four-up-item iconic-flow-four-up-item-9 iconic-flow-four-up-column-4 iconic-property-fill"></path>
    <path d="M54.5 20h-17c-.828 0-1.5-.672-1.5-1.5v-17c0-.828.672-1.5 1.5-1.5h17c.828 0 1.5.672 1.5 1.5v17c0 .828-.672 1.5-1.5 1.5z" class="iconic-flow-four-up-item iconic-flow-four-up-item-4 iconic-flow-four-up-column-2 iconic-property-fill"></path>
  </g>
</svg>