<svg version="1.1" xmlns="http://www.w3.org/2000/svg" width="16" height="16" data-icon="folder" class="iconic iconic-folder iconic-size-sm" viewBox="0 0 16 16">
  <g class="iconic-metadata">
    <title>Folder</title>
  </g>
  <defs>
    <clipPath id="iconic-size-sm-folder-clip-0">
      <path d="M0 5h16v9h-16z" />
    </clipPath>
  </defs>
  <g class="iconic-container" data-width="16" data-height="14" transform="translate(0 1)">
    <path d="M.25 3h5.5c.138 0 .25-.112.25-.25v-2.5c0-.138-.112-.25-.25-.25h-5.5c-.138 0-.25.112-.25.25v2.5c0 .138.112.25.25.25z" class="iconic-folder-top iconic-folder-top-tag iconic-property-fill" />
    <path class="iconic-folder-top iconic-property-fill" d="M0 2.001h16v1.999h-16z" />
    <path clip-path="url(#iconic-size-sm-folder-clip-0)" d="M15.5 14h-15c-.276 0-.5-.224-.5-.5v-9c0-.276.224-.5.5-.5h15c.276 0 .5.224.5.5v9c0 .276-.224.5-.5.5z" class="iconic-folder-bottom iconic-property-fill" />
  </g>
</svg>