<svg version="1.1" xmlns="http://www.w3.org/2000/svg" width="16" height="16" data-icon="fork" class="iconic iconic-fork iconic-size-sm" viewBox="0 0 16 16">
  <g class="iconic-metadata">
    <title>Fork</title>
  </g>
  <defs>
    <clipPath id="iconic-size-sm-fork-clip-0">
      <path d="M8 7c-1.654 0-3-1.346-3-3s1.346-3 3-3c.771 0 1.468.301 2 .78v-1.78h-5.78c.48.532.78 1.229.78 2 0 1.654-1.346 3-3 3-.771 0-1.468-.301-2-.78v7.561c.532-.48 1.229-.78 2-.78 1.654 0 3 1.346 3 3 0 .771-.3 1.468-.78 2h5.78v-9.78c-.532.48-1.229.78-2 .78z"
      />
    </clipPath>
  </defs>
  <g class="iconic-container" data-width="10" data-height="16" transform="translate(3)">
    <path stroke="#000" stroke-width="2" d="M2 14v-2c0-1.1.888-2.148 1.973-2.329l2.054-.342c1.085-.181 1.973-1.229 1.973-2.329v-3" clip-path="url(#iconic-size-sm-fork-clip-0)" class="iconic-fork-line-fork iconic-property-stroke" fill="none" />
    <path clip-path="url(#iconic-size-sm-fork-clip-0)" stroke="#000" stroke-width="2" class="iconic-fork-line-trunk iconic-property-stroke" fill="none" d="M2 4v8" />
    <circle cx="2" cy="14" r="2" class="iconic-fork-point-trunk-start iconic-property-accent iconic-property-fill" />
    <circle cx="2" cy="2" r="2" class="iconic-fork-point-trunk-end iconic-property-accent iconic-property-fill" />
    <circle cx="8" cy="4" r="2" class="iconic-fork-point-fork iconic-property-accent iconic-property-fill" />
  </g>
</svg>