<svg version="1.1" xmlns="http://www.w3.org/2000/svg" width="32" height="32" data-icon="fork" class="iconic iconic-fork iconic-size-md" viewBox="0 0 32 32">
  <g class="iconic-metadata">
    <title>Fork</title>
  </g>
  <defs>
    <clipPath id="iconic-size-md-fork-clip-0">
      <path d="M14.5 13c-2.481 0-4.5-2.019-4.5-4.5s2.019-4.5 4.5-4.5c1.421 0 2.675.675 3.5 1.707v-5.707h-11.707c1.032.825 1.707 2.079 1.707 3.5 0 2.481-2.019 4.5-4.5 4.5-1.421 0-2.675-.675-3.5-1.707v19.413c.825-1.032 2.079-1.707 3.5-1.707 2.481 0 4.5 2.019 4.5 4.5 0 1.421-.675 2.675-1.707 3.5h11.707v-20.707c-.825 1.032-2.079 1.707-3.5 1.707z"
      />
    </clipPath>
  </defs>
  <g class="iconic-container" data-width="18" data-height="32" transform="translate(7)">
    <path stroke="#000" stroke-width="3" d="M3.5 28.5v-5c0-1.1.833-2.341 1.851-2.757l7.298-2.986c1.018-.416 1.851-1.657 1.851-2.757v-3" clip-path="url(#iconic-size-md-fork-clip-0)" class="iconic-fork-line-fork iconic-property-stroke" fill="none" />
    <path clip-path="url(#iconic-size-md-fork-clip-0)" stroke="#000" stroke-width="3" class="iconic-fork-line-trunk iconic-property-stroke" fill="none" d="M3.5 5v25" />
    <circle cx="14.5" cy="8.5" r="3.5" class="iconic-fork-fork-point iconic-property-accent iconic-property-fill" />
    <circle cx="3.5" cy="28.5" r="3.5" class="iconic-fork-trunk-point-start iconic-property-accent iconic-property-fill" />
    <circle cx="3.5" cy="3.5" r="3.5" class="iconic-fork-point-trunk-end iconic-property-accent iconic-property-fill" />
  </g>
</svg>