<svg version="1.1" xmlns="http://www.w3.org/2000/svg" width="32" height="32" data-icon="game-controller" class="iconic iconic-game-controller iconic-size-md" viewBox="0 0 32 32">
  <g class="iconic-metadata">
    <title>Game Controller</title>
  </g>
  <g class="iconic-container" data-width="32" data-height="22" transform="translate(0 5)">
    <circle cx="10" cy="13" r="2" class="iconic-game-controller-analog-stick iconic-game-controller-analog-stick-left iconic-property-accent iconic-property-fill" />
    <circle cx="22" cy="13" r="2" class="iconic-game-controller-analog-stick iconic-game-controller-analog-stick-right iconic-property-accent iconic-property-fill" />
    <path d="M29.447.894c-.246-.492-.897-.894-1.447-.894h-24c-.55 0-1.201.403-1.447.894 0 0-2.553 5.106-2.553 11.106 0 2.188 0 10 3.875 10 3.245 0 3.935-4.32 4.082-6.168-.879-.636-1.457-1.663-1.457-2.832 0-1.933 1.567-3.5 3.5-3.5s3.5 1.567 3.5 3.5c0 .35-.067.681-.163 1h5.325c-.096-.319-.163-.65-.163-1 0-1.933 1.567-3.5 3.5-3.5s3.5 1.567 3.5 3.5c0 1.168-.578 2.196-1.457 2.831.148 1.848.837 6.169 4.082 6.169 3.875 0 3.875-7.813 3.875-10 0-6-2.553-11.106-2.553-11.106zm-23.447 1.106h2v1l-1 1-1-1v-1zm-2 4v-2h1l1 1-1 1h-1zm4 2h-2v-1l1-1 1 1v1zm2-2h-1l-1-.97 1-1.03h1v2zm15-4c.552 0 1 .448 1 1s-.448 1-1 1-1-.448-1-1 .448-1 1-1zm-2 4c-.552 0-1-.448-1-1s.448-1 1-1 1 .448 1 1-.448 1-1 1zm2 2c-.552 0-1-.448-1-1s.448-1 1-1 1 .448 1 1-.448 1-1 1zm2-2c-.552 0-1-.448-1-1s.448-1 1-1 1 .448 1 1-.448 1-1 1z"
    class="iconic-game-controller-body iconic-property-fill" />
  </g>
</svg>