<svg version="1.1" xmlns="http://www.w3.org/2000/svg" width="16" height="16" data-icon="globe" class="iconic iconic-globe iconic-size-sm" viewBox="0 0 16 16">
  <g class="iconic-metadata">
    <title>Globe</title>
  </g>
  <g class="iconic-container" data-width="16" data-height="16">
    <path d="M15 10.675v-5.35c-.736-1.923-2.234-3.467-4.131-4.254-.143.077-.244.209-.244.367 0 .241-.197.438-.438.438s-.438.197-.438.438-.162.593-.361.784l-.19.182c-.198.19-.16.346.086.346s.648-.028.893-.063c.246-.034.286.095.089.287l-.161.157c-.197.192-.322.572-.279.844l.033.206c.043.272.285.406.538.298l1.516-.645c.253-.108.617-.357.808-.555l.179-.184c.192-.197.345-.156.341.092-.004.248.152.61.347.805l.154.154c.195.195.163.355-.07.357s-.433.202-.444.444-.211.438-.444.434c-.233-.004-.424-.204-.424-.444 0-.241-.201-.335-.446-.211l-.172.088c-.245.125-.601.298-.791.385-.19.087-.503.318-.696.515l-.175.179c-.192.197-.504.521-.692.722l-.136.145c-.188.201-.351.59-.363.864l-.031.751c-.011.275.181.599.427.721l.872.431c.246.122.653.226.904.231.251.005.648.009.884.009s.591.156.789.346l.172.165c.199.19.2.504.004.696l-.197.193c-.196.193-.355.575-.352.85l.008.732c.002.137.059.26.149.351 1.109-.84 1.976-1.979 2.481-3.3zM1 5.325v3.925c0 .275 0 .725 0 1v.425c.536 1.4 1.475 2.598 2.681 3.45h1.187c.275 0 .657-.161.849-.358l.169-.173c.192-.197.353-.583.357-.858l.012-.737c.004-.275-.217-.502-.492-.504l-.764-.006c-.275-.002-.602-.204-.726-.45l-.436-.858c-.124-.245-.451-.444-.726-.442l-.736.006c-.275.002-.502-.221-.504-.496l-.006-.75c-.002-.275.193-.5.434-.5s.592.164.78.364l.176.188c.188.2.346.161.349-.087.004-.248-.152-.61-.347-.805l-.168-.168c-.195-.195-.347-.554-.34-.798s.014-.644.014-.889.138-.441.308-.438c.169.004.366-.187.438-.424.071-.237.355-.429.63-.426l.518.005c.275.003.652-.162.837-.365l.174-.191c.185-.203.14-.478-.102-.61l-.668-.367c-.241-.132-.429-.437-.418-.678.011-.241.177-.276.368-.078l.152.157c.191.198.508.201.704.008l.204-.201c.196-.193.353-.542.349-.775-.004-.233.19-.424.431-.424h-1.363c-1.987.76-3.565 2.337-4.325 4.325zM8.875 1h-2.188c.241 0 .434.194.431.431-.004.237-.162.593-.352.792l-.171.179c-.19.199-.151.362.085.362s.587-.162.779-.359l.179-.184c.192-.197.51-.516.707-.707l.53-.513z"
    class="iconic-globe-land-mass iconic-property-fill" />
    <circle stroke="#000" cx="8" cy="8" r="7.5" class="iconic-globe-border iconic-property-stroke" fill="none" />
  </g>
</svg>