<svg version="1.1" xmlns="http://www.w3.org/2000/svg" width="32" height="32" data-icon="globe" class="iconic iconic-globe iconic-size-md" viewBox="0 0 32 32">
  <g class="iconic-metadata">
    <title>Globe</title>
  </g>
  <g class="iconic-container" data-width="32" data-height="32">
    <path d="M31 19.844v-7.688c-1.163-4.549-4.328-8.285-8.511-10.219h-.114c-.412 0-.75.208-.75.461s-.211.461-.469.461-.68 0-.938 0-.258.208 0 .461.479.669.491.923.223.468.469.476.447.352.447.765v.375c0 .412-.211.542-.469.289s-.686-.679-.952-.945-.698-.483-.96-.483-.466.211-.454.469.025.68.029.938.212.472.461.476.658.014.908.022.454.212.454.454.221.66.491.93.27.695 0 .945-.692.454-.938.454-.444.214-.44.476.215.687.469.945.704.234 1-.053l.798-.773c.296-.287.535-.743.531-1.013s.207-.491.469-.491.774.158 1.139.35l.505.266c.365.193.67.555.678.804s.235.243.505-.015.19-.622-.178-.808l-.567-.288c-.368-.187-.458-.33-.2-.318s.686.23.952.483.684.254.93 0 .45-.251.454.007.222.466.483.461.684.213.938.483.241.698-.029.952-.698.455-.952.447-.671.196-.926.454-.675.469-.93.469-.465-.211-.465-.469-.327-.385-.727-.283l-2.268.58c-.4.102-.938.39-1.195.64s-.68.665-.938.923-.67.683-.915.945-.463.68-.483.93-.248.668-.505.93-.251.687.015.945.478.806.471 1.219l-.005.346c-.006.412.224.991.513 1.286l1.777 1.814c.289.295.733.312.986.038s.669-.495.923-.491.676-.2.938-.454.78-.315 1.152-.137l.538.258c.372.179.669.539.661.801s-.012.814-.009 1.226l.003.404c.003.412-.149 1.05-.338 1.417l-.265.513c-.189.367-.339 1.004-.332 1.416l.006.39c.004.265.154.487.365.621 2.558-2.066 4.432-4.932 5.272-8.215zM16.432 1.469c.27.258.705.258.967 0s.139-.469-.274-.469h-4.969c-5.466 1.397-9.759 5.69-11.156 11.156v3.094c0 .412.153 1.051.34 1.419l.273.537c.187.368.334 1.006.328 1.419l-.006.375c-.006.412.096 1.07.228 1.461l.473 1.406c.132.391.428.991.658 1.333l1.053 1.567c.23.342.415.83.411 1.084s.204.672.461.93.739.671 1.069.919l2.55 1.913c.33.247.6.239.6-.019s.217-.676.483-.93.694-.468.952-.476.462-.229.454-.491.196-.684.454-.938.459-.676.447-.938-.226-.684-.476-.938-.668-.452-.93-.44-.753-.17-1.093-.405l-1.536-1.065c-.339-.235-.61-.632-.602-.881s-.216-.665-.498-.923-.714-.68-.959-.937-.651-.683-.901-.945-.696-.711-.993-.998l-.842-.816c-.296-.287-.75-.525-1.007-.529s-.469-.345-.469-.757v-.313c0-.412.304-.604.676-.426l.566.271c.372.178.877.314 1.123.302s.207-.26-.085-.551l-1.749-1.74c-.292-.291-.529-.867-.526-1.279l.003-.375c.003-.412.217-.964.475-1.226s.461-.139.452.274l-.009.405c-.009.412.207.532.481.266s.495-.694.491-.952.2-.469.454-.469.461-.211.461-.469.24-.706.534-.995l.821-.808c.294-.289.735-.315.981-.057s.671.469.945.469.495-.217.491-.483-.228-.688-.498-.938-.153-.454.259-.454h.404c.412 0 .903-.301 1.09-.669l.273-.537c.187-.368.132-.883-.122-1.145s-.692-.255-.974.015-.717.477-.967.461-.212-.264.084-.551l.842-.816c.296-.287.749-.308 1.007-.046s.673.473.923.469.672-.222.938-.483.48-.684.476-.938.21-.455.476-.447.327.314.135.679l-.271.517c-.191.365-.348.879-.348 1.14s.221.483.491.491.695-.209.945-.483.754-.653 1.121-.842l.513-.265c.367-.189.67-.558.674-.82s-.003-.677-.015-.923.199-.236.469.022z"
    class="iconic-globe-land-mass iconic-property-fill" />
    <circle stroke="#000" stroke-width="2" cx="16" cy="16" r="15" class="iconic-globe-border iconic-property-stroke" fill="none" />
  </g>
</svg>