<svg version="1.1" xmlns="http://www.w3.org/2000/svg" width="128" height="128" data-icon="globe" class="iconic iconic-globe iconic-size-lg" viewBox="0 0 128 128">
  <g class="iconic-metadata">
    <title>Globe</title>
  </g>
  <g class="iconic-container" data-width="128" data-height="128">
    <path d="M77.73 22.563c-1.364-.928-2.058-2.11-1.543-2.625s1.359-.516 1.875 0 1.359 1.359 1.875 1.875 1.359 1.359 1.875 1.875 1.359 1.359 1.875 1.875-.186 1.686-1.559 2.602l-.633.422c-1.373.915-2.074.416-1.559-1.109s-.179-3.533-1.543-4.461l-.665-.452zM75.25 26.5c0 1.031.844 1.031 1.875 0s1.453-2.297.938-2.813-1.359-.516-1.875 0-.938 1.781-.938 2.813zM105.25 31.109c0 .473.422 1.334.938 1.914s1.359.615 1.875.078 1.324-.977 1.797-.977c.473 0 .912-.404.977-.898s-.709-1.338-1.719-1.875-2.275-1.416-2.813-1.953-.994-.115-1.016.938c-.022 1.053-.039 2.301-.039 2.773zM68.875 13.375c-1.65 0-3.422.457-3.938 1.016s-.094 1.402.938 1.875 2.297.438 2.813-.078.938-1.676.938-2.578c0 0 0 0 0-.234h-.75zM9.625 54.547c0 1.074.422 2.375.938 2.891s1.359.938 1.875.938.203-1.133-.695-2.517l-.485-.748c-.898-1.384-1.633-1.638-1.633-.564zM12.359 61.188c-.473.516-.016 1.359 1.016 1.875s1.875.094 1.875-.938-.457-1.875-1.016-1.875-1.402.422-1.875.938zM19 66.813c0 1.547.422 2.813.938 2.813s.938-.422.938-.938-.422-1.781-.938-2.813-.938-.609-.938.938zM124 79.664v-31.328c-4.697-18.042-17.32-32.875-33.925-40.586h-.575c-1.65 0-3 .422-3 .938s.422 1.359.938 1.875.094.516-.938 0-2.719-.938-3.75-.938-1.875.844-1.875 1.875.422 2.297.938 2.813.516 1.359 0 1.875-.094 1.781.938 2.813 2.297 1.453 2.813.938.938-.094.938.938.422 2.297.938 2.813.516.938 0 .938-1.686 1.123-2.602 2.496l-.422.633c-.915 1.373-2.086 2.496-2.602 2.496s-.516.422 0 .938 1.359 1.025 1.875 1.133c.516.107 1.359.951 1.875 1.875s-.412 1.68-2.062 1.68h-1.5c-1.65 0-2.578 1.266-2.063 2.813s.516 2.813 0 2.813-.516.844 0 1.875 1.781 1.875 2.813 1.875 1.875.069 1.875.153c0 .084 1.1-.63 2.445-1.586l.813-.578c1.345-.956 2.41-2.565 2.367-3.575-.043-1.01-.078-2.293-.078-2.852s.475-.981 1.055-.938 1.477-.344 1.992-.859 1.746-.516 2.734 0 2.654 1.381 3.701 1.924c1.047.542 1.891 1.791 1.875 2.773s.41 1.805.947 1.826c.537.021.959-.805.938-1.836s-.514-2.279-1.094-2.773-1.828-1.338-2.773-1.875-2.176-1.398-2.734-1.914-.611-.99-.117-1.055 2 .663 3.346 1.617l.729.516c1.346.954 2.888 2.156 3.425 2.672s.977 1.342.977 1.836.475.916 1.055.938c.58.021 1.037-.787 1.016-1.797s.787-1.01 1.797 0 2.293 1.414 2.852.898 1.402-.094 1.875.938.842 2.666.82 3.633-1.287 1.389-2.813.938-3.213-.381-3.75.156-.537 1.398 0 1.914.133.938-.898.938-2.279-.44-2.773-.977-1.338-.537-1.875 0-1.398.537-1.914 0-.938-1.82-.938-2.852-.44-1.875-.977-1.875-1.363.387-1.836.859-1.721.894-2.773.938-2.336.482-2.852.977c-.516.494-1.359 1.32-1.875 1.836s-1.781 1.114-2.813 1.33-1.875.638-1.875.938-.844.967-1.875 1.482-1.875 1.781-1.875 2.813-.844 2.719-1.875 3.75-2.479 3.083-3.217 4.558l-1.067 2.133c-.738 1.476-1.342 3.105-1.342 3.621s.422 1.781.938 2.813.516 2.719 0 3.75-.938 2.297-.938 2.813.422 1.359.938 1.875.938 1.359.938 1.875.422 1.359.938 1.875 1.781 1.359 2.813 1.875 1.875 1.359 1.875 1.875 1.123 1.686 2.496 2.602l.633.422c1.373.915 3.34.82 4.371-.211s2.719-1.875 3.75-1.875 2.998-.749 4.371-1.664l.633-.422c1.373-.915 2.918-1.242 3.434-.727s1.781.938 2.813.938 1.875.844 1.875 1.875-.422 2.297-.938 2.813-.094 1.781.938 2.813 1.875 2.297 1.875 2.813-.422 1.359-.938 1.875-.938 1.359-.938 1.875-.749 2.061-1.664 3.434l-.422.633c-.915 1.373-.68 3.34.523 4.371 0 0 0 0-.313 0s-2.186 3.065-2.186 3.065c-.803 1.313-.282 2.391 1.129 2.532 10.469-8.245 18.225-19.78 21.681-33.058zM64.938 10.563c.516-.516.938-1.781.938-2.813s1.266-1.875 2.813-1.875 3.234-.422 3.75-.938-.412-.938-2.063-.938h-22.039c-21.653 5.637-38.699 22.683-44.336 44.336v8.914c0 1.65.422 3.844.938 4.875s.938 3.141.938 4.688.422 3.234.938 3.75 1.359 1.781 1.875 2.813.516 2.323 0 2.871-.938 1.392-.938 1.875 0 1.723 0 2.754-.141 3.218-.314 4.859l-.311 2.958c5.495 12.64 15.072 23.091 27.076 29.684h.55c1.65 0 3.422-.422 3.938-.938s.938-1.359.938-1.875 1.266-.938 2.813-.938 3.234-.844 3.75-1.875.938-2.684.938-3.672.844-2.254 1.875-2.813 1.875-1.859 1.875-2.891-.844-2.297-1.875-2.813-2.297-1.359-2.813-1.875-2.203-1.333-3.75-1.816-4.012-1.498-5.479-2.254l-2.167-1.117c-1.466-.756-2.666-1.797-2.666-2.312s-.422-1.359-.938-1.875-1.359-1.781-1.875-2.813-2.061-2.624-3.434-3.539l-.633-.422c-1.373-.915-3.1-2.872-3.838-4.347l-1.067-2.133c-.738-1.476-2.185-2.683-3.217-2.683s-2.629-1.12-3.551-2.488l-.437-.649c-.922-1.369-2.089-2.066-2.594-1.551s-1.34.516-1.855 0-.937-2.287-.937-3.937v-1.5c0-1.65-.422-3.422-.938-3.938s-.516-1.781 0-2.813.938-2.727.938-3.77-.422-1.455-.938-.918-.716-.355-.446-1.983l.892-5.37c.27-1.628.913-2.959 1.429-2.959s.938.422.938.938.422.938.938.938.61 1.31.21 2.91l-.42 1.679c-.4 1.601-.042 2.91.796 2.91 0 0 0 0 .352 0s1.278-4.56 1.278-4.56c.328-1.617 1.742-3.655 3.141-4.53l.537-.336c1.399-.874 2.544-2.065 2.544-2.645s.422-1.028.938-.996.938-.39.938-.938.422-1.418.938-1.934 1.359-.516 1.875 0 .938.516.938 0 .422-1.359.938-1.875 1.359-.938 1.875-.938.938.422.938.938.422.938.938.938 1.781-.422 2.813-.938 1.875-1.359 1.875-1.875-.422-.938-.938-.938-.938-.422-.938-.938 0-1.359 0-1.875.422-.516.938 0 1.781.516 2.813 0 1.453-.516.938 0-.938 1.359-.938 1.875.422 1.359.938 1.875 1.359.938 1.875.938.938-.844.938-1.875-.422-1.875-.938-1.875-.516-.422 0-.938 1.359-1.781 1.875-2.813.516-1.875 0-1.875-.938-.422-.938-.938.422-1.359.938-1.875.92-1.359.898-1.875-.865-.516-1.875 0-1.414.094-.898-.938.516-1.893 0-1.914-1.799.435-2.852 1.016-1.932 1.424-1.953 1.875-1.145 1.595-2.497 2.541l-.553.387c-1.352.946-2.036.877-1.52-.155s.938-2.297.938-2.813 1.123-1.686 2.496-2.602l.633-.422c1.373-.915 3.762-1.664 5.309-1.664s2.812.422 2.812.938.422.938.938.938 2.061-.749 3.434-1.664l.633-.422c1.373-.915 2.918-2.086 3.434-2.602s.516-.938 0-.938-.938-.422-.938-.938.844-1.359 1.875-1.875 2.297-.516 2.813 0 .516 1.359 0 1.875-1.686 2.061-2.602 3.434l-.422.633c-.915 1.373-1.664 2.918-1.664 3.434s.422 1.359.938 1.875 1.359.938 1.875.938 1.359-.422 1.875-.938 2.061-1.686 3.434-2.602l.633-.422c1.373-.915 3.34-1.664 4.371-1.664s1.875-.422 1.875-.938.422-1.359.938-1.875z"
    class="iconic-globe-land-mass iconic-property-fill" />
    <circle stroke="#000" stroke-width="4" cx="64" cy="64" r="62" class="iconic-globe-border iconic-property-stroke" fill="none" />
  </g>
</svg>