<svg version="1.1" xmlns="http://www.w3.org/2000/svg" width="128" height="128" data-icon="hammer" class="iconic iconic-hammer iconic-size-lg" viewBox="0 0 128 128">
  <g class="iconic-metadata">
    <title>Hammer</title>
  </g>
  <defs>
    <clipPath id="iconic-size-lg-hammer-clip-0">
      <path d="M62 46l12 12v70h-74v-82z" />
    </clipPath>
  </defs>
  <g class="iconic-container" data-width="127" data-height="128">
    <path d="M127.646 31.646l-1.293-1.293c-.673-.673-1.715-1.715-2.353-2.353-4-4-6 0-10-4s-2-8-6-12c-12-12-16-12-40-12 28 12.125 19.938 24.063 16 28l-18 18 8 8 18-18c5.875-5.875 7.875-6.125 12-2 4.083 4.083 0 6 4 10 1 1 3 3 3 3l.646.646c.195.195.513.195.707 0l15.293-15.293c.195-.194.195-.513 0-.707z"
    class="iconic-hammer-head iconic-property-fill" />
    <path clip-path="url(#iconic-size-lg-hammer-clip-0)" d="M57.154 52.949l-6.308 2.103c-1.572.524-3.796 1.898-4.967 3.07l-43.757 43.757c-1.172 1.172-1.521 3.323-.78 4.805l9.317 18.633c.741 1.482 2.088 1.567 3.009.189l4.728-7.074c.921-1.377 2.617-3.444 3.788-4.615l39.695-39.695c1.172-1.172 2.538-3.398 3.052-4.973l2.014-6.171c.514-1.575 1.88-3.802 3.052-4.973l1.882-1.882c1.172-1.172 1.172-3.071 0-4.243l-3.757-3.757c-1.172-1.172-3.071-1.172-4.243 0l-1.757 1.757c-1.172 1.172-3.396 2.546-4.967 3.07z"
    class="iconic-hammer-handle iconic-property-accent iconic-property-fill" />
  </g>
</svg>