<svg version="1.1" xmlns="http://www.w3.org/2000/svg" width="16" height="16" data-icon="hammer" class="iconic iconic-hammer iconic-size-sm" viewBox="0 0 16 16">
  <g class="iconic-metadata">
    <title>Hammer</title>
  </g>
  <defs>
    <clipPath id="iconic-size-sm-hammer-clip-0">
      <path d="M7 6h-7v10h9v-8z" />
    </clipPath>
  </defs>
  <g class="iconic-container" data-width="16" data-height="16">
    <path d="M14 2c-2-2-3-2-6-2 2.96 1.002 3 2.948 2.04 3.96l-4.04 4.04 1 1 4-4c.001.001.001.001.002.002 1-1 .999-1.002 2-.001.515.515 0 0 .5.5s.5.5.5.5l1.999-1.999s-1-1.001-2-2.001z" class="iconic-hammer-head iconic-property-fill" />
    <path clip-path="url(#iconic-size-sm-hammer-clip-0)" d="M6.75 7h-.5c-.138 0-.329.079-.427.177l-5.646 5.646c-.098.098-.115.27-.038.385l1.723 2.584c.077.115.189.108.251-.015l.783-1.561c.062-.123.191-.303.289-.4l4.639-4.639c.098-.098.175-.289.173-.427l-.008-.484c-.002-.138.075-.329.173-.427l1.662-1.662c.098-.098.098-.256 0-.354l-.646-.646c-.098-.098-.256-.098-.354 0l-1.646 1.646c-.098.098-.289.177-.427.177z"
    class="iconic-hammer-handle iconic-property-accent iconic-property-fill" />
  </g>
</svg>