<svg version="1.1" xmlns="http://www.w3.org/2000/svg" width="16" height="16" data-icon="hand" class="iconic iconic-hand iconic-size-sm" viewBox="0 0 16 16">
  <g class="iconic-metadata">
    <title>Hand</title>
  </g>
  <g class="iconic-container" data-width="15" data-height="16">
    <path d="M14.707 8.293c-.391-.391-1.024-.391-1.414 0 0 0-1.061.872-1.293 1.063-.396.325-1 .097-1-.356v-7c0-.552-.448-1-1-1s-1 .448-1 1v4.5c0 .276-.224.5-.5.5s-.5-.224-.5-.5v-5.5c0-.552-.448-1-1-1s-1 .448-1 1v5.5c0 .276-.224.5-.5.5s-.5-.224-.5-.5v-4.5c0-.552-.448-1-1-1s-1 .448-1 1v5.5c0 .276-.224.5-.5.5s-.5-.224-.5-.5v-4.5c0-.552-.448-1-1-1s-1 .448-1 1c0 0 0 7.331 0 7.5 0 3.037 2.462 5.5 5.5 5.5 1.343 0 2.573-.483 3.528-1.283 0 0 4.299-3.714 5.679-5.01.403-.378.391-1.024 0-1.414z"
    class="iconic-property-fill" />
  </g>
</svg>