<svg version="1.1" xmlns="http://www.w3.org/2000/svg" width="128" height="128" data-icon="hand" class="iconic iconic-hand iconic-size-lg" viewBox="0 0 128 128">
  <g class="iconic-metadata">
    <title>Hand</title>
  </g>
  <g class="iconic-container" data-width="104" data-height="128" transform="translate(12)">
    <path d="M101.657 70.343c-3.124-3.124-8.19-3.124-11.314 0l-10.343 8.503c-3.165 2.602-8 .778-8-2.846v-62c0-3.314-2.686-6-6-6s-6 2.686-6 6v38c0 2.209-1.791 4-4 4s-4-1.791-4-4v-46c0-3.314-2.686-6-6-6s-6 2.686-6 6v50c0 2.209-1.791 4-4 4s-4-1.791-4-4v-42c0-3.314-2.686-6-6-6s-6 2.686-6 6v46c0 2.209-1.791 4-4 4s-4-1.791-4-4v-38c0-3.314-2.686-6-6-6s-6 2.686-6 6v70c0 19.882 16.118 36 36 36 9.223 0 17.631-3.472 24.001-9.175l-.001.007s41.448-36.966 41.657-37.175c3.124-3.124 3.124-8.19 0-11.314z"
    class="iconic-property-fill" />
  </g>
</svg>