<svg version="1.1" xmlns="http://www.w3.org/2000/svg" width="32" height="32" data-icon="hand" class="iconic iconic-hand iconic-size-md" viewBox="0 0 32 32">
  <g class="iconic-metadata">
    <title>Hand</title>
  </g>
  <g class="iconic-container" data-width="26" data-height="32" transform="translate(3)">
    <path d="M25.414 16.586c-.781-.781-2.01-.742-2.828 0-.62.562-2.447 2.011-2.586 2.126-.791.65-2 .195-2-.712v-14.5c0-.828-.672-1.5-1.5-1.5s-1.5.672-1.5 1.5v9.5c0 .552-.448 1-1 1s-1-.448-1-1v-11.5c0-.828-.672-1.5-1.5-1.5s-1.5.672-1.5 1.5v12.5c0 .552-.448 1-1 1s-1-.448-1-1v-10.5c0-.828-.672-1.5-1.5-1.5s-1.5.672-1.5 1.5v11.5c0 .552-.448 1-1 1s-1-.448-1-1v-9.5c0-.828-.672-1.5-1.5-1.5s-1.5.672-1.5 1.5c0 0 0 16.581 0 17.5 0 4.971 4.029 9 9 9 2.309 0 4.442-.84 6.001-2.306 2.665-2.506 7.958-7.839 10.413-10.28.783-.779.781-2.047 0-2.828z"
    class="iconic-property-fill" />
  </g>
</svg>