<svg version="1.1" xmlns="http://www.w3.org/2000/svg" width="16" height="16" data-icon="hard-drive" class="iconic iconic-hard-drive iconic-size-sm" viewBox="0 0 16 16">
  <g class="iconic-metadata">
    <title>Hard Drive</title>
  </g>
  <defs>
    <clipPath id="iconic-size-sm-hard-drive-clip-0">
      <path d="M0 0v10.5c0 .276.224.5.5.5h12c.276 0 .5-.224.5-.5v-10.5h-13zm6.5 9c-.251 0-.494-.029-.73-.079-.126.212-.246.384-.355.493-.378.378-.88.586-1.414.586-.534 0-1.036-.208-1.414-.586s-.586-.88-.586-1.414.208-1.036.586-1.414c.109-.109.281-.23.493-.355-.05-.236-.079-.48-.079-.73 0-1.933 1.567-3.5 3.5-3.5s3.5 1.567 3.5 3.5-1.567 3.5-3.5 3.5z"
      />
    </clipPath>
    <clipPath id="iconic-size-sm-hard-drive-clip-1">
      <path d="M12.5 12h-12c-.176 0-.343-.036-.5-.092v4.092h13v-4.092c-.157.056-.324.092-.5.092zm-9.5 3h-1v-2h1v2zm2 0h-1v-2h1v2zm5 0c-.552 0-1-.448-1-1s.448-1 1-1 1 .448 1 1-.448 1-1 1z" />
    </clipPath>
  </defs>
  <g class="iconic-container" data-width="13" data-height="16" transform="translate(1)">
    <path clip-path="url(#iconic-size-sm-hard-drive-clip-0)" d="M0 .5v15c0 .276.224.5.5.5h12c.276 0 .5-.224.5-.5v-15c0-.276-.224-.5-.5-.5h-12c-.276 0-.5.224-.5.5z" class="iconic-hard-drive-casing iconic-hard-drive-casing-top iconic-property-fill" />
    <path clip-path="url(#iconic-size-sm-hard-drive-clip-1)" d="M0 .5v15c0 .276.224.5.5.5h12c.276 0 .5-.224.5-.5v-15c0-.276-.224-.5-.5-.5h-12c-.276 0-.5.224-.5.5z" class="iconic-hard-drive-casing iconic-hard-drive-casing-bottom iconic-property-fill" />
    <path d="M4.707 8.707c-.391.391-1.024.391-1.414 0s-.391-1.024 0-1.414 2.707-1.293 2.707-1.293-.902 2.317-1.293 2.707z" class="iconic-hard-drive-plate iconic-hard-drive-plate-needle iconic-property-accent iconic-property-fill" />
    <path d="M6.5 5c-.276 0-.5.224-.5.5s.224.5.5.5.5-.224.5-.5-.224-.5-.5-.5z" class="iconic-hard-drive-plate iconic-hard-drive-plate-axis iconic-property-accent iconic-property-fill" />
  </g>
</svg>