<svg version="1.1" xmlns="http://www.w3.org/2000/svg" width="32" height="32" data-icon="hard-drive" class="iconic iconic-hard-drive iconic-size-md" viewBox="0 0 32 32">
  <g class="iconic-metadata">
    <title>Hard Drive</title>
  </g>
  <defs>
    <clipPath id="iconic-size-md-hard-drive-clip-0">
      <path d="M0 0v23c0 .551.449 1 1 1h22c.551 0 1-.449 1-1v-23h-24zm12 20c-1.452 0-2.81-.393-3.984-1.069-.845 1.165-1.549 2.107-1.779 2.337-.472.472-1.1.732-1.768.732-.668 0-1.296-.26-1.768-.732s-.732-1.1-.732-1.768.26-1.296.732-1.768c.231-.231 1.179-.934 2.352-1.776-.667-1.168-1.053-2.516-1.053-3.957 0-4.418 3.582-8 8-8s8 3.582 8 8-3.582 8-8 8z"
      />
    </clipPath>
    <clipPath id="iconic-size-md-hard-drive-clip-1">
      <path d="M23 26h-22c-.352 0-.686-.072-1-.184v6.184h24v-6.184c-.314.112-.648.184-1 .184zm-19 5h-1v-4h1v4zm2 0h-1v-4h1v4zm2 0h-1v-4h1v4zm2 0h-1v-4h1v4zm10-1c-.552 0-1-.448-1-1s.448-1 1-1 1 .448 1 1-.448 1-1 1z" />
    </clipPath>
  </defs>
  <g class="iconic-container" data-width="24" data-height="32" transform="translate(4)">
    <path clip-path="url(#iconic-size-md-hard-drive-clip-0)" d="M0 1v30c0 .552.448 1 1 1h22c.552 0 1-.448 1-1v-30c0-.552-.448-1-1-1h-22c-.552 0-1 .448-1 1z" class="iconic-hard-drive-casing iconic-hard-drive-casing-top iconic-property-fill" />
    <path clip-path="url(#iconic-size-md-hard-drive-clip-1)" d="M0 1v30c0 .552.448 1 1 1h22c.552 0 1-.448 1-1v-30c0-.552-.448-1-1-1h-22c-.552 0-1 .448-1 1z" class="iconic-hard-drive-casing iconic-hard-drive-casing-bottom iconic-property-fill" />
    <path d="M5.529 20.561c-.586.586-1.536.586-2.121 0-.586-.586-.586-1.536 0-2.121.586-.586 7.592-5.439 7.592-5.439s-4.885 6.975-5.471 7.561z" class="iconic-hard-drive-plate iconic-hard-drive-plate-needle iconic-property-accent iconic-property-fill"
    />
    <path stroke="#000" d="M11.257 14.375c.236.074.482.125.743.125 1.381 0 2.5-1.119 2.5-2.5s-1.119-2.5-2.5-2.5-2.5 1.119-2.5 2.5c0 .259.051.503.123.738" class="iconic-hard-drive-plate iconic-hard-drive-plate-inner-rim iconic-property-accent iconic-property-stroke"
    fill="none" />
  </g>
</svg>