<svg version="1.1" xmlns="http://www.w3.org/2000/svg" width="32" height="32" data-icon="header" class="iconic iconic-header iconic-size-md" viewBox="0 0 32 32">
  <g class="iconic-metadata">
    <title>Header</title>
  </g>
  <g class="iconic-container" data-width="27" data-height="32" transform="translate(2)">
    <path d="M26 1h1v-1h-9v1h1c1.105 0 2 .895 2 2v12h-15v-12c0-1.105.895-2 2-2h1v-1h-9v1h1c1.105 0 2 .895 2 2v26c0 1.105-.895 2-2 2h-1v1h9v-1h-1c-1.105 0-2-.895-2-2v-12h15v12c0 1.105-.895 2-2 2h-1v1h9v-1h-1c-1.105 0-2-.895-2-2v-26c0-1.105.895-2 2-2z" class="iconic-property-fill"
    />
  </g>
</svg>