<svg version="1.1" xmlns="http://www.w3.org/2000/svg" width="16" height="16" data-icon="headphones" class="iconic iconic-headphones iconic-size-sm" viewBox="0 0 16 16">
  <g class="iconic-metadata">
    <title>Headphones</title>
  </g>
  <g class="iconic-container" data-width="14" data-height="16" transform="translate(1)">
    <path stroke="#000" class="iconic-headphones-connector iconic-headphones-connector-left iconic-property-stroke" fill="none" d="M1.5 6v7" />
    <path stroke="#000" class="iconic-headphones-connector iconic-headphones-connector-right iconic-property-stroke" fill="none" d="M12.5 6v7" />
    <path d="M12.5 15c.828 0 1.5-.672 1.5-1.5s-.672-1.5-1.5-1.5h-1.5v3h1.5z" class="iconic-headphones-speaker iconic-headphones-speaker-back iconic-headphones-speaker-back-right iconic-property-fill" />
    <path d="M1.5 12c-.828 0-1.5.672-1.5 1.5s.672 1.5 1.5 1.5h1.5v-3h-1.5z" class="iconic-headphones-speaker iconic-headphones-speaker-back iconic-headphones-speaker-back-left iconic-property-fill" />
    <path d="M3.75 16h-1.5c-.138 0-.25-.112-.25-.25v-4.5c0-.138.112-.25.25-.25h1.5c.138 0 .25.112.25.25v4.5c0 .138-.112.25-.25.25z" class="iconic-headphones-speaker iconic-headphones-speaker-earpeice iconic-headphones-speaker-earpeice-left iconic-property-fill"
    />
    <path d="M11.75 16h-1.5c-.138 0-.25-.112-.25-.25v-4.5c0-.138.112-.25.25-.25h1.5c.138 0 .25.112.25.25v4.5c0 .138-.112.25-.25.25z" class="iconic-headphones-speaker iconic-headphones-speaker-earpeice iconic-headphones-speaker-earpeice-right iconic-property-fill"
    />
    <path stroke="#000" stroke-width="2" stroke-linecap="round" stroke-linejoin="round" d="M13 7c0-3.314-2.686-6-6-6s-6 2.686-6 6" class="iconic-headphones-top iconic-property-stroke" fill="none" />
  </g>
</svg>