<svg version="1.1" xmlns="http://www.w3.org/2000/svg" width="128" height="128" data-icon="headphones" class="iconic iconic-headphones iconic-size-lg" viewBox="0 0 128 128">
  <g class="iconic-metadata">
    <title>Headphones</title>
  </g>
  <g class="iconic-container" data-width="116" data-height="124" transform="translate(6 2)">
    <path stroke="#000" stroke-width="2" stroke-linecap="round" d="M105 114v-27c0-2.2.542-5.716 1.204-7.814l3.591-11.371c.663-2.098 1.205-5.614 1.205-7.814v-9c0-2.2.391-5.757.868-7.905l3.132-14.095" class="iconic-headphones-connector iconic-headphones-connector-right iconic-property-stroke"
    fill="none" />
    <path stroke="#000" stroke-width="2" stroke-linecap="round" d="M11 113v-26c0-2.2-.542-5.716-1.204-7.814l-3.591-11.371c-.663-2.098-1.205-5.614-1.205-7.814v-9c0-2.2-.391-5.757-.868-7.905l-3.132-14.095" class="iconic-headphones-connector iconic-headphones-connector-left iconic-property-stroke"
    fill="none" />
    <path d="M14 116c-6.627 0-12-5.373-12-12s5.373-12 12-12" class="iconic-headphones-speaker iconic-headphones-speaker-back iconic-headphones-speaker-back-left iconic-property-fill" />
    <path d="M102 92c6.627 0 12 5.373 12 12s-5.373 12-12 12" class="iconic-headphones-speaker iconic-headphones-speaker-back iconic-headphones-speaker-back-right iconic-property-fill" />
    <path d="M22.5 124h-9c-.828 0-1.5-.672-1.5-1.5v-37c0-.828.672-1.5 1.5-1.5h9c.828 0 1.5.672 1.5 1.5v37c0 .828-.672 1.5-1.5 1.5z" class="iconic-headphones-speaker iconic-headphones-speaker-earpeice iconic-headphones-speaker-earpeice-left iconic-property-fill"
    />
    <path d="M102.5 124h-9c-.828 0-1.5-.672-1.5-1.5v-37c0-.828.672-1.5 1.5-1.5h9c.828 0 1.5.672 1.5 1.5v37c0 .828-.672 1.5-1.5 1.5z" class="iconic-headphones-speaker iconic-headphones-speaker-earpeice iconic-headphones-speaker-earpeice-right iconic-property-fill"
    />
    <path d="M111.015 38c-7.515-22.072-28.433-38-53.015-38s-45.5 15.928-53.015 38h-2.985v18c0 2.209 1.791 4 4 4s4-1.791 4-4c0-26.467 21.533-48 48-48s48 21.533 48 48c0 2.209 1.791 4 4 4s4-1.791 4-4v-18h-2.985z" class="iconic-headphones-top iconic-property-fill"
    />
  </g>
</svg>