<svg version="1.1" xmlns="http://www.w3.org/2000/svg" width="32" height="32" data-icon="headphones" class="iconic iconic-headphones iconic-size-md" viewBox="0 0 32 32">
  <g class="iconic-metadata">
    <title>Headphones</title>
  </g>
  <g class="iconic-container" data-width="29" data-height="32" transform="translate(1)">
    <path stroke="#000" d="M1.5 13.5v3c0 1.1.225 2.675.5 3.5s.5 1.95.5 2.5 0 1.563 0 2.25 0 1.25 0 1.25" class="iconic-headphones-connector iconic-headphones-connector-left iconic-property-stroke" fill="none" />
    <path stroke="#000" d="M27.5 13.5v3c0 1.1-.225 2.675-.5 3.5s-.5 1.95-.5 2.5 0 1.563 0 2.25 0 1.25 0 1.25" class="iconic-headphones-connector iconic-headphones-connector-right iconic-property-stroke" fill="none" />
    <path d="M4 31c-2.209 0-4-1.791-4-4s1.791-4 4-4v8z" class="iconic-headphones-speaker iconic-headphones-speaker-back iconic-headphones-speaker-back-left iconic-property-fill" />
    <path d="M25 23c2.209 0 4 1.791 4 4s-1.791 4-4 4v-8z" class="iconic-headphones-speaker iconic-headphones-speaker-back iconic-headphones-speaker-back-right iconic-property-fill" />
    <path d="M5.5 32h-2c-.276 0-.5-.224-.5-.5v-9c0-.276.224-.5.5-.5h2c.276 0 .5.224.5.5v9c0 .276-.224.5-.5.5z" class="iconic-headphones-speaker iconic-headphones-speaker-earpeice iconic-headphones-speaker-earpeice-left iconic-property-fill" />
    <path d="M25.5 32h-2c-.276 0-.5-.224-.5-.5v-9c0-.276.224-.5.5-.5h2c.276 0 .5.224.5.5v9c0 .276-.224.5-.5.5z" class="iconic-headphones-speaker iconic-headphones-speaker-earpeice iconic-headphones-speaker-earpeice-right iconic-property-fill" />
    <path stroke="#000" stroke-width="3" stroke-linecap="round" stroke-linejoin="round" d="M27.5 14.5c0-7.18-5.82-13-13-13s-13 5.82-13 13" class="iconic-headphones-top iconic-property-stroke" fill="none" />
  </g>
</svg>