<svg version="1.1" xmlns="http://www.w3.org/2000/svg" width="16" height="16" data-icon="header" class="iconic iconic-header iconic-size-sm" viewBox="0 0 16 16">
  <g class="iconic-metadata">
    <title>Header</title>
  </g>
  <g class="iconic-container" data-width="15" data-height="16">
    <path d="M14 1h1v-1h-6v1h1c.552 0 1 .448 1 1v5h-7v-5c0-.552.448-1 1-1h1v-1h-6v1h1c.552 0 1 .448 1 1v12c0 .552-.448 1-1 1h-1v1h6v-1h-1c-.552 0-1-.448-1-1v-5h7v5c0 .552-.448 1-1 1h-1v1h6v-1h-1c-.552 0-1-.448-1-1v-12c0-.552.448-1 1-1z" class="iconic-property-fill"
    />
  </g>
</svg>