<svg version="1.1" xmlns="http://www.w3.org/2000/svg" width="128" height="128" data-icon="header" class="iconic iconic-header iconic-size-lg" viewBox="0 0 128 128">
  <g class="iconic-metadata">
    <title>Header</title>
  </g>
  <g class="iconic-container" data-width="100" data-height="128" transform="translate(14)">
    <path d="M98 4h2v-4h-28v4h2c3.314 0 6 2.686 6 6v52h-60v-52c0-3.314 2.686-6 6-6h2v-4h-28v4h2c3.314 0 6 2.686 6 6v108c0 3.314-2.686 6-6 6h-2v4h28v-4h-2c-3.314 0-6-2.686-6-6v-50h60v50c0 3.314-2.686 6-6 6h-2v4h28v-4h-2c-3.314 0-6-2.686-6-6v-108c0-3.314 2.686-6 6-6z"
    class="iconic-property-fill" />
  </g>
</svg>