<svg version="1.1" xmlns="http://www.w3.org/2000/svg" width="16" height="16" data-icon="heart" class="iconic iconic-heart iconic-size-sm" viewBox="0 0 16 16">
  <g class="iconic-metadata">
    <title>Heart</title>
  </g>
  <g class="iconic-container" data-width="16" data-height="14" transform="translate(0 1)">
    <path d="M14.828 1.171c-.724-.724-1.724-1.171-2.828-1.171s-2.105.448-2.828 1.171c-.724.724-1.056 1.552-1.172 1.829-.12-.277-.448-1.105-1.172-1.829s-1.724-1.171-2.828-1.171-2.105.448-2.828 1.171c-.724.724-1.172 1.724-1.172 2.829 0 1.105.448 2.104 1.172 2.828l6.828 6.828 6.829-6.828c.724-.724 1.172-1.724 1.172-2.828 0-1.105-.448-2.105-1.172-2.829z"
    class="iconic-property-fill" />
  </g>
</svg>