<svg version="1.1" xmlns="http://www.w3.org/2000/svg" width="128" height="128" data-icon="history" class="iconic iconic-history iconic-size-lg" viewBox="0 0 128 128">
  <g class="iconic-metadata">
    <title>History</title>
  </g>
  <g class="iconic-container" data-width="126" data-height="116" transform="translate(1 6)">
    <path stroke="#000" stroke-width="4" stroke-linecap="square" class="iconic-history-clock-hands iconic-property-accent iconic-property-stroke" fill="none" d="M68 22v36l18 14" />
    <path stroke="#000" stroke-width="8" d="M29.816 96.184c9.772 9.772 23.272 15.816 38.184 15.816s28.412-6.044 38.184-15.816 15.816-23.272 15.816-38.184-6.044-28.412-15.816-38.184-23.272-15.816-38.184-15.816-28.412 6.044-38.184 15.816-15.816 23.272-15.816 38.184v6"
    class="iconic-history-rim iconic-property-stroke" fill="none" />
    <path d="M14.756 80.704l12.488-21.409c.417-.716.084-1.296-.744-1.296h-25c-.828 0-1.162.58-.744 1.296l12.488 21.409c.417.716 1.094.716 1.512 0z" class="iconic-history-arrowhead iconic-property-fill" />
  </g>
</svg>