<svg version="1.1" xmlns="http://www.w3.org/2000/svg" width="128" height="128" data-icon="home" class="iconic iconic-home iconic-size-lg" viewBox="0 0 128 128">
  <g class="iconic-metadata">
    <title>Home</title>
  </g>
  <defs>
    <clipPath id="iconic-size-lg-home-clip-0">
      <path d="M64 16l-48 40v62h38v-24h20v24h38v-62z" />
    </clipPath>
  </defs>
  <g class="iconic-container" data-width="128" data-height="122" transform="translate(0 3)">
    <path clip-path="url(#iconic-size-lg-home-clip-0)" d="M16 57.5v63c0 .828.672 1.5 1.5 1.5h93c.828 0 1.5-.672 1.5-1.5v-63c0-.828-.516-1.93-1.152-2.46l-45.695-38.079c-.636-.53-1.668-.53-2.305 0l-45.695 38.079c-.636.53-1.152 1.632-1.152 2.46z" class="iconic-home-wall iconic-property-fill"
    />
    <path d="M10.5 56h-9c-.828 0-.995-.442-.371-.988l61.742-54.024c.624-.545 1.634-.545 2.258 0l61.742 54.025c.624.545.457.988-.371.988h-9c-.828 0-2.013-.434-2.645-.969l-49.71-42.062c-.632-.535-1.658-.535-2.29 0l-49.71 42.062c-.632.535-1.817.969-2.645.969z"
    class="iconic-home-roof iconic-property-fill" />
  </g>
</svg>