<svg version="1.1" xmlns="http://www.w3.org/2000/svg" width="32" height="32" data-icon="home" class="iconic iconic-home iconic-size-md" viewBox="0 0 32 32">
  <g class="iconic-metadata">
    <title>Home</title>
  </g>
  <defs>
    <clipPath id="iconic-size-md-home-clip-0">
      <path d="M16 5l-11 10v14h9v-6h4v6h9v-14z" />
    </clipPath>
  </defs>
  <g class="iconic-container" data-width="32" data-height="32">
    <path clip-path="url(#iconic-size-md-home-clip-0)" d="M5.5 32h21c.276 0 .5-.224.5-.5v-16c0-.276-.166-.651-.37-.836l-10.26-9.327c-.204-.186-.536-.186-.74 0l-10.26 9.327c-.204.186-.37.56-.37.836v16c0 .276.224.5.5.5z" class="iconic-home-wall iconic-property-fill"
    />
    <path d="M.365 14.658l15.27-14.316c.202-.189.528-.189.73 0l15.271 14.316c.201.189.141.342-.135.342h-2c-.276 0-.664-.152-.867-.339l-12.265-11.322c-.203-.187-.532-.187-.735 0l-12.265 11.322c-.203.187-.591.339-.867.339h-2c-.276 0-.337-.153-.135-.342z"
    class="iconic-home-roof iconic-property-fill" />
  </g>
</svg>