<svg version="1.1" xmlns="http://www.w3.org/2000/svg" width="16" height="16" data-icon="info" class="iconic iconic-info iconic-size-sm" viewBox="0 0 16 16">
  <g class="iconic-metadata">
    <title>Info</title>
  </g>
  <g class="iconic-container" data-width="6" data-height="16" transform="translate(5)">
    <circle cx="4.5" cy="1.5" r="1.5" class="iconic-info-dot iconic-property-fill" />
    <path d="M1 13.5c0 1.328 1.119 2.5 2.5 2.5s2.5-1.119 2.5-2.5v-.5h-1v.5c0 .552-.448 1-1 1s-1-.438-1-1c0-1.156 2-5.625 2-7s-1.119-2.5-2.5-2.5-2.5 1.119-2.5 2.5v.5h1v-.5c0-.552.448-1 1-1s1 .5 1 1c0 1.25-2 5.672-2 7z" class="iconic-info-vertical-line iconic-property-fill"
    />
  </g>
</svg>