<svg version="1.1" xmlns="http://www.w3.org/2000/svg" width="128" height="128" data-icon="iphone" class="iconic iconic-iphone iconic-size-lg" viewBox="0 0 128 128">
  <g class="iconic-metadata">
    <title>Iphone</title>
  </g>
  <defs>
    <clipPath id="iconic-size-lg-iphone-clip-0">
      <path d="M0 0v128h62v-128h-62zm31 4.083c.506 0 .917.41.917.917 0 .506-.41.917-.917.917s-.917-.41-.917-.917c0-.506.41-.917.917-.917zm-4 5.917h8c.552 0 1 .448 1 1s-.448 1-1 1h-8c-.552 0-1-.448-1-1s.448-1 1-1zm-4.083.167c.506 0 .917.41.917.917s-.41.917-.917.917c-.506 0-.917-.41-.917-.917s.41-.917.917-.917zm8.083 113.833c-2.76 0-5-2.24-5-5s2.24-5 5-5 5 2.24 5 5-2.24 5-5 5zm27-14h-54v-94h54v94z"
      />
    </clipPath>
  </defs>
  <g class="iconic-container" data-width="62" data-height="128" transform="translate(33)">
    <path clip-path="url(#iconic-size-lg-iphone-clip-0)" d="M53 0h-44c-4.962 0-9 4.038-9 9v110c0 4.962 4.038 9 9 9h44c4.962 0 9-4.038 9-9v-110c0-4.962-4.038-9-9-9z" class="iconic-iphone-body iconic-property-fill" />
  </g>
</svg>