<svg version="1.1" xmlns="http://www.w3.org/2000/svg" width="32" height="32" data-icon="key" class="iconic iconic-key iconic-size-md" viewBox="0 0 32 32">
  <g class="iconic-metadata">
    <title>Key</title>
  </g>
  <g class="iconic-container" data-width="32" data-height="32">
    <path d="M23 0c-4.971 0-9 4.029-9 9 0 .909.138 1.785.388 2.612l-14.388 14.388v6h6v-3h3v-3h3v-3h3l5.388-5.388c.827.251 1.703.388 2.612.388 4.971 0 9-4.029 9-9s-4.029-9-9-9zm3 8c-1.105 0-2-.895-2-2s.895-2 2-2 2 .895 2 2-.895 2-2 2z" class="iconic-property-fill"
    />
  </g>
</svg>