<svg version="1.1" xmlns="http://www.w3.org/2000/svg" width="16" height="16" data-icon="key" class="iconic iconic-key iconic-size-sm" viewBox="0 0 16 16">
  <g class="iconic-metadata">
    <title>Key</title>
  </g>
  <g class="iconic-container" data-width="16" data-height="16">
    <path d="M11.5 0c-2.485 0-4.5 2.015-4.5 4.5 0 .452.086.879.21 1.29l-7.21 7.21v3h3v-2h2v-2h2v-2h2l1.21-1.21c.411.124.838.21 1.29.21 2.485 0 4.5-2.015 4.5-4.5s-2.015-4.5-4.5-4.5zm1.5 4c-.552 0-1-.448-1-1s.448-1 1-1 1 .448 1 1-.448 1-1 1z" class="iconic-property-fill"
    />
  </g>
</svg>