<svg version="1.1" xmlns="http://www.w3.org/2000/svg" width="32" height="32" data-icon="keyboard" class="iconic iconic-keyboard iconic-size-md" viewBox="0 0 32 32">
  <g class="iconic-metadata">
    <title>Keyboard</title>
  </g>
  <defs>
    <clipPath id="iconic-size-md-keyboard-clip-0">
      <path d="M0 0v15h31v-15h-31zm26 5.25v1.5c0 .138-.113.25-.25.25h-1.5c-.137 0-.25-.112-.25-.25v-1.5c0-.138.113-.25.25-.25h1.5c.137 0 .25.112.25.25zm-3-3c0-.138.113-.25.25-.25h1.5c.137 0 .25.112.25.25v1.5c0 .138-.113.25-.25.25h-1.5c-.137 0-.25-.112-.25-.25v-1.5zm0 3v1.5c0 .138-.113.25-.25.25h-1.5c-.137 0-.25-.112-.25-.25v-1.5c0-.138.113-.25.25-.25h1.5c.137 0 .25.112.25.25zm-3-3c0-.138.113-.25.25-.25h1.5c.137 0 .25.112.25.25v1.5c0 .138-.113.25-.25.25h-1.5c-.137 0-.25-.112-.25-.25v-1.5zm1 6v1.5c0 .137-.113.25-.25.25h-1.5c-.137 0-.25-.113-.25-.25v-1.5c0-.137.113-.25.25-.25h1.5c.137 0 .25.113.25.25zm-1-3v1.5c0 .138-.113.25-.25.25h-1.5c-.137 0-.25-.112-.25-.25v-1.5c0-.138.113-.25.25-.25h1.5c.137 0 .25.112.25.25zm-3-3c0-.138.113-.25.25-.25h1.5c.137 0 .25.112.25.25v1.5c0 .138-.113.25-.25.25h-1.5c-.137 0-.25-.112-.25-.25v-1.5zm1 6v1.5c0 .137-.113.25-.25.25h-1.5c-.137 0-.25-.113-.25-.25v-1.5c0-.137.113-.25.25-.25h1.5c.137 0 .25.113.25.25zm-1-3v1.5c0 .138-.113.25-.25.25h-1.5c-.137 0-.25-.112-.25-.25v-1.5c0-.138.113-.25.25-.25h1.5c.137 0 .25.112.25.25zm-3-3c0-.138.113-.25.25-.25h1.5c.137 0 .25.112.25.25v1.5c0 .138-.113.25-.25.25h-1.5c-.137 0-.25-.112-.25-.25v-1.5zm1 6v1.5c0 .137-.113.25-.25.25h-1.5c-.137 0-.25-.113-.25-.25v-1.5c0-.137.113-.25.25-.25h1.5c.137 0 .25.113.25.25zm-1-3v1.5c0 .138-.113.25-.25.25h-1.5c-.137 0-.25-.112-.25-.25v-1.5c0-.138.113-.25.25-.25h1.5c.137 0 .25.112.25.25zm-3-3c0-.138.113-.25.25-.25h1.5c.137 0 .25.112.25.25v1.5c0 .138-.113.25-.25.25h-1.5c-.137 0-.25-.112-.25-.25v-1.5zm1 6v1.5c0 .137-.113.25-.25.25h-1.5c-.137 0-.25-.113-.25-.25v-1.5c0-.137.113-.25.25-.25h1.5c.137 0 .25.113.25.25zm-1-3v1.5c0 .138-.113.25-.25.25h-1.5c-.137 0-.25-.112-.25-.25v-1.5c0-.138.113-.25.25-.25h1.5c.137 0 .25.112.25.25zm-3-3c0-.138.113-.25.25-.25h1.5c.137 0 .25.112.25.25v1.5c0 .138-.113.25-.25.25h-1.5c-.137 0-.25-.112-.25-.25v-1.5zm0 3v1.5c0 .138-.112.25-.25.25h-1.5c-.138 0-.25-.112-.25-.25v-1.5c0-.138.112-.25.25-.25h1.5c.138 0 .25.112.25.25zm-3-3c0-.138.112-.25.25-.25h1.5c.138 0 .25.112.25.25v1.5c0 .138-.112.25-.25.25h-1.5c-.138 0-.25-.112-.25-.25v-1.5zm-3 0c0-.138.112-.25.25-.25h1.5c.138 0 .25.112.25.25v1.5c0 .138-.112.25-.25.25h-1.5c-.138 0-.25-.112-.25-.25v-1.5zm0 3c0-.138.112-.25.25-.25h2.5c.138 0 .25.112.25.25v1.5c0 .138-.112.25-.25.25h-2.5c-.138 0-.25-.112-.25-.25v-1.5zm0 3c0-.137.112-.25.25-.25h3.5c.138 0 .25.113.25.25v1.5c0 .137-.112.25-.25.25h-3.5c-.138 0-.25-.113-.25-.25v-1.5zm2 4.5c0 .137-.112.25-.25.25h-1.5c-.138 0-.25-.113-.25-.25v-1.5c0-.137.112-.25.25-.25h1.5c.138 0 .25.113.25.25v1.5zm3 0c0 .137-.112.25-.25.25h-1.5c-.138 0-.25-.113-.25-.25v-1.5c0-.137.112-.25.25-.25h1.5c.138 0 .25.113.25.25v1.5zm0-3v-1.5c0-.137.112-.25.25-.25h1.5c.137 0 .25.113.25.25v1.5c0 .137-.113.25-.25.25h-1.5c-.138 0-.25-.113-.25-.25zm16 3c0 .138-.113.25-.25.25h-14.5c-.137 0-.25-.113-.25-.25v-1.5c0-.137.113-.25.25-.25h14.5c.138 0 .25.113.25.25v1.5zm.75-2.75h-1.5c-.137 0-.25-.113-.25-.25v-1.5c0-.137.113-.25.25-.25h1.5c.137 0 .25.113.25.25v1.5c0 .137-.113.25-.25.25zm2.25 2.75c0 .138-.113.25-.25.25h-1.5c-.137 0-.25-.113-.25-.25v-1.5c0-.138.113-.25.25-.25h1.5c.138 0 .25.113.25.25v1.5zm3 0c0 .138-.113.25-.25.25h-1.5c-.137 0-.25-.113-.25-.25v-1.5c0-.138.113-.25.25-.25h1.5c.138 0 .25.113.25.25v1.5zm0-3c0 .137-.113.25-.25.25h-3.5c-.137 0-.25-.113-.25-.25v-1.5c0-.137.113-.25.25-.25h3.5c.137 0 .25.113.25.25v1.5zm0-3c0 .138-.113.25-.25.25h-1.5c-.137 0-.25-.112-.25-.25v-1.5c0-.138.113-.25.25-.25h1.5c.137 0 .25.112.25.25v1.5zm0-3c0 .138-.113.25-.25.25h-2.5c-.137 0-.25-.112-.25-.25v-1.5c0-.138.113-.25.25-.25h2.5c.137 0 .25.112.25.25v1.5z"
      />
    </clipPath>
  </defs>
  <g class="iconic-container" data-width="31" data-height="15" transform="translate(0 8)">
    <path clip-path="url(#iconic-size-md-keyboard-clip-0)" d="M30.5 15h-30c-.276 0-.5-.224-.5-.5v-14c0-.276.224-.5.5-.5h30c.276 0 .5.224.5.5v14c0 .276-.224.5-.5.5z" class="iconic-property-fill" />
  </g>
</svg>