<svg version="1.1" xmlns="http://www.w3.org/2000/svg" width="16" height="16" data-icon="keyboard" class="iconic iconic-keyboard iconic-size-sm" viewBox="0 0 16 16">
  <g class="iconic-metadata">
    <title>Keyboard</title>
  </g>
  <defs>
    <clipPath id="iconic-size-sm-keyboard-clip-0">
      <path d="M0 0v9h15v-9h-15zm10 2h1v1h-1v-1zm-2 0h1v1h-1v-1zm2 2v1h-1v-1h1zm-4-2h1v1h-1v-1zm2 2v1h-1v-1h1zm-4-2h1v1h-1v-1zm2 2v1h-1v-1h1zm-4-2h1v1h-1v-1zm0 2h2v1h-2v-1zm1 3h-1v-1h1v1zm8 0h-7v-1h7v1zm2 0h-1v-1h1v1zm0-2h-2v-1h2v1zm0-2h-1v-1h1v1z" />
    </clipPath>
  </defs>
  <g class="iconic-container" data-width="15" data-height="9" transform="translate(0 3)">
    <path d="M14.75 9h-14.5c-.138 0-.25-.112-.25-.25v-8.5c0-.138.112-.25.25-.25h14.5c.138 0 .25.112.25.25v8.5c0 .138-.112.25-.25.25z" clip-path="url(#iconic-size-sm-keyboard-clip-0)" class="iconic-property-fill" />
  </g>
</svg>