<svg version="1.1" xmlns="http://www.w3.org/2000/svg" width="128" height="128" data-icon="keyboard" class="iconic iconic-keyboard iconic-size-lg" viewBox="0 0 128 128">
  <g class="iconic-metadata">
    <title>Keyboard</title>
  </g>
  <defs>
    <clipPath id="iconic-size-lg-keyboard-clip-0">
      <path d="M0 0v50h126v-50h-126zm102 6.5c0-.275.225-.5.5-.5h5c.275 0 .5.225.5.5v5c0 .275-.225.5-.5.5h-5c-.275 0-.5-.225-.5-.5v-5zm9.5 7.5c.275 0 .5.225.5.5v5c0 .275-.225.5-.5.5h-5c-.275 0-.5-.225-.5-.5v-5c0-.275.225-.5.5-.5h5zm-11.5 8.5c0-.275.225-.5.5-.5h5c.275 0 .5.225.5.5v5c0 .275-.225.5-.5.5h-5c-.275 0-.5-.225-.5-.5v-5zm-1.5-2.5c-.275 0-.5-.225-.5-.5v-5c0-.275.225-.5.5-.5h5c.275 0 .5.225.5.5v5c0 .275-.225.5-.5.5h-5zm-4.5-13.5c0-.275.225-.5.5-.5h5c.275 0 .5.225.5.5v5c0 .275-.225.5-.5.5h-5c-.275 0-.5-.225-.5-.5v-5zm-2 16c0-.275.225-.5.5-.5h5c.275 0 .5.225.5.5v5c0 .275-.225.5-.5.5h-5c-.275 0-.5-.225-.5-.5v-5zm-1.5-2.5c-.275 0-.5-.225-.5-.5v-5c0-.275.225-.5.5-.5h5c.275 0 .5.225.5.5v5c0 .275-.225.5-.5.5h-5zm-4.5-13.5c0-.275.225-.5.5-.5h5c.275 0 .5.225.5.5v5c0 .275-.225.5-.5.5h-5c-.275 0-.5-.225-.5-.5v-5zm-2 16c0-.275.225-.5.5-.5h5c.275 0 .5.225.5.5v5c0 .275-.225.5-.5.5h-5c-.275 0-.5-.225-.5-.5v-5zm-1.5-2.5c-.275 0-.5-.225-.5-.5v-5c0-.275.225-.5.5-.5h5c.275 0 .5.225.5.5v5c0 .275-.225.5-.5.5h-5zm-4.5-13.5c0-.275.225-.5.5-.5h5c.275 0 .5.225.5.5v5c0 .275-.225.5-.5.5h-5c-.275 0-.5-.225-.5-.5v-5zm-42 16c0-.275.225-.5.5-.5h5c.275 0 .5.225.5.5v5c0 .275-.225.5-.5.5h-5c-.275 0-.5-.225-.5-.5v-5zm-1.5-2.5c-.275 0-.5-.225-.5-.5v-5c0-.275.225-.5.5-.5h5c.275 0 .5.225.5.5v5c0 .275-.225.5-.5.5h-5zm5.5 10.5c0-.275.225-.5.5-.5h5c.275 0 .5.225.5.5v5c0 .275-.225.5-.5.5h-5c-.275 0-.5-.225-.5-.5v-5zm2-11v-5c0-.275.225-.5.5-.5h5c.275 0 .5.225.5.5v5c0 .275-.225.5-.5.5h-5c-.275 0-.5-.225-.5-.5zm2.5 8.5c-.275 0-.5-.225-.5-.5v-5c0-.275.225-.5.5-.5h5c.275 0 .5.225.5.5v5c0 .275-.225.5-.5.5h-5zm3.5 2.5c0-.275.225-.5.5-.5h5c.275 0 .5.225.5.5v5c0 .275-.225.5-.5.5h-5c-.275 0-.5-.225-.5-.5v-5zm2-11v-5c0-.275.225-.5.5-.5h5c.275 0 .5.225.5.5v5c0 .275-.225.5-.5.5h-5c-.275 0-.5-.225-.5-.5zm2.5 8.5c-.275 0-.5-.225-.5-.5v-5c0-.275.225-.5.5-.5h5c.275 0 .5.225.5.5v5c0 .275-.225.5-.5.5h-5zm3.5 2.5c0-.275.225-.5.5-.5h5c.275 0 .5.225.5.5v5c0 .275-.225.5-.5.5h-5c-.275 0-.5-.225-.5-.5v-5zm2-11v-5c0-.275.225-.5.5-.5h5c.275 0 .5.225.5.5v5c0 .275-.225.5-.5.5h-5c-.275 0-.5-.225-.5-.5zm2.5 8.5c-.275 0-.5-.225-.5-.5v-5c0-.275.225-.5.5-.5h5c.275 0 .5.225.5.5v5c0 .275-.225.5-.5.5h-5zm3.5 2.5c0-.275.225-.5.5-.5h5c.275 0 .5.225.5.5v5c0 .275-.225.5-.5.5h-5c-.275 0-.5-.225-.5-.5v-5zm2-11v-5c0-.275.225-.5.5-.5h5c.275 0 .5.225.5.5v5c0 .275-.225.5-.5.5h-5c-.275 0-.5-.225-.5-.5zm2.5 8.5c-.275 0-.5-.225-.5-.5v-5c0-.275.225-.5.5-.5h5c.275 0 .5.225.5.5v5c0 .275-.225.5-.5.5h-5zm3.5 2.5c0-.275.225-.5.5-.5h5c.275 0 .5.225.5.5v5c0 .275-.225.5-.5.5h-5c-.275 0-.5-.225-.5-.5v-5zm2-11v-5c0-.275.225-.5.5-.5h5c.275 0 .5.225.5.5v5c0 .275-.225.5-.5.5h-5c-.275 0-.5-.225-.5-.5zm2.5 8.5c-.275 0-.5-.225-.5-.5v-5c0-.275.225-.5.5-.5h5c.275 0 .5.225.5.5v5c0 .275-.225.5-.5.5h-5zm-6.5-21.5c0-.275.225-.5.5-.5h5c.275 0 .5.225.5.5v5c0 .275-.225.5-.5.5h-5c-.275 0-.5-.225-.5-.5v-5zm-8 0c0-.275.225-.5.5-.5h5c.275 0 .5.225.5.5v5c0 .275-.225.5-.5.5h-5c-.275 0-.5-.225-.5-.5v-5zm-8 0c0-.275.225-.5.5-.5h5c.275 0 .5.225.5.5v5c0 .275-.225.5-.5.5h-5c-.275 0-.5-.225-.5-.5v-5zm-8 0c0-.275.225-.5.5-.5h5c.275 0 .5.225.5.5v5c0 .275-.225.5-.5.5h-5c-.275 0-.5-.225-.5-.5v-5zm-8 0c0-.275.225-.5.5-.5h5c.275 0 .5.225.5.5v5c0 .275-.225.5-.5.5h-5c-.275 0-.5-.225-.5-.5v-5zm-8 0c0-.275.225-.5.5-.5h5c.275 0 .5.225.5.5v5c0 .275-.225.5-.5.5h-5c-.275 0-.5-.225-.5-.5v-5zm-2 16c0-.275.225-.5.5-.5h5c.275 0 .5.225.5.5v5c0 .275-.225.5-.5.5h-5c-.275 0-.5-.225-.5-.5v-5zm-1.5-2.5c-.275 0-.5-.225-.5-.5v-5c0-.275.225-.5.5-.5h5c.275 0 .5.225.5.5v5c0 .275-.225.5-.5.5h-5zm-4.5-13.5c0-.275.225-.5.5-.5h5c.275 0 .5.225.5.5v5c0 .275-.225.5-.5.5h-5c-.275 0-.5-.225-.5-.5v-5zm-2 16c0-.275.225-.5.5-.5h5c.275 0 .5.225.5.5v5c0 .275-.225.5-.5.5h-5c-.275 0-.5-.225-.5-.5v-5zm-1.5-2.5c-.275 0-.5-.225-.5-.5v-5c0-.275.225-.5.5-.5h5c.275 0 .5.225.5.5v5c0 .275-.225.5-.5.5h-5zm-4.5-13.5c0-.275.225-.5.5-.5h5c.275 0 .5.225.5.5v5c0 .275-.225.5-.5.5h-5c-.275 0-.5-.225-.5-.5v-5zm-8 0c0-.275.225-.5.5-.5h5c.275 0 .5.225.5.5v5c0 .275-.225.5-.5.5h-5c-.275 0-.5-.225-.5-.5v-5zm0 8c0-.275.225-.5.5-.5h9c.275 0 .5.225.5.5v5c0 .275-.225.5-.5.5h-9c-.275 0-.5-.225-.5-.5v-5zm0 8c0-.275.225-.5.5-.5h11c.275 0 .5.225.5.5v5c0 .275-.225.5-.5.5h-11c-.275 0-.5-.225-.5-.5v-5zm6 21c0 .275-.225.5-.5.5h-5c-.275 0-.5-.225-.5-.5v-5c0-.275.225-.5.5-.5h5c.275 0 .5.225.5.5v5zm8 0c0 .275-.225.5-.5.5h-5c-.275 0-.5-.225-.5-.5v-5c0-.275.225-.5.5-.5h5c.275 0 .5.225.5.5v5zm1.5-7.5h-15c-.275 0-.5-.225-.5-.5v-5c0-.275.225-.5.5-.5h15c.275 0 .5.225.5.5v5c0 .275-.225.5-.5.5zm6.5 7.5c0 .275-.225.5-.5.5h-5c-.275 0-.5-.225-.5-.5v-5c0-.275.225-.5.5-.5h5c.275 0 .5.225.5.5v5zm1.5-7.5h-5c-.275 0-.5-.225-.5-.5v-5c0-.275.225-.5.5-.5h5c.275 0 .5.225.5.5v5c0 .275-.225.5-.5.5zm6.5 7.5c0 .275-.225.5-.5.5h-5c-.275 0-.5-.225-.5-.5v-5c0-.275.225-.5.5-.5h5c.275 0 .5.225.5.5v5zm1.5-7.5h-5c-.275 0-.5-.225-.5-.5v-5c0-.275.225-.5.5-.5h5c.275 0 .5.225.5.5v5c0 .275-.225.5-.5.5zm42.5 7.5c0 .275-.225.5-.5.5h-41c-.275 0-.5-.225-.5-.5v-5c0-.275.225-.5.5-.5h41c.275 0 .5.225.5.5v5zm0-8v-5c0-.275.225-.5.5-.5h5c.275 0 .5.225.5.5v5c0 .275-.225.5-.5.5h-5c-.275 0-.5-.225-.5-.5zm8 8c0 .275-.225.5-.5.5h-5c-.275 0-.5-.225-.5-.5v-5c0-.275.225-.5.5-.5h5c.275 0 .5.225.5.5v5zm0-8v-5c0-.275.225-.5.5-.5h5c.275 0 .5.225.5.5v5c0 .275-.225.5-.5.5h-5c-.275 0-.5-.225-.5-.5zm8 8c0 .275-.225.5-.5.5h-5c-.275 0-.5-.225-.5-.5v-5c0-.275.225-.5.5-.5h5c.275 0 .5.225.5.5v5zm0-8v-5c0-.275.225-.5.5-.5h5c.275 0 .5.225.5.5v5c0 .275-.225.5-.5.5h-5c-.275 0-.5-.225-.5-.5zm8 8.25c0 .138-.113.25-.25.25h-5.5c-.138 0-.25-.112-.25-.25v-1.5c0-.138.113-.25.25-.25h5.5c.138 0 .25.113.25.25v1.5zm8 0c0 .138-.113.25-.25.25h-5.5c-.138 0-.25-.113-.25-.25v-1.5c0-.138.113-.25.25-.25h5.5c.138 0 .25.113.25.25v1.5zm0-4c0 .138-.113.25-.25.25h-5.5c-.138 0-.25-.113-.25-.25v-1.5c0-.138.113-.25.25-.25h5.5c.138 0 .25.113.25.25v1.5zm8 4c0 .138-.113.25-.25.25h-5.5c-.138 0-.25-.113-.25-.25v-1.5c0-.138.113-.25.25-.25h5.5c.138 0 .25.113.25.25v1.5zm0-8.25c0 .275-.225.5-.5.5h-15c-.275 0-.5-.225-.5-.5v-5c0-.275.225-.5.5-.5h15c.275 0 .5.225.5.5v5zm0-8c0 .275-.225.5-.5.5h-11c-.275 0-.5-.225-.5-.5v-5c0-.275.225-.5.5-.5h11c.275 0 .5.225.5.5v5zm0-8c0 .275-.225.5-.5.5h-5c-.275 0-.5-.225-.5-.5v-5c0-.275.225-.5.5-.5h5c.275 0 .5.225.5.5v5zm0-8c0 .275-.225.5-.5.5h-9c-.275 0-.5-.225-.5-.5v-5c0-.275.225-.5.5-.5h9c.275 0 .5.225.5.5v5z"
      />
    </clipPath>
  </defs>
  <g class="iconic-container" data-width="126" data-height="50" transform="translate(1 39)">
    <path clip-path="url(#iconic-size-lg-keyboard-clip-0)" d="M124.5 50h-123c-.828 0-1.5-.672-1.5-1.5v-47c0-.828.672-1.5 1.5-1.5h123c.828 0 1.5.672 1.5 1.5v47c0 .828-.672 1.5-1.5 1.5z" class="iconic-property-fill" />
  </g>
</svg>