<svg version="1.1" xmlns="http://www.w3.org/2000/svg" width="32" height="32" data-icon="keypad-mobile" class="iconic iconic-keypad-mobile iconic-size-md" viewBox="0 0 32 32">
  <g class="iconic-metadata">
    <title>Keypad Mobile</title>
  </g>
  <g class="iconic-container" data-width="22" data-height="30" transform="translate(5 1)">
    <path d="M13.5 30h-5c-.276 0-.5-.224-.5-.5v-5c0-.276.224-.5.5-.5h5c.276 0 .5.224.5.5v5c0 .276-.224.5-.5.5z" class="iconic-keypad-mobile-button iconic-keypad-mobile-button-0 iconic-property-fill" />
    <path d="M21.5 22h-5c-.276 0-.5-.224-.5-.5v-5c0-.276.224-.5.5-.5h5c.276 0 .5.224.5.5v5c0 .276-.224.5-.5.5z" class="iconic-keypad-mobile-button iconic-keypad-mobile-button-9 iconic-property-fill" />
    <path d="M13.5 22h-5c-.276 0-.5-.224-.5-.5v-5c0-.276.224-.5.5-.5h5c.276 0 .5.224.5.5v5c0 .276-.224.5-.5.5z" class="iconic-keypad-mobile-button iconic-keypad-mobile-button-8 iconic-property-fill" />
    <path d="M5.5 22h-5c-.276 0-.5-.224-.5-.5v-5c0-.276.224-.5.5-.5h5c.276 0 .5.224.5.5v5c0 .276-.224.5-.5.5z" class="iconic-keypad-mobile-button iconic-keypad-mobile-button-7 iconic-property-fill" />
    <path d="M21.5 14h-5c-.276 0-.5-.224-.5-.5v-5c0-.276.224-.5.5-.5h5c.276 0 .5.224.5.5v5c0 .276-.224.5-.5.5z" class="iconic-keypad-mobile-button iconic-keypad-mobile-button-6 iconic-property-fill" />
    <path d="M13.5 14h-5c-.276 0-.5-.224-.5-.5v-5c0-.276.224-.5.5-.5h5c.276 0 .5.224.5.5v5c0 .276-.224.5-.5.5z" class="iconic-keypad-mobile-button iconic-keypad-mobile-button-5 iconic-property-fill" />
    <path d="M5.5 14h-5c-.276 0-.5-.224-.5-.5v-5c0-.276.224-.5.5-.5h5c.276 0 .5.224.5.5v5c0 .276-.224.5-.5.5z" class="iconic-keypad-mobile-button iconic-keypad-mobile-button-4 iconic-property-fill" />
    <path d="M21.5 6h-5c-.276 0-.5-.224-.5-.5v-5c0-.276.224-.5.5-.5h5c.276 0 .5.224.5.5v5c0 .276-.224.5-.5.5z" class="iconic-keypad-mobile-button iconic-keypad-mobile-button-3 iconic-property-fill" />
    <path d="M13.5 6h-5c-.276 0-.5-.224-.5-.5v-5c0-.276.224-.5.5-.5h5c.276 0 .5.224.5.5v5c0 .276-.224.5-.5.5z" class="iconic-keypad-mobile-button iconic-keypad-mobile-button-2 iconic-property-fill" />
    <path d="M5.5 6h-5c-.276 0-.5-.224-.5-.5v-5c0-.276.224-.5.5-.5h5c.276 0 .5.224.5.5v5c0 .276-.224.5-.5.5z" class="iconic-keypad-mobile-button iconic-keypad-mobile-button-1 iconic-property-fill" />
  </g>
</svg>