<svg version="1.1" xmlns="http://www.w3.org/2000/svg" width="128" height="128" data-icon="laptop" class="iconic iconic-laptop iconic-size-lg" viewBox="0 0 128 128">
  <g class="iconic-metadata">
    <title>Laptop</title>
  </g>
  <defs>
    <clipPath id="iconic-size-lg-laptop-clip-0">
      <path d="M120 0h-112v72h112v-72zm-52 72h-8c-1.105 0-2-.895-2-2h12c0 1.105-.895 2-2 2zm48-4h-104v-64h104v64zm3 6c-.552 0-1-.448-1-1s.448-1 1-1 1 .448 1 1-.448 1-1 1z" />
    </clipPath>
    <clipPath id="iconic-size-lg-laptop-clip-1">
      <path d="M0 70v6h128v-6h-58c0 1.105-.895 2-2 2h-8c-1.105 0-2-.895-2-2h-58zm119 4c-.552 0-1-.448-1-1s.448-1 1-1 1 .448 1 1-.448 1-1 1z" />
    </clipPath>
  </defs>
  <g class="iconic-container" data-width="128" data-height="76" transform="translate(0 26)">
    <path clip-path="url(#iconic-size-lg-laptop-clip-0)" stroke="#231F20" stroke-width="4" d="M116.5 70h-105c-.828 0-1.5-.672-1.5-1.5v-65c0-.828.672-1.5 1.5-1.5h105c.828 0 1.5.672 1.5 1.5v65c0 .828-.672 1.5-1.5 1.5z" class="iconic-laptop-screen-border iconic-property-stroke"
    fill="none" />
    <path clip-path="url(#iconic-size-lg-laptop-clip-1)" fill="#231F20" d="M126.5 76h-125c-.828 0-1.5-.672-1.5-1.5v-7c0-.828.672-1.5 1.5-1.5h125c.828 0 1.5.672 1.5 1.5v7c0 .828-.672 1.5-1.5 1.5z" class="iconic-laptop-base iconic-property-fill" />
  </g>
</svg>