<svg version="1.1" xmlns="http://www.w3.org/2000/svg" width="32" height="32" data-icon="lightbulb-alt-off" class="iconic iconic-lightbulb-alt-off iconic-size-md" viewBox="0 0 32 32">
  <g class="iconic-metadata">
    <title>Lightbulb Alt Off</title>
  </g>
  <defs>
    <clipPath id="iconic-size-md-lightbulb-alt-off-clip-0">
      <path d="M21.854 7.121v18.879h-18.879l18.879-18.879zm0-4.242v-2.879h-21v23.879l21-21z" />
    </clipPath>
  </defs>
  <g class="iconic-container" data-width="25" data-height="32" transform="translate(3)">
    <path stroke="#000" stroke-linecap="round" class="iconic-lightbulb-alt-off-screw iconic-lightbulb-alt-off-screw-3 iconic-property-stroke" fill="none" d="M9.354 31.5h4" />
    <path stroke="#000" stroke-linecap="round" class="iconic-lightbulb-alt-off-screw iconic-lightbulb-alt-off-screw-2 iconic-property-stroke" fill="none" d="M8.354 29.5h6" />
    <path stroke="#000" stroke-linecap="round" class="iconic-lightbulb-alt-off-screw iconic-lightbulb-alt-off-screw-1 iconic-property-stroke" fill="none" d="M8.354 27.5h6" />
    <path d="M15.889 23h-9.071c.013.179.036.349.036.541-.001.179 0 1.297 0 1.962 0 .276.224.497.5.497h8c.276 0 .5-.221.5-.497 0-.665.001-1.783 0-1.962-.001-.192.022-.362.035-.541z" class="iconic-lightbulb-alt-off-base iconic-property-fill" />
    <path stroke="#000" class="iconic-lightbulb-alt-off-strike iconic-property-stroke" fill="none" d="M25.354 1.5l-25 25" />
    <path clip-path="url(#iconic-size-md-lightbulb-alt-off-clip-0)" d="M16.039 22c.983-4.074 5.814-4.825 5.814-12 0-4-3.833-10-10.5-10s-10.5 6-10.5 10c0 7.166 4.82 7.974 5.811 12h9.375zm-11.186-11c-.552 0-1-.448-1-1 0-2.443 2.576-7 7.5-7 .552 0 1 .448 1 1s-.448 1-1 1c-3.629 0-5.5 3.505-5.5 5 0 .552-.448 1-1 1z"
    class="iconic-lightbulb-alt-off-bulb iconic-property-fill" />
  </g>
</svg>