<svg version="1.1" xmlns="http://www.w3.org/2000/svg" width="128" height="128" data-icon="lightning" class="iconic iconic-lightning iconic-size-lg" viewBox="0 0 128 128">
  <g class="iconic-metadata">
    <title>Lightning</title>
  </g>
  <defs>
    <clipPath id="iconic-size-lg-lightning-clip-0">
      <path d="M0 0v86h24.058l13.846-20h35.753l-16 16h17.391l-4.8 4h57.752v-86z" />
    </clipPath>
  </defs>
  <g class="iconic-container" data-width="128" data-height="126" transform="translate(0 1)">
    <path class="iconic-lightning-lightning-bolt iconic-property-accent iconic-property-fill" d="M40 70l-18 26h15l-21 30 48-40h-16l16-16z" />
    <path d="M110 50c-.711 0-1.311-.081-2 0-.871-8.409-7.602-15.091-16-16-.986-18.976-16.783-34-36-34-18.8 0-34.415 14.604-36 33-11.578 3.042-20 13.481-20 26 0 14.552 11.575 26.471 26 27h84c9.925 0 18-8.075 18-18s-8.075-18-18-18z" clip-path="url(#iconic-size-lg-lightning-clip-0)"
    class="iconic-lightning-cloud iconic-property-fill" />
  </g>
</svg>