<svg version="1.1" xmlns="http://www.w3.org/2000/svg" width="16" height="16" data-icon="lightning" class="iconic iconic-lightning iconic-size-sm" viewBox="0 0 16 16">
  <g class="iconic-metadata">
    <title>Lightning</title>
  </g>
  <defs>
    <clipPath id="iconic-size-sm-lightning-clip-0">
      <path d="M0 0v12h1.75l.45-.6 3-4 .3-.4h5.914l-1.707 1.707-.293.293h2.289l-2.052 1.759-1.448 1.241h7.797v-12z" />
    </clipPath>
  </defs>
  <g class="iconic-container" data-width="16" data-height="16">
    <path class="iconic-lightning-lightning-bolt iconic-property-accent iconic-property-fill" d="M6 8l-3 4h2l-3 4 7-6h-2l2-2z" />
    <path d="M13 6v-1c0-2.757-2.243-5-5-5-2.454 0-4.49 1.78-4.91 4.114-1.767.415-3.09 1.995-3.09 3.886 0 2.206 1.794 4 4 4h9c1.654 0 3-1.346 3-3s-1.346-3-3-3z" clip-path="url(#iconic-size-sm-lightning-clip-0)" class="iconic-lightning-cloud iconic-property-fill"
    />
  </g>
</svg>