<svg version="1.1" xmlns="http://www.w3.org/2000/svg" width="128" height="128" data-icon="loop" class="iconic iconic-loop iconic-size-lg" viewBox="0 0 128 128">
  <g class="iconic-metadata">
    <title>Loop</title>
  </g>
  <g class="iconic-container" data-width="112" data-height="72" transform="translate(8 28)">
    <path stroke="#000" stroke-width="8" stroke-linecap="square" d="M46 58h59c1.657 0 3-1.343 3-3v-38c0-1.657-1.343-3-3-3h-5" class="iconic-loop-line iconic-loop-line-bottom iconic-property-stroke" fill="none" />
    <path d="M25.296 58.756l21.409 12.488c.715.417 1.296.084 1.296-.744v-25c0-.828-.58-1.162-1.296-.744l-21.409 12.488c-.716.417-.716 1.094 0 1.512z" class="iconic-loop-arrowhead iconic-loop-arrowhead-bottom iconic-property-fill" />
    <path stroke="#000" stroke-width="8" stroke-linecap="square" d="M72 14h-65c-1.657 0-3 1.343-3 3v38c0 1.657 1.343 3 3 3h5" class="iconic-loop-line iconic-loop-line-top iconic-property-stroke" fill="none" />
    <path d="M86.704 13.244l-21.409-12.488c-.716-.417-1.296-.084-1.296.744v25c0 .828.58 1.162 1.296.744l21.409-12.488c.716-.417.716-1.094 0-1.512z" class="iconic-loop-arrowhead iconic-loop-arrowhead-top iconic-property-fill" />
  </g>
</svg>