<svg version="1.1" xmlns="http://www.w3.org/2000/svg" width="32" height="32" data-icon="magic-wand" class="iconic iconic-magic-wand iconic-size-md" viewBox="0 0 32 32">
  <g class="iconic-metadata">
    <title>Magic Wand</title>
  </g>
  <g class="iconic-container" data-width="32" data-height="32">
    <path d="M20.354 9.354l2.293 2.293c.195.195.195.512 0 .707l-19.293 19.293c-.195.195-.512.195-.707 0l-2.293-2.293c-.195-.195-.195-.512 0-.707l19.293-19.293c.195-.195.512-.195.707 0z" class="iconic-magic-wand-shaft iconic-magic-wand-shaft-handle iconic-property-fill"
    />
    <path d="M23.646 5.354l-2.335 2.335c-.195.195-.193.51.005.702l2.325 2.261c.198.193.517.19.712-.005l2.293-2.293c.195-.195.195-.512 0-.707l-2.293-2.293c-.195-.195-.512-.195-.707 0z" class="iconic-magic-wand-shaft iconic-magic-wand-shaft-tip iconic-property-fill"
    />
    <path stroke="#000" stroke-linecap="round" class="iconic-magic-wand-ray iconic-magic-wand-ray-minor iconic-magic-wand-ray-7 iconic-property-stroke" fill="none" d="M24.5 13.5v2" />
    <path stroke="#000" stroke-linecap="round" class="iconic-magic-wand-ray iconic-magic-wand-ray-major iconic-magic-wand-ray-6 iconic-property-stroke" fill="none" d="M27.5 11.5l4 4" />
    <path stroke="#000" stroke-linecap="round" class="iconic-magic-wand-ray iconic-magic-wand-ray-minor iconic-magic-wand-ray-5 iconic-property-stroke" fill="none" d="M31.5 7.5h-2" />
    <path stroke="#000" stroke-linecap="round" class="iconic-magic-wand-ray iconic-magic-wand-ray-major iconic-magic-wand-ray-4 iconic-property-stroke" fill="none" d="M31.5.5l-4 4" />
    <path stroke="#000" stroke-linecap="round" class="iconic-magic-wand-ray iconic-magic-wand-ray-minor iconic-magic-wand-ray-3 iconic-property-stroke" fill="none" d="M24.5.5v2" />
    <path stroke="#000" stroke-linecap="round" class="iconic-magic-wand-ray iconic-magic-wand-ray-major iconic-magic-wand-ray-2 iconic-property-stroke" fill="none" d="M17 .5l4 4" />
    <path stroke="#000" stroke-linecap="round" class="iconic-magic-wand-ray iconic-magic-wand-ray-minor iconic-magic-wand-ray-1 iconic-property-stroke" fill="none" d="M18.5 7.5h-2" />
  </g>
</svg>