<svg version="1.1" xmlns="http://www.w3.org/2000/svg" width="128" height="128" data-icon="magnifying-glass" class="iconic iconic-magnifying-glass iconic-size-lg" viewBox="0 0 128 128">
  <g class="iconic-metadata">
    <title>Magnifying Glass</title>
  </g>
  <defs>
    <clipPath id="iconic-size-lg-magnifying-glass-clip-0">
      <path d="M95.707 83.707l-6.707 6.707-1.414-1.414 6.707-6.707-4.293-4.293-12 12 38 38 12-12z" />
    </clipPath>
  </defs>
  <g class="iconic-container" data-width="128" data-height="128">
    <path stroke="#000" stroke-width="8" class="iconic-magnifying-glass-handle iconic-magnifying-glass-handle-connector iconic-property-stroke" fill="none" d="M85 85l-7.912-7.912" />
    <path d="M126.939 117.061l-9.879 9.879c-.586.586-1.536.586-2.121 0l-35.879-35.879c-.586-.586-.586-1.536 0-2.121l9.879-9.879c.586-.586 1.536-.586 2.121 0l35.879 35.879c.586.586.586 1.535 0 2.121z" clip-path="url(#iconic-size-lg-magnifying-glass-clip-0)"
    class="iconic-magnifying-glass-handle iconic-property-fill" />
    <circle stroke="#000" stroke-width="8" cx="46" cy="46" r="42" class="iconic-magnifying-glass-rim iconic-property-stroke" fill="none" />
    <path fill="#fff" stroke="#000" stroke-width="2" stroke-linecap="round" d="M13 46c0-18.225 14.775-33 33-33" class="iconic-magnifying-glass-reflection iconic-property-accent iconic-property-stroke" />
  </g>
</svg>