<svg version="1.1" xmlns="http://www.w3.org/2000/svg" width="32" height="32" data-icon="map" class="iconic iconic-map iconic-size-md" viewBox="0 0 32 32">
  <g class="iconic-metadata">
    <title>Map</title>
  </g>
  <g class="iconic-container" data-width="32" data-height="32">
    <path stroke="#000" class="iconic-map-street iconic-map-street-cross iconic-map-street-cross-2 iconic-property-stroke" fill="none" d="M31 11l-20 20" />
    <path stroke="#000" stroke-width="1.014" stroke-linecap="round" class="iconic-map-street iconic-map-street-cross iconic-map-street-cross-1 iconic-property-stroke" fill="none" d="M12 9l8-8" />
    <path stroke="#000" class="iconic-map-street iconic-map-street-main iconic-property-stroke" fill="none" d="M10 1l21.095 21.095" />
    <path d="M12 13c-2.209 0-4 1.791-4 4 0 3 4 8 4 8s4-5 4-8c0-2.209-1.791-4-4-4zm0 6c-1.105 0-2-.895-2-2s.895-2 2-2 2 .895 2 2-.895 2-2 2z" class="iconic-map-map-marker iconic-property-accent iconic-property-fill" />
    <path stroke="#000" stroke-width="3" d="M30 30.5h-28c-.276 0-.5-.224-.5-.5v-28c0-.276.224-.5.5-.5h28c.276 0 .5.224.5.5v28c0 .276-.224.5-.5.5z" class="iconic-map-frame iconic-property-stroke" fill="none" />
  </g>
</svg>