<svg version="1.1" xmlns="http://www.w3.org/2000/svg" width="16" height="16" data-icon="map" class="iconic iconic-map iconic-size-sm" viewBox="0 0 16 16">
  <g class="iconic-metadata">
    <title>Map</title>
  </g>
  <g class="iconic-container" data-width="16" data-height="16">
    <path stroke="#000" class="iconic-map-street iconic-map-street-cross iconic-property-stroke" fill="none" d="M15 6l-9 9" />
    <path stroke="#000" class="iconic-map-street iconic-map-street-main iconic-property-stroke" fill="none" d="M5 1l10 10" />
    <path d="M6 6c-1.105 0-2 .895-2 2 0 1.5 2 4 2 4s2-2.5 2-4c0-1.105-.895-2-2-2zm0 3c-.552 0-1-.448-1-1s.448-1 1-1 1 .448 1 1-.448 1-1 1z" class="iconic-map-map-marker iconic-property-accent iconic-property-fill" />
    <path stroke="#000" stroke-width="2" d="M14.75 15h-13.5c-.138 0-.25-.112-.25-.25v-13.5c0-.138.112-.25.25-.25h13.5c.138 0 .25.112.25.25v13.5c0 .138-.112.25-.25.25z" class="iconic-map-frame iconic-property-stroke" fill="none" />
  </g>
</svg>