<svg version="1.1" xmlns="http://www.w3.org/2000/svg" width="128" height="128" data-icon="marquee" class="iconic iconic-marquee iconic-size-lg" viewBox="0 0 128 128">
  <g class="iconic-metadata">
    <title>Marquee</title>
  </g>
  <g class="iconic-container" data-width="124" data-height="82" transform="translate(2 23)">
    <path fill="#fff" stroke="#000" stroke-width="2" class="iconic-marquee-corner iconic-marquee-corner-top iconic-marquee-corner-left iconic-marquee-corner-top-left iconic-property-stroke" d="M10 1h-9v9" />
    <path fill="#fff" stroke="#000" stroke-width="2" class="iconic-marquee-corner iconic-marquee-corner-top iconic-marquee-corner-right iconic-marquee-corner-top-right iconic-property-stroke" d="M123 10v-9h-9" />
    <path fill="#fff" stroke="#000" stroke-width="2" class="iconic-marquee-corner iconic-marquee-corner-bottom iconic-marquee-corner-right iconic-marquee-corner-bottom-right iconic-property-stroke" d="M114 81h9v-9" />
    <path fill="#fff" stroke="#000" stroke-width="2" class="iconic-marquee-corner iconic-marquee-corner-bottom iconic-marquee-corner-left iconic-marquee-corner-bottom-left iconic-property-stroke" d="M1 72v9h9" />
    <path fill="#fff" stroke="#000" stroke-width="2" class="iconic-marquee-line iconic-marquee-line-horizontal iconic-marquee-line-horizontal-top iconic-property-stroke" d="M16 1h8M30 1h8M44 1h8M58 1h8M72 1h8M86 1h8M100 1h8" />
    <path fill="#fff" stroke="#000" stroke-width="2" class="iconic-marquee-line iconic-marquee-line-horizontal iconic-marquee-line-horizontal-bottom iconic-property-stroke" d="M16 81h8M30 81h8M44 81h8M58 81h8M72 81h8M86 81h8M100 81h8" />
    <path fill="#fff" stroke="#000" stroke-width="2" class="iconic-marquee-line iconic-marquee-line-vertical iconic-marquee-line-vertical-left iconic-property-stroke" d="M1 16v8M1 30v8M1 44v8M1 58v8" />
    <path fill="#fff" stroke="#000" stroke-width="2" class="iconic-marquee-line iconic-marquee-line-vertical iconic-marquee-line-vertical-right iconic-property-stroke" d="M123 16v8M123 30v8M123 44v8M123 58v8" />
  </g>
</svg>