<svg version="1.1" xmlns="http://www.w3.org/2000/svg" width="32" height="32" data-icon="medal" class="iconic iconic-medal iconic-size-md" viewBox="0 0 32 32">
  <g class="iconic-metadata">
    <title>Medal</title>
  </g>
  <defs>
    <clipPath id="iconic-size-md-medal-clip-0">
      <path d="M28 0l-6 10h-1l6-10h-22l6 10h-1l-6-10h-4v21h9.082c1.386-2.387 3.964-4 6.918-4s5.532 1.613 6.918 4h9.082v-21h-4z" />
    </clipPath>
  </defs>
  <g class="iconic-container" data-width="32" data-height="31">
    <path d="M27.5 0h-23c-.276 0-.679.134-.9.3l-3.2 2.4c-.221.166-.285.492-.143.729l11.486 19.142c.142.237.436.295.657.129l3.2-2.4c.221-.166.285-.492.143-.729l-8.486-14.143c-.142-.237-.033-.429.243-.429h17c.276 0 .385.192.243.429l-8.486 14.143c-.142.237-.078.563.143.729l3.2 2.4c.221.166.515.108.657-.129l11.486-19.143c.142-.237.078-.563-.143-.729l-3.2-2.4c-.221-.166-.624-.3-.9-.3z"
    clip-path="url(#iconic-size-md-medal-clip-0)" class="iconic-medal-band iconic-property-fill" />
    <circle cx="16" cy="25" r="6" class="iconic-medal-medal iconic-property-fill" />
  </g>
</svg>