<svg version="1.1" xmlns="http://www.w3.org/2000/svg" width="128" height="128" data-icon="microphone" class="iconic iconic-microphone iconic-size-lg" viewBox="0 0 128 128">
  <g class="iconic-metadata">
    <title>Microphone</title>
  </g>
  <g class="iconic-container" data-width="62" data-height="128" transform="translate(33)">
    <path d="M55 56h-1v-2h-4v2h-3c-.553 0-1 .447-1 1 0 .553.447 1 1 1h3v14.5c0 9.649-8.074 17.5-18 17.5h-2c-9.926 0-18-7.851-18-17.5v-14.5h3c.553 0 1-.447 1-1 0-.553-.447-1-1-1h-3v-2h-4v2h-1c-.552 0-1 .448-1 1s.448 1 1 1h1v2h2v12.5c0 10.752 8.973 19.5 20 19.5v4h2v-4c11.027 0 20-8.748 20-19.5v-12.5h2v-2h1c.552 0 1-.448 1-1s-.448-1-1-1z"
    class="iconic-microphone-hinge iconic-property-fill" />
    <path d="M34 94v28c0 1.105.895 2 2 2h22c2.209 0 4 1.791 4 4h-62c0-2.209 1.791-4 4-4h22c1.105 0 2-.895 2-2v-28h6z" class="iconic-microphone-base iconic-property-fill" />
    <path d="M47 60c-1.305 0-2.402-.838-2.817-2h-8.285c-.465 2.279-2.482 4-4.898 4s-4.434-1.721-4.899-4h-8.285c-.414 1.162-1.511 2-2.816 2h-1v11c0 9.35 7.65 17 17 17s17-7.65 17-17v-11h-1zm-16 22c-.553 0-1-.447-1-1 0-.553.447-1 1-1s1 .447 1 1c0 .553-.447 1-1 1z"
    class="iconic-microphone-head iconic-microphone-head-bottom iconic-property-fill" />
    <circle cx="31" cy="57" r="3" class="iconic-microphone-head iconic-microphone-head-button iconic-property-fill" />
    <path d="M31 0c-9.35 0-17 7.651-17 17v37h1c1.305 0 2.402.838 2.817 2h8.285c.465-2.279 2.483-4 4.899-4s4.433 1.721 4.898 4h8.285c.414-1.162 1.511-2 2.816-2h1v-37c0-9.35-7.65-17-17-17zm-12 50c-.553 0-1-.447-1-1 0-.553.447-1 1-1s1 .447 1 1c0 .553-.447 1-1 1zm0-4c-.553 0-1-.447-1-1 0-.553.447-1 1-1s1 .447 1 1c0 .553-.447 1-1 1zm0-4c-.553 0-1-.447-1-1 0-.553.447-1 1-1s1 .447 1 1c0 .553-.447 1-1 1zm0-4c-.553 0-1-.447-1-1 0-.553.447-1 1-1s1 .447 1 1c0 .553-.447 1-1 1zm0-4c-.553 0-1-.447-1-1 0-.553.447-1 1-1s1 .447 1 1c0 .553-.447 1-1 1zm0-4c-.553 0-1-.447-1-1 0-.553.447-1 1-1s1 .447 1 1c0 .553-.447 1-1 1zm0-4c-.553 0-1-.447-1-1 0-.553.447-1 1-1s1 .447 1 1c0 .553-.447 1-1 1zm0-4c-.553 0-1-.447-1-1 0-.553.447-1 1-1s1 .447 1 1c0 .553-.447 1-1 1zm0-4c-.553 0-1-.447-1-1 0-.553.447-1 1-1s1 .447 1 1c0 .553-.447 1-1 1zm0-4c-.553 0-1-.447-1-1 0-.553.447-1 1-1s1 .447 1 1c0 .553-.447 1-1 1zm4 36c-.553 0-1-.447-1-1 0-.553.447-1 1-1s1 .447 1 1c0 .553-.447 1-1 1zm0-4c-.553 0-1-.447-1-1 0-.553.447-1 1-1s1 .447 1 1c0 .553-.447 1-1 1zm0-4c-.553 0-1-.447-1-1 0-.553.447-1 1-1s1 .447 1 1c0 .553-.447 1-1 1zm0-4c-.553 0-1-.447-1-1 0-.553.447-1 1-1s1 .447 1 1c0 .553-.447 1-1 1zm0-4c-.553 0-1-.447-1-1 0-.553.447-1 1-1s1 .447 1 1c0 .553-.447 1-1 1zm0-4c-.553 0-1-.447-1-1 0-.553.447-1 1-1s1 .447 1 1c0 .553-.447 1-1 1zm0-4c-.553 0-1-.447-1-1 0-.553.447-1 1-1s1 .447 1 1c0 .553-.447 1-1 1zm0-4c-.553 0-1-.447-1-1 0-.553.447-1 1-1s1 .447 1 1c0 .553-.447 1-1 1zm0-4c-.553 0-1-.447-1-1 0-.553.447-1 1-1s1 .447 1 1c0 .553-.447 1-1 1zm0-4c-.553 0-1-.447-1-1 0-.553.447-1 1-1s1 .447 1 1c0 .553-.447 1-1 1zm0-4c-.553 0-1-.447-1-1 0-.553.447-1 1-1s1 .447 1 1c0 .553-.447 1-1 1zm4 40c-.553 0-1-.447-1-1 0-.553.447-1 1-1s1 .447 1 1c0 .553-.447 1-1 1zm0-4c-.553 0-1-.447-1-1 0-.553.447-1 1-1s1 .447 1 1c0 .553-.447 1-1 1zm0-4c-.553 0-1-.447-1-1 0-.553.447-1 1-1s1 .447 1 1c0 .553-.447 1-1 1zm0-4c-.553 0-1-.447-1-1 0-.553.447-1 1-1s1 .447 1 1c0 .553-.447 1-1 1zm0-4c-.553 0-1-.447-1-1 0-.553.447-1 1-1s1 .447 1 1c0 .553-.447 1-1 1zm0-4c-.553 0-1-.447-1-1 0-.553.447-1 1-1s1 .447 1 1c0 .553-.447 1-1 1zm0-4c-.553 0-1-.447-1-1 0-.553.447-1 1-1s1 .447 1 1c0 .553-.447 1-1 1zm0-4c-.553 0-1-.447-1-1 0-.553.447-1 1-1s1 .447 1 1c0 .553-.447 1-1 1zm0-4c-.553 0-1-.447-1-1 0-.553.447-1 1-1s1 .447 1 1c0 .553-.447 1-1 1zm0-4c-.553 0-1-.447-1-1 0-.553.447-1 1-1s1 .447 1 1c0 .553-.447 1-1 1zm0-4c-.553 0-1-.447-1-1 0-.553.447-1 1-1s1 .447 1 1c0 .553-.447 1-1 1zm0-4c-.553 0-1-.447-1-1 0-.553.447-1 1-1s1 .447 1 1c0 .553-.447 1-1 1zm4 44c-.553 0-1-.447-1-1 0-.553.447-1 1-1s1 .447 1 1c0 .553-.447 1-1 1zm0-4c-.553 0-1-.447-1-1 0-.553.447-1 1-1s1 .447 1 1c0 .553-.447 1-1 1zm0-4c-.553 0-1-.447-1-1 0-.553.447-1 1-1s1 .447 1 1c0 .553-.447 1-1 1zm0-4c-.553 0-1-.447-1-1 0-.553.447-1 1-1s1 .447 1 1c0 .553-.447 1-1 1zm0-4c-.553 0-1-.447-1-1 0-.553.447-1 1-1s1 .447 1 1c0 .553-.447 1-1 1zm0-4c-.553 0-1-.447-1-1 0-.553.447-1 1-1s1 .447 1 1c0 .553-.447 1-1 1zm0-4c-.553 0-1-.447-1-1 0-.553.447-1 1-1s1 .447 1 1c0 .553-.447 1-1 1zm0-4c-.553 0-1-.447-1-1 0-.553.447-1 1-1s1 .447 1 1c0 .553-.447 1-1 1zm0-4c-.553 0-1-.447-1-1 0-.553.447-1 1-1s1 .447 1 1c0 .553-.447 1-1 1zm0-4c-.553 0-1-.447-1-1 0-.553.447-1 1-1s1 .447 1 1c0 .553-.447 1-1 1zm0-4c-.553 0-1-.447-1-1 0-.553.447-1 1-1s1 .447 1 1c0 .553-.447 1-1 1zm0-4c-.553 0-1-.447-1-1 0-.553.447-1 1-1s1 .447 1 1c0 .553-.447 1-1 1zm4 44c-.553 0-1-.447-1-1 0-.553.447-1 1-1s1 .447 1 1c0 .553-.447 1-1 1zm0-4c-.553 0-1-.447-1-1 0-.553.447-1 1-1s1 .447 1 1c0 .553-.447 1-1 1zm0-4c-.553 0-1-.447-1-1 0-.553.447-1 1-1s1 .447 1 1c0 .553-.447 1-1 1zm0-4c-.553 0-1-.447-1-1 0-.553.447-1 1-1s1 .447 1 1c0 .553-.447 1-1 1zm0-4c-.553 0-1-.447-1-1 0-.553.447-1 1-1s1 .447 1 1c0 .553-.447 1-1 1zm0-4c-.553 0-1-.447-1-1 0-.553.447-1 1-1s1 .447 1 1c0 .553-.447 1-1 1zm0-4c-.553 0-1-.447-1-1 0-.553.447-1 1-1s1 .447 1 1c0 .553-.447 1-1 1zm0-4c-.553 0-1-.447-1-1 0-.553.447-1 1-1s1 .447 1 1c0 .553-.447 1-1 1zm0-4c-.553 0-1-.447-1-1 0-.553.447-1 1-1s1 .447 1 1c0 .553-.447 1-1 1zm0-4c-.553 0-1-.447-1-1 0-.553.447-1 1-1s1 .447 1 1c0 .553-.447 1-1 1zm0-4c-.553 0-1-.447-1-1 0-.553.447-1 1-1s1 .447 1 1c0 .553-.447 1-1 1zm0-4c-.553 0-1-.447-1-1 0-.553.447-1 1-1s1 .447 1 1c0 .553-.447 1-1 1zm4 44c-.553 0-1-.447-1-1 0-.553.447-1 1-1s1 .447 1 1c0 .553-.447 1-1 1zm0-4c-.553 0-1-.447-1-1 0-.553.447-1 1-1s1 .447 1 1c0 .553-.447 1-1 1zm0-4c-.553 0-1-.447-1-1 0-.553.447-1 1-1s1 .447 1 1c0 .553-.447 1-1 1zm0-4c-.553 0-1-.447-1-1 0-.553.447-1 1-1s1 .447 1 1c0 .553-.447 1-1 1zm0-4c-.553 0-1-.447-1-1 0-.553.447-1 1-1s1 .447 1 1c0 .553-.447 1-1 1zm0-4c-.553 0-1-.447-1-1 0-.553.447-1 1-1s1 .447 1 1c0 .553-.447 1-1 1zm0-4c-.553 0-1-.447-1-1 0-.553.447-1 1-1s1 .447 1 1c0 .553-.447 1-1 1zm0-4c-.553 0-1-.447-1-1 0-.553.447-1 1-1s1 .447 1 1c0 .553-.447 1-1 1zm0-4c-.553 0-1-.447-1-1 0-.553.447-1 1-1s1 .447 1 1c0 .553-.447 1-1 1zm0-4c-.553 0-1-.447-1-1 0-.553.447-1 1-1s1 .447 1 1c0 .553-.447 1-1 1zm0-4c-.553 0-1-.447-1-1 0-.553.447-1 1-1s1 .447 1 1c0 .553-.447 1-1 1zm4 40c-.553 0-1-.447-1-1 0-.553.447-1 1-1s1 .447 1 1c0 .553-.447 1-1 1zm0-4c-.553 0-1-.447-1-1 0-.553.447-1 1-1s1 .447 1 1c0 .553-.447 1-1 1zm0-4c-.553 0-1-.447-1-1 0-.553.447-1 1-1s1 .447 1 1c0 .553-.447 1-1 1zm0-4c-.553 0-1-.447-1-1 0-.553.447-1 1-1s1 .447 1 1c0 .553-.447 1-1 1zm0-4c-.553 0-1-.447-1-1 0-.553.447-1 1-1s1 .447 1 1c0 .553-.447 1-1 1zm0-4c-.553 0-1-.447-1-1 0-.553.447-1 1-1s1 .447 1 1c0 .553-.447 1-1 1zm0-4c-.553 0-1-.447-1-1 0-.553.447-1 1-1s1 .447 1 1c0 .553-.447 1-1 1zm0-4c-.553 0-1-.447-1-1 0-.553.447-1 1-1s1 .447 1 1c0 .553-.447 1-1 1zm0-4c-.553 0-1-.447-1-1 0-.553.447-1 1-1s1 .447 1 1c0 .553-.447 1-1 1zm0-4c-.553 0-1-.447-1-1 0-.553.447-1 1-1s1 .447 1 1c0 .553-.447 1-1 1z"
    class="iconic-microphone-head iconic-microphone-head-top iconic-property-fill" />
  </g>
</svg>