<svg version="1.1" xmlns="http://www.w3.org/2000/svg" width="16" height="16" data-icon="musical-note" class="iconic iconic-musical-note iconic-size-sm" viewBox="0 0 16 16">
  <g class="iconic-metadata">
    <title>Musical Note</title>
  </g>
  <g class="iconic-container" data-width="16" data-height="16">
    <path d="M4 2v8.184000000000001c-.314-.112-.647-.184-1-.184-1.657 0-3 1.343-3 3s1.343 3 3 3 3-1.343 3-3v-7.922c1.476-.454 3.952-.927 8-1.047v5.153c-.314-.112-.648-.184-1-.184-1.657 0-3 1.343-3 3s1.343 3 3 3 3-1.343 3-3v-12c-10 0-12 2-12 2z" class="iconic-property-fill"
    />
  </g>
</svg>