<svg version="1.1" xmlns="http://www.w3.org/2000/svg" width="128" height="128" data-icon="musical-note" class="iconic iconic-musical-note iconic-size-lg" viewBox="0 0 128 128">
  <g class="iconic-metadata">
    <title>Musical Note</title>
  </g>
  <g class="iconic-container" data-width="118" data-height="128" transform="translate(5)">
    <path d="M28 16v79.035c-2.861-1.915-6.299-3.035-10-3.035-9.941 0-18 8.059-18 18s8.059 18 18 18 18-8.059 18-18v-74.241c10.547-4.459 32.797-10.933 74-11.684v60.961c-2.861-1.915-6.299-3.035-10-3.035-9.941 0-18 8.059-18 18s8.059 18 18 18 18-8.059 18-18v-100c-70 0-90 16-90 16z"
    class="iconic-property-fill" />
  </g>
</svg>