<svg version="1.1" xmlns="http://www.w3.org/2000/svg" width="16" height="16" data-icon="network" class="iconic iconic-network iconic-size-sm" viewBox="0 0 16 16">
  <g class="iconic-metadata">
    <title>Network</title>
  </g>
  <g class="iconic-container" data-width="16" data-height="16">
    <path d="M.206 6.218c.445-1.953 1.602-3.631 3.186-4.751 1.542.707 3.275 1.763 4.946 3.081-2.863-.21-5.516.339-8.132 1.67zm10.382.31c-.273.29-.658.472-1.088.472-.311 0-.6-.095-.839-.256-2.416 1.761-4.642 4.09-5.626 6.607 1.135-.028 2.525-.316 3.969-.81 0-.014-.004-.027-.004-.041 0-.828.672-1.5 1.5-1.5.423 0 .803.176 1.076.458.881-.445 1.726-.956 2.496-1.521-.043-.139-.072-.284-.072-.437 0-.382.147-.726.381-.991-.553-.689-1.156-1.353-1.793-1.982zm-3.368.019c.276-.219.561-.426.846-.632-.035-.12-.058-.244-.061-.375-2.802-.154-5.4.472-7.976 1.913-.012.182-.028.363-.028.548 0 2.02.755 3.861 1.99 5.269 1.049-3.002 3.571-5.403 5.229-6.722zm7.78 2.954c0 .287-.085.553-.225.781.188.327.359.658.52.99.449-.999.704-2.104.704-3.271 0-.31-.022-.614-.056-.915-.297.585-.682 1.148-1.142 1.683.123.217.198.465.198.732zm-5.872 4.358c-.192.089-.403.142-.628.142-.461 0-.868-.212-1.143-.539-1.537.532-3.011.839-4.218.882 1.348 1.035 3.03 1.657 4.861 1.657.856 0 1.679-.138 2.453-.387-.417-.641-.872-1.242-1.325-1.755zm4.372-5.858c.204 0 .398.042.576.115.757-.888 1.265-1.852 1.431-2.859-.203-.556-.463-1.083-.779-1.574-1.08.264-2.39.806-3.753 1.572.013.08.025.161.025.245 0 .011-.003.021-.003.032.807.784 1.568 1.62 2.251 2.494.082-.014.166-.025.252-.025zm.515 2.903c-.161.059-.333.097-.515.097-.317 0-.61-.1-.852-.267-.826.606-1.729 1.146-2.663 1.617.005.05.015.099.015.151 0 .234-.058.453-.154.651.524.591 1.067 1.305 1.557 2.081 1.353-.638 2.498-1.639 3.307-2.884-.202-.487-.428-.971-.694-1.445zm-4.707-6.884c.063-.008.126-.019.191-.019.376 0 .715.143.978.371 1.261-.703 2.506-1.24 3.608-1.556-1.467-1.721-3.647-2.815-6.086-2.815-1.271 0-2.468.304-3.535.831 1.575.785 3.253 1.875 4.843 3.188z"
    class="iconic-property-fill" />
  </g>
</svg>