<svg version="1.1" xmlns="http://www.w3.org/2000/svg" width="128" height="128" data-icon="network" class="iconic iconic-network iconic-size-lg" viewBox="0 0 128 128">
  <g class="iconic-metadata">
    <title>Network</title>
  </g>
  <g class="iconic-container" data-width="128" data-height="128">
    <path d="M107.048 68.396c-6.809-8.86-14.966-17.612-24.364-26.041.809-.888 1.316-2.059 1.316-3.355 0-.433-.072-.846-.175-1.246 11.022-5.802 21.841-10.245 30.965-12.677 4.899 6.383 8.616 13.716 10.839 21.675-2.146 6.349-6.299 13.889-14.023 22-.761-.468-1.648-.751-2.607-.751-.693 0-1.352.141-1.952.396zm-32.968-30.194c.028-.172.068-.338.112-.504-14.235-11.718-29.813-21.575-43.873-28.116-15.315 9.499-26.314 25.278-29.416 43.743 24.332-13.339 48.041-18.212 73.177-15.123zm-18.81 15.077c6.127-4.532 12.568-8.759 19.05-12.569-.057-.156-.107-.315-.148-.478-25.277-3.17-49.105 1.843-73.632 15.583-.343 2.682-.539 5.41-.539 8.185 0 14.083 4.56 27.096 12.268 37.665 6.339-13.754 18.866-30.534 43.002-48.385zm25.764-9.72c-.623.278-1.308.44-2.034.44-1.425 0-2.703-.603-3.614-1.56-6.478 3.789-12.89 7.982-18.927 12.447-24.428 18.068-36.765 34.937-42.82 48.581 1.65 2.102 3.418 4.105 5.313 5.984.954.055 1.94.086 2.965.086 11.816 0 27.068-3.727 42.144-9.935-.024-.2-.061-.396-.061-.602 0-2.761 2.239-5 5-5 1.506 0 2.84.679 3.756 1.732 5.443-2.608 10.773-5.508 15.804-8.662 6.294-3.946 11.594-7.867 16.061-11.703-.384-.708-.621-1.506-.621-2.367 0-1.349.54-2.568 1.408-3.467-6.797-8.83-14.958-17.561-24.374-25.973zm-9.357 59.651c-.775.494-1.689.789-2.676.789-1.839 0-3.429-1.004-4.297-2.483-15.52 6.366-30.986 10.021-42.786 10.021-.27 0-.519-.018-.785-.022 11.347 10.244 26.378 16.484 42.868 16.484 8.255 0 16.137-1.58 23.382-4.426-4.138-7.067-9.354-14.11-15.706-20.363zm39.473-25.714c-.653.313-1.376.503-2.149.503-1.179 0-2.249-.425-3.104-1.108-9.321 8.039-20.55 15.041-32.152 20.605.151.477.255.976.255 1.503 0 1.065-.339 2.048-.906 2.859 5.232 5.321 11.042 12.708 16.044 21.009 13.49-5.768 24.589-16.038 31.424-28.92-2.58-5.463-5.724-10.964-9.412-16.452zm10.547 14.235c4.04-8.39 6.304-17.796 6.304-27.732 0-4.729-.528-9.333-1.501-13.769-2.883 7.005-7.549 13.678-13.441 19.867.588.82.942 1.817.942 2.903 0 1.266-.486 2.409-1.262 3.29 3.463 5.146 6.447 10.306 8.957 15.442zm-46.569-55.858c.917-1.134 2.302-1.873 3.873-1.873 1.592 0 2.994.758 3.91 1.918 10.81-5.708 21.402-10.089 30.51-12.585-11.738-14.248-29.517-23.333-49.419-23.333-11.462 0-22.21 3.028-31.516 8.305 13.699 6.516 28.672 16.09 42.643 27.568z"
    class="iconic-property-fill" />
  </g>
</svg>