<svg version="1.1" xmlns="http://www.w3.org/2000/svg" width="32" height="32" data-icon="network" class="iconic iconic-network iconic-size-md" viewBox="0 0 32 32">
  <g class="iconic-metadata">
    <title>Network</title>
  </g>
  <g class="iconic-container" data-width="32" data-height="32">
    <path d="M25.726 17.47c-.44.367-.726.912-.726 1.53 0 .257.053.501.141.727-1.972 1.538-4.237 2.896-6.579 4.02-.367-.452-.92-.747-1.547-.747-1.105 0-2 .895-2 2 0 .082.015.161.024.24-3.405 1.262-6.736 1.981-9.33 1.981-.414 0-.797-.027-1.166-.065-.326-.335-.641-.68-.937-1.042 2.614-5.823 8.764-11.122 14.945-14.742.365.385.877.628 1.449.628.223 0 .433-.045.633-.112 1.845 1.735 3.576 3.608 5.093 5.582zm-8.156-8.265c-3.451-2.799-7.08-5.072-10.314-6.595-3.57 2.336-6.145 6.057-6.967 10.404 5.749-3.112 11.368-4.345 17.281-3.809zm-3.896 4.16c1.416-1.02 2.902-1.973 4.403-2.845-.023-.087-.04-.175-.051-.266-6.138-.669-11.946.63-17.928 4.015-.061.569-.097 1.146-.097 1.731 0 3.426 1.086 6.593 2.92 9.196 2.517-5.237 7.433-9.438 10.754-11.831zm15.326 5.635c0 .379-.111.729-.294 1.031.607.998 1.153 2.013 1.632 3.038 1.054-2.134 1.662-4.527 1.662-7.068 0-.903-.093-1.783-.237-2.646-.699 1.613-1.757 3.143-3.087 4.56.203.313.324.684.324 1.085zm-10.953 7.706c-.302.183-.652.294-1.031.294-.661 0-1.243-.325-1.607-.82-3.554 1.308-7.024 2.041-9.699 2.041-.009 0-.017-.002-.026-.002 2.786 2.355 6.383 3.78 10.317 3.78 1.904 0 3.721-.35 5.415-.96-1.051-1.637-2.237-3.134-3.368-4.335zm9.921-5.966c-.288.16-.615.26-.968.26-.471 0-.899-.17-1.241-.443-2.04 1.588-4.372 2.975-6.776 4.119.017.106.033.213.033.324 0 .362-.104.697-.272.99 1.214 1.289 2.493 2.911 3.614 4.69 3.095-1.343 5.671-3.639 7.383-6.514-.505-1.159-1.094-2.305-1.774-3.426zm-.968-3.74c.329 0 .635.087.909.228 1.665-1.764 2.889-3.69 3.442-5.715-.488-1.673-1.239-3.232-2.21-4.63-2.098.48-4.584 1.394-7.195 2.667.033.145.055.294.055.449 0 .477-.174.91-.453 1.254 1.865 1.801 3.603 3.742 5.125 5.779.107-.018.216-.033.328-.033zm-8.418-8.41c.362-.364.863-.59 1.418-.59.602 0 1.135.271 1.501.691 2.484-1.211 4.896-2.134 6.994-2.67-2.932-3.667-7.435-6.022-12.495-6.022-2.747 0-5.332.694-7.591 1.914 3.292 1.592 6.838 3.893 10.173 6.676z"
    class="iconic-property-fill" />
  </g>
</svg>