<svg version="1.1" xmlns="http://www.w3.org/2000/svg" width="128" height="128" data-icon="nexus" class="iconic iconic-nexus iconic-size-lg" viewBox="0 0 128 128">
  <g class="iconic-metadata">
    <title>Nexus</title>
  </g>
  <defs>
    <clipPath id="iconic-size-lg-nexus-clip-0">
      <path d="M0 0v128h64v-128h-64zm32 4c1.105 0 2 .895 2 2s-.895 2-2 2-2-.895-2-2 .895-2 2-2zm-20.917 2c.552 0 1 .448 1 1s-.448 1-1 1-1-.448-1-1 .448-1 1-1zm48.917 106h-56v-100h56v100z" />
    </clipPath>
  </defs>
  <g class="iconic-container" data-width="64" data-height="128" transform="translate(32)">
    <path clip-path="url(#iconic-size-lg-nexus-clip-0)" d="M60.336 2.797c-.111-.028-11.288-2.797-28.336-2.797s-28.225 2.769-28.336 2.797c-2.055.518-3.664 2.584-3.664 4.703v112.5c0 2.119 1.612 4.176 3.664 4.703 1.743.448 11.289 3.297 28.336 3.297s25.151-2.501 28.336-3.297c2.056-.514 3.664-2.584 3.664-4.703v-112.5c0-2.119-1.609-4.185-3.664-4.703z"
    class="iconic-nexus-body iconic-property-fill" />
    <path d="M46.5 105v1h-1.5v3h6v-1.5h1v-2.5h-5.5zm3.5 3h-4v-1h4v1z" class="iconic-nexus-button iconic-nexus-button-context iconic-property-fill" />
    <path stroke="#000" class="iconic-nexus-button iconic-nexus-button-home iconic-property-stroke" fill="none" d="M31.958 105.375l-2.458 1.125v2h5v-2z" />
    <path fill="#0C0D07" d="M16.5 106h-2.793l.646-.646-.707-.707-1.854 1.853 1.853 1.853.707-.707-.646-.647h2.793c.276 0 .5.224.5.5s-.224.5-.5.5h-1.5v1h1.5c.827 0 1.5-.673 1.5-1.5s-.673-1.5-1.5-1.5z" class="iconic-nexus-button iconic-nexus-button-back iconic-property-fill"
    />
  </g>
</svg>