<svg version="1.1" xmlns="http://www.w3.org/2000/svg" width="128" height="128" data-icon="open-hardware" class="iconic iconic-open-hardware iconic-size-lg" viewBox="0 0 128 128">
  <g class="iconic-metadata">
    <title>Open Hardware</title>
  </g>
  <g class="iconic-container" data-width="128" data-height="115" transform="translate(0 6)">
    <path d="M127.305 55.071l-15.716-2.923c-.382-.072-.801-.431-.93-.8l-4.817-11.239c-.18-.347-.145-.892.076-1.215l9.157-13.346c.219-.321.176-.81-.1-1.086l-11.437-11.437c-.276-.276-.764-.321-1.085-.1l-13.58 9.319c-.321.221-.872.26-1.221.088l-10.895-4.46c-.37-.122-.73-.536-.803-.92l-3.026-16.255c-.071-.383-.448-.697-.838-.697h-16.176c-.389 0-.767.314-.838.697l-3.025 16.255c-.073.383-.432.797-.803.92l-10.896 4.46c-.35.172-.901.133-1.221-.088l-13.579-9.319c-.322-.221-.811-.176-1.086.1l-11.438 11.437c-.275.276-.321.765-.1 1.086l9.158 13.346c.22.323.254.868.075 1.215l-4.818 11.239c-.128.369-.546.729-.93.8l-15.715 2.923c-.384.073-.697.449-.697.839l.001 16.175c0 .39.314.77.697.839l15.33 2.853c.383.07.793.434.91.806l4.786 11.955c.171.351.131.9-.091 1.221l-8.707 12.689c-.22.321-.175.811.1 1.087l11.439 11.437c.275.274.764.319 1.086.1l12.465-8.555c.321-.22.86-.237 1.195-.041l5.497 2.935c.348.178.754.028.903-.333l11.335-27.387c.15-.36 0-.82-.333-1.024l-1.376-.842c-.254-.155-.599-.422-.87-.666-4.963-3.178-8.255-8.737-8.255-15.068 0-9.88 8.01-17.888 17.888-17.888s17.887 8.009 17.887 17.888c0 6.331-3.292 11.89-8.255 15.068-.269.245-.615.511-.868.666l-1.376.842c-.331.204-.482.663-.333 1.024l11.334 27.388c.149.36.554.51.903.333l5.497-2.935c.337-.196.874-.18 1.195.041l12.466 8.556c.321.219.811.174 1.085-.1l11.439-11.437c.276-.276.321-.766.1-1.087l-8.708-12.689c-.22-.321-.261-.87-.09-1.221l4.786-11.955c.118-.372.525-.736.909-.806l15.33-2.853c.382-.07.697-.449.697-.839l.002-16.175c.001-.391-.313-.768-.695-.84"
    class="iconic-property-fill" />
  </g>
</svg>