<svg version="1.1" xmlns="http://www.w3.org/2000/svg" width="16" height="16" data-icon="open-hardware" class="iconic iconic-open-hardware iconic-size-sm" viewBox="0 0 16 16">
  <g class="iconic-metadata">
    <title>Open Hardware</title>
  </g>
  <g class="iconic-container" data-width="16" data-height="14" transform="translate(0 1)">
    <path d="M15.913 6.884l-1.964-.365c-.048-.009-.1-.054-.116-.1l-.602-1.405c-.022-.043-.018-.112.01-.152l1.145-1.668c.027-.04.022-.101-.013-.136l-1.43-1.43c-.035-.035-.096-.04-.136-.013l-1.698 1.165c-.04.028-.109.033-.153.011l-1.362-.558c-.046-.015-.091-.067-.1-.115l-.378-2.032c-.009-.048-.056-.087-.105-.087h-2.022c-.049 0-.096.039-.105.087l-.378 2.032c-.009.048-.054.1-.1.115l-1.362.558c-.044.022-.113.017-.153-.011l-1.697-1.165c-.04-.028-.101-.022-.136.013l-1.43 1.43c-.034.035-.04.096-.013.136l1.145 1.668c.028.04.032.108.009.152l-.602 1.405c-.016.046-.068.091-.116.1l-1.964.365c-.048.009-.087.056-.087.105v2.022c0 .049.039.096.087.105l1.916.357c.048.009.099.054.114.101l.598 1.494c.021.044.016.113-.011.153l-1.088 1.586c-.028.04-.022.101.013.136l1.43 1.43c.034.034.096.04.136.013l1.558-1.069c.04-.028.107-.03.149-.005l.687.367c.043.022.094.004.113-.042l1.417-3.423c.019-.045 0-.102-.042-.128l-.172-.105c-.032-.019-.075-.053-.109-.083-.62-.397-1.032-1.092-1.032-1.883 0-1.235 1.001-2.236 2.236-2.236s2.236 1.001 2.236 2.236c0 .791-.411 1.486-1.032 1.883-.034.03-.077.064-.109.083l-.172.105c-.041.025-.06.083-.042.128l1.417 3.424c.019.045.069.064.113.042l.687-.367c.042-.025.109-.022.149.005l1.558 1.069c.04.027.101.022.136-.013l1.43-1.43c.035-.035.04-.096.013-.136l-1.088-1.586c-.028-.04-.033-.109-.011-.153l.598-1.494c.015-.046.066-.092.114-.101l1.916-.357c.048-.009.087-.056.087-.105v-2.022c0-.049-.039-.096-.087-.105"
    class="iconic-property-fill" />
  </g>
</svg>