<svg version="1.1" xmlns="http://www.w3.org/2000/svg" width="32" height="32" data-icon="open-hardware" class="iconic iconic-open-hardware iconic-size-md" viewBox="0 0 32 32">
  <g class="iconic-metadata">
    <title>Open Hardware</title>
  </g>
  <g class="iconic-container" data-width="32" data-height="28" transform="translate(0 2)">
    <path d="M31.826 13.768l-3.929-.731c-.096-.018-.2-.108-.233-.2l-1.204-2.81c-.045-.087-.036-.223.019-.304l2.289-3.337c.055-.08.044-.202-.025-.272l-2.859-2.859c-.069-.069-.191-.08-.271-.025l-3.395 2.33c-.08.055-.218.065-.305.022l-2.724-1.115c-.092-.031-.183-.134-.201-.23l-.756-4.064c-.018-.096-.112-.174-.21-.174h-4.044c-.097 0-.192.078-.209.174l-.756 4.064c-.018.096-.108.199-.201.23l-2.724 1.115c-.087.043-.225.033-.305-.022l-3.395-2.33c-.081-.055-.203-.044-.272.025l-2.86 2.859c-.069.069-.08.191-.025.272l2.289 3.337c.055.081.064.217.019.304l-1.205 2.81c-.032.092-.137.182-.233.2l-3.929.731c-.096.018-.174.112-.174.21v4.044c0 .098.078.192.174.21l3.833.713c.096.017.198.108.228.202l1.196 2.989c.043.088.033.225-.023.305l-2.177 3.172c-.055.08-.044.203.025.272l2.86 2.859c.069.069.191.08.272.025l3.116-2.139c.08-.055.215-.059.299-.01l1.374.734c.087.044.189.007.226-.083l2.834-6.847c.037-.09 0-.205-.083-.256l-.344-.211c-.064-.039-.15-.105-.217-.167-1.241-.794-2.064-2.184-2.064-3.767 0-2.47 2.002-4.472 4.472-4.472s4.472 2.002 4.472 4.472c0 1.583-.823 2.973-2.064 3.767-.067.061-.154.128-.217.167l-.344.211c-.083.051-.12.166-.083.256l2.833 6.847c.037.09.139.127.226.083l1.374-.734c.084-.049.218-.045.299.01l3.116 2.139c.08.055.203.043.271-.025l2.86-2.859c.069-.069.08-.191.025-.272l-2.177-3.172c-.055-.08-.065-.217-.022-.305l1.196-2.989c.029-.093.131-.184.227-.202l3.833-.713c.096-.017.174-.112.174-.21l.001-4.044c0-.098-.078-.192-.174-.21"
    class="iconic-property-fill" />
  </g>
</svg>