<svg version="1.1" xmlns="http://www.w3.org/2000/svg" width="32" height="32" data-icon="palette" class="iconic iconic-palette iconic-size-md" viewBox="0 0 32 32">
  <g class="iconic-metadata">
    <title>Palette</title>
  </g>
  <g class="iconic-container" data-width="30" data-height="32" transform="translate(1)">
    <path d="M23.97 16.611c7.04-2.611 6.816-8.677 4.82-11.297-2.747-3.606-6.753-5.314-12.763-5.314-8.851 0-16.026 7.163-16.026 16 0 8.836 7.175 16 16.026 16 4.007 0 8.668-.551 9.766-3.458.582-1.542.207-3.51-2.793-5.214-3.093-1.756-3.037-5.23.97-6.716zm-18.47 4.389c-.828 0-1.5-.672-1.5-1.5s.672-1.5 1.5-1.5 1.5.672 1.5 1.5-.672 1.5-1.5 1.5zm0-8c-.828 0-1.5-.672-1.5-1.5s.672-1.5 1.5-1.5 1.5.672 1.5 1.5-.672 1.5-1.5 1.5zm2.5-7.5c0-.828.672-1.5 1.5-1.5s1.5.672 1.5 1.5-.672 1.5-1.5 1.5-1.5-.672-1.5-1.5zm2.5 21.5c-.828 0-1.5-.672-1.5-1.5s.672-1.5 1.5-1.5 1.5.672 1.5 1.5-.672 1.5-1.5 1.5zm3.5-23.5c0-.828.672-1.5 1.5-1.5s1.5.672 1.5 1.5-.672 1.5-1.5 1.5-1.5-.672-1.5-1.5zm3.5 25.5c-.828 0-1.5-.672-1.5-1.5s.672-1.5 1.5-1.5 1.5.672 1.5 1.5-.672 1.5-1.5 1.5zm0-12c-1.381 0-2.5-1.119-2.5-2.5s1.119-2.5 2.5-2.5 2.5 1.119 2.5 2.5-1.119 2.5-2.5 2.5zm2.5-11.5c0-.828.672-1.5 1.5-1.5s1.5.672 1.5 1.5-.672 1.5-1.5 1.5-1.5-.672-1.5-1.5z"
    class="iconic-property-fill" />
  </g>
</svg>