<svg version="1.1" xmlns="http://www.w3.org/2000/svg" width="128" height="128" data-icon="palette" class="iconic iconic-palette iconic-size-lg" viewBox="0 0 128 128">
  <g class="iconic-metadata">
    <title>Palette</title>
  </g>
  <g class="iconic-container" data-width="120" data-height="128" transform="translate(4)">
    <path d="M95.88 66.445c28.158-10.445 27.262-34.709 19.278-45.19-10.986-14.422-27.013-21.255-51.052-21.255-35.405 0-64.106 28.654-64.106 64 0 35.346 28.701 64 64.106 64 16.026 0 34.67-2.203 39.065-13.833 2.33-6.167.83-14.042-11.17-20.856-12.372-7.026-12.147-20.921 3.88-26.865zm-74.88-28.445c2.761 0 5 2.239 5 5s-2.239 5-5 5-5-2.239-5-5 2.239-5 5-5zm-6 34c-2.761 0-5-2.239-5-5s2.239-5 5-5 5 2.239 5 5-2.239 5-5 5zm10 24c-2.761 0-5-2.239-5-5s2.239-5 5-5 5 2.239 5 5-2.239 5-5 5zm7-75c0-2.761 2.239-5 5-5s5 2.239 5 5-2.239 5-5 5-5-2.239-5-5zm13 93c-2.761 0-5-2.239-5-5s2.239-5 5-5 5 2.239 5 5-2.239 5-5 5zm16-96c-2.761 0-5-2.239-5-5s2.239-5 5-5 5 2.239 5 5-2.239 5-5 5zm10 100c-2.761 0-5-2.239-5-5s2.239-5 5-5 5 2.239 5 5-2.239 5-5 5zm6-52c-5.523 0-10-4.477-10-10s4.477-10 10-10 10 4.477 10 10-4.477 10-10 10zm5-47c0-2.761 2.239-5 5-5s5 2.239 5 5-2.239 5-5 5-5-2.239-5-5z"
    class="iconic-property-fill" />
  </g>
</svg>