<svg version="1.1" xmlns="http://www.w3.org/2000/svg" width="16" height="16" data-icon="palette" class="iconic iconic-palette iconic-size-sm" viewBox="0 0 16 16">
  <g class="iconic-metadata">
    <title>Palette</title>
  </g>
  <g class="iconic-container" data-width="15" data-height="16">
    <path d="M11.985 8.306c3.52-1.306 3.408-4.339 2.41-5.649-1.373-1.803-3.377-2.657-6.382-2.657-4.426 0-8.013 3.582-8.013 8s3.588 8 8.013 8c2.003 0 4.209-.329 4.883-1.729.366-.761-.146-1.958-1.273-2.513-1.596-.785-1.641-2.71.362-3.453zm-8.985 2.694c-.552 0-1-.448-1-1s.448-1 1-1 1 .448 1 1-.448 1-1 1zm0-4c-.552 0-1-.448-1-1s.448-1 1-1 1 .448 1 1-.448 1-1 1zm1-4c0-.552.448-1 1-1s1 .448 1 1-.448 1-1 1-1-.448-1-1zm2 11c-.552 0-1-.448-1-1s.448-1 1-1 1 .448 1 1-.448 1-1 1zm1-12c0-.552.448-1 1-1s1 .448 1 1-.448 1-1 1-1-.448-1-1zm2 7c-.552 0-1-.448-1-1s.448-1 1-1 1 .448 1 1-.448 1-1 1zm1-6c0-.552.448-1 1-1s1 .448 1 1-.448 1-1 1-1-.448-1-1z"
    class="iconic-property-fill" />
  </g>
</svg>