<svg version="1.1" xmlns="http://www.w3.org/2000/svg" width="32" height="32" data-icon="pencil" class="iconic iconic-pencil iconic-size-md" viewBox="0 0 32 32">
  <g class="iconic-metadata">
    <title>Pencil</title>
  </g>
  <defs>
    <clipPath id="iconic-size-md-pencil-clip-0">
      <path transform="matrix(-.707 -.707 .707 -.707 44.971 26.627)" d="M24.465 1.879h7.071v4.243h-7.071z" />
    </clipPath>
  </defs>
  <g class="iconic-container" data-width="32" data-height="32">
    <path class="iconic-pencil-shaft iconic-property-fill" d="M2 27l1-3 19-19 5 5-19 19-3 1" />
    <path clip-path="url(#iconic-size-md-pencil-clip-0)" d="M27.354.354l4.293 4.293c.195.195.195.512 0 .707l-3.293 3.293c-.195.195-.512.195-.707 0l-4.293-4.293c-.195-.195-.195-.512 0-.707l3.293-3.293c.195-.195.512-.195.707 0z" class="iconic-pencil-eraser iconic-property-fill"
    />
    <path class="iconic-pencil-tip iconic-property-fill" d="M1 29l-1 3 3-1z" />
  </g>
</svg>