<svg version="1.1" xmlns="http://www.w3.org/2000/svg" width="16" height="16" data-icon="pill" class="iconic iconic-pill iconic-size-sm" viewBox="0 0 16 16">
  <g class="iconic-metadata">
    <title>Pill</title>
  </g>
  <g class="iconic-container" data-width="16" data-height="16">
    <path d="M5.894 5.863l4.243 4.243-4.016 4.016c-.567.567-1.32.879-2.121.879s-1.555-.312-2.121-.879c-.567-.567-.879-1.32-.879-2.121s.312-1.555.879-2.121l4.016-4.016m0-1.414l-4.723 4.723c-1.562 1.562-1.562 4.095 0 5.657.781.781 1.805 1.171 2.828 1.171s2.047-.391 2.828-1.172l4.723-4.723-5.657-5.657z"
    class="iconic-pill-cap-hollow iconic-property-fill" />
    <path d="M9.172 1.172c1.562-1.562 4.095-1.562 5.657 0s1.562 4.095 0 5.657l-3.984 3.984-5.657-5.657 3.984-3.984z" class="iconic-pill-cap-solid iconic-property-fill" />
  </g>
</svg>