<svg version="1.1" xmlns="http://www.w3.org/2000/svg" width="128" height="128" data-icon="pin" class="iconic iconic-pin iconic-size-lg" viewBox="0 0 128 128">
  <g class="iconic-metadata">
    <title>Pin</title>
  </g>
  <g class="iconic-container" data-width="76" data-height="128" transform="translate(26)">
    <path class="iconic-pin-pin iconic-property-fill" d="M40 117.999l-2 10.001-2-10.001v-60.999h4z" />
    <path d="M68 50h-6c-4.418 0-8-3.582-8-8v-36h8v-2c0-2.209-1.791-4-4-4h-40c-2.209 0-4 1.791-4 4v2h8v36c0 4.418-3.582 8-8 8h-6c-4.418 0-8 3.582-8 8v8h76v-8c0-4.418-3.582-8-8-8z" class="iconic-pin-body iconic-property-accent iconic-property-fill" />
  </g>
</svg>