<svg version="1.1" xmlns="http://www.w3.org/2000/svg" data-icon="platform-android" width="128" height="128" class="iconic iconic-platform iconic-size-lg iconic-platform-android" viewBox="0 0 128 128">
  <g>
    <title>Platform Android</title>
  </g>
  <!-- Android -->
  <g data-width="109" data-height="128" class="iconic-container iconic-platform-android" transform="translate(9 ) scale(1 1 ) ">
    <path d="M7.899 41.403c-4.362-.002-7.898 3.541-7.899 7.9l.006 33.083c.001 4.374 3.538 7.903 7.901 7.902 4.366 0 7.902-3.531 7.898-7.902l.001-33.087c-.002-4.358-3.543-7.898-7.906-7.895" class="iconic-platform-android-arm iconic-platform-android-arm-left iconic-property-fill"></path>
    <path d="M108.342 49.29c-.001-4.363-3.537-7.899-7.9-7.898-4.362-.003-7.898 3.539-7.897 7.902l.005 33.083c0 4.368 3.534 7.898 7.9 7.899 4.362-.001 7.897-3.531 7.898-7.902l-.006-33.084z" class="iconic-platform-android-arm iconic-platform-android-arm-right iconic-property-fill"></path>
    <path d="M18.866 42.894l.012 51.269c-.004 4.664 3.768 8.428 8.429 8.429l5.74.002.007 17.505c-.001 4.357 3.542 7.901 7.894 7.901 4.365 0 7.902-3.546 7.903-7.906l-.004-17.501 10.666-.002.004 17.504c-.001 4.356 3.544 7.904 7.897 7.897 4.365.003 7.904-3.543 7.903-7.904l-.005-17.499 5.76-.004c4.65.002 8.432-3.768 8.433-8.431l-.009-51.27-70.63.012z"
    class="iconic-platform-android-body iconic-property-fill"></path>
    <path d="M71.608 11.694l5.514-10.07c.294-.526.101-1.196-.432-1.494-.538-.285-1.202-.091-1.487.439l-5.569 10.175c-4.688-2.085-9.931-3.256-15.48-3.249-5.535-.005-10.777 1.161-15.444 3.234l-5.575-10.148c-.29-.536-.957-.729-1.484-.438-.537.289-.733.96-.435 1.485l5.517 10.062c-10.839 5.59-18.162 16.235-18.156 28.455l71.163-.007c.002-12.219-7.308-22.841-18.131-28.445zm-33.64 15.56c-1.639-.004-2.974-1.336-2.974-2.981.001-1.639 1.333-2.987 2.977-2.987 1.65-.001 2.985 1.348 2.987 2.986.001 1.644-1.337 2.981-2.989 2.982zm32.403-.006c-1.645.002-2.984-1.332-2.984-2.983.005-1.635 1.337-2.984 2.985-2.99 1.636.005 2.978 1.354 2.977 2.991.004 1.647-1.334 2.982-2.978 2.981z"
    class="iconic-platform-android-head iconic-property-fill"></path>
  </g>
  <!-- Apple -->
  <!-- Linux -->
  <!-- Microsoft -->
  <!-- Android -->
  <!-- Apple -->
  <!-- Linux -->
  <!-- Microsoft -->
  <!-- Android -->
  <!-- Apple -->
  <!-- Linux -->
  <!-- Microsoft -->
</svg>