<svg version="1.1" xmlns="http://www.w3.org/2000/svg" data-icon="platform-apple" width="32" height="32" class="iconic iconic-platform iconic-size-md iconic-platform-apple" viewBox="0 0 32 32">
  <g>
    <title>Platform Apple</title>
  </g>
  <!-- Android -->
  <!-- Apple -->
  <!-- Linux -->
  <!-- Microsoft -->
  <!-- Android -->
  <!-- Apple -->
  <g data-width="27" data-height="32" class="iconic-container iconic-platform-apple" transform="scale(1 1 ) translate(2 ) ">
    <path d="M25.198 10.471c-2.277 1.718-3.412 3.783-3.405 6.194.009 2.883 1.424 5.09 4.25 6.625-.753 2.324-1.842 4.352-3.275 6.077-1.431 1.731-2.74 2.595-3.925 2.599-.561 0-1.322-.192-2.288-.578l-.465-.183c-.949-.401-1.789-.586-2.514-.586-.689.004-1.441.158-2.258.467l-.582.224-.734.316c-.576.245-1.16.371-1.75.375-1.386.004-2.919-1.198-4.601-3.618-2.424-3.456-3.64-7.234-3.65-11.32-.009-2.906.738-5.247 2.239-7.028 1.501-1.778 3.493-2.672 5.974-2.68.93-.002 1.795.177 2.606.533l.554.237.582.252c.518.23.938.345 1.256.345.409 0 .864-.102 1.36-.307l.763-.318.567-.222c.906-.352 1.908-.529 3.004-.533 2.606-.011 4.701 1.032 6.292 3.13z"
    class="iconic-platform-apple-body iconic-property-fill"></path>
    <path d="M19.006 0c.03.369.047.655.049.855.004 1.827-.623 3.433-1.874 4.817s-2.71 2.075-4.375 2.077c-.049-.411-.077-.708-.077-.887-.004-1.554.576-3.015 1.74-4.38 1.16-1.367 2.51-2.166 4.045-2.403.111-.019.275-.049.492-.079z" class="iconic-platform-apple-leaf iconic-property-fill"></path>
  </g>
  <!-- Linux -->
  <!-- Microsoft -->
  <!-- Android -->
  <!-- Apple -->
  <!-- Linux -->
  <!-- Microsoft -->
</svg>