<svg version="1.1" xmlns="http://www.w3.org/2000/svg" data-icon="platform-apple" width="16" height="16" class="iconic iconic-platform iconic-size-sm iconic-platform-apple" viewBox="0 0 16 16">
  <g>
    <title>Platform Apple</title>
  </g>
  <!-- Android -->
  <!-- Apple -->
  <!-- Linux -->
  <!-- Microsoft -->
  <!-- Android -->
  <!-- Apple -->
  <!-- Linux -->
  <!-- Microsoft -->
  <!-- Android -->
  <!-- Apple -->
  <g data-width="14" data-height="16" class="iconic-container iconic-platform-apple" transform="scale(1 1 ) translate(1 ) ">
    <path d="M12.599 5.236c-1.139.859-1.706 1.891-1.703 3.097.004 1.441.712 2.545 2.125 3.312-.376 1.162-.921 2.176-1.637 3.038-.715.866-1.37 1.297-1.963 1.3-.28 0-.661-.096-1.144-.289l-.232-.092c-.474-.2-.894-.293-1.257-.293-.344.002-.721.079-1.129.234l-.291.112-.367.158c-.288.123-.58.186-.875.188-.693.002-1.46-.599-2.301-1.809-1.212-1.728-1.82-3.617-1.825-5.66-.004-1.453.369-2.624 1.119-3.514.751-.889 1.746-1.336 2.987-1.34.465-.001.898.088 1.303.267l.277.118.291.126c.259.115.469.173.628.173.205 0 .432-.051.68-.153l.382-.159.284-.111c.453-.176.954-.264 1.502-.267 1.303-.005 2.351.516 3.146 1.565z"
    class="iconic-platform-apple-body iconic-property-fill"></path>
    <path d="M9.503 0c.015.184.024.327.025.427.002.914-.311 1.716-.937 2.408s-1.355 1.037-2.188 1.038c-.024-.206-.038-.354-.038-.444-.002-.777.288-1.507.87-2.19.58-.683 1.255-1.083 2.022-1.202.055-.009.137-.024.246-.039z" class="iconic-platform-apple-leaf iconic-property-fill"></path>
  </g>
  <!-- Linux -->
  <!-- Microsoft -->
</svg>