<svg version="1.1" xmlns="http://www.w3.org/2000/svg" data-icon="platform-linux" width="32" height="32" class="iconic iconic-platform iconic-size-md iconic-platform-linux" viewBox="0 0 32 32">
  <g>
    <title>Platform Linux</title>
  </g>
  <!-- Android -->
  <!-- Apple -->
  <!-- Linux -->
  <!-- Microsoft -->
  <!-- Android -->
  <!-- Apple -->
  <!-- Linux -->
  <g data-width="27" data-height="32" class="iconic-container iconic-platform-linux" transform="scale(1 1 ) translate(2 ) ">
    <path d="M25.937 25.813c-.367-.508-.674-.808-.833-1.438-.156-.621-.239-1.325-.749-1.772-.114-.1-.242-.185-.379-.251-.218-.105-.066-.241-.01-.449.102-.385.169-.778.198-1.175.061-.831-.04-1.667-.255-2.47-.389-1.448-1.129-2.784-1.991-4.001-.744-1.051-1.64-1.988-2.342-3.069-.691-1.063-.964-2.144-.946-3.403.011-.81.016-1.622-.045-2.43-.095-1.26-.333-2.593-1.064-3.653-.833-1.208-2.209-1.698-3.635-1.7-1.864-.003-3.713.671-4.494 2.477-.599 1.383-.542 2.962-.449 4.434.128 2.011-.072 4.055-1.424 5.678-1.793 2.154-3.581 4.776-3.938 7.621-.046.367-.064.738-.046 1.108.009.182.027.363.054.543-.135.12-.253.258-.365.399-.226.285-.419.6-.669.865-.246.245-.59.352-.909.463-.539.187-1.034.434-1.311.962-.386.755-.012 1.603.001 2.393.011.675-.414 1.269-.321 1.968.089.669.627 1.017 1.24 1.168.728.179 1.488.198 2.226.318.394.064.786.151 1.161.29.207.077.35.15.468.208 1.428.746 3.726 1.313 4.897-.237.058-.076.106-.159.15-.244.101-.192.206-.133.408-.154.342-.036.678-.108 1.016-.172.83-.158 1.675-.285 2.519-.188.863.099 1.714.275 2.587.226.167.695.707 1.318 1.345 1.623 1.573.751 3.34-.314 4.345-1.51.073-.094.073-.094.214-.236.222-.223.472-.417.736-.589.554-.362 1.162-.626 1.751-.925.494-.251 1.097-.557 1.293-1.116.194-.552-.116-1.124-.432-1.56zm-12.747-20.353c.244-.554.741-1.038 1.38-1.035 1.021 0 1.577 1.109 1.594 2.001 0 .417-.074.812-.266 1.186-.088.172-.144.373-.342.292-.214-.054-.487-.194-.684-.262.393-.472.47-1.755-.271-1.975-.731-.217-.95.931-.866 1.42-.144-.072-.293-.136-.446-.188-.276-.094-.295-.078-.302-.387-.008-.363.055-.72.202-1.053zm1.072 2.313c.513.23 1.275.312 1.623.803.484.684-.425 1.395-.97 1.636-.299.132-.585.224-.866.403-.339.216-.675.438-1.069.538-.781.199-1.367-.086-1.93-.596-.444-.402-1.154-.645-1.342-1.268-.205-.677.678-.987 1.085-1.348.505-.428.946-.844 1.658-.846.706-.003 1.2.404 1.811.679zm-3.617-3.037c.604.001.973.652 1.111 1.16.066.241.092.493.09.743-.002.299-.405.422-.657.558.052-.37-.315-1.801-.855-1.143-.338.412-.262 1.332.185 1.646-.098.076-.198.149-.298.223-.179.132-.3-.158-.385-.314-.203-.378-.292-.804-.289-1.23.005-.629.306-1.65 1.097-1.642zm-2.01 25.78c-1.136.542-2.433.033-3.478-.466-1.096-.523-2.292-.412-3.439-.703-1.194-.303-.698-1.244-.534-2.111.2-1.057-.674-2.371.694-2.902.431-.167.877-.269 1.219-.603.398-.42.667-1.077 1.212-1.332.124-.058.26-.085.397-.084 1.237.005 1.92 1.664 2.362 2.59.561 1.174 1.55 2.035 2.171 3.168.468.856.365 1.981-.604 2.444zm8.3-3.091c-.787.539-1.673.946-2.606 1.153-.943.21-1.934.206-2.864-.066-.495-.145-.968-.363-1.403-.64-.419-.267-.739-.928-1.053-1.322 1.034.001 1.299-.834.866-1.66-.449-.855-1.254-1.52-2.033-2.064-.829-.579-1.038-.876-1.206-1.735-.754-3.849 3.115-6.995 3.321-10.882.987.716 1.836 1.65 3.171 1.261.606-.177 1.068-.568 1.645-.849.506-.272 1.02-.405 1.395-.937.568 2.24 1.514 4.361 2.55 6.417.573 1.137.87 1.899 1.097 3.154 3.619.269 3.768 2.861 3.101 2.918.214-.677-.423-1.117-.942-1.397-.63-.34-1.636-.83-2.349-.444-.303.164-.448.486-.498.814-.054.296-.686.533-.906.833-.564.771-.625 1.84-.686 2.758-.027.405-.025.815-.103 1.215-.076.391-.168 1.248-.497 1.473zm7.145.766c-.472.227-.941.466-1.363.778-.522.385-.885.925-1.389 1.33-.785.631-1.976 1.096-2.925.533-1.074-.637-.966-1.831-.686-2.882.176-.662.421-1.312.526-1.991.091-.592.071-1.198.146-1.793.087-.695.251-1.553.947-1.892.032.519.215 1.09.627 1.433.454.379 1.053.277 1.553.051.427-.193.85-.743 1.291-.753.488-.012.982.109 1.231.566.268.492.276 1.079.476 1.596.187.482.616.809.864 1.258.548.991-.546 1.406-1.296 1.766z"
    class="iconic-platform-linux-body iconic-property-fill"></path>
    <path d="M15.344 8.864c-.241-.162-.927.432-1.312.655-.486.281-1.016.545-1.584.592-.508.043-1.02-.093-1.414-.408-.313-.251-.845-.795-.955-.691-.153.144.373.531.603.714.505.4 1.113.662 1.768.612.672-.051 1.285-.379 1.853-.717.277-.165.55-.353.85-.475.163-.066.384-.152.19-.282z"
    class="iconic-platform-linux-mouth iconic-property-fill"></path>
  </g>
  <!-- Microsoft -->
  <!-- Android -->
  <!-- Apple -->
  <!-- Linux -->
  <!-- Microsoft -->
</svg>