<svg version="1.1" xmlns="http://www.w3.org/2000/svg" data-icon="platform-apple" width="128" height="128" class="iconic iconic-platform iconic-size-lg iconic-platform-apple" viewBox="0 0 128 128">
  <g>
    <title>Platform Apple</title>
  </g>
  <!-- Android -->
  <!-- Apple -->
  <g data-width="105" data-height="128" class="iconic-container iconic-platform-apple" transform="translate(11 ) scale(1 1 ) ">
    <path d="M100.793 41.885c-9.109 6.874-13.646 15.13-13.62 24.776.034 11.531 5.697 20.358 16.998 26.499-3.011 9.296-7.369 17.407-13.1 24.307-5.723 6.925-10.96 10.38-15.701 10.397-2.243 0-5.288-.768-9.151-2.311l-1.859-.734c-3.795-1.603-7.156-2.345-10.055-2.345-2.755.017-5.766.631-9.032 1.868l-2.328.895-2.934 1.262c-2.303.981-4.64 1.484-7.002 1.501-5.544.017-11.676-4.793-18.405-14.473-9.697-13.825-14.559-28.938-14.601-45.279-.034-11.625 2.951-20.989 8.955-28.111 6.004-7.113 13.97-10.687 23.898-10.721 3.719-.009 7.181.708 10.422 2.132l2.217.947 2.328 1.006c2.072.921 3.753 1.382 5.023 1.382 1.637 0 3.454-.409 5.441-1.228l3.053-1.271 2.269-.887c3.625-1.407 7.633-2.115 12.017-2.132 10.422-.043 18.806 4.128 25.168 12.52z"
    class="iconic-platform-apple-body iconic-property-fill"></path>
    <path d="M76.026 0c.119 1.476.188 2.618.196 3.42.017 7.309-2.49 13.731-7.497 19.267s-10.84 8.299-17.501 8.307c-.196-1.646-.307-2.832-.307-3.548-.017-6.218 2.303-12.06 6.96-17.518 4.64-5.467 10.038-8.665 16.179-9.612.443-.077 1.1-.196 1.97-.316z" class="iconic-platform-apple-leaf iconic-property-fill"></path>
  </g>
  <!-- Linux -->
  <!-- Microsoft -->
  <!-- Android -->
  <!-- Apple -->
  <!-- Linux -->
  <!-- Microsoft -->
  <!-- Android -->
  <!-- Apple -->
  <!-- Linux -->
  <!-- Microsoft -->
</svg>