<svg version="1.1" xmlns="http://www.w3.org/2000/svg" data-icon="platform-android" width="16" height="16" class="iconic iconic-platform iconic-size-sm iconic-platform-android" viewBox="0 0 16 16">
  <g>
    <title>Platform Android</title>
  </g>
  <!-- Android -->
  <!-- Apple -->
  <!-- Linux -->
  <!-- Microsoft -->
  <!-- Android -->
  <!-- Apple -->
  <!-- Linux -->
  <!-- Microsoft -->
  <!-- Android -->
  <g data-width="14" data-height="16" class="iconic-container iconic-platform-android" transform="scale(1 1 ) translate(1 ) ">
    <path d="M.987 5.175c-.545 0-.987.443-.987.987l.001 4.135c0 .547.442.988.988.988s.988-.441.987-.988v-4.136c0-.545-.443-.987-.988-.987" class="iconic-platform-android-arm iconic-platform-android-arm-left iconic-property-fill"></path>
    <path d="M13.543 6.161c0-.545-.442-.987-.988-.987-.545 0-.987.442-.987.988l.001 4.135c0 .546.442.987.988.987.545 0 .987-.441.987-.988l-.001-4.136z" class="iconic-platform-android-arm iconic-platform-android-arm-right iconic-property-fill"></path>
    <path d="M2.358 5.362l.002 6.409c0 .583.471 1.053 1.054 1.054h.718l.001 2.188c0 .545.443.988.987.988.546 0 .988-.443.988-.988l-.001-2.188h1.333l.001 2.188c0 .544.443.988.987.987.546 0 .988-.443.988-.988l-.001-2.187.72-.001c.581 0 1.054-.471 1.054-1.054l-.001-6.409-8.829.002z"
    class="iconic-platform-android-body iconic-property-fill"></path>
    <path d="M8.951 1.462l.689-1.259c.037-.066.013-.149-.054-.187-.067-.036-.15-.012-.186.055l-.696 1.272c-.586-.261-1.241-.407-1.935-.406-.692-.001-1.347.145-1.931.404l-.697-1.268c-.036-.067-.12-.091-.186-.055-.067.036-.092.12-.054.186l.69 1.258c-1.355.699-2.27 2.029-2.27 3.557l8.895-.001c0-1.527-.913-2.855-2.266-3.556zm-4.205 1.945c-.205 0-.372-.167-.372-.373 0-.205.167-.373.372-.373.206 0 .373.169.373.373 0 .206-.167.373-.374.373zm4.05-.001c-.206 0-.373-.167-.373-.373.001-.204.167-.373.373-.374.204.001.372.169.372.374.001.206-.167.373-.372.373z"
    class="iconic-platform-android-head iconic-property-fill"></path>
  </g>
  <!-- Apple -->
  <!-- Linux -->
  <!-- Microsoft -->
</svg>