<svg version="1.1" xmlns="http://www.w3.org/2000/svg" data-icon="platform-linux" width="16" height="16" class="iconic iconic-platform iconic-size-sm iconic-platform-linux" viewBox="0 0 16 16">
  <g>
    <title>Platform Linux</title>
  </g>
  <!-- Android -->
  <!-- Apple -->
  <!-- Linux -->
  <!-- Microsoft -->
  <!-- Android -->
  <!-- Apple -->
  <!-- Linux -->
  <!-- Microsoft -->
  <!-- Android -->
  <!-- Apple -->
  <!-- Linux -->
  <g data-width="14" data-height="16" class="iconic-container iconic-platform-linux" transform="scale(1 1 ) translate(1 ) ">
    <path d="M12.969 12.906c-.184-.254-.337-.404-.416-.719-.078-.31-.119-.663-.374-.886-.057-.05-.121-.093-.19-.126-.109-.052-.033-.121-.005-.225.051-.192.084-.389.099-.588.031-.415-.02-.833-.128-1.235-.194-.724-.565-1.392-.995-2.001-.372-.525-.82-.994-1.171-1.535-.345-.532-.482-1.072-.473-1.702.006-.405.008-.811-.022-1.215-.047-.63-.167-1.296-.532-1.827-.416-.604-1.105-.849-1.818-.85-.932-.002-1.856.335-2.247 1.238-.299.692-.271 1.481-.224 2.217.064 1.005-.036 2.027-.712 2.839-.897 1.077-1.79 2.388-1.969 3.81-.023.183-.032.369-.023.554.004.091.013.182.027.272-.067.06-.127.129-.183.2-.113.142-.209.3-.335.432-.123.123-.295.176-.455.231-.27.093-.517.217-.655.481-.193.378-.006.801 0 1.197.006.338-.207.635-.161.984.044.335.314.508.62.584.364.09.744.099 1.113.159.197.032.393.076.581.145.104.038.175.075.234.104.714.373 1.863.657 2.448-.118.029-.038.053-.08.075-.122.051-.096.103-.066.204-.077.171-.018.339-.054.508-.086.415-.079.837-.142 1.26-.094.431.049.857.137 1.294.113.084.347.353.659.673.811.787.376 1.67-.157 2.172-.755.036-.047.036-.047.107-.118.111-.112.236-.208.368-.294.277-.181.581-.313.875-.463.247-.126.548-.279.646-.558.097-.276-.059-.562-.217-.78zm-6.373-10.176c.122-.277.371-.519.69-.517.51 0 .789.554.797 1 0 .208-.037.406-.133.593-.044.086-.072.186-.171.146-.107-.027-.243-.097-.342-.131.196-.236.235-.878-.135-.987-.365-.108-.475.466-.433.71-.072-.036-.147-.068-.223-.094-.138-.047-.148-.039-.151-.193-.004-.181.028-.36.101-.526zm.536 1.156c.256.115.637.156.811.402.242.342-.213.697-.485.818-.15.066-.293.112-.433.201-.169.108-.337.219-.534.269-.39.099-.683-.043-.965-.298-.222-.201-.577-.323-.671-.634-.102-.338.339-.493.543-.674.253-.214.473-.422.829-.423.353-.001.6.202.906.339zm-1.809-1.518c.302.001.486.326.556.58.033.12.046.247.045.371-.001.15-.203.211-.328.279.026-.185-.158-.9-.428-.572-.169.206-.131.666.093.823-.049.038-.099.075-.149.111-.09.066-.15-.079-.192-.157-.102-.189-.146-.402-.145-.615.002-.314.153-.825.548-.821zm-1.005 12.89c-.568.271-1.217.016-1.739-.233-.548-.262-1.146-.206-1.719-.351-.597-.152-.349-.622-.267-1.056.1-.529-.337-1.185.347-1.451.215-.084.439-.134.61-.301.199-.21.333-.538.606-.666.062-.029.13-.043.198-.042.619.002.96.832 1.181 1.295.281.587.775 1.017 1.085 1.584.234.428.183.991-.302 1.222zm4.398-2.282c-.038.195-.084.624-.248.737-.394.27-.836.473-1.303.577-.472.105-.967.103-1.432-.033-.248-.072-.484-.181-.701-.32-.21-.134-.369-.464-.526-.661.517 0 .65-.417.433-.83-.225-.428-.627-.76-1.016-1.032-.414-.29-.519-.438-.603-.868-.377-1.925 1.557-3.497 1.66-5.441.493.358.918.825 1.586.63.303-.088.534-.284.822-.424.253-.136.51-.203.697-.469.284 1.12.757 2.18 1.275 3.209.286.568.435.95.548 1.577 1.809.135 1.884 1.431 1.55 1.459.107-.338-.212-.558-.471-.698-.315-.17-.818-.415-1.174-.222-.151.082-.224.243-.249.407-.027.148-.343.266-.453.417-.282.386-.313.92-.343 1.379-.013.203-.013.407-.051.607zm3.324 1.12c-.236.113-.47.233-.682.389-.261.193-.442.463-.694.665-.393.316-.988.548-1.463.267-.537-.319-.483-.915-.343-1.441.088-.331.211-.656.263-.995.046-.296.035-.599.073-.896.044-.347.125-.776.473-.946.016.259.108.545.313.717.227.19.527.138.776.025.214-.097.425-.371.645-.377.244-.006.491.054.616.283.134.246.138.539.238.798.093.241.308.405.432.629.274.496-.273.703-.648.883z"
    class="iconic-platform-linux-body iconic-property-fill"></path>
    <path d="M7.672 4.432c-.12-.081-.463.216-.656.327-.243.14-.508.272-.792.296-.254.021-.51-.046-.707-.204-.157-.125-.423-.397-.477-.346-.076.072.186.266.302.357.253.2.557.331.884.306.336-.025.642-.19.926-.358.139-.082.275-.176.425-.237.081-.033.192-.076.095-.141z"
    class="iconic-platform-linux-mouth iconic-property-fill"></path>
  </g>
  <!-- Microsoft -->
</svg>