<svg version="1.1" xmlns="http://www.w3.org/2000/svg" data-icon="platform-linux" width="128" height="128" class="iconic iconic-platform iconic-size-lg iconic-platform-linux" viewBox="0 0 128 128">
  <g>
    <title>Platform Linux</title>
  </g>
  <!-- Android -->
  <!-- Apple -->
  <!-- Linux -->
  <g data-width="106" data-height="128" class="iconic-container iconic-platform-linux" transform="translate(11 ) scale(1 1 ) ">
    <path d="M103.749 103.25c-1.469-2.031-2.697-3.232-3.33-5.752-.624-2.484-.955-5.301-2.996-7.089-.456-.402-.97-.742-1.517-1.004-.874-.42-.262-.966-.041-1.796.41-1.538.674-3.114.791-4.7.245-3.323-.158-6.668-1.021-9.88-1.555-5.791-4.517-11.135-7.963-16.004-2.975-4.204-6.56-7.953-9.369-12.277-2.764-4.254-3.855-8.577-3.785-13.614.045-3.241.064-6.486-.179-9.721-.379-5.041-1.333-10.371-4.256-14.613-3.33-4.831-8.836-6.794-14.54-6.801-7.458-.014-14.85 2.683-17.976 9.908-2.394 5.534-2.17 11.846-1.796 17.737.51 8.042-.29 16.218-5.696 22.712-7.173 8.617-14.323 19.102-15.754 30.484-.185 1.468-.257 2.952-.184 4.431.036.727.107 1.453.216 2.173-.538.482-1.013 1.032-1.461 1.597-.904 1.14-1.675 2.398-2.677 3.458-.983.98-2.359 1.408-3.638 1.851-2.156.747-4.138 1.737-5.243 3.848-1.544 3.02-.049 6.411.003 9.573.045 2.7-1.657 5.077-1.285 7.874.356 2.677 2.508 4.066 4.961 4.671 2.911.718 5.952.791 8.905 1.272 1.576.257 3.144.606 4.644 1.162.829.307 1.401.601 1.872.834 5.711 2.986 14.903 5.253 19.587-.948.231-.305.423-.637.602-.976.404-.767.824-.531 1.633-.616 1.366-.144 2.714-.432 4.062-.688 3.319-.631 6.699-1.14 10.077-.753 3.451.395 6.855 1.098 10.348.904.669 2.778 2.827 5.271 5.381 6.491 6.293 3.006 13.36-1.255 17.38-6.039.292-.377.292-.377.857-.945.888-.894 1.89-1.667 2.943-2.355 2.217-1.448 4.649-2.504 7.003-3.701 1.976-1.004 4.387-2.228 5.172-4.464.775-2.208-.466-4.495-1.73-6.242zm-50.988-81.411c.977-2.214 2.966-4.153 5.519-4.139 4.083 0 6.31 4.435 6.377 8.004 0 1.668-.297 3.247-1.062 4.743-.351.686-.577 1.493-1.369 1.167-.857-.217-1.947-.775-2.735-1.049 1.57-1.887 1.878-7.021-1.082-7.899-2.924-.867-3.802 3.725-3.463 5.681-.578-.288-1.173-.542-1.783-.751-1.103-.377-1.181-.311-1.209-1.546-.03-1.451.221-2.881.808-4.211zm4.287 9.252c2.051.922 5.099 1.248 6.49 3.214 1.936 2.736-1.702 5.58-3.88 6.544-1.197.53-2.34.894-3.464 1.61-1.354.863-2.699 1.75-4.275 2.152-3.123.795-5.468-.346-7.719-2.385-1.777-1.61-4.615-2.582-5.368-5.071-.819-2.708 2.712-3.949 4.341-5.393 2.022-1.714 3.784-3.375 6.63-3.385 2.826-.011 4.801 1.616 7.245 2.714zm-14.47-12.148c2.417.006 3.89 2.609 4.446 4.641.263.962.37 1.973.362 2.97-.01 1.196-1.621 1.687-2.626 2.232.21-1.481-1.261-7.203-3.421-4.572-1.352 1.647-1.046 5.326.742 6.584-.393.303-.793.597-1.193.891-.718.527-1.202-.631-1.539-1.257-.813-1.51-1.169-3.214-1.156-4.921.018-2.515 1.223-6.602 4.386-6.569zm-8.04 103.121c-4.544 2.168-9.733.13-13.91-1.865-4.385-2.094-9.167-1.646-13.755-2.811-4.774-1.212-2.793-4.977-2.137-8.446.8-4.229-2.697-9.485 2.775-11.61 1.724-.67 3.509-1.075 4.876-2.412 1.591-1.678 2.666-4.306 4.849-5.329.495-.232 1.041-.342 1.586-.336 4.948.019 7.68 6.655 9.45 10.36 2.245 4.697 6.201 8.139 8.682 12.674 1.873 3.424 1.46 7.925-2.417 9.774zm33.199-12.365c-3.149 2.156-6.691 3.784-10.423 4.614-3.774.84-7.735.824-11.457-.264-1.981-.579-3.872-1.451-5.611-2.561-1.677-1.07-2.955-3.711-4.211-5.289 4.137.003 5.197-3.337 3.463-6.641-1.796-3.422-5.018-6.08-8.13-8.255-3.316-2.317-4.152-3.503-4.826-6.941-3.016-15.397 12.459-27.979 13.284-43.529 3.946 2.865 7.343 6.601 12.686 5.042 2.424-.707 4.272-2.273 6.579-3.394 2.026-1.089 4.078-1.62 5.578-3.75 2.273 8.962 6.056 17.443 10.201 25.668 2.291 4.546 3.478 7.596 4.387 12.615 14.475 1.078 15.071 11.446 12.402 11.672.856-2.707-1.693-4.467-3.767-5.587-2.518-1.36-6.543-3.32-9.396-1.774-1.211.657-1.794 1.946-1.992 3.257-.218 1.182-2.746 2.131-3.624 3.333-2.255 3.084-2.5 7.359-2.745 11.031-.108 1.622-.101 3.259-.41 4.859-.302 1.563-.67 4.994-1.985 5.894zm28.579 3.063c-1.888.906-3.763 1.864-5.454 3.11-2.09 1.541-3.539 3.701-5.555 5.322-3.142 2.526-7.904 4.385-11.701 2.132-4.297-2.55-3.865-7.324-2.746-11.53.704-2.647 1.685-5.248 2.104-7.963.365-2.366.284-4.793.584-7.172.35-2.78 1.002-6.211 3.786-7.568.128 2.075.862 4.36 2.506 5.733 1.816 1.517 4.213 1.106 6.212.203 1.709-.772 3.402-2.97 5.164-3.013 1.953-.047 3.929.436 4.926 2.265 1.073 1.97 1.102 4.316 1.905 6.385.747 1.927 2.463 3.238 3.455 5.033 2.192 3.965-2.183 5.622-5.186 7.064z"
    class="iconic-platform-linux-body iconic-property-fill"></path>
    <path d="M61.375 35.457c-.964-.647-3.707 1.73-5.247 2.618-1.944 1.122-4.063 2.179-6.335 2.369-2.034.171-4.079-.37-5.654-1.63-1.253-1.002-3.381-3.178-3.819-2.765-.611.576 1.492 2.125 2.413 2.854 2.021 1.601 4.454 2.647 7.073 2.449 2.687-.202 5.138-1.517 7.412-2.866 1.108-.658 2.2-1.412 3.398-1.899.651-.265 1.537-.607.758-1.13z"
    class="iconic-platform-linux-mouth iconic-property-fill"></path>
  </g>
  <!-- Microsoft -->
  <!-- Android -->
  <!-- Apple -->
  <!-- Linux -->
  <!-- Microsoft -->
  <!-- Android -->
  <!-- Apple -->
  <!-- Linux -->
  <!-- Microsoft -->
</svg>