<svg version="1.1" xmlns="http://www.w3.org/2000/svg" width="128" height="128" data-icon="pointer" class="iconic iconic-pointer iconic-size-lg" viewBox="0 0 128 128">
  <g class="iconic-metadata">
    <title>Pointer</title>
  </g>
  <g class="iconic-container" data-width="102" data-height="128" transform="translate(13)">
    <path d="M102 67.765c0-4.569-3.096-8.557-7.523-9.688l-45.874-11.729c-1.49-.199-2.603-1.47-2.603-2.974v-36.373c0-3.866-3.134-7-7-7s-7 3.134-7 7v69c0 3.625-4.835 5.448-8 2.846l-10.343-8.503c-3.124-3.124-8.19-3.124-11.314 0-3.124 3.124-3.124 8.19 0 11.314l41.657 37.723-.002-.012c6.152 5.371 14.194 8.632 23.002 8.632 19.33 0 35-15.67 35-35 0-.34 0-25.235 0-25.235z"
    class="iconic-property-fill" />
  </g>
</svg>