<svg version="1.1" xmlns="http://www.w3.org/2000/svg" width="32" height="32" data-icon="pointer" class="iconic iconic-pointer iconic-size-md" viewBox="0 0 32 32">
  <g class="iconic-metadata">
    <title>Pointer</title>
  </g>
  <g class="iconic-container" data-width="26" data-height="31" transform="translate(3)">
    <path d="M3.414 15.586c-.781-.781-2.047-.781-2.828 0-.781.781-.781 2.047 0 2.828l10.273 10.164-.002-.013c1.609 1.506 3.765 2.435 6.143 2.435 4.971 0 9-4.029 9-9 0-.263 0-5.541 0-5.541 0-1.43-1.009-2.661-2.412-2.942l-11.784-2.357c-.467-.093-.804-.504-.804-.98v-8.68c0-.828-.672-1.5-1.5-1.5s-1.5.672-1.5 1.5v15.5c0 .906-1.209 1.362-2 .712l-2.586-2.126z"
    class="iconic-property-fill" />
  </g>
</svg>