<svg version="1.1" xmlns="http://www.w3.org/2000/svg" width="16" height="16" data-icon="puzzle-piece" class="iconic iconic-puzzle-piece iconic-size-sm" viewBox="0 0 16 16">
  <g class="iconic-metadata">
    <title>Puzzle Piece</title>
  </g>
  <g class="iconic-container" data-width="16" data-height="16">
    <path d="M14 8.99c-.529 0-.973.248-1.364.544-.013.01-.233.161-.233.161-.222.162-.628.295-.903.295h-.5c-.552 0-1-.448-1-1v-2.99h-3c-.552 0-1-.448-1-1v-.5c0-.275.133-.682.295-.903 0 0 .15-.219.16-.232.296-.391.545-.836.545-1.365 0-1.105-.895-2-2-2s-2 .895-2 2c0 .529.248.973.544 1.364.01.013.161.233.161.233.163.222.295.628.295.903v.5c0 .552-.448 1-1 1h-3v10h3c.552 0 1-.448 1-1v-.5c0-.275-.133-.682-.295-.903 0 0-.151-.22-.161-.233-.296-.391-.544-.835-.544-1.364 0-1.105.895-2 2-2s2 .895 2 2c0 .529-.249.974-.545 1.365-.009.013-.16.232-.16.232-.162.222-.295.629-.295.904v.5c0 .552.448 1 1 1h3v-3.01c0-.552.448-1 1-1h.5c.275 0 .682.133.903.295 0 0 .22.15.232.16.39.297.835.545 1.365.545 1.105 0 2-.895 2-2s-.895-2-2-2z"
    class="iconic-property-fill" />
  </g>
</svg>