<svg version="1.1" xmlns="http://www.w3.org/2000/svg" width="128" height="128" data-icon="puzzle-piece" class="iconic iconic-puzzle-piece iconic-size-lg" viewBox="0 0 128 128">
  <g class="iconic-metadata">
    <title>Puzzle Piece</title>
  </g>
  <g class="iconic-container" data-width="128" data-height="128">
    <path d="M116 70c-2.733 0-5.062 1.199-7.262 2.463-.095.055-7.052 4.461-7.052 4.461-.927.592-2.586 1.076-3.686 1.076-3.314 0-6-2.686-6-6v-35c0-.55-.45-1-1-1h-35c-3.314 0-6-2.686-6-6 0-1.1.484-2.759 1.075-3.686 0 0 4.415-6.969 4.467-7.059 1.276-2.19 2.458-4.525 2.458-7.255 0-6.627-5.373-12-12-12s-12 5.373-12 12c0 2.733 1.199 5.062 2.463 7.262.055.095 4.461 7.052 4.461 7.052.592.927 1.076 2.586 1.076 3.686 0 3.314-2.686 6-6 6h-35c-.55 0-1 .45-1 1v90c0 .55.45 1 1 1h35c3.314 0 6-2.686 6-6 0-1.1-.484-2.759-1.076-3.686 0 0-4.407-6.956-4.461-7.052-1.264-2.2-2.463-4.529-2.463-7.262 0-6.627 5.373-12 12-12s12 5.373 12 12c0 2.73-1.182 5.065-2.458 7.255-.052.09-4.467 7.059-4.467 7.059-.591.928-1.075 2.586-1.075 3.686 0 3.314 2.686 6 6 6h35c.55 0 1-.45 1-1v-35c0-3.314 2.686-6 6-6 1.1 0 2.759.484 3.686 1.075 0 0 6.969 4.415 7.058 4.467 2.19 1.276 4.525 2.458 7.255 2.458 6.627 0 12-5.373 12-12s-5.373-12-12-12z"
    class="iconic-property-fill" />
  </g>
</svg>