<svg version="1.1" xmlns="http://www.w3.org/2000/svg" width="32" height="32" data-icon="puzzle-piece" class="iconic iconic-puzzle-piece iconic-size-md" viewBox="0 0 32 32">
  <g class="iconic-metadata">
    <title>Puzzle Piece</title>
  </g>
  <g class="iconic-container" data-width="32" data-height="32">
    <path class="iconic-property-fill" d="M18 19.979v4" />
    <path d="M29 17.979c-.684 0-1.26.311-1.813.624-.025.014-1.766 1.107-1.766 1.107-.232.148-.646.269-.921.269h-.5c-1.105 0-2-.895-2-2v-7.479c0-.275-.225-.5-.5-.5h-7.5c-1.105 0-2-.895-2-2v-.5c0-.275.121-.69.269-.922 0 0 1.096-1.744 1.109-1.769.315-.551.622-1.127.622-1.81 0-1.657-1.343-3-3-3s-3 1.343-3 3c0 .684.311 1.26.624 1.813.014.025 1.107 1.766 1.107 1.766.148.232.269.646.269.921v.5c0 1.105-.895 2-2 2h-7.5c-.275 0-.5.225-.5.5v21c0 .275.225.5.5.5h7.5c1.105 0 2-.895 2-2v-.5c0-.275-.121-.69-.269-.921 0 0-1.093-1.74-1.107-1.766-.313-.553-.624-1.128-.624-1.813 0-1.657 1.343-3 3-3s3 1.343 3 3c0 .683-.307 1.259-.622 1.81-.014.024-1.109 1.769-1.109 1.769-.148.232-.269.647-.269.922v.5c0 1.105.895 2 2 2h7.5c.275 0 .5-.225.5-.5v-7.521c0-1.105.895-2 2-2h.5c.275 0 .69.121.922.269 0 0 1.744 1.096 1.769 1.11.551.315 1.127.622 1.81.622 1.657 0 3-1.343 3-3s-1.343-3-3-3z"
    class="iconic-property-fill" />
  </g>
</svg>