<svg version="1.1" xmlns="http://www.w3.org/2000/svg" width="128" height="128" data-icon="radiation" class="iconic iconic-radiation iconic-size-lg" viewBox="0 0 128 128">
  <g class="iconic-metadata">
    <title>Radiation</title>
  </g>
  <g class="iconic-container" data-width="128" data-height="120" transform="translate(0 4)">
    <circle cx="64" cy="56" r="12" class="iconic-radiation-center iconic-property-accent iconic-property-fill" />
    <path d="M52.999 36.944c-6.575 3.804-10.999 10.913-10.999 19.056h-42c0-23.688 12.869-44.37 31.997-55.436l21.002 36.38z" class="iconic-radiation-trefoil iconic-radiation-trefoil-3 iconic-property-fill" />
    <path d="M52.992 75.052c3.238 1.875 6.998 2.948 11.008 2.948 4.008 0 7.765-1.072 11.001-2.944l21.002 36.38c-9.414 5.446-20.345 8.564-32.003 8.564-11.667 0-22.605-3.122-32.024-8.576l21.016-36.372z" class="iconic-radiation-trefoil iconic-radiation-trefoil-2 iconic-property-fill"
    />
    <path d="M86 56c0-8.14-4.42-15.247-10.992-19.052l21.016-36.372c19.117 11.069 31.976 31.745 31.976 55.424h-42z" class="iconic-radiation-trefoil iconic-radiation-trefoil-1 iconic-property-fill" />
  </g>
</svg>