<svg version="1.1" xmlns="http://www.w3.org/2000/svg" width="32" height="32" data-icon="rainy" class="iconic iconic-rainy iconic-size-md" viewBox="0 0 32 32">
  <g class="iconic-metadata">
    <title>Rainy</title>
  </g>
  <defs>
    <clipPath id="iconic-size-md-rainy-clip-0">
      <path d="M0 0v22h7v-.5c0-1.381 1.119-2.5 2.5-2.5.187 0 .368.024.544.063.207-1.172 1.225-2.063 2.456-2.063s2.249.891 2.456 2.063c.176-.039.357-.063.544-.063s.368.024.544.063c.207-1.172 1.225-2.063 2.456-2.063s2.249.891 2.456 2.063c.176-.039.357-.063.544-.063 1.381 0 2.5 1.119 2.5 2.5v.5h8v-22h-32z"
      />
    </clipPath>
  </defs>
  <g class="iconic-container" data-width="32" data-height="28" transform="translate(0 2)">
    <path stroke="#000" stroke-linecap="round" class="iconic-rainy-rain-droplet iconic-rainy-rain-droplet-5 iconic-property-accent iconic-property-stroke" fill="none" d="M9.5 21.5v5" />
    <path stroke="#000" stroke-linecap="round" class="iconic-rainy-rain-droplet iconic-rainy-rain-droplet-4 iconic-property-accent iconic-property-stroke" fill="none" d="M12.5 19.5v8" />
    <path stroke="#000" stroke-linecap="round" class="iconic-rainy-rain-droplet iconic-rainy-rain-droplet-3 iconic-property-accent iconic-property-stroke" fill="none" d="M15.5 21.5v5" />
    <path stroke="#000" stroke-linecap="round" class="iconic-rainy-rain-droplet iconic-rainy-rain-droplet-2 iconic-property-accent iconic-property-stroke" fill="none" d="M18.5 19.5v8" />
    <path stroke="#000" stroke-linecap="round" class="iconic-rainy-rain-droplet iconic-rainy-rain-droplet-1 iconic-property-accent iconic-property-stroke" fill="none" d="M21.5 21.5v5" />
    <path d="M27 12c-.401-1.976-2.065-3.524-4.046-3.909-.457-4.537-4.298-8.091-8.954-8.091-4.721 0-8.634 3.371-9 8-2.906.852-5 3.822-5 7 0 3.527 2.603 6.521 6 7 4.323 0 20.923 0 21 0 2.76 0 5-2.24 5-5s-2.24-5-5-5z" clip-path="url(#iconic-size-md-rainy-clip-0)"
    class="iconic-rainy-cloud iconic-property-fill" />
  </g>
</svg>