<svg version="1.1" xmlns="http://www.w3.org/2000/svg" width="16" height="16" data-icon="rainy" class="iconic iconic-rainy iconic-size-sm" viewBox="0 0 16 16">
  <g class="iconic-metadata">
    <title>Rainy</title>
  </g>
  <defs>
    <clipPath id="iconic-size-sm-rainy-clip-0">
      <path d="M0 0v12h4v-1.5c0-.829.671-1.5 1.5-1.5s1.5.671 1.5 1.5v-1c0-.829.671-1.5 1.5-1.5s1.5.671 1.5 1.5v1c0-.829.671-1.5 1.5-1.5s1.5.671 1.5 1.5v1.5h3v-12h-16z" />
    </clipPath>
  </defs>
  <g class="iconic-container" data-width="16" data-height="15">
    <path d="M13 6v-1c0-2.757-2.243-5-5-5-2.454 0-4.49 1.78-4.91 4.114-1.767.415-3.09 1.995-3.09 3.886 0 2.206 1.794 4 4 4h9c1.654 0 3-1.346 3-3s-1.346-3-3-3z" clip-path="url(#iconic-size-sm-rainy-clip-0)" class="iconic-rainy-cloud iconic-property-fill"
    />
    <path stroke="#000" stroke-linecap="round" class="iconic-rainy-rain-droplet iconic-rainy-rain-droplet-3 iconic-property-accent iconic-property-stroke" fill="none" d="M11.5 10.5v4" />
    <path stroke="#000" stroke-linecap="round" class="iconic-rainy-rain-droplet iconic-rainy-rain-droplet-2 iconic-property-accent iconic-property-stroke" fill="none" d="M8.5 9.5v4" />
    <path stroke="#000" stroke-linecap="round" class="iconic-rainy-rain-droplet iconic-rainy-rain-droplet-1 iconic-property-accent iconic-property-stroke" fill="none" d="M5.5 10.5v4" />
  </g>
</svg>