<svg version="1.1" xmlns="http://www.w3.org/2000/svg" width="32" height="32" data-icon="random" class="iconic iconic-random iconic-size-md" viewBox="0 0 32 32">
  <g class="iconic-metadata">
    <title>Random</title>
  </g>
  <defs>
    <clipPath id="iconic-size-md-random-clip-0">
      <path d="M0 0v25h32v-25h-32zm15 18l-6-6 5-5 6 6-5 5z" />
    </clipPath>
  </defs>
  <g class="iconic-container" data-width="32" data-height="25" transform="translate(0 3)">
    <path stroke="#000" stroke-width="3" stroke-linecap="square" d="M27.5 20.5h-4c-.552 0-1.317-.317-1.707-.707l-14.586-14.586c-.391-.391-1.155-.707-1.707-.707h-4" class="iconic-random-line iconic-random-line-bottom iconic-property-stroke" fill="none" />
    <path clip-path="url(#iconic-size-md-random-clip-0)" stroke="#000" stroke-width="3" stroke-linecap="square" d="M27.5 4.5h-4c-.552 0-1.317.317-1.707.707l-14.586 14.586c-.391.39-1.155.707-1.707.707h-4" class="iconic-random-line iconic-random-line-top iconic-property-accent iconic-property-stroke"
    fill="none" />
    <path d="M31.6 20.8l-5.2 3.9c-.221.166-.4.076-.4-.2v-8c0-.276.179-.366.4-.2l5.2 3.9c.221.166.221.434 0 .6z" class="iconic-random-arrowhead iconic-random-arrowhead-bottom iconic-property-fill" />
    <path d="M31.6 4.8l-5.2 3.9c-.221.166-.4.076-.4-.2v-8c0-.276.179-.366.4-.2l5.2 3.9c.221.166.221.434 0 .6z" class="iconic-random-arrowhead iconic-random-arrowhead-top iconic-property-accent iconic-property-fill" />
  </g>
</svg>