<svg version="1.1" xmlns="http://www.w3.org/2000/svg" width="128" height="128" data-icon="route" class="iconic iconic-route iconic-size-lg" viewBox="0 0 128 128">
  <g class="iconic-metadata">
    <title>Route</title>
  </g>
  <defs>
    <clipPath id="iconic-size-lg-route-clip-0">
      <path d="M90 62c3.916 0 7.457 1.621 10 4.221v-66.221h-100v42.221c2.543-2.6 6.084-4.221 10-4.221 7.72 0 14 6.28 14 14s-6.28 14-14 14c-3.916 0-7.457-1.621-10-4.221v66.221h100v-42.221c-2.543 2.6-6.084 4.221-10 4.221-7.72 0-14-6.28-14-14s6.28-14 14-14z"
      />
    </clipPath>
  </defs>
  <g class="iconic-container" data-width="100" data-height="128" transform="translate(14)">
    <path clip-path="url(#iconic-size-lg-route-clip-0)" stroke="#000" stroke-width="8" d="M10 54v50c0 11.046 8.954 20 20 20s20-8.954 20-20v-80c0-11.046 8.954-20 20-20s20 8.954 20 20v48" class="iconic-route-path iconic-property-stroke" fill="none" />
    <circle cx="90" cy="76" r="10" class="iconic-route-point iconic-route-end-point iconic-property-accent iconic-property-fill" />
    <circle cx="10" cy="52" r="10" class="iconic-route-point iconic-route-start-point iconic-property-accent iconic-property-fill" />
  </g>
</svg>