<svg version="1.1" xmlns="http://www.w3.org/2000/svg" width="32" height="32" data-icon="scissors" class="iconic iconic-scissors iconic-size-md" viewBox="0 0 32 32">
  <g class="iconic-metadata">
    <title>Scissors</title>
  </g>
  <defs>
    <clipPath id="iconic-size-md-scissors-clip-0">
      <path d="M0 0v24h32v-24h-32zm12 18l-1-1.097s12.156-8.039 14.989-9.92l1.011 1.017c-2.833 1.882-15 10-15 10z" />
    </clipPath>
  </defs>
  <g class="iconic-container" data-width="32" data-height="24" transform="translate(0 4)">
    <path clip-path="url(#iconic-size-md-scissors-clip-0)" d="M9.369 6.035c-.453 1.917-2.126 3.348-4.157 3.444l-.212.521c2.938 0 2.998-.862 6 1.118 5.587 3.683 13.242 8.728 15 9.882 4 2.625 6 .132 6 .132l-22.631-15.098z" class="iconic-scissors-blade iconic-scissors-blade-top iconic-property-fill"
    />
    <path clip-path="url(#iconic-size-md-scissors-clip-0)" d="M9.373 17.98l22.627-14.98s-2-2.583-6 0c-1.867 1.206-9.454 6.211-14.999 9.873 0 0 0 0-.001 0-3.014 1.991-3 1.126-6 1.126l.212.521c2.037.096 3.714 1.534 4.162 3.458z" class="iconic-scissors-blade iconic-scissors-blade-bottom iconic-property-fill"
    />
    <path d="M5 2c1.654 0 3 1.346 3 3s-1.346 3-3 3-3-1.346-3-3 1.346-3 3-3m0-2c-2.761 0-5 2.239-5 5s2.239 5 5 5 5-2.239 5-5-2.239-5-5-5z" class="iconic-scissors-handle iconic-scissors-handle-top iconic-property-accent iconic-property-fill" />
    <path d="M5 16c1.654 0 3 1.346 3 3s-1.346 3-3 3-3-1.346-3-3 1.346-3 3-3m0-2c-2.761 0-5 2.239-5 5s2.239 5 5 5 5-2.239 5-5-2.239-5-5-5z" class="iconic-scissors-handle iconic-scissors-handle-bottom iconic-property-accent iconic-property-fill" />
  </g>
</svg>