<svg version="1.1" xmlns="http://www.w3.org/2000/svg" width="128" height="128" data-icon="scissors" class="iconic iconic-scissors iconic-size-lg" viewBox="0 0 128 128">
  <g class="iconic-metadata">
    <title>Scissors</title>
  </g>
  <defs>
    <clipPath id="iconic-size-lg-scissors-clip-0">
      <path d="M0 0v100h128v-100h-128zm60 50c1.105 0 2 .895 2 2s-.895 2-2 2-2-.895-2-2 .895-2 2-2zm-12 20l-4-.388s48.623-32.155 59.954-39.682l4.046.069c-11.33 7.527-60 40-60 40z" />
    </clipPath>
  </defs>
  <g class="iconic-container" data-width="128" data-height="100" transform="translate(0 14)">
    <path clip-path="url(#iconic-size-lg-scissors-clip-0)" d="M37.015 29.832c-2.339 6.824-8.654 11.782-16.186 12.126l-.829 2.042c11.75 0 11.991-3.447 24 4.47.21.139.408.259.61.385 24.215 15.952 58.259 38.39 65.39 43.144 12 8 18-1.47 18-1.47l-90.985-60.698z"
    class="iconic-scissors-blade iconic-scissors-blade-top iconic-property-fill" />
    <path clip-path="url(#iconic-size-lg-scissors-clip-0)" d="M37.035 74.222l90.965-60.222s-6-10-18-2c-7.469 4.979-40.672 26.863-64.684 42.681-.421.245-.854.509-1.316.814-12.056 7.964-12 4.505-24 4.505l.829 2.042c7.552.345 13.882 5.328 16.206 12.18z"
    class="iconic-scissors-blade iconic-scissors-blade-bottom iconic-property-fill" />
    <path d="M20 10c7.72 0 14 6.28 14 14s-6.28 14-14 14-14-6.28-14-14 6.28-14 14-14m0-6c-11.046 0-20 8.954-20 20s8.954 20 20 20 20-8.954 20-20-8.954-20-20-20z" class="iconic-scissors-handle iconic-scissors-handle-top iconic-property-accent iconic-property-fill"
    />
    <path d="M20 66c7.72 0 14 6.28 14 14s-6.28 14-14 14-14-6.28-14-14 6.28-14 14-14m0-6c-11.046 0-20 8.954-20 20s8.954 20 20 20 20-8.954 20-20-8.954-20-20-20z" class="iconic-scissors-handle iconic-scissors-handle-bottom iconic-property-accent iconic-property-fill"
    />
  </g>
</svg>