<svg version="1.1" xmlns="http://www.w3.org/2000/svg" width="128" height="128" data-icon="screwdriver" class="iconic iconic-screwdriver iconic-size-lg" viewBox="0 0 128 128">
  <g class="iconic-metadata">
    <title>Screwdriver</title>
  </g>
  <g class="iconic-container" data-width="128" data-height="128">
    <path class="iconic-screwdriver-head iconic-property-fill" d="M107.856 16.115l-57.462 57.462 4.029 4.029 57.462-57.462 8.058-2.029 8.058-14.087-4.029-4.029-14.087 8.058z" />
    <path d="M19.983 123.983l36.017-35.983v-4l2-2h2l2-2-14-14-2 2v2l-2 2h-4l-35.983 36.017c-2.455 2.079-4.017 5.18-4.017 8.648 0 6.26 5.075 11.335 11.335 11.335 3.469 0 6.569-1.562 8.648-4.017zm-13.69-12.276c-.195-.195-.293-.451-.293-.707s.098-.512.293-.707l34-34c.391-.391 1.023-.391 1.414 0s.391 1.023 0 1.414l-34 34c-.391.391-1.023.391-1.414 0zm4 6c-.195-.195-.293-.451-.293-.707s.098-.512.293-.707l34-34c.391-.391 1.023-.391 1.414 0s.391 1.023 0 1.414l-34 34c-.391.391-1.023.391-1.414 0zm6 4c-.195-.195-.293-.451-.293-.707s.098-.512.293-.707l34-34c.391-.391 1.023-.391 1.414 0s.391 1.023 0 1.414l-34 34c-.391.391-1.023.391-1.414 0z"
    class="iconic-screwdriver-handle iconic-property-fill" />
  </g>
</svg>