<svg version="1.1" xmlns="http://www.w3.org/2000/svg" width="16" height="16" data-icon="script" class="iconic iconic-script iconic-size-sm" viewBox="0 0 16 16">
  <g class="iconic-metadata">
    <title>Script</title>
  </g>
  <defs>
    <clipPath id="iconic-size-sm-script-clip-0">
      <path d="M0 0v16h15v-16h-15zm2 13.5c0 .276-.224.5-.5.5s-.5-.224-.5-.5v-4c0-.276.224-.5.5-.5s.5.224.5.5v4zm11.5-7.5h-10.5v-3.5c0-.276.224-.5.5-.5s.5.224.5.5v2.5h9.5c.276 0 .5.224.5.5s-.224.5-.5.5z" />
    </clipPath>
  </defs>
  <g class="iconic-container" data-width="15" data-height="16">
    <path d="M13 0h-9c-1.105 0-2 .895-2 2v9h-2v3.125h.013c.066 1.045.926 1.875 1.987 1.875h9c1.105 0 2-.895 2-2v-9h2v-3c0-1.105-.895-2-2-2z" clip-path="url(#iconic-size-sm-script-clip-0)" class="iconic-script-body iconic-property-fill" />
  </g>
</svg>