<svg version="1.1" xmlns="http://www.w3.org/2000/svg" width="32" height="32" data-icon="server" class="iconic iconic-server iconic-size-md" viewBox="0 0 32 32">
  <g class="iconic-metadata">
    <title>Server</title>
  </g>
  <defs>
    <clipPath id="iconic-size-md-server-clip-0">
      <path d="M2 2v7h19v-7h-19zm3 5.458c0 .276-.224.5-.5.5s-.5-.224-.5-.5v-3.958c0-.276.224-.5.5-.5s.5.224.5.5v3.958zm2 0c0 .276-.224.5-.5.5s-.5-.224-.5-.5v-3.958c0-.276.224-.5.5-.5s.5.224.5.5v3.958zm2 0c0 .276-.224.5-.5.5s-.5-.224-.5-.5v-3.958c0-.276.224-.5.5-.5s.5.224.5.5v3.958zm2 0c0 .276-.224.5-.5.5s-.5-.224-.5-.5v-3.958c0-.276.224-.5.5-.5s.5.224.5.5v3.958zm2 0c0 .276-.224.5-.5.5s-.5-.224-.5-.5v-3.958c0-.276.224-.5.5-.5s.5.224.5.5v3.958zm5-1.458c-.552 0-1-.448-1-1s.448-1 1-1 1 .448 1 1-.448 1-1 1z"
      />
    </clipPath>
    <clipPath id="iconic-size-md-server-clip-1">
      <path d="M2 10v7h19v-7h-19zm3 5.459c0 .276-.224.5-.5.5s-.5-.224-.5-.5v-3.959c0-.276.224-.5.5-.5s.5.224.5.5v3.959zm2 0c0 .276-.224.5-.5.5s-.5-.224-.5-.5v-3.959c0-.276.224-.5.5-.5s.5.224.5.5v3.959zm2 0c0 .276-.224.5-.5.5s-.5-.224-.5-.5v-3.959c0-.276.224-.5.5-.5s.5.224.5.5v3.959zm2 0c0 .276-.224.5-.5.5s-.5-.224-.5-.5v-3.959c0-.276.224-.5.5-.5s.5.224.5.5v3.959zm2 0c0 .276-.224.5-.5.5s-.5-.224-.5-.5v-3.959c0-.276.224-.5.5-.5s.5.224.5.5v3.959zm5-1.459c-.552 0-1-.448-1-1s.448-1 1-1 1 .448 1 1-.448 1-1 1z"
      />
    </clipPath>
    <clipPath id="iconic-size-md-server-clip-2">
      <path d="M2 18v7h19v-7h-19zm3 5.459c0 .276-.224.5-.5.5s-.5-.224-.5-.5v-3.959c0-.276.224-.5.5-.5s.5.224.5.5v3.959zm2 0c0 .276-.224.5-.5.5s-.5-.224-.5-.5v-3.959c0-.276.224-.5.5-.5s.5.224.5.5v3.959zm2 0c0 .276-.224.5-.5.5s-.5-.224-.5-.5v-3.959c0-.276.224-.5.5-.5s.5.224.5.5v3.959zm2 0c0 .276-.224.5-.5.5s-.5-.224-.5-.5v-3.959c0-.276.224-.5.5-.5s.5.224.5.5v3.959zm2 0c0 .276-.224.5-.5.5s-.5-.224-.5-.5v-3.959c0-.276.224-.5.5-.5s.5.224.5.5v3.959zm5-1.459c-.552 0-1-.448-1-1s.448-1 1-1 1 .448 1 1-.448 1-1 1z"
      />
    </clipPath>
    <clipPath id="iconic-size-md-server-clip-3">
      <path d="M0 0v27h23v-27h-23zm22 26h-21v-25h21v25z" />
    </clipPath>
  </defs>
  <g class="iconic-container" data-width="23" data-height="32" transform="translate(4)">
    <path clip-path="url(#iconic-size-md-server-clip-0)" d="M20.5 9h-18c-.276 0-.5-.224-.5-.5v-6c0-.276.224-.5.5-.5h18c.276 0 .5.224.5.5v6c0 .276-.224.5-.5.5z" class="iconic-server-chasis iconic-server-chasis-top iconic-property-fill" />
    <path clip-path="url(#iconic-size-md-server-clip-1)" d="M20.5 17h-18c-.276 0-.5-.224-.5-.5v-6c0-.276.224-.5.5-.5h18c.276 0 .5.224.5.5v6c0 .276-.224.5-.5.5z" class="iconic-server-chasis iconic-server-chasis-middle iconic-property-fill" />
    <path clip-path="url(#iconic-size-md-server-clip-2)" d="M20.5 25h-18c-.276 0-.5-.224-.5-.5v-6c0-.276.224-.5.5-.5h18c.276 0 .5.224.5.5v6c0 .276-.224.5-.5.5z" class="iconic-server-chasis iconic-server-chasis-bottom iconic-property-fill" />
    <path clip-path="url(#iconic-size-md-server-clip-3)" d="M22.5 27h-22c-.276 0-.5-.224-.5-.5v-26c0-.276.224-.5.5-.5h22c.276 0 .5.224.5.5v26c0 .276-.224.5-.5.5z" class="iconic-server-rack iconic-server-rack-walls iconic-property-fill" />
    <path class="iconic-server-rack iconic-server-rack-base iconic-property-fill" d="M0 26h23v6h-23z" />
  </g>
</svg>