<svg version="1.1" xmlns="http://www.w3.org/2000/svg" data-icon="social-facebook" width="128" height="128" class="iconic iconic-social iconic-size-lg iconic-social-facebook" viewBox="0 0 128 128">
  <g>
    <title>Social Facebook</title>
  </g>
  <!-- Dribbble -->
  <!-- Dropbox -->
  <!-- Facebook -->
  <g data-width="128" data-height="124" class="iconic-container iconic-social-facebook" transform="translate(0 2 ) scale(1 1 ) ">
    <path d="M120.936 0h-113.871c-3.903 0-7.065 3.162-7.065 7.065v113.871c0 3.901 3.162 7.065 7.065 7.065h61.304v-49.568h-16.681v-19.318h16.681v-14.246c0-16.533 10.097-25.535 24.846-25.535 7.064 0 13.136.526 14.906.761v17.278l-10.229.005c-8.021 0-9.574 3.812-9.574 9.405v12.333h19.129l-2.491 19.318h-16.638v49.568h32.618c3.901 0 7.064-3.163 7.064-7.065v-113.871c0-3.902-3.163-7.065-7.064-7.065z"
    class="iconic-property-fill"></path>
  </g>
  <!-- Flickr -->
  <!-- Github -->
  <!-- Google Plus -->
  <!-- Instagram -->
  <!-- LinkedIn -->
  <!-- Pinterest -->
  <!-- Reddit -->
  <!-- Tumblr -->
  <!-- Twitter -->
  <g data-width="128" data-height="104" class="iconic-container iconic-social-facebook" transform="translate(0 2 ) scale(1 1 ) ">
    <!-- Vimeo -->
    <!-- YouTube -->
  </g>
  <!-- Dribbble -->
  <!-- Dropbox -->
  <!-- Facebook -->
  <!-- Flickr -->
  <!-- Github -->
  <!-- Google Plus -->
  <!-- Instagram -->
  <!-- LinkedIn -->
  <!-- Pinterest -->
  <!-- Reddit -->
  <!-- Tumblr -->
  <!-- Twitter -->
  <!-- Vimeo -->
  <!-- YouTube -->
  <!-- Dribbble -->
  <!-- Dropbox -->
  <!-- Facebook -->
  <!-- Flickr -->
  <!-- Github -->
  <!-- Google Plus -->
  <!-- Instagram -->
  <!-- LinkedIn -->
  <!-- Pinterest -->
  <!-- Reddit -->
  <!-- Tumblr -->
  <!-- Twitter -->
  <!-- Vimeo -->
  <!-- YouTube -->
</svg>