<svg version="1.1" xmlns="http://www.w3.org/2000/svg" data-icon="social-dribbble" width="16" height="16" class="iconic iconic-social iconic-size-sm iconic-social-dribbble" viewBox="0 0 16 16">
  <g>
    <title>Social Dribbble</title>
  </g>
  <!-- Dribbble -->
  <!-- Dropbox -->
  <!-- Facebook -->
  <!-- Flickr -->
  <!-- Github -->
  <!-- Google Plus -->
  <!-- Instagram -->
  <!-- LinkedIn -->
  <!-- Pinterest -->
  <!-- Reddit -->
  <!-- Tumblr -->
  <!-- Twitter -->
  <!-- Dribbble -->
  <!-- Dropbox -->
  <!-- Facebook -->
  <!-- Flickr -->
  <!-- Github -->
  <!-- Google Plus -->
  <!-- Instagram -->
  <!-- LinkedIn -->
  <!-- Pinterest -->
  <!-- Reddit -->
  <!-- Tumblr -->
  <!-- Twitter -->
  <!-- Vimeo -->
  <!-- YouTube -->
  <!-- Dribbble -->
  <g class="iconic-container iconic-social-dribbble" data-width="16" data-height="15" transform="scale(1 1 ) translate(0 ) ">
    <path fill-rule="evenodd" clip-rule="evenodd" d="M8 15.979c-4.411 0-8-3.584-8-7.989 0-4.405 3.589-7.989 8-7.989s8 3.584 8 7.989c0 4.405-3.589 7.989-8 7.989zm6.747-6.896c-.234-.074-2.115-.634-4.256-.292.894 2.453 1.258 4.45 1.327 4.865 1.533-1.035 2.624-2.675 2.929-4.574zm-4.078 5.198c-.102-.599-.498-2.685-1.458-5.175-.015.005-.03.01-.045.015-3.854 1.341-5.238 4.011-5.361 4.261 1.159.902 2.615 1.441 4.194 1.441.947 0 1.849-.193 2.669-.542zm-7.746-1.719c.155-.265 2.03-3.366 5.554-4.503.089-.029.179-.056.269-.081-.171-.388-.358-.776-.554-1.158-3.412 1.02-6.724.977-7.023.971-.002.069-.004.139-.004.208 0 1.753.665 3.353 1.757 4.563zm-1.612-5.96c.306.004 3.121.016 6.317-.831-1.132-2.01-2.353-3.7-2.533-3.947-1.912.901-3.341 2.66-3.784 4.778zm5.088-5.237c.189.253 1.43 1.94 2.55 3.995 2.43-.909 3.458-2.29 3.581-2.465-1.207-1.069-2.794-1.72-4.53-1.72-.551 0-1.087.066-1.601.19zm6.891 2.319c-.144.195-1.289 1.661-3.816 2.691.159.325.311.656.453.988.05.118.099.235.147.352 2.274-.285 4.533.172 4.758.22-.015-1.611-.591-3.09-1.543-4.251z"
    class="iconic-property-fill"></path>
  </g>
  <!-- Dropbox -->
  <!-- Facebook -->
  <!-- Flickr -->
  <!-- Github -->
  <!-- Google Plus -->
  <!-- Instagram -->
  <!-- LinkedIn -->
  <!-- Pinterest -->
  <!-- Reddit -->
  <!-- Tumblr -->
  <!-- Twitter -->
  <!-- Vimeo -->
  <!-- YouTube -->
</svg>