<svg version="1.1" xmlns="http://www.w3.org/2000/svg" data-icon="social-facebook" width="16" height="16" class="iconic iconic-social iconic-size-sm iconic-social-facebook" viewBox="0 0 16 16">
  <g>
    <title>Social Facebook</title>
  </g>
  <!-- Dribbble -->
  <!-- Dropbox -->
  <!-- Facebook -->
  <!-- Flickr -->
  <!-- Github -->
  <!-- Google Plus -->
  <!-- Instagram -->
  <!-- LinkedIn -->
  <!-- Pinterest -->
  <!-- Reddit -->
  <!-- Tumblr -->
  <!-- Twitter -->
  <!-- Dribbble -->
  <!-- Dropbox -->
  <!-- Facebook -->
  <!-- Flickr -->
  <!-- Github -->
  <!-- Google Plus -->
  <!-- Instagram -->
  <!-- LinkedIn -->
  <!-- Pinterest -->
  <!-- Reddit -->
  <!-- Tumblr -->
  <!-- Twitter -->
  <!-- Vimeo -->
  <!-- YouTube -->
  <!-- Dribbble -->
  <!-- Dropbox -->
  <!-- Facebook -->
  <g data-width="16" data-height="16" class="iconic-container iconic-social-facebook" transform="scale(1 1 ) translate(0 ) ">
    <path d="M15.117 0h-14.234c-.488 0-.883.395-.883.883v14.234c0 .488.395.883.883.883h7.663v-6.196h-2.085v-2.415h2.085v-1.781c0-2.067 1.262-3.192 3.106-3.192.883 0 1.642.066 1.863.095v2.16l-1.279.001c-1.003 0-1.197.476-1.197 1.176v1.542h2.391l-.311 2.415h-2.08v6.196h4.077c.488 0 .883-.395.883-.883v-14.234c0-.488-.395-.883-.883-.883z"
    class="iconic-property-fill"></path>
  </g>
  <!-- Flickr -->
  <!-- Github -->
  <!-- Google Plus -->
  <!-- Instagram -->
  <!-- LinkedIn -->
  <!-- Pinterest -->
  <!-- Reddit -->
  <!-- Tumblr -->
  <!-- Twitter -->
  <!-- Vimeo -->
  <!-- YouTube -->
</svg>