<svg version="1.1" xmlns="http://www.w3.org/2000/svg" data-icon="social-pinterest" width="16" height="16" class="iconic iconic-social iconic-size-sm iconic-social-pinterest" viewBox="0 0 16 16">
  <g>
    <title>Social Pinterest</title>
  </g>
  <!-- Dribbble -->
  <!-- Dropbox -->
  <!-- Facebook -->
  <!-- Flickr -->
  <!-- Github -->
  <!-- Google Plus -->
  <!-- Instagram -->
  <!-- LinkedIn -->
  <!-- Pinterest -->
  <!-- Reddit -->
  <!-- Tumblr -->
  <!-- Twitter -->
  <!-- Dribbble -->
  <!-- Dropbox -->
  <!-- Facebook -->
  <!-- Flickr -->
  <!-- Github -->
  <!-- Google Plus -->
  <!-- Instagram -->
  <!-- LinkedIn -->
  <!-- Pinterest -->
  <!-- Reddit -->
  <!-- Tumblr -->
  <!-- Twitter -->
  <!-- Vimeo -->
  <!-- YouTube -->
  <!-- Dribbble -->
  <!-- Dropbox -->
  <!-- Facebook -->
  <!-- Flickr -->
  <!-- Github -->
  <!-- Google Plus -->
  <!-- Instagram -->
  <!-- LinkedIn -->
  <!-- Pinterest -->
  <g data-width="16" data-height="16" class="iconic-container iconic-social-pinterest" transform="scale(1 1 ) translate(0 ) ">
    <path d="M8 0c-4.418 0-8 3.582-8 8 0 3.276 1.97 6.09 4.789 7.327-.022-.559-.004-1.229.139-1.837.154-.649 1.029-4.359 1.029-4.359s-.256-.511-.256-1.266c0-1.185.687-2.071 1.543-2.071.728 0 1.079.547 1.079 1.201 0 .732-.467 1.826-.707 2.839-.2.849.425 1.541 1.263 1.541 1.516 0 2.537-1.947 2.537-4.253 0-1.753-1.181-3.066-3.329-3.066-2.427 0-3.939 1.81-3.939 3.831 0 .697.205 1.188.527 1.569.148.175.169.245.115.446-.038.147-.127.502-.163.642-.053.203-.217.275-.401.2-1.118-.456-1.638-1.68-1.638-3.056 0-2.273 1.917-4.998 5.718-4.998 3.054 0 5.065 2.21 5.065 4.583 0 3.138-1.745 5.483-4.317 5.483-.864 0-1.676-.467-1.954-.997 0 0-.465 1.843-.563 2.199-.17.617-.502 1.233-.805 1.714.72.212 1.48.328 2.267.328 4.418 0 8-3.582 8-8s-3.582-8-8-8z"
    class="iconic-property-fill"></path>
  </g>
  <!-- Reddit -->
  <!-- Tumblr -->
  <!-- Twitter -->
  <!-- Vimeo -->
  <!-- YouTube -->
</svg>