<svg version="1.1" xmlns="http://www.w3.org/2000/svg" data-icon="social-vimeo" width="16" height="16" class="iconic iconic-social iconic-size-sm iconic-social-vimeo" viewBox="0 0 16 16">
  <g>
    <title>Social Vimeo</title>
  </g>
  <!-- Dribbble -->
  <!-- Dropbox -->
  <!-- Facebook -->
  <!-- Flickr -->
  <!-- Github -->
  <!-- Google Plus -->
  <!-- Instagram -->
  <!-- LinkedIn -->
  <!-- Pinterest -->
  <!-- Reddit -->
  <!-- Tumblr -->
  <!-- Twitter -->
  <!-- Dribbble -->
  <!-- Dropbox -->
  <!-- Facebook -->
  <!-- Flickr -->
  <!-- Github -->
  <!-- Google Plus -->
  <!-- Instagram -->
  <!-- LinkedIn -->
  <!-- Pinterest -->
  <!-- Reddit -->
  <!-- Tumblr -->
  <!-- Twitter -->
  <!-- Vimeo -->
  <!-- YouTube -->
  <!-- Dribbble -->
  <!-- Dropbox -->
  <!-- Facebook -->
  <!-- Flickr -->
  <!-- Github -->
  <!-- Google Plus -->
  <!-- Instagram -->
  <!-- LinkedIn -->
  <!-- Pinterest -->
  <!-- Reddit -->
  <!-- Tumblr -->
  <!-- Twitter -->
  <!-- Vimeo -->
  <g data-width="16" data-height="14" class="iconic-container iconic-social-vimeo" transform="scale(1 1 ) translate(0 1 ) ">
    <path d="M15.992 3.203c-.071 1.558-1.159 3.692-3.263 6.399-2.175 2.829-4.016 4.243-5.521 4.243-.932 0-1.722-.861-2.366-2.584-.431-1.579-.861-3.158-1.291-4.737-.479-1.722-.992-2.584-1.541-2.584-.12 0-.539.252-1.256.754l-.753-.97c.789-.694 1.569-1.388 2.335-2.083 1.053-.91 1.844-1.389 2.371-1.437 1.245-.12 2.012.732 2.299 2.554.311 1.966.526 3.19.647 3.668.359 1.632.754 2.446 1.185 2.446.335 0 .838-.529 1.509-1.587.67-1.058 1.029-1.864 1.077-2.417.096-.913-.264-1.371-1.077-1.371-.383 0-.778.088-1.184.263.786-2.576 2.289-3.828 4.506-3.757 1.644.048 2.419 1.115 2.325 3.2z"
    class="iconic-property-fill"></path>
  </g>
  <!-- YouTube -->
</svg>