<svg version="1.1" xmlns="http://www.w3.org/2000/svg" data-icon="social-tumblr" width="128" height="128" class="iconic iconic-social iconic-size-lg iconic-social-tumblr" viewBox="0 0 128 128">
  <g>
    <title>Social Tumblr</title>
  </g>
  <!-- Dribbble -->
  <!-- Dropbox -->
  <!-- Facebook -->
  <!-- Flickr -->
  <!-- Github -->
  <!-- Google Plus -->
  <!-- Instagram -->
  <!-- LinkedIn -->
  <!-- Pinterest -->
  <!-- Reddit -->
  <!-- Tumblr -->
  <g data-width="74" data-height="128" class="iconic-container iconic-social-tumblr" transform="translate(27 ) scale(1 1 ) ">
    <path d="M67.407 102.239c-2.38 1.133-6.933 2.123-10.327 2.211-10.246.275-12.231-7.196-12.319-12.62v-39.844h25.703v-19.378h-25.609v-32.608s-18.444 0-18.751 0c-.307 0-.845.272-.92.958-1.096 9.98-5.769 27.494-25.183 34.493v16.534h12.951v41.824c0 14.317 10.566 34.659 38.448 34.183 9.407-.163 19.853-4.103 22.165-7.497l-6.157-18.256z"
    class="iconic-property-fill"></path>
  </g>
  <!-- Twitter -->
  <g data-width="128" data-height="104" class="iconic-container iconic-social-tumblr" transform="translate(27 ) scale(1 1 ) ">
    <!-- Vimeo -->
    <!-- YouTube -->
  </g>
  <!-- Dribbble -->
  <!-- Dropbox -->
  <!-- Facebook -->
  <!-- Flickr -->
  <!-- Github -->
  <!-- Google Plus -->
  <!-- Instagram -->
  <!-- LinkedIn -->
  <!-- Pinterest -->
  <!-- Reddit -->
  <!-- Tumblr -->
  <!-- Twitter -->
  <!-- Vimeo -->
  <!-- YouTube -->
  <!-- Dribbble -->
  <!-- Dropbox -->
  <!-- Facebook -->
  <!-- Flickr -->
  <!-- Github -->
  <!-- Google Plus -->
  <!-- Instagram -->
  <!-- LinkedIn -->
  <!-- Pinterest -->
  <!-- Reddit -->
  <!-- Tumblr -->
  <!-- Twitter -->
  <!-- Vimeo -->
  <!-- YouTube -->
</svg>