<svg version="1.1" xmlns="http://www.w3.org/2000/svg" data-icon="social-linkedin" width="16" height="16" class="iconic iconic-social iconic-size-sm iconic-social-linkedin" viewBox="0 0 16 16">
  <g>
    <title>Social Linkedin</title>
  </g>
  <!-- Dribbble -->
  <!-- Dropbox -->
  <!-- Facebook -->
  <!-- Flickr -->
  <!-- Github -->
  <!-- Google Plus -->
  <!-- Instagram -->
  <!-- LinkedIn -->
  <!-- Pinterest -->
  <!-- Reddit -->
  <!-- Tumblr -->
  <!-- Twitter -->
  <!-- Dribbble -->
  <!-- Dropbox -->
  <!-- Facebook -->
  <!-- Flickr -->
  <!-- Github -->
  <!-- Google Plus -->
  <!-- Instagram -->
  <!-- LinkedIn -->
  <!-- Pinterest -->
  <!-- Reddit -->
  <!-- Tumblr -->
  <!-- Twitter -->
  <!-- Vimeo -->
  <!-- YouTube -->
  <!-- Dribbble -->
  <!-- Dropbox -->
  <!-- Facebook -->
  <!-- Flickr -->
  <!-- Github -->
  <!-- Google Plus -->
  <!-- Instagram -->
  <!-- LinkedIn -->
  <g data-width="16" data-height="16" class="iconic-container iconic-social-linkedin" transform="scale(1 1 ) translate(0 ) ">
    <path d="M14.815 0h-13.634c-.652 0-1.181.517-1.181 1.153v13.693c0 .637.529 1.154 1.181 1.154h13.634c.652 0 1.185-.517 1.185-1.155v-13.693c0-.636-.533-1.153-1.185-1.153zm-10.07 13.634h-2.374v-7.635h2.374v7.635zm-1.187-8.679c-.761 0-1.376-.617-1.376-1.376 0-.759.615-1.376 1.376-1.376.759 0 1.375.617 1.375 1.376 0 .76-.617 1.376-1.375 1.376zm10.075 8.679h-2.37v-3.713c0-.886-.017-2.025-1.234-2.025-1.235 0-1.423.965-1.423 1.961v3.777h-2.372v-7.635h2.277v1.043h.032c.317-.6 1.091-1.233 2.246-1.233 2.401 0 2.845 1.581 2.845 3.638v4.188z"
    class="iconic-property-fill"></path>
  </g>
  <!-- Pinterest -->
  <!-- Reddit -->
  <!-- Tumblr -->
  <!-- Twitter -->
  <!-- Vimeo -->
  <!-- YouTube -->
</svg>