<svg version="1.1" xmlns="http://www.w3.org/2000/svg" data-icon="social-google-plus" width="16" height="16" class="iconic iconic-social iconic-size-sm iconic-social-google-plus" viewBox="0 0 16 16">
  <g>
    <title>Social Google Plus</title>
  </g>
  <!-- Dribbble -->
  <!-- Dropbox -->
  <!-- Facebook -->
  <!-- Flickr -->
  <!-- Github -->
  <!-- Google Plus -->
  <!-- Instagram -->
  <!-- LinkedIn -->
  <!-- Pinterest -->
  <!-- Reddit -->
  <!-- Tumblr -->
  <!-- Twitter -->
  <!-- Dribbble -->
  <!-- Dropbox -->
  <!-- Facebook -->
  <!-- Flickr -->
  <!-- Github -->
  <!-- Google Plus -->
  <!-- Instagram -->
  <!-- LinkedIn -->
  <!-- Pinterest -->
  <!-- Reddit -->
  <!-- Tumblr -->
  <!-- Twitter -->
  <!-- Vimeo -->
  <!-- YouTube -->
  <!-- Dribbble -->
  <!-- Dropbox -->
  <!-- Facebook -->
  <!-- Flickr -->
  <!-- Github -->
  <!-- Google Plus -->
  <g class="iconic-container iconic-social-google-plus" data-width="16" data-height="13" transform="scale(1 1 ) translate(0 1 ) ">
    <path d="M6.937 7.782c-.378-.268-1.102-.919-1.102-1.302 0-.449.128-.67.803-1.198.692-.541 1.182-1.302 1.182-2.186 0-1.053-.469-2.08-1.35-2.418h1.327l.937-.677h-4.187c-1.877 0-3.643 1.422-3.643 3.069 0 1.683 1.279 3.042 3.189 3.042.133 0 .262-.003.388-.012-.124.237-.213.504-.213.782 0 .468.252.847.57 1.157-.24 0-.472.007-.726.007-2.325 0-4.114 1.481-4.114 3.016 0 1.512 1.962 2.458 4.287 2.458 2.65 0 4.114-1.504 4.114-3.016 0-1.212-.358-1.939-1.464-2.721zm-2.236-2.098c-1.079-.032-2.104-1.207-2.29-2.623-.186-1.417.537-2.501 1.615-2.468 1.078.032 2.104 1.169 2.29 2.585.186 1.417-.537 2.538-1.615 2.506zm-.422 7.166c-1.607 0-2.768-1.017-2.768-2.239 0-1.198 1.44-2.194 3.046-2.177.375.004.725.064 1.042.167.872.607 1.498.949 1.675 1.641.033.14.051.284.051.432 0 1.222-.787 2.177-3.046 2.177z"
    class="iconic-social-google-plus-g iconic-property-fill"></path>
    <path class="iconic-social-google-plus-plus iconic-property-accent iconic-property-fill" d="M13 3v-3h-1v3h-3v1h3v3h1v-3h3v-1z"></path>
  </g>
  <!-- Instagram -->
  <!-- LinkedIn -->
  <!-- Pinterest -->
  <!-- Reddit -->
  <!-- Tumblr -->
  <!-- Twitter -->
  <!-- Vimeo -->
  <!-- YouTube -->
</svg>