<svg version="1.1" xmlns="http://www.w3.org/2000/svg" data-icon="social-pinterest" width="32" height="32" class="iconic iconic-social iconic-size-md iconic-social-pinterest" viewBox="0 0 32 32">
  <g>
    <title>Social Pinterest</title>
  </g>
  <!-- Dribbble -->
  <!-- Dropbox -->
  <!-- Facebook -->
  <!-- Flickr -->
  <!-- Github -->
  <!-- Google Plus -->
  <!-- Instagram -->
  <!-- LinkedIn -->
  <!-- Pinterest -->
  <!-- Reddit -->
  <!-- Tumblr -->
  <!-- Twitter -->
  <!-- Dribbble -->
  <!-- Dropbox -->
  <!-- Facebook -->
  <!-- Flickr -->
  <!-- Github -->
  <!-- Google Plus -->
  <!-- Instagram -->
  <!-- LinkedIn -->
  <!-- Pinterest -->
  <g data-width="32" data-height="32" class="iconic-container iconic-social-pinterest" transform="scale(1 1 ) translate(0 ) ">
    <path d="M16 0c-8.836 0-16 7.164-16 16 0 6.552 3.94 12.18 9.577 14.655-.045-1.117-.008-2.458.279-3.674.308-1.299 2.059-8.719 2.059-8.719s-.511-1.022-.511-2.532c0-2.371 1.374-4.142 3.086-4.142 1.455 0 2.158 1.093 2.158 2.402 0 1.463-.933 3.651-1.413 5.678-.401 1.697.851 3.082 2.526 3.082 3.031 0 5.073-3.893 5.073-8.507 0-3.507-2.362-6.131-6.658-6.131-4.854 0-7.877 3.619-7.877 7.662 0 1.394.411 2.377 1.055 3.138.296.35.337.49.23.892-.077.294-.253 1.003-.326 1.284-.106.405-.435.55-.801.4-2.236-.913-3.277-3.361-3.277-6.113 0-4.545 3.833-9.995 11.435-9.995 6.109 0 10.129 4.42 10.129 9.166 0 6.277-3.489 10.966-8.633 10.966-1.727 0-3.352-.934-3.909-1.994 0 0-.929 3.687-1.126 4.398-.339 1.234-1.003 2.467-1.61 3.428 1.439.425 2.959.656 4.535.656 8.836 0 15.999-7.163 15.999-16s-7.164-16-16-16z"
    class="iconic-property-fill"></path>
  </g>
  <!-- Reddit -->
  <!-- Tumblr -->
  <!-- Twitter -->
  <!-- Vimeo -->
  <!-- YouTube -->
  <!-- Dribbble -->
  <!-- Dropbox -->
  <!-- Facebook -->
  <!-- Flickr -->
  <!-- Github -->
  <!-- Google Plus -->
  <!-- Instagram -->
  <!-- LinkedIn -->
  <!-- Pinterest -->
  <!-- Reddit -->
  <!-- Tumblr -->
  <!-- Twitter -->
  <!-- Vimeo -->
  <!-- YouTube -->
</svg>