<svg version="1.1" xmlns="http://www.w3.org/2000/svg" data-icon="social-reddit" width="128" height="128" class="iconic iconic-social iconic-size-lg iconic-social-reddit" viewBox="0 0 128 128">
  <g>
    <title>Social Reddit</title>
  </g>
  <!-- Dribbble -->
  <!-- Dropbox -->
  <!-- Facebook -->
  <!-- Flickr -->
  <!-- Github -->
  <!-- Google Plus -->
  <!-- Instagram -->
  <!-- LinkedIn -->
  <!-- Pinterest -->
  <!-- Reddit -->
  <g data-width="94" data-height="128" class="iconic-container iconic-social-reddit" transform="translate(17 ) scale(1 1 ) ">
    <path d="M92.26 37.85c0-5.853-4.763-10.615-10.616-10.615-2.717 0-5.168 1.057-7.038 2.751-6.777-4.388-15.783-7.224-25.763-7.692l5.292-16.725 14.401 3.39c.101 4.751 3.982 8.59 8.759 8.59 4.836 0 8.77-3.936 8.77-8.774s-3.934-8.774-8.771-8.774c-3.556 0-6.609 2.133-7.987 5.179l-16.029-3.774c-.979-.235-1.974.334-2.28 1.296l-6.18 19.534c-10.581.191-20.168 3.05-27.324 7.618-1.851-1.614-4.241-2.617-6.886-2.617-5.85 0-10.61 4.762-10.61 10.615 0 3.758 1.985 7.03 4.942 8.911-.164.997-.263 2.007-.263 3.033 0 10.158 8.272 19.028 20.526 23.818-5.814 2.872-9.923 9.629-9.923 17.533 0 9.01 5.329 16.551 12.45 18.514.523 1.623 1.109 3.157 1.737 4.623-.193-.01-.381-.035-.577-.035-6.449 0-11.696 4.417-11.696 9.848 0 .816.144 1.657.442 2.574.259.793.999 1.331 1.834 1.331h53.064c.841 0 1.581-.564 1.836-1.365.288-.904.428-1.734.428-2.539 0-5.431-5.248-9.848-11.698-9.848-.235 0-.461.03-.692.044.625-1.46 1.21-2.986 1.732-4.601 7.192-1.903 12.592-9.478 12.592-18.545 0-7.928-4.133-14.709-9.977-17.566 12.21-4.798 20.448-13.65 20.448-23.786 0-.962-.076-1.913-.221-2.851 3.141-1.837 5.278-5.199 5.278-9.094zm-14.965-33.993c2.709 0 4.914 2.206 4.914 4.918s-2.204 4.918-4.914 4.918c-2.714 0-4.921-2.206-4.921-4.918s2.207-4.917 4.921-4.917zm-73.439 33.993c0-3.726 3.029-6.758 6.753-6.758 1.331 0 2.546.423 3.587 1.096-3.793 3.054-6.579 6.673-8.127 10.624-1.354-1.23-2.212-2.991-2.212-4.961zm58.922 37.111c.566 3.718.9 7.641.9 11.713 0 17.38-5.622 33-13.426 37.48h-8.625c-7.804-4.479-13.426-20.099-13.426-37.48 0-4.072.334-7.994.9-11.712 5.148 1.547 10.836 2.427 16.835 2.427 6.002 0 11.691-.881 16.84-2.428zm-43.641 16.185c0-5.336 2.252-10.002 5.62-12.709-.262 2.658-.411 5.404-.411 8.237 0 6.511.756 12.73 2.096 18.323-4.292-2.36-7.305-7.664-7.305-13.851zm1.915 32.998c0-.015 0-.033 0-.048 0-3.304 3.517-5.991 7.839-5.991.943 0 1.822.164 2.656.401 1.229 2.17 2.583 4.069 4.053 5.637h-14.548zm42.049-6.039c4.324 0 7.841 2.687 7.841 5.991 0 .015 0 .033 0 .048h-14.662c1.461-1.558 2.808-3.444 4.03-5.597.873-.26 1.797-.442 2.79-.442zm9.775-26.959c0 6.26-3.083 11.624-7.459 13.942 1.354-5.616 2.118-11.867 2.118-18.413 0-2.872-.155-5.653-.424-8.346 3.449 2.686 5.765 7.407 5.765 12.817zm-26.938-17.614c-20.624 0-37.403-10.649-37.403-23.738 0-13.092 16.779-23.741 37.403-23.741 20.628 0 37.408 10.65 37.408 23.741 0 13.089-16.78 23.738-37.408 23.738zm39.978-30.454c-1.502-3.996-4.269-7.658-8.061-10.751 1.081-.758 2.369-1.235 3.789-1.235 3.726 0 6.759 3.032 6.759 6.758 0 2.106-.971 3.988-2.487 5.228z"
    class="iconic-social-reddit-body iconic-property-fill"></path>
    <path d="M32.286 38.77c-3.316 0-6.013 2.698-6.013 6.013 0 3.314 2.698 6.01 6.013 6.01 3.314 0 6.01-2.695 6.01-6.01 0-3.316-2.695-6.014-6.01-6.014z" class="iconic-social-reddit-eye iconic-social-reddit-eye-left iconic-property-fill"></path>
    <path d="M59.998 38.77c-3.314 0-6.011 2.698-6.011 6.013 0 3.314 2.697 6.01 6.011 6.01s6.008-2.695 6.008-6.01c0-3.316-2.694-6.014-6.008-6.014z" class="iconic-social-reddit-eye iconic-social-reddit-eye-right iconic-property-fill"></path>
    <path d="M61.081 60.246c-.753-.753-1.971-.753-2.727-.001-2.37 2.37-6.353 3.522-12.174 3.522-.018 0-.033.01-.05.01-.018-.001-.033-.01-.05-.01-5.821 0-9.804-1.151-12.173-3.52-.753-.753-1.974-.753-2.727 0-.753.753-.753 1.974 0 2.727 3.128 3.13 8.002 4.649 14.899 4.649.018 0 .033-.01.05-.01.018.001.033.01.05.01 6.894 0 11.767-1.519 14.901-4.648.753-.753.753-1.974 0-2.728z"
    class="iconic-social-reddit-mouth iconic-property-fill"></path>
  </g>
  <!-- Tumblr -->
  <!-- Twitter -->
  <g data-width="128" data-height="104" class="iconic-container iconic-social-reddit" transform="translate(17 ) scale(1 1 ) ">
    <!-- Vimeo -->
    <!-- YouTube -->
  </g>
  <!-- Dribbble -->
  <!-- Dropbox -->
  <!-- Facebook -->
  <!-- Flickr -->
  <!-- Github -->
  <!-- Google Plus -->
  <!-- Instagram -->
  <!-- LinkedIn -->
  <!-- Pinterest -->
  <!-- Reddit -->
  <!-- Tumblr -->
  <!-- Twitter -->
  <!-- Vimeo -->
  <!-- YouTube -->
  <!-- Dribbble -->
  <!-- Dropbox -->
  <!-- Facebook -->
  <!-- Flickr -->
  <!-- Github -->
  <!-- Google Plus -->
  <!-- Instagram -->
  <!-- LinkedIn -->
  <!-- Pinterest -->
  <!-- Reddit -->
  <!-- Tumblr -->
  <!-- Twitter -->
  <!-- Vimeo -->
  <!-- YouTube -->
</svg>