<svg version="1.1" xmlns="http://www.w3.org/2000/svg" data-icon="social-dribbble" width="32" height="32" class="iconic iconic-social iconic-size-md iconic-social-dribbble" viewBox="0 0 32 32">
  <g>
    <title>Social Dribbble</title>
  </g>
  <!-- Dribbble -->
  <!-- Dropbox -->
  <!-- Facebook -->
  <!-- Flickr -->
  <!-- Github -->
  <!-- Google Plus -->
  <!-- Instagram -->
  <!-- LinkedIn -->
  <!-- Pinterest -->
  <!-- Reddit -->
  <!-- Tumblr -->
  <!-- Twitter -->
  <!-- Dribbble -->
  <g class="iconic-container iconic-social-dribbble" data-width="32" data-height="31" transform="scale(1 1 ) translate(0 ) ">
    <path fill-rule="evenodd" clip-rule="evenodd" d="M16 31.957c-8.822 0-16-7.168-16-15.979s7.178-15.979 16-15.979 16 7.168 16 15.979-7.178 15.979-16 15.979zm13.494-13.791c-.468-.147-4.23-1.268-8.513-.583 1.788 4.905 2.515 8.901 2.655 9.731 3.066-2.07 5.249-5.35 5.858-9.148zm-8.155 10.397c-.203-1.197-.997-5.371-2.916-10.35-.03.01-.06.02-.09.03-7.708 2.683-10.476 8.021-10.721 8.523 2.317 1.804 5.229 2.881 8.389 2.881 1.893 0 3.698-.387 5.338-1.085zm-15.492-3.438c.31-.529 4.06-6.731 11.109-9.006.178-.058.358-.112.538-.162-.343-.775-.717-1.552-1.108-2.316-6.825 2.04-13.448 1.955-14.046 1.942-.004.139-.007.277-.007.417 0 3.505 1.331 6.706 3.513 9.126zm-3.225-11.921c.611.008 6.242.033 12.634-1.663-2.264-4.02-4.707-7.4-5.067-7.893-3.823 1.801-6.681 5.321-7.568 9.556zm10.175-10.474c.378.505 2.86 3.881 5.099 7.99 4.86-1.819 6.917-4.58 7.163-4.93-2.413-2.138-5.587-3.439-9.059-3.439-1.103 0-2.175.132-3.203.379zm13.781 4.638c-.288.389-2.578 3.321-7.631 5.381.318.65.623 1.311.907 1.977.101.236.199.471.294.704 4.547-.571 9.066.344 9.516.439-.03-3.221-1.183-6.179-3.086-8.502z"
    class="iconic-property-fill"></path>
  </g>
  <!-- Dropbox -->
  <!-- Facebook -->
  <!-- Flickr -->
  <!-- Github -->
  <!-- Google Plus -->
  <!-- Instagram -->
  <!-- LinkedIn -->
  <!-- Pinterest -->
  <!-- Reddit -->
  <!-- Tumblr -->
  <!-- Twitter -->
  <!-- Vimeo -->
  <!-- YouTube -->
  <!-- Dribbble -->
  <!-- Dropbox -->
  <!-- Facebook -->
  <!-- Flickr -->
  <!-- Github -->
  <!-- Google Plus -->
  <!-- Instagram -->
  <!-- LinkedIn -->
  <!-- Pinterest -->
  <!-- Reddit -->
  <!-- Tumblr -->
  <!-- Twitter -->
  <!-- Vimeo -->
  <!-- YouTube -->
</svg>