<svg version="1.1" xmlns="http://www.w3.org/2000/svg" data-icon="social-vimeo" width="32" height="32" class="iconic iconic-social iconic-size-md iconic-social-vimeo" viewBox="0 0 32 32">
  <g>
    <title>Social Vimeo</title>
  </g>
  <!-- Dribbble -->
  <!-- Dropbox -->
  <!-- Facebook -->
  <!-- Flickr -->
  <!-- Github -->
  <!-- Google Plus -->
  <!-- Instagram -->
  <!-- LinkedIn -->
  <!-- Pinterest -->
  <!-- Reddit -->
  <!-- Tumblr -->
  <!-- Twitter -->
  <!-- Dribbble -->
  <!-- Dropbox -->
  <!-- Facebook -->
  <!-- Flickr -->
  <!-- Github -->
  <!-- Google Plus -->
  <!-- Instagram -->
  <!-- LinkedIn -->
  <!-- Pinterest -->
  <!-- Reddit -->
  <!-- Tumblr -->
  <!-- Twitter -->
  <!-- Vimeo -->
  <g data-width="32" data-height="28" class="iconic-container iconic-social-vimeo" transform="scale(1 1 ) translate(0 2 ) ">
    <path d="M31.985 6.406c-.143 3.116-2.318 7.383-6.526 12.799-4.351 5.657-8.032 8.485-11.043 8.485-1.865 0-3.444-1.722-4.733-5.168-.861-3.158-1.722-6.316-2.583-9.474-.958-3.444-1.984-5.168-3.083-5.168-.239 0-1.077.504-2.511 1.508l-1.506-1.94c1.579-1.388 3.137-2.776 4.67-4.166 2.106-1.821 3.687-2.778 4.741-2.875 2.49-.239 4.023 1.464 4.599 5.109.622 3.933 1.052 6.379 1.294 7.337.718 3.263 1.508 4.893 2.371 4.893.67 0 1.676-1.058 3.018-3.175 1.34-2.117 2.058-3.727 2.154-4.834.191-1.827-.527-2.742-2.154-2.742-.766 0-1.556.176-2.369.525 1.573-5.153 4.578-7.656 9.012-7.513 3.288.097 4.838 2.23 4.649 6.4z"
    class="iconic-property-fill"></path>
  </g>
  <!-- YouTube -->
  <!-- Dribbble -->
  <!-- Dropbox -->
  <!-- Facebook -->
  <!-- Flickr -->
  <!-- Github -->
  <!-- Google Plus -->
  <!-- Instagram -->
  <!-- LinkedIn -->
  <!-- Pinterest -->
  <!-- Reddit -->
  <!-- Tumblr -->
  <!-- Twitter -->
  <!-- Vimeo -->
  <!-- YouTube -->
</svg>