<svg version="1.1" xmlns="http://www.w3.org/2000/svg" data-icon="social-instagram" width="32" height="32" class="iconic iconic-social iconic-size-md iconic-social-instagram" viewBox="0 0 32 32">
  <g>
    <title>Social Instagram</title>
  </g>
  <!-- Dribbble -->
  <!-- Dropbox -->
  <!-- Facebook -->
  <!-- Flickr -->
  <!-- Github -->
  <!-- Google Plus -->
  <!-- Instagram -->
  <!-- LinkedIn -->
  <!-- Pinterest -->
  <!-- Reddit -->
  <!-- Tumblr -->
  <!-- Twitter -->
  <!-- Dribbble -->
  <!-- Dropbox -->
  <!-- Facebook -->
  <!-- Flickr -->
  <!-- Github -->
  <!-- Google Plus -->
  <!-- Instagram -->
  <g data-width="32" data-height="32" class="iconic-container iconic-social-instagram" transform="scale(1 1 ) translate(0 ) ">
    <path fill-rule="evenodd" clip-rule="evenodd" d="M4.107 0h23.785c2.259 0 4.107 1.848 4.107 4.107v23.785c0 2.259-1.848 4.107-4.107 4.107h-23.785c-2.259 0-4.107-1.848-4.107-4.107v-23.785c0-2.259 1.848-4.107 4.107-4.107zm19.203 3.555c-.792 0-1.441.648-1.441 1.441v3.448c0 .792.648 1.441 1.441 1.441h3.617c.792 0 1.44-.648 1.44-1.441v-3.448c0-.792-.648-1.441-1.44-1.441h-3.617zm5.072 9.977h-2.817c.267.87.41 1.792.41 2.746 0 5.323-4.453 9.637-9.947 9.637-5.493 0-9.946-4.315-9.946-9.637 0-.954.144-1.875.41-2.746h-2.939v13.517c0 .7.572 1.272 1.272 1.272h22.284c.7 0 1.272-.572 1.272-1.272v-13.517zm-12.353-3.829c-3.549 0-6.427 2.788-6.427 6.227 0 3.439 2.877 6.227 6.427 6.227s6.427-2.788 6.427-6.227c0-3.439-2.877-6.227-6.427-6.227z"
    class="iconic-property-fill"></path>
  </g>
  <!-- LinkedIn -->
  <!-- Pinterest -->
  <!-- Reddit -->
  <!-- Tumblr -->
  <!-- Twitter -->
  <!-- Vimeo -->
  <!-- YouTube -->
  <!-- Dribbble -->
  <!-- Dropbox -->
  <!-- Facebook -->
  <!-- Flickr -->
  <!-- Github -->
  <!-- Google Plus -->
  <!-- Instagram -->
  <!-- LinkedIn -->
  <!-- Pinterest -->
  <!-- Reddit -->
  <!-- Tumblr -->
  <!-- Twitter -->
  <!-- Vimeo -->
  <!-- YouTube -->
</svg>