<svg version="1.1" xmlns="http://www.w3.org/2000/svg" data-icon="social-facebook" width="32" height="32" class="iconic iconic-social iconic-size-md iconic-social-facebook" viewBox="0 0 32 32">
  <g>
    <title>Social Facebook</title>
  </g>
  <!-- Dribbble -->
  <!-- Dropbox -->
  <!-- Facebook -->
  <!-- Flickr -->
  <!-- Github -->
  <!-- Google Plus -->
  <!-- Instagram -->
  <!-- LinkedIn -->
  <!-- Pinterest -->
  <!-- Reddit -->
  <!-- Tumblr -->
  <!-- Twitter -->
  <!-- Dribbble -->
  <!-- Dropbox -->
  <!-- Facebook -->
  <g data-width="32" data-height="31" class="iconic-container iconic-social-facebook" transform="scale(1 1 ) translate(0 ) ">
    <path d="M30.234 0h-28.468c-.976 0-1.766.791-1.766 1.766v28.468c0 .975.79 1.766 1.766 1.766h15.326v-12.392h-4.17v-4.829h4.17v-3.562c0-4.133 2.524-6.384 6.212-6.384 1.766 0 3.284.132 3.727.19v4.319l-2.557.001c-2.005 0-2.393.953-2.393 2.351v3.083h4.782l-.623 4.829h-4.16v12.392h8.155c.975 0 1.766-.791 1.766-1.766v-28.468c0-.976-.791-1.766-1.766-1.766z"
    class="iconic-property-fill"></path>
  </g>
  <!-- Flickr -->
  <!-- Github -->
  <!-- Google Plus -->
  <!-- Instagram -->
  <!-- LinkedIn -->
  <!-- Pinterest -->
  <!-- Reddit -->
  <!-- Tumblr -->
  <!-- Twitter -->
  <!-- Vimeo -->
  <!-- YouTube -->
  <!-- Dribbble -->
  <!-- Dropbox -->
  <!-- Facebook -->
  <!-- Flickr -->
  <!-- Github -->
  <!-- Google Plus -->
  <!-- Instagram -->
  <!-- LinkedIn -->
  <!-- Pinterest -->
  <!-- Reddit -->
  <!-- Tumblr -->
  <!-- Twitter -->
  <!-- Vimeo -->
  <!-- YouTube -->
</svg>