<svg version="1.1" xmlns="http://www.w3.org/2000/svg" data-icon="social-google-plus" width="32" height="32" class="iconic iconic-social iconic-size-md iconic-social-google-plus" viewBox="0 0 32 32">
  <g>
    <title>Social Google Plus</title>
  </g>
  <!-- Dribbble -->
  <!-- Dropbox -->
  <!-- Facebook -->
  <!-- Flickr -->
  <!-- Github -->
  <!-- Google Plus -->
  <!-- Instagram -->
  <!-- LinkedIn -->
  <!-- Pinterest -->
  <!-- Reddit -->
  <!-- Tumblr -->
  <!-- Twitter -->
  <!-- Dribbble -->
  <!-- Dropbox -->
  <!-- Facebook -->
  <!-- Flickr -->
  <!-- Github -->
  <!-- Google Plus -->
  <g class="iconic-container iconic-social-google-plus" data-width="32" data-height="27" transform="scale(1 1 ) translate(0 2 ) ">
    <path d="M13.873 15.563c-.757-.536-2.204-1.839-2.204-2.604 0-.898.256-1.34 1.607-2.395 1.385-1.082 2.365-2.603 2.365-4.372 0-2.107-.938-4.16-2.699-4.837h2.655l1.874-1.354h-8.373c-3.754 0-7.286 2.844-7.286 6.138 0 3.366 2.558 6.083 6.377 6.083.266 0 .524-.005.776-.024-.248.475-.425 1.009-.425 1.564 0 .936.503 1.694 1.14 2.313-.481 0-.945.014-1.452.014-4.649 0-8.228 2.961-8.228 6.032 0 3.025 3.923 4.916 8.573 4.916 5.301 0 8.228-3.007 8.228-6.032 0-2.425-.715-3.877-2.928-5.442zm-4.473-4.195c-2.158-.064-4.207-2.413-4.58-5.246-.372-2.833 1.074-5.001 3.231-4.937 2.156.065 4.207 2.338 4.58 5.17.372 2.833-1.075 5.077-3.231 5.012zm-.845 14.332c-3.214 0-5.535-2.035-5.535-4.478 0-2.395 2.879-4.389 6.093-4.354.75.008 1.449.129 2.083.334 1.744 1.213 2.996 1.899 3.349 3.281.067.281.102.569.102.864 0 2.444-1.575 4.353-6.093 4.353z"
    class="iconic-social-google-plus-g iconic-property-fill"></path>
    <path class="iconic-social-google-plus-plus iconic-property-accent iconic-property-fill" d="M26 6v-6h-2v6h-6v2h6v6h2v-6h6v-2z"></path>
  </g>
  <!-- Instagram -->
  <!-- LinkedIn -->
  <!-- Pinterest -->
  <!-- Reddit -->
  <!-- Tumblr -->
  <!-- Twitter -->
  <!-- Vimeo -->
  <!-- YouTube -->
  <!-- Dribbble -->
  <!-- Dropbox -->
  <!-- Facebook -->
  <!-- Flickr -->
  <!-- Github -->
  <!-- Google Plus -->
  <!-- Instagram -->
  <!-- LinkedIn -->
  <!-- Pinterest -->
  <!-- Reddit -->
  <!-- Tumblr -->
  <!-- Twitter -->
  <!-- Vimeo -->
  <!-- YouTube -->
</svg>