<svg version="1.1" xmlns="http://www.w3.org/2000/svg" data-icon="social-dribbble" width="128" height="128" class="iconic iconic-social iconic-size-lg iconic-social-dribbble" viewBox="0 0 128 128">
  <g>
    <title>Social Dribbble</title>
  </g>
  <!-- Dribbble -->
  <g class="iconic-container iconic-social-dribbble" data-width="128" data-height="127" transform="translate(0 ) scale(1 1 ) ">
    <path fill-rule="evenodd" clip-rule="evenodd" d="M64 127.829c-35.29 0-64-28.672-64-63.914 0-35.243 28.71-63.915 64-63.915s64 28.672 64 63.915c0 35.243-28.71 63.914-64 63.914zm53.974-55.165c-1.87-.59-16.92-5.072-34.051-2.334 7.15 19.622 10.06 35.603 10.62 38.924 12.264-8.281 20.994-21.4 23.431-36.59zm-32.621 41.588c-.813-4.79-3.987-21.483-11.662-41.4-.12.041-.24.08-.36.122-30.834 10.73-41.902 32.084-42.886 34.092 9.269 7.218 20.917 11.525 33.555 11.525 7.573 0 14.79-1.547 21.353-4.339zm-61.966-13.752c1.238-2.117 16.241-26.925 44.435-36.026.712-.23 1.431-.446 2.154-.649-1.373-3.102-2.867-6.206-4.432-9.265-27.3 8.159-53.79 7.818-56.182 7.769-.017.554-.028 1.11-.028 1.668 0 14.022 5.323 26.824 14.053 36.502zm-12.898-47.684c2.445.032 24.967.13 50.538-6.652-9.058-16.08-18.827-29.599-20.268-31.573-15.294 7.204-26.726 21.284-30.27 38.224zm40.701-41.894c1.511 2.021 11.44 15.523 20.397 31.959 19.439-7.276 27.668-18.322 28.651-19.72-9.654-8.553-22.348-13.757-36.238-13.757-4.411 0-8.7.528-12.811 1.518zm55.125 18.552c-1.152 1.557-10.313 13.284-30.525 21.525 1.272 2.6 2.491 5.245 3.627 7.907.402.944.794 1.883 1.177 2.817 18.19-2.284 36.263 1.377 38.065 1.757-.12-12.886-4.731-24.718-12.344-34.007z"
    class="iconic-property-fill"></path>
  </g>
  <!-- Dropbox -->
  <!-- Facebook -->
  <!-- Flickr -->
  <!-- Github -->
  <!-- Google Plus -->
  <!-- Instagram -->
  <!-- LinkedIn -->
  <!-- Pinterest -->
  <!-- Reddit -->
  <!-- Tumblr -->
  <!-- Twitter -->
  <g data-width="128" data-height="104" class="iconic-container iconic-social-dribbble" transform="translate(0 ) scale(1 1 ) ">
    <!-- Vimeo -->
    <!-- YouTube -->
  </g>
  <!-- Dribbble -->
  <!-- Dropbox -->
  <!-- Facebook -->
  <!-- Flickr -->
  <!-- Github -->
  <!-- Google Plus -->
  <!-- Instagram -->
  <!-- LinkedIn -->
  <!-- Pinterest -->
  <!-- Reddit -->
  <!-- Tumblr -->
  <!-- Twitter -->
  <!-- Vimeo -->
  <!-- YouTube -->
  <!-- Dribbble -->
  <!-- Dropbox -->
  <!-- Facebook -->
  <!-- Flickr -->
  <!-- Github -->
  <!-- Google Plus -->
  <!-- Instagram -->
  <!-- LinkedIn -->
  <!-- Pinterest -->
  <!-- Reddit -->
  <!-- Tumblr -->
  <!-- Twitter -->
  <!-- Vimeo -->
  <!-- YouTube -->
</svg>