<svg version="1.1" xmlns="http://www.w3.org/2000/svg" data-icon="social-twitter" width="32" height="32" class="iconic iconic-social iconic-size-md iconic-social-twitter" viewBox="0 0 32 32">
  <g>
    <title>Social Twitter</title>
  </g>
  <!-- Dribbble -->
  <!-- Dropbox -->
  <!-- Facebook -->
  <!-- Flickr -->
  <!-- Github -->
  <!-- Google Plus -->
  <!-- Instagram -->
  <!-- LinkedIn -->
  <!-- Pinterest -->
  <!-- Reddit -->
  <!-- Tumblr -->
  <!-- Twitter -->
  <!-- Dribbble -->
  <!-- Dropbox -->
  <!-- Facebook -->
  <!-- Flickr -->
  <!-- Github -->
  <!-- Google Plus -->
  <!-- Instagram -->
  <!-- LinkedIn -->
  <!-- Pinterest -->
  <!-- Reddit -->
  <!-- Tumblr -->
  <!-- Twitter -->
  <g data-width="32" data-height="26" class="iconic-container iconic-social-twitter" transform="scale(1 1 ) translate(0 3 ) ">
    <path d="M10.064 26c-3.708 0-7.159-1.087-10.064-2.949.514.061 1.036.092 1.566.092 3.076 0 5.907-1.049 8.153-2.81-2.873-.053-5.297-1.951-6.133-4.558.401.077.812.118 1.235.118.599 0 1.179-.08 1.73-.23-3.003-.603-5.266-3.256-5.266-6.436 0-.028 0-.055.001-.083.885.492 1.898.787 2.974.821-1.762-1.177-2.921-3.186-2.921-5.463 0-1.203.324-2.33.889-3.3 3.238 3.971 8.076 6.584 13.532 6.858-.112-.48-.17-.981-.17-1.496 0-3.625 2.94-6.564 6.565-6.564 1.888 0 3.595.797 4.792 2.073 1.495-.294 2.901-.841 4.169-1.593-.49 1.533-1.531 2.819-2.887 3.631 1.328-.159 2.593-.511 3.771-1.034-.88 1.316-1.993 2.472-3.276 3.398.013.281.019.565.019.849 0 8.674-6.603 18.675-18.679 18.675"
    class="iconic-property-fill"></path>
  </g>
  <!-- Vimeo -->
  <!-- YouTube -->
  <!-- Dribbble -->
  <!-- Dropbox -->
  <!-- Facebook -->
  <!-- Flickr -->
  <!-- Github -->
  <!-- Google Plus -->
  <!-- Instagram -->
  <!-- LinkedIn -->
  <!-- Pinterest -->
  <!-- Reddit -->
  <!-- Tumblr -->
  <!-- Twitter -->
  <!-- Vimeo -->
  <!-- YouTube -->
</svg>