<svg version="1.1" xmlns="http://www.w3.org/2000/svg" data-icon="social-linkedin" width="128" height="128" class="iconic iconic-social iconic-size-lg iconic-social-linkedin" viewBox="0 0 128 128">
  <g>
    <title>Social Linkedin</title>
  </g>
  <!-- Dribbble -->
  <!-- Dropbox -->
  <!-- Facebook -->
  <!-- Flickr -->
  <!-- Github -->
  <!-- Google Plus -->
  <!-- Instagram -->
  <!-- LinkedIn -->
  <g data-width="128" data-height="128" class="iconic-container iconic-social-linkedin" transform="translate(0 ) scale(1 1 ) ">
    <path d="M118.519 0h-109.071c-5.215 0-9.448 4.134-9.448 9.222v109.542c0 5.097 4.234 9.236 9.448 9.236h109.071c5.22 0 9.481-4.139 9.481-9.236v-109.542c0-5.088-4.261-9.222-9.481-9.222zm-80.557 109.074h-18.993v-61.083h18.993v61.083zm-9.495-69.435c-6.086 0-11.005-4.933-11.005-11.012 0-6.072 4.919-11.005 11.005-11.005 6.069 0 11.002 4.933 11.002 11.005 0 6.079-4.933 11.012-11.002 11.012zm80.6 69.435h-18.963v-29.704c0-7.088-.139-16.199-9.868-16.199-9.88 0-11.387 7.718-11.387 15.685v30.218h-18.979v-61.083h18.213v8.343h.259c2.535-4.801 8.729-9.866 17.965-9.866 19.211 0 22.759 12.648 22.759 29.102v33.505z"
    class="iconic-property-fill"></path>
  </g>
  <!-- Pinterest -->
  <!-- Reddit -->
  <!-- Tumblr -->
  <!-- Twitter -->
  <g data-width="128" data-height="104" class="iconic-container iconic-social-linkedin" transform="translate(0 ) scale(1 1 ) ">
    <!-- Vimeo -->
    <!-- YouTube -->
  </g>
  <!-- Dribbble -->
  <!-- Dropbox -->
  <!-- Facebook -->
  <!-- Flickr -->
  <!-- Github -->
  <!-- Google Plus -->
  <!-- Instagram -->
  <!-- LinkedIn -->
  <!-- Pinterest -->
  <!-- Reddit -->
  <!-- Tumblr -->
  <!-- Twitter -->
  <!-- Vimeo -->
  <!-- YouTube -->
  <!-- Dribbble -->
  <!-- Dropbox -->
  <!-- Facebook -->
  <!-- Flickr -->
  <!-- Github -->
  <!-- Google Plus -->
  <!-- Instagram -->
  <!-- LinkedIn -->
  <!-- Pinterest -->
  <!-- Reddit -->
  <!-- Tumblr -->
  <!-- Twitter -->
  <!-- Vimeo -->
  <!-- YouTube -->
</svg>