<svg version="1.1" xmlns="http://www.w3.org/2000/svg" data-icon="social-reddit" width="32" height="32" class="iconic iconic-social iconic-size-md iconic-social-reddit" viewBox="0 0 32 32">
  <g>
    <title>Social Reddit</title>
  </g>
  <!-- Dribbble -->
  <!-- Dropbox -->
  <!-- Facebook -->
  <!-- Flickr -->
  <!-- Github -->
  <!-- Google Plus -->
  <!-- Instagram -->
  <!-- LinkedIn -->
  <!-- Pinterest -->
  <!-- Reddit -->
  <!-- Tumblr -->
  <!-- Twitter -->
  <!-- Dribbble -->
  <!-- Dropbox -->
  <!-- Facebook -->
  <!-- Flickr -->
  <!-- Github -->
  <!-- Google Plus -->
  <!-- Instagram -->
  <!-- LinkedIn -->
  <!-- Pinterest -->
  <!-- Reddit -->
  <g data-width="24" data-height="32" class="iconic-container iconic-social-reddit" transform="scale(1 1 ) translate(4 ) ">
    <path d="M23.065 9.463c0-1.463-1.191-2.654-2.654-2.654-.679 0-1.292.264-1.759.688-1.694-1.097-3.946-1.806-6.441-1.923l1.323-4.181 3.6.847c.025 1.188.995 2.147 2.19 2.147 1.209 0 2.193-.984 2.193-2.194s-.984-2.193-2.193-2.193c-.889 0-1.652.533-1.997 1.295l-4.007-.944c-.245-.059-.493.084-.57.324l-1.545 4.883c-2.645.048-5.042.762-6.831 1.904-.463-.404-1.06-.654-1.721-.654-1.463 0-2.652 1.191-2.652 2.654 0 .94.496 1.758 1.235 2.228-.041.249-.066.502-.066.758 0 2.539 2.068 4.757 5.131 5.955-1.454.718-2.481 2.407-2.481 4.383 0 2.252 1.332 4.138 3.113 4.628.131.406.277.789.434 1.156-.048-.003-.095-.009-.144-.009-1.612 0-2.924 1.104-2.924 2.462 0 .204.036.414.111.643.065.198.25.333.458.333h13.266c.21 0 .395-.141.459-.341.072-.226.107-.433.107-.635 0-1.358-1.312-2.462-2.925-2.462-.059 0-.115.007-.173.011.156-.365.303-.747.433-1.15 1.798-.476 3.148-2.369 3.148-4.636 0-1.982-1.033-3.677-2.494-4.391 3.053-1.199 5.112-3.413 5.112-5.946 0-.241-.019-.478-.055-.713.785-.459 1.319-1.3 1.319-2.273zm-3.741-8.498c.677 0 1.228.551 1.228 1.229s-.551 1.229-1.228 1.229c-.679 0-1.23-.551-1.23-1.229s.552-1.229 1.23-1.229zm-18.36 8.498c0-.931.757-1.69 1.688-1.69.333 0 .636.106.897.274-.948.764-1.645 1.668-2.032 2.656-.338-.307-.553-.748-.553-1.24zm14.731 9.278c.142.929.225 1.91.225 2.928 0 4.345-1.405 8.25-3.356 9.37h-2.156c-1.951-1.12-3.356-5.025-3.356-9.37 0-1.018.084-1.999.225-2.928 1.287.387 2.709.607 4.209.607 1.5 0 2.923-.22 4.21-.607zm-10.91 4.046c0-1.334.563-2.501 1.405-3.177-.065.665-.103 1.351-.103 2.059 0 1.628.189 3.182.524 4.581-1.073-.59-1.826-1.916-1.826-3.463zm.479 8.249c0-.004 0-.008 0-.012 0-.826.879-1.498 1.96-1.498.236 0 .456.041.664.1.307.542.646 1.017 1.013 1.409h-3.637zm10.512-1.51c1.081 0 1.96.672 1.96 1.498 0 .004 0 .008 0 .012h-3.665c.365-.39.702-.861 1.008-1.399.218-.065.449-.11.698-.11zm2.444-6.74c0 1.565-.771 2.906-1.865 3.485.339-1.404.53-2.967.53-4.603 0-.718-.039-1.413-.106-2.086.862.672 1.441 1.852 1.441 3.204zm-6.734-4.403c-5.156 0-9.351-2.662-9.351-5.934 0-3.273 4.195-5.935 9.351-5.935 5.157 0 9.352 2.663 9.352 5.935s-4.195 5.934-9.352 5.934zm9.994-7.613c-.376-.999-1.067-1.914-2.015-2.688.27-.189.592-.309.947-.309.931 0 1.69.758 1.69 1.69 0 .526-.243.997-.622 1.307z"
    class="iconic-social-reddit-body iconic-property-fill"></path>
    <circle cx="8.072" cy="11.195" r="1.503" class="iconic-social-reddit-eye iconic-social-reddit-eye-left iconic-property-fill"></circle>
    <circle cx="15" cy="11.195" r="1.503" class="iconic-social-reddit-eye iconic-social-reddit-eye-right iconic-property-fill"></circle>
    <path d="M15.27 15.061c-.188-.188-.493-.188-.682 0-.593.593-1.588.88-3.043.88-.004 0-.008.002-.013.003-.004 0-.008-.003-.013-.003-1.455 0-2.451-.288-3.043-.88-.188-.188-.493-.188-.682 0-.188.188-.188.493 0 .682.782.782 2.001 1.162 3.725 1.162.004 0 .008-.002.013-.003.004 0 .008.003.013.003 1.723 0 2.942-.38 3.725-1.162.188-.188.188-.493 0-.682z"
    class="iconic-social-reddit-mouth iconic-property-fill"></path>
  </g>
  <!-- Tumblr -->
  <!-- Twitter -->
  <!-- Vimeo -->
  <!-- YouTube -->
  <!-- Dribbble -->
  <!-- Dropbox -->
  <!-- Facebook -->
  <!-- Flickr -->
  <!-- Github -->
  <!-- Google Plus -->
  <!-- Instagram -->
  <!-- LinkedIn -->
  <!-- Pinterest -->
  <!-- Reddit -->
  <!-- Tumblr -->
  <!-- Twitter -->
  <!-- Vimeo -->
  <!-- YouTube -->
</svg>