<svg version="1.1" xmlns="http://www.w3.org/2000/svg" data-icon="social-reddit" width="16" height="16" class="iconic iconic-social iconic-size-sm iconic-social-reddit" viewBox="0 0 16 16">
  <g>
    <title>Social Reddit</title>
  </g>
  <!-- Dribbble -->
  <!-- Dropbox -->
  <!-- Facebook -->
  <!-- Flickr -->
  <!-- Github -->
  <!-- Google Plus -->
  <!-- Instagram -->
  <!-- LinkedIn -->
  <!-- Pinterest -->
  <!-- Reddit -->
  <!-- Tumblr -->
  <!-- Twitter -->
  <!-- Dribbble -->
  <!-- Dropbox -->
  <!-- Facebook -->
  <!-- Flickr -->
  <!-- Github -->
  <!-- Google Plus -->
  <!-- Instagram -->
  <!-- LinkedIn -->
  <!-- Pinterest -->
  <!-- Reddit -->
  <!-- Tumblr -->
  <!-- Twitter -->
  <!-- Vimeo -->
  <!-- YouTube -->
  <!-- Dribbble -->
  <!-- Dropbox -->
  <!-- Facebook -->
  <!-- Flickr -->
  <!-- Github -->
  <!-- Google Plus -->
  <!-- Instagram -->
  <!-- LinkedIn -->
  <!-- Pinterest -->
  <!-- Reddit -->
  <g data-width="12" data-height="16" class="iconic-container iconic-social-reddit" transform="scale(1 1 ) translate(2 ) ">
    <path d="M11.533 4.731c0-.732-.595-1.327-1.327-1.327-.34 0-.646.132-.88.344-.847-.549-1.973-.903-3.22-.962l.661-2.091 1.8.424c.013.594.498 1.074 1.095 1.074.605 0 1.096-.492 1.096-1.097s-.492-1.097-1.096-1.097c-.445 0-.826.267-.998.647l-2.004-.472c-.122-.029-.247.042-.285.162l-.772 2.442c-1.323.024-2.521.381-3.416.952-.231-.202-.53-.327-.861-.327-.731 0-1.326.595-1.326 1.327 0 .47.248.879.618 1.114-.021.125-.033.251-.033.379 0 1.27 1.034 2.378 2.566 2.977-.727.359-1.24 1.204-1.24 2.192 0 1.126.666 2.069 1.556 2.314.065.203.139.395.217.578-.024-.001-.048-.004-.072-.004-.806 0-1.462.552-1.462 1.231 0 .102.018.207.055.322.032.099.125.166.229.166h6.633c.105 0 .198-.07.23-.171.036-.113.053-.217.053-.317 0-.679-.656-1.231-1.462-1.231-.029 0-.058.004-.086.006.078-.182.151-.373.216-.575.899-.238 1.574-1.185 1.574-2.318 0-.991-.517-1.839-1.247-2.196 1.526-.6 2.556-1.706 2.556-2.973 0-.12-.01-.239-.028-.356.393-.23.66-.65.66-1.137zm-1.87-4.249c.339 0 .614.276.614.615s-.276.615-.614.615c-.339 0-.615-.276-.615-.615s.276-.615.615-.615zm-9.18 4.249c0-.466.379-.845.844-.845.166 0 .318.053.448.137-.474.382-.822.834-1.016 1.328-.169-.154-.277-.374-.277-.62zm7.365 4.639c.071.465.113.955.113 1.464 0 2.172-.703 4.125-1.678 4.685h-1.078c-.976-.56-1.678-2.512-1.678-4.685 0-.509.042-.999.113-1.464.643.193 1.355.303 2.104.303.75 0 1.461-.11 2.105-.304zm-5.455 2.023c0-.667.281-1.25.703-1.589-.033.332-.051.675-.051 1.03 0 .814.095 1.591.262 2.29-.536-.295-.913-.958-.913-1.731zm.239 4.125c0-.002 0-.004 0-.006 0-.413.44-.749.98-.749.118 0 .228.021.332.05.154.271.323.509.507.705h-1.819zm5.256-.755c.54 0 .98.336.98.749 0 .002 0 .004 0 .006h-1.833c.183-.195.351-.43.504-.7.109-.033.225-.055.349-.055zm1.222-3.37c0 .782-.385 1.453-.932 1.743.169-.702.265-1.483.265-2.302 0-.359-.019-.707-.053-1.043.431.336.721.926.721 1.602zm-3.367-2.202c-2.578 0-4.675-1.331-4.675-2.967 0-1.637 2.097-2.968 4.675-2.968 2.579 0 4.676 1.331 4.676 2.968 0 1.636-2.098 2.967-4.676 2.967zm4.997-3.807c-.188-.499-.534-.957-1.008-1.344.135-.095.296-.154.474-.154.466 0 .845.379.845.845 0 .263-.121.498-.311.653z"
    class="iconic-social-reddit-body iconic-property-fill"></path>
    <circle cx="4.036" cy="5.598" r=".751" class="iconic-social-reddit-eye iconic-social-reddit-eye-left iconic-property-fill"></circle>
    <circle cx="7.5" cy="5.598" r=".751" class="iconic-social-reddit-eye iconic-social-reddit-eye-right iconic-property-fill"></circle>
    <path d="M7.635 7.531c-.094-.094-.246-.094-.341 0-.296.296-.794.44-1.522.44-.002 0-.004.001-.006.001s-.004-.001-.006-.001c-.728 0-1.226-.144-1.522-.44-.094-.094-.247-.094-.341 0-.094.094-.094.247 0 .341.391.391 1 .581 1.862.581.002 0 .004-.001.006-.001s.004.001.006.001c.862 0 1.471-.19 1.863-.581.094-.094.094-.247 0-.341z"
    class="iconic-social-reddit-mouth iconic-property-fill"></path>
  </g>
  <!-- Tumblr -->
  <!-- Twitter -->
  <!-- Vimeo -->
  <!-- YouTube -->
</svg>