<svg version="1.1" xmlns="http://www.w3.org/2000/svg" data-icon="social-youtube" width="16" height="16" class="iconic iconic-social iconic-size-sm iconic-social-youtube" viewBox="0 0 16 16">
  <g>
    <title>Social Youtube</title>
  </g>
  <!-- Dribbble -->
  <!-- Dropbox -->
  <!-- Facebook -->
  <!-- Flickr -->
  <!-- Github -->
  <!-- Google Plus -->
  <!-- Instagram -->
  <!-- LinkedIn -->
  <!-- Pinterest -->
  <!-- Reddit -->
  <!-- Tumblr -->
  <!-- Twitter -->
  <!-- Dribbble -->
  <!-- Dropbox -->
  <!-- Facebook -->
  <!-- Flickr -->
  <!-- Github -->
  <!-- Google Plus -->
  <!-- Instagram -->
  <!-- LinkedIn -->
  <!-- Pinterest -->
  <!-- Reddit -->
  <!-- Tumblr -->
  <!-- Twitter -->
  <!-- Vimeo -->
  <!-- YouTube -->
  <!-- Dribbble -->
  <!-- Dropbox -->
  <!-- Facebook -->
  <!-- Flickr -->
  <!-- Github -->
  <!-- Google Plus -->
  <!-- Instagram -->
  <!-- LinkedIn -->
  <!-- Pinterest -->
  <!-- Reddit -->
  <!-- Tumblr -->
  <!-- Twitter -->
  <!-- Vimeo -->
  <!-- YouTube -->
  <g data-width="16" data-height="7" class="iconic-container iconic-social-youtube" transform="scale(1 1 ) translate(0 4 ) ">
    <path d="M5.972 5.403h-.607v-.351c-.23.264-.425.397-.638.397-.186 0-.316-.088-.381-.247-.04-.097-.067-.248-.067-.469v-2.555h.607v2.395c0 .136 0 .192 0 .224.014.09.052.122.129.122.116 0 .221-.101.35-.282v-2.459h.607v3.225z" class="iconic-social-youtube-you iconic-social-youtube-you-u iconic-property-fill"></path>
    <path d="M3.832 3.232c0-.345-.069-.604-.192-.766-.162-.221-.415-.311-.671-.311-.289 0-.509.09-.671.311-.124.163-.191.425-.191.769l-.001 1.147c0 .343.059.58.184.741.161.22.423.336.679.336s.522-.117.683-.336c.122-.161.179-.398.179-.741v-1.15zm-.607 1.213c.032.319-.067.478-.256.478-.188 0-.287-.159-.255-.478v-1.277c-.032-.319.067-.469.256-.469.188 0 .288.15.256.469v1.277z"
    class="iconic-social-youtube-you iconic-social-youtube-you-o iconic-property-fill"></path>
    <path d="M1.437 3.647v1.756h-.639v-1.756s-.662-2.153-.798-2.555h.671l.448 1.682.446-1.682h.671l-.798 2.555z" class="iconic-social-youtube-you iconic-social-youtube-you-y iconic-property-fill"></path>
    <path d="M12.454 3.104v1.373c0 .319-.075.442-.242.442-.095 0-.205-.049-.301-.146l.001-1.937c.097-.095.206-.146.301-.146.167 0 .242.094.242.413zm2.14-.029c0-.295-.076-.384-.268-.384-.193 0-.275.081-.275.38v.353l.543-.001v-.349zm1.406-.098v.72c0 .768-.095 1.536-.095 1.536s-.093.654-.379.942c-.363.378-.769.38-.956.402-1.334.096-3.338.099-3.338.099s-2.479-.023-3.242-.095c-.212-.04-.689-.028-1.051-.406-.286-.288-.379-.942-.379-.942s-.095-.768-.095-1.536v-.72c0-.768.095-1.536.095-1.536s.093-.654.379-.942c.363-.378.769-.38.955-.402 1.334-.096 3.336-.096 3.336-.096h.004s2.002 0 3.336.096c.186.022.593.024.956.402.286.288.379.942.379.942s.095.768.095 1.536zm-7.441-1.246h.702v-.607l-2.012.001v.606h.671v3.672h.639v-3.673zm2.299.479h-.607v2.427c-.128.181-.234.282-.35.282-.077 0-.115-.033-.129-.122 0-.032 0-.088 0-.224v-2.363h-.607v2.523c0 .222.028.373.067.469.065.159.194.247.381.247.213 0 .407-.133.638-.397v.351h.607v-3.193zm2.204.958c0-.302-.039-.509-.077-.637-.077-.239-.232-.372-.462-.372-.213 0-.424.131-.611.361l.001-1.395h-.575v4.279h.575l.001-.322c.193.239.404.363.609.363.23 0 .398-.123.476-.36.039-.135.064-.344.064-.639v-1.277zm.99 1.308v-.573h1.151v-.653c0-.341-.067-.591-.188-.752-.162-.218-.392-.334-.682-.334-.295 0-.525.116-.693.334-.123.161-.195.425-.195.766v1.118c0 .339.079.577.202.736.167.218.397.327.7.327.302 0 .539-.114.699-.346.07-.102.116-.218.135-.346.005-.058.021-.19.021-.376v-.09h-.607c0 .232.001.37-.004.401-.033.155-.116.232-.258.232-.198 0-.282-.148-.28-.443z"
    class="iconic-social-youtube-tube iconic-property-fill"></path>
  </g>
</svg>