<svg version="1.1" xmlns="http://www.w3.org/2000/svg" data-icon="social-youtube" width="32" height="32" class="iconic iconic-social iconic-size-md iconic-social-youtube" viewBox="0 0 32 32">
  <g>
    <title>Social Youtube</title>
  </g>
  <!-- Dribbble -->
  <!-- Dropbox -->
  <!-- Facebook -->
  <!-- Flickr -->
  <!-- Github -->
  <!-- Google Plus -->
  <!-- Instagram -->
  <!-- LinkedIn -->
  <!-- Pinterest -->
  <!-- Reddit -->
  <!-- Tumblr -->
  <!-- Twitter -->
  <!-- Dribbble -->
  <!-- Dropbox -->
  <!-- Facebook -->
  <!-- Flickr -->
  <!-- Github -->
  <!-- Google Plus -->
  <!-- Instagram -->
  <!-- LinkedIn -->
  <!-- Pinterest -->
  <!-- Reddit -->
  <!-- Tumblr -->
  <!-- Twitter -->
  <!-- Vimeo -->
  <!-- YouTube -->
  <g data-width="32" data-height="14" class="iconic-container iconic-social-youtube" transform="scale(1 1 ) translate(0 9 ) ">
    <path d="M11.944 10.806h-1.214v-.703c-.46.527-.85.794-1.275.794-.373 0-.632-.176-.762-.494-.079-.193-.135-.495-.135-.939v-5.109h1.213v4.79c0 .271 0 .383 0 .447.028.179.104.245.259.245.232 0 .443-.202.699-.564v-4.918h1.214v6.451z" class="iconic-social-youtube-you iconic-social-youtube-you-u iconic-property-fill"></path>
    <path d="M7.664 6.463c0-.689-.139-1.207-.383-1.533-.323-.441-.83-.622-1.341-.622-.578 0-1.018.181-1.341.622-.249.326-.382.849-.382 1.538l-.001 2.294c0 .685.119 1.159.367 1.482.323.44.846.673 1.357.673s1.044-.233 1.367-.673c.245-.323.358-.796.358-1.482v-2.299zm-1.213 2.427c.064.639-.134.956-.511.956s-.575-.317-.511-.956v-2.555c-.064-.639.134-.938.511-.938s.575.299.512.938l-.001 2.555z"
    class="iconic-social-youtube-you iconic-social-youtube-you-o iconic-property-fill"></path>
    <path d="M2.874 7.294v3.513h-1.277v-3.513s-1.324-4.307-1.597-5.109h1.341l.896 3.364.892-3.364h1.341l-1.597 5.109z" class="iconic-social-youtube-you iconic-social-youtube-you-y iconic-property-fill"></path>
    <path d="M24.909 6.208v2.746c0 .639-.151.883-.484.883-.19 0-.41-.098-.603-.291l.001-3.873c.193-.191.411-.291.602-.291.334 0 .484.188.484.826zm4.279-.059c0-.59-.153-.768-.536-.768-.386 0-.55.163-.55.76v.706l1.086-.001v-.697zm2.812-.196v1.44c0 1.536-.191 3.073-.191 3.073s-.186 1.308-.758 1.885c-.725.756-1.538.76-1.911.804-2.669.192-6.676.198-6.676.198s-4.959-.045-6.484-.191c-.424-.079-1.378-.055-2.103-.811-.572-.576-.758-1.885-.758-1.885s-.191-1.536-.191-3.073v-1.441c0-1.536.191-3.073.191-3.073s.186-1.308.758-1.885c.725-.756 1.538-.76 1.911-.804 2.669-.192 6.672-.192 6.672-.192h.008s4.003 0 6.672.192c.373.044 1.186.048 1.911.804.572.576.758 1.885.758 1.885s.19 1.536.19 3.073zm-14.883-2.492h1.405v-1.213l-4.024.001v1.212h1.341v7.345h1.277v-7.345zm4.599.958h-1.214v4.854c-.257.362-.467.564-.699.564-.154 0-.23-.066-.259-.245 0-.064 0-.176 0-.447v-4.726h-1.214v5.046c0 .443.056.745.135.939.13.318.389.494.762.494.425 0 .815-.266 1.275-.794v.703h1.214v-6.387zm4.407 1.916c0-.605-.077-1.018-.155-1.275-.154-.478-.464-.744-.924-.744-.425 0-.848.262-1.222.721l.001-2.79h-1.15v8.559h1.15l.002-.643c.386.478.808.725 1.219.725.46 0 .797-.246.951-.721.077-.271.128-.687.128-1.277v-2.555zm1.98 2.616v-1.147h2.301v-1.306c0-.682-.134-1.181-.376-1.504-.324-.437-.784-.668-1.365-.668-.59 0-1.051.231-1.385.668-.246.323-.389.85-.389 1.532v2.235c0 .678.158 1.153.403 1.472.334.436.795.654 1.4.654.604 0 1.079-.228 1.399-.692.141-.205.231-.436.27-.693.01-.116.041-.38.041-.752v-.181h-1.214c0 .464.002.74-.009.803-.066.309-.232.464-.517.464-.397 0-.564-.297-.56-.886z"
    class="iconic-social-youtube-tube iconic-property-fill"></path>
  </g>
  <!-- Dribbble -->
  <!-- Dropbox -->
  <!-- Facebook -->
  <!-- Flickr -->
  <!-- Github -->
  <!-- Google Plus -->
  <!-- Instagram -->
  <!-- LinkedIn -->
  <!-- Pinterest -->
  <!-- Reddit -->
  <!-- Tumblr -->
  <!-- Twitter -->
  <!-- Vimeo -->
  <!-- YouTube -->
</svg>