<svg version="1.1" xmlns="http://www.w3.org/2000/svg" data-icon="social-instagram" width="16" height="16" class="iconic iconic-social iconic-size-sm iconic-social-instagram" viewBox="0 0 16 16">
  <g>
    <title>Social Instagram</title>
  </g>
  <!-- Dribbble -->
  <!-- Dropbox -->
  <!-- Facebook -->
  <!-- Flickr -->
  <!-- Github -->
  <!-- Google Plus -->
  <!-- Instagram -->
  <!-- LinkedIn -->
  <!-- Pinterest -->
  <!-- Reddit -->
  <!-- Tumblr -->
  <!-- Twitter -->
  <!-- Dribbble -->
  <!-- Dropbox -->
  <!-- Facebook -->
  <!-- Flickr -->
  <!-- Github -->
  <!-- Google Plus -->
  <!-- Instagram -->
  <!-- LinkedIn -->
  <!-- Pinterest -->
  <!-- Reddit -->
  <!-- Tumblr -->
  <!-- Twitter -->
  <!-- Vimeo -->
  <!-- YouTube -->
  <!-- Dribbble -->
  <!-- Dropbox -->
  <!-- Facebook -->
  <!-- Flickr -->
  <!-- Github -->
  <!-- Google Plus -->
  <!-- Instagram -->
  <g data-width="16" data-height="16" class="iconic-container iconic-social-instagram" transform="scale(1 1 ) translate(0 ) ">
    <path fill-rule="evenodd" clip-rule="evenodd" d="M2.054 0h11.893c1.13 0 2.054.924 2.054 2.054v11.893c0 1.13-.924 2.054-2.054 2.054h-11.893c-1.129 0-2.054-.924-2.054-2.054v-11.893c0-1.129.924-2.054 2.054-2.054zm9.602 1.778c-.396 0-.72.324-.72.72v1.724c0 .396.324.72.72.72h1.808c.396 0 .72-.324.72-.72v-1.724c0-.396-.324-.72-.72-.72h-1.809zm2.536 4.989h-1.408c.133.435.205.896.205 1.373 0 2.661-2.227 4.819-4.973 4.819-2.747 0-4.973-2.157-4.973-4.819 0-.477.072-.938.205-1.373h-1.469v6.759c0 .35.286.636.636.636h11.142c.35 0 .636-.286.636-.636v-6.759zm-6.176-1.915c-1.775 0-3.213 1.394-3.213 3.114s1.439 3.114 3.213 3.114c1.775 0 3.213-1.394 3.213-3.114s-1.439-3.114-3.213-3.114z"
    class="iconic-property-fill"></path>
  </g>
  <!-- LinkedIn -->
  <!-- Pinterest -->
  <!-- Reddit -->
  <!-- Tumblr -->
  <!-- Twitter -->
  <!-- Vimeo -->
  <!-- YouTube -->
</svg>