<svg version="1.1" xmlns="http://www.w3.org/2000/svg" width="128" height="128" data-icon="syringe" class="iconic iconic-syringe iconic-size-lg" viewBox="0 0 128 128">
  <g class="iconic-metadata">
    <title>Syringe</title>
  </g>
  <g class="iconic-container" data-width="126" data-height="128" transform="translate(1)">
    <path class="iconic-syringe-needle iconic-property-accent iconic-property-fill" d="M44 84l-44 44v-3.627l42-42.373z" />
    <path transform="matrix(-.707 .707 -.707 -.707 197.449 -46.493)" class="iconic-syringe-plunger iconic-syringe-plunger-main iconic-property-fill" d="M97.54 9.161h21.628v16.971h-21.628z" />
    <path stroke="#000" stroke-width="4" stroke-linecap="round" class="iconic-syringe-plunger iconic-syringe-plunger-top iconic-property-stroke" fill="none" d="M108 2l16 16" />
    <path transform="matrix(.707 -.707 .707 .707 -47.096 54.301)" class="iconic-syringe-tube iconic-syringe-tube-base iconic-property-fill" d="M37.757 76.929h8.485v14.142h-8.485z" />
    <path d="M89 19l-12.293 12.293 5 5c.391.391.391 1.023 0 1.414-.195.195-.451.293-.707.293s-.512-.098-.707-.293l-5-5-4.586 4.586 3 3c.391.391.391 1.023 0 1.414-.195.195-.451.293-.707.293s-.512-.098-.707-.293l-3-3-4.586 4.586 3 3c.391.391.391 1.023 0 1.414-.195.195-.451.293-.707.293s-.512-.098-.707-.293l-3-3-4.586 4.586 5 5c.391.391.391 1.023 0 1.414-.195.195-.451.293-.707.293s-.512-.098-.707-.293l-5-5-4.586 4.586 3 3c.391.391.391 1.023 0 1.414-.195.195-.451.293-.707.293s-.512-.098-.707-.293l-3-3-4.586 4.586 3 3c.391.391.391 1.023 0 1.414-.195.195-.451.293-.707.293s-.512-.098-.707-.293l-3-3-4.586 4.586 5 5c.391.391.391 1.023 0 1.414-.195.195-.451.293-.707.293s-.512-.098-.707-.293l-5-5-5.293 5.293 18 18 55-55-18-18z"
    class="iconic-syringe-tube-main iconic-property-fill" />
    <path stroke="#000" stroke-width="4" stroke-linecap="round" class="iconic-syringe-tube iconic-syringe-tube-top iconic-property-stroke" fill="none" d="M80 10l34 34" />
  </g>
</svg>