<svg version="1.1" xmlns="http://www.w3.org/2000/svg" width="32" height="32" data-icon="tag" class="iconic iconic-tag iconic-size-md" viewBox="0 0 32 32">
  <g class="iconic-metadata">
    <title>Tag</title>
  </g>
  <defs>
    <clipPath id="iconic-size-md-tag-clip-0">
      <path d="M12 0h-12v12.01l20 19.99 12-12-20-20zm-5.5 9c-1.381 0-2.5-1.119-2.5-2.5s1.119-2.5 2.5-2.5 2.5 1.119 2.5 2.5-1.119 2.5-2.5 2.5z" />
    </clipPath>
  </defs>
  <g class="iconic-container" data-width="32" data-height="32">
    <path d="M11.5 0h-11c-.276 0-.5.224-.5.5v11.01c0 .276.158.658.354.854l19.293 19.283c.195.195.512.195.707 0l11.293-11.293c.195-.195.195-.512 0-.707l-19.293-19.293c-.195-.195-.578-.354-.854-.354z" clip-path="url(#iconic-size-md-tag-clip-0)" class="iconic-property-fill"
    />
  </g>
</svg>