<svg version="1.1" xmlns="http://www.w3.org/2000/svg" width="128" height="128" data-icon="tag" class="iconic iconic-tag iconic-size-lg" viewBox="0 0 128 128">
  <g class="iconic-metadata">
    <title>Tag</title>
  </g>
  <defs>
    <clipPath id="iconic-size-lg-tag-clip-0">
      <path d="M48 0h-48v48l80 80 48-48-80-80zm-22 34c-4.418 0-8-3.582-8-8s3.582-8 8-8 8 3.582 8 8-3.582 8-8 8z" />
    </clipPath>
  </defs>
  <g class="iconic-container" data-width="128" data-height="128">
    <path d="M46.5 0h-45c-.828 0-1.5.672-1.5 1.5v45c0 .828.475 1.975 1.061 2.561l77.879 77.879c.586.586 1.536.586 2.121 0l45.879-45.879c.586-.586.586-1.536 0-2.121l-77.879-77.879c-.586-.586-1.732-1.061-2.561-1.061z" clip-path="url(#iconic-size-lg-tag-clip-0)"
    class="iconic-property-fill" />
  </g>
</svg>