<svg version="1.1" xmlns="http://www.w3.org/2000/svg" width="32" height="32" data-icon="tags" class="iconic iconic-tags iconic-size-md" viewBox="0 0 32 32">
  <g class="iconic-metadata">
    <title>Tags</title>
  </g>
  <defs>
    <clipPath id="iconic-size-md-tags-clip-0">
      <path d="M32 16l-17-16h-3l17 16-8.5 8.5 1.5 1.5z" />
    </clipPath>
    <clipPath id="iconic-size-md-tags-clip-1">
      <path d="M10 0h-10v10l17 16 10-10-17-16zm-4 8c-1.105 0-2-.895-2-2s.895-2 2-2 2 .895 2 2-.895 2-2 2z" />
    </clipPath>
  </defs>
  <g class="iconic-container" data-width="32" data-height="26" transform="translate(0 3)">
    <path d="M5 .5v9c0 .276.163.653.364.843l16.272 15.315c.201.189.522.184.718-.011l9.293-9.293c.195-.195.191-.507-.011-.696l-16.272-15.315c-.201-.189-.588-.343-.864-.343h-9c-.276 0-.5.224-.5.5z" clip-path="url(#iconic-size-md-tags-clip-0)" class="iconic-tags-back iconic-property-accent iconic-property-fill"
    />
    <path d="M9.5 0h-9c-.276 0-.5.224-.5.5v9c0 .276.163.653.364.843l16.272 15.315c.201.189.522.184.718-.011l9.293-9.293c.195-.195.191-.507-.011-.696l-16.272-15.315c-.201-.189-.588-.343-.864-.343z" clip-path="url(#iconic-size-md-tags-clip-1)" class="iconic-tags-front iconic-property-fill"
    />
  </g>
</svg>