<svg version="1.1" xmlns="http://www.w3.org/2000/svg" width="128" height="128" data-icon="task" class="iconic iconic-task iconic-size-lg" viewBox="0 0 128 128">
  <g class="iconic-metadata">
    <title>Task</title>
  </g>
  <defs>
    <clipPath id="iconic-size-lg-task-clip-0">
      <path d="M27.718 48.407l-20.097-22.307 8.529-8.441 9.611 11.733 25.393-25.393h-51.154v56h56v-39.875z" />
    </clipPath>
  </defs>
  <g class="iconic-container" data-width="128" data-height="60" transform="translate(0 34)">
    <path clip-path="url(#iconic-size-lg-task-clip-0)" stroke="#000" stroke-width="4" d="M52.5 58h-49c-.828 0-1.5-.672-1.5-1.5v-49c0-.828.672-1.5 1.5-1.5h49c.828 0 1.5.672 1.5 1.5v49c0 .828-.672 1.5-1.5 1.5z" class="iconic-task-check iconic-task-check-box iconic-property-stroke"
    fill="none" />
    <path stroke="#000" stroke-width="8" class="iconic-task-check iconic-task-check-mark iconic-property-accent iconic-property-stroke" fill="none" d="M11.886 21.88l15.854 16.02 33.817-33.817" />
    <path stroke="#000" stroke-width="4" class="iconic-task-line iconic-task-line-3 iconic-property-stroke" fill="none" d="M68 42h54" />
    <path stroke="#000" stroke-width="4" class="iconic-task-line iconic-task-line-2 iconic-property-stroke" fill="none" d="M68 30h50" />
    <path stroke="#000" stroke-width="4" class="iconic-task-line iconic-task-line-1 iconic-property-stroke" fill="none" d="M68 18h60" />
  </g>
</svg>