<svg version="1.1" xmlns="http://www.w3.org/2000/svg" width="16" height="16" data-icon="timer" class="iconic iconic-timer iconic-size-sm" viewBox="0 0 16 16">
  <g class="iconic-metadata">
    <title>Timer</title>
  </g>
  <defs>
    <clipPath id="iconic-size-sm-timer-clip-0">
      <path d="M13.783 3.622l-5.324 6.707-.036.045-.04.04c-.378.378-.88.586-1.414.586-.534 0-1.036-.208-1.414-.586s-.586-.88-.586-1.414.208-1.036.586-1.414l.042-.042.047-.037 6.738-5.293.272-.214h-12.654v14h14v-12.651l-.217.273z" />
    </clipPath>
  </defs>
  <g class="iconic-container" data-width="14" data-height="16" transform="translate(1)">
    <path class="iconic-timer-stop-button iconic-timer-stop-button-base iconic-property-fill" d="M6 0h2v3h-2z" />
    <path class="iconic-timer-stop-button iconic-timer-stop-button-top iconic-property-fill" d="M5 0h4v1h-4z" />
    <path d="M6.262 8.293c-.391.391-.391 1.024 0 1.414s1.024.391 1.414 0l5.324-6.707-6.738 5.293z" class="iconic-timer-needle iconic-property-fill" />
    <circle clip-path="url(#iconic-size-sm-timer-clip-0)" stroke="#000" stroke-width="2" cx="7" cy="9" r="6" class="iconic-timer-body iconic-property-stroke" fill="none" />
  </g>
</svg>