<svg version="1.1" xmlns="http://www.w3.org/2000/svg" width="16" height="16" data-icon="tint" class="iconic iconic-tint iconic-size-sm" viewBox="0 0 16 16">
  <g class="iconic-metadata">
    <title>Tint</title>
  </g>
  <defs>
    <clipPath id="iconic-size-sm-tint-clip-0">
      <path d="M0 0v16h12v-16h-12zm6 14c-2.505 0-4-1.495-4-4 0-.552.448-1 1-1s1 .448 1 1c0 .931.228 2 2 2 .552 0 1 .448 1 1s-.448 1-1 1z" />
    </clipPath>
  </defs>
  <g class="iconic-container" data-width="12" data-height="16" transform="translate(2)">
    <path d="M12 10c0 4-2.844 6-6 6s-6-2-6-6c0-4.571 6-10 6-10s6 5.429 6 10z" clip-path="url(#iconic-size-sm-tint-clip-0)" class="iconic-tint-drop iconic-property-fill" />
  </g>
</svg>