<svg version="1.1" xmlns="http://www.w3.org/2000/svg" width="128" height="128" data-icon="tools" class="iconic iconic-tools iconic-size-lg" viewBox="0 0 128 128">
  <g class="iconic-metadata">
    <title>Tools</title>
  </g>
  <defs>
    <clipPath id="iconic-size-lg-tools-clip-0">
      <path d="M0 0v128h128v-128h-128zm76.548 84.635l-68.49-68.491 4.029-4.029 68.49 68.491-4.029 4.029zm4.029-4.087l-64.462-64.462 4.029-4.029 64.462 64.462-4.029 4.029z" />
    </clipPath>
  </defs>
  <g class="iconic-container" data-width="128" data-height="128">
    <path class="iconic-tools-screwdriver iconic-tools-screwdriver-head iconic-property-accent iconic-property-fill" d="M16.115 20.144l57.462 57.462 4.029-4.029-57.462-57.462-2.029-8.058-14.087-8.058-4.029 4.029 8.058 14.087z" />
    <path d="M123.983 108.017l-35.983-36.017h-4l-2-2v-2l-2-2-14 14 2 2h2l2 2v4l36.017 35.983c2.079 2.454 5.179 4.017 8.648 4.017 6.26 0 11.335-5.075 11.335-11.335 0-3.469-1.562-6.569-4.017-8.648zm-12.276 13.69c-.195.195-.451.293-.707.293s-.512-.098-.707-.293l-34-34c-.391-.391-.391-1.023 0-1.414s1.023-.391 1.414 0l34 34c.391.391.391 1.024 0 1.414zm6-4c-.195.195-.451.293-.707.293s-.512-.098-.707-.293l-34-34c-.391-.391-.391-1.023 0-1.414s1.023-.391 1.414 0l34 34c.391.391.391 1.024 0 1.414zm4-6c-.195.195-.451.293-.707.293s-.512-.098-.707-.293l-34-34c-.391-.391-.391-1.023 0-1.414s1.023-.391 1.414 0l34 34c.391.391.391 1.024 0 1.414z"
    class="iconic-tools-screwdriver iconic-tools-screwdriver-handle iconic-property-accent iconic-property-fill" />
    <path clip-path="url(#iconic-size-lg-tools-clip-0)" d="M127.646 31.646l-1.293-1.293c-.673-.673-1.715-1.715-2.353-2.353-4-4-6 0-10-4s-2-8-6-12c-12-12-16-12-40-12 28 12.125 19.938 24.063 16 28l-36 36 8 8 36-36c5.875-5.875 7.875-6.125 12-2 4.083 4.083 0 6 4 10 1 1 3 3 3 3l.646.646c.195.195.513.195.707 0l15.293-15.293c.195-.194.195-.513 0-.707z"
    class="iconic-tools-hammer iconic-tools-hammer-head iconic-property-fill" />
    <path d="M57.154 52.949l-6.308 2.103c-1.572.524-3.796 1.898-4.967 3.07l-43.757 43.757c-1.172 1.172-1.521 3.323-.78 4.805l9.317 18.633c.741 1.482 2.088 1.567 3.009.189l4.728-7.074c.921-1.377 2.617-3.444 3.788-4.615l39.695-39.695c1.172-1.172 2.538-3.398 3.052-4.973l2.014-6.171c.514-1.575 1.854-3.775 2.993-4.915s1.113-3.012-.059-4.184l-3.757-3.757c-1.171-1.172-3.017-1.226-4.121-.121s-3.274 2.425-4.846 2.949z"
    clip-path="url(#iconic-size-lg-tools-clip-0)" class="iconic-tools-hammer iconic-tools-hammer-handle iconic-property-fill" />
  </g>
</svg>