<svg version="1.1" xmlns="http://www.w3.org/2000/svg" width="16" height="16" data-icon="trash" class="iconic iconic-trash iconic-size-sm" viewBox="0 0 16 16">
  <g class="iconic-metadata">
    <title>Trash</title>
  </g>
  <defs>
    <clipPath id="iconic-size-sm-trash-clip-0">
      <path d="M11 5v8.5c0 .276-.224.5-.5.5s-.5-.224-.5-.5v-8.5h-2v8.5c0 .276-.224.5-.5.5s-.5-.224-.5-.5v-8.5h-2v8.5c0 .276-.224.5-.5.5s-.5-.224-.5-.5v-8.5h-2v11h11v-11h-2z" />
    </clipPath>
  </defs>
  <g class="iconic-container" data-width="15" data-height="16">
    <path clip-path="url(#iconic-size-sm-trash-clip-0)" d="M12.5 16h-10c-.276 0-.5-.224-.5-.5v-12c0-.276.224-.5.5-.5h10c.276 0 .5.224.5.5v12c0 .276-.224.5-.5.5z" class="iconic-trash-can iconic-property-fill" />
    <path stroke="#000" d="M5.5 2.958v-2.208c0-.138.112-.25.25-.25h3.5c.138 0 .25.112.25.25v2.208" class="iconic-trash-lid iconic-trash-lid-handle iconic-property-accent iconic-property-stroke" fill="none" />
    <path d="M15 4c0-1.105-.895-2-2-2h-11c-1.105 0-2 .895-2 2h15z" class="iconic-trash-lid iconic-property-fill" />
  </g>
</svg>