<svg version="1.1" xmlns="http://www.w3.org/2000/svg" width="32" height="32" data-icon="trash" class="iconic iconic-trash iconic-size-md" viewBox="0 0 32 32">
  <g class="iconic-metadata">
    <title>Trash</title>
  </g>
  <defs>
    <clipPath id="iconic-size-md-trash-clip-0">
      <path d="M23 7v21.5c0 .276-.224.5-.5.5s-.5-.224-.5-.5v-21.5h-3v21.5c0 .276-.224.5-.5.5s-.5-.224-.5-.5v-21.5h-3v21.5c0 .276-.224.5-.5.5s-.5-.224-.5-.5v-21.5h-3v21.5c0 .276-.224.5-.5.5s-.5-.224-.5-.5v-21.5h-3v21.5c0 .276-.224.5-.5.5s-.5-.224-.5-.5v-21.5h-3v25h23v-25h-3z"
      />
    </clipPath>
  </defs>
  <g class="iconic-container" data-width="29" data-height="32" transform="translate(1)">
    <path clip-path="url(#iconic-size-md-trash-clip-0)" d="M25 32h-21c-.552 0-1-.448-1-1v-25c0-.552.448-1 1-1h21c.552 0 1 .448 1 1v25c0 .552-.448 1-1 1z" class="iconic-trash-can iconic-property-fill" />
    <path stroke="#000" d="M11.5 3.958v-2.958c0-.276.224-.5.5-.5h5c.276 0 .5.224.5.5v2.958" class="iconic-trash-lid iconic-trash-lid-handle iconic-property-accent iconic-property-stroke" fill="none" />
    <path d="M26 3h-3c0-.552-.448-1-1-1h-15c-.552 0-1 .448-1 1h-3c-1.657 0-3 1.343-3 3h29c0-1.657-1.343-3-3-3z" class="iconic-trash-lid iconic-property-fill" />
  </g>
</svg>