<svg version="1.1" xmlns="http://www.w3.org/2000/svg" width="16" height="16" data-icon="warning" class="iconic iconic-warning iconic-size-sm" viewBox="0 0 16 16">
  <g class="iconic-metadata">
    <title>Warning</title>
  </g>
  <defs>
    <clipPath id="iconic-size-sm-warning-clip-0">
      <path d="M0 0v16h16v-16h-16zm8 14c-.552 0-1-.448-1-1s.448-1 1-1 1 .448 1 1-.448 1-1 1zm1-5l-1 1-1-1v-4h2v4z" />
    </clipPath>
  </defs>
  <g class="iconic-container" data-width="16" data-height="16">
    <path d="M0 15.75v-1.5c0-.138.05-.35.112-.474l6.776-13.553c.062-.123.224-.224.362-.224h1.5c.138 0 .3.1.362.224l6.776 13.553c.062.124.112.336.112.474v1.5c0 .138-.112.25-.25.25h-15.5c-.138 0-.25-.112-.25-.25z" clip-path="url(#iconic-size-sm-warning-clip-0)"
    class="iconic-warning-body iconic-property-fill" />
  </g>
</svg>