<svg version="1.1" xmlns="http://www.w3.org/2000/svg" width="128" height="128" data-icon="warning" class="iconic iconic-warning iconic-size-lg" viewBox="0 0 128 128">
  <g class="iconic-metadata">
    <title>Warning</title>
  </g>
  <defs>
    <clipPath id="iconic-size-lg-warning-clip-0">
      <path d="M0 0v118h128v-118h-128zm64 98c-2.209 0-4-1.791-4-4s1.791-4 4-4 4 1.791 4 4-1.791 4-4 4zm4-29.833l-2 13.833h-4l-2-13.917v-18.083h8v18.167z" />
    </clipPath>
  </defs>
  <g class="iconic-container" data-width="128" data-height="118" transform="translate(0 5)">
    <path d="M.715 116.681l62.57-115.363c.395-.728 1.035-.728 1.43 0l62.57 115.363c.395.728.044 1.319-.785 1.319h-125c-.828 0-1.18-.59-.785-1.319z" clip-path="url(#iconic-size-lg-warning-clip-0)" class="iconic-warning-body iconic-property-fill" />
  </g>
</svg>