<svg version="1.1" xmlns="http://www.w3.org/2000/svg" width="32" height="32" data-icon="wrench" class="iconic iconic-wrench iconic-size-md" viewBox="0 0 32 32">
  <g class="iconic-metadata">
    <title>Wrench</title>
  </g>
  <g class="iconic-container" data-width="32" data-height="32">
    <path d="M31.677 5.323l-3.677 3.677h-5v-5l3.677-3.677c-.689-.209-1.419-.323-2.177-.323-4.142 0-7.5 3.358-7.5 7.5 0 2.168-.879 4.079-2.3 5.5l-13.821 13.879c-1.172 1.171-1.172 3.071 0 4.242.586.586 1.354.879 2.121.879s1.536-.293 2.121-.879l13.879-13.825v.004c1.421-1.421 3.332-2.3 5.5-2.3 4.142 0 7.5-3.358 7.5-7.5 0-.757-.115-1.487-.323-2.177zm-28.677 25.177c-.828 0-1.5-.672-1.5-1.5s.672-1.5 1.5-1.5 1.5.672 1.5 1.5-.672 1.5-1.5 1.5z"
    class="iconic-property-fill" />
  </g>
</svg>