<svg version="1.1" xmlns="http://www.w3.org/2000/svg" width="16" height="16" data-icon="wrench" class="iconic iconic-wrench iconic-size-sm" viewBox="0 0 16 16">
  <g class="iconic-metadata">
    <title>Wrench</title>
  </g>
  <g class="iconic-container" data-width="16" data-height="16">
    <path d="M15.892 3.108l-1.892 1.892h-3v-3l1.892-1.892c-.288-.066-.584-.108-.892-.108-2.209 0-4 1.791-4 4 0 .764-.305 1.454-.794 1.966l-6.62 6.62c-.781.781-.781 2.047 0 2.828.39.391.902.586 1.414.586s1.024-.195 1.414-.586l6.62-6.62c.512-.489 1.202-.794 1.966-.794 2.209 0 4-1.791 4-4 0-.308-.042-.604-.108-.892zm-13.892 11.892c-.552 0-1-.448-1-1s.448-1 1-1 1 .448 1 1-.448 1-1 1z"
    class="iconic-property-fill" />
  </g>
</svg>