<svg version="1.1" xmlns="http://www.w3.org/2000/svg" width="32" height="32" data-icon="cogs" class="iconic iconic-cogs iconic-size-md" viewBox="0 0 32 32">
  <g class="iconic-metadata">
    <title>Cogs</title>
  </g>
  <g class="iconic-container" data-width="32" data-height="32">
    <path d="M19.212 11.75c.088-.7.087-1.413-.003-2.128l2.161-1.892-1.044-2.521-2.862.203c-.442-.569-.947-1.073-1.504-1.505l.19-2.863-2.521-1.044-1.879 2.166c-.7-.088-1.413-.087-2.128.003l-1.892-2.161-2.521 1.044.203 2.862c-.569.442-1.073.947-1.505 1.504l-2.863-.19-1.044 2.521 2.166 1.879c-.088.699-.087 1.413.003 2.128l-2.161 1.892 1.044 2.521 2.862-.203c.442.569.947 1.073 1.504 1.505l-.19 2.863 2.521 1.044 1.879-2.166c.7.088 1.413.087 2.128-.003l1.892 2.161 2.521-1.044-.203-2.862c.569-.442 1.073-.947 1.505-1.504l2.863.19 1.044-2.521-2.166-1.879zm-6.681 3.385c-2.456 1.017-5.271-.149-6.288-2.604-1.017-2.456.149-5.271 2.605-6.288 2.455-1.017 5.271.149 6.288 2.604 1.017 2.455-.149 5.271-2.605 6.288z"
    class="iconic-cogs-cog iconic-cogs-cog-large iconic-property-fill" />
    <path d="M32 24.984v-1.984l-1.98-.66c-.139-.505-.338-.985-.592-1.43l.924-1.871-1.403-1.403-1.865.932c-.446-.254-.925-.452-1.431-.59l-.67-1.979h-1.984l-.66 1.98c-.505.139-.985.338-1.43.592l-1.871-.925-1.403 1.403.932 1.865c-.254.446-.452.925-.59 1.431l-1.978.67v1.984l1.98.66c.139.505.338.985.592 1.43l-.924 1.871 1.403 1.403 1.865-.932c.446.254.925.452 1.431.59l.67 1.978h1.984l.66-1.98c.505-.139.985-.338 1.43-.592l1.871.925 1.403-1.403-.932-1.865c.254-.446.452-.925.59-1.431l1.979-.67zm-8 2.516c-1.933 0-3.5-1.567-3.5-3.5s1.567-3.5 3.5-3.5 3.5 1.567 3.5 3.5-1.567 3.5-3.5 3.5z"
    class="iconic-cogs-cog iconic-cogs-cog-small iconic-property-accent iconic-property-fill" />
  </g>
</svg>