<svg version="1.1" xmlns="http://www.w3.org/2000/svg" width="32" height="32" data-icon="laptop" class="iconic iconic-laptop iconic-size-md" viewBox="0 0 32 32">
  <g class="iconic-metadata">
    <title>Laptop</title>
  </g>
  <defs>
    <clipPath id="iconic-size-md-laptop-clip-0">
      <path d="M29 0h-26v18h26v-18zm-11 17.5c0 .276-.224.5-.5.5h-3c-.276 0-.5-.224-.5-.5v-.5h4v.5zm9-1.5h-22v-14h22v14z" />
    </clipPath>
    <clipPath id="iconic-size-md-laptop-clip-1">
      <path d="M0 17v2h32v-2h-14v.5c0 .276-.224.5-.5.5h-3c-.276 0-.5-.224-.5-.5v-.5h-14z" />
    </clipPath>
  </defs>
  <g class="iconic-container" data-width="32" data-height="19" transform="translate(0 6)">
    <path clip-path="url(#iconic-size-md-laptop-clip-0)" stroke="#000" stroke-width="2" d="M27.5 17h-23c-.276 0-.5-.224-.5-.5v-15c0-.276.224-.5.5-.5h23c.276 0 .5.224.5.5v15c0 .276-.224.5-.5.5z" class="iconic-laptop-screen-border iconic-property-stroke"
    fill="none" />
    <path clip-path="url(#iconic-size-md-laptop-clip-1)" d="M31.5 19h-31c-.276 0-.5-.224-.5-.5v-3c0-.276.224-.5.5-.5h31c.276 0 .5.224.5.5v3c0 .276-.224.5-.5.5z" class="iconic-laptop-base iconic-property-fill" />
  </g>
</svg>