<svg xmlns="http://www.w3.org/2000/svg" width="98" height="100" viewBox="0 0 98 100">
  <path fill="#232323" d="M97.75,38.125 C91.293,23.957 83.582,6.875 80.668,2.5 C80.25003,1.457 68.793,4.793 59.625,7.082 C57.957,2.914 53.793,-0.211 49,0.207 C42.75,0.62497 38.793,4.7929 37.75,12.5 L17.75,17.293 C17.33203,17.50003 16.707,17.918 16.5,18.543 L0.25,53.332 C0.04297,53.53903 0.04297,53.957 0.04297,54.16403 C0.04297,64.16403 8.16797,72.49603 18.37497,72.49603 C28.58197,72.49603 36.70697,64.37103 36.70697,54.16403 C36.70697,53.957 36.70697,53.53903 36.49994,53.332 L21.29294,20.625 L38.79294,16.25 C40.24994,19.582 43.37494,22.082 47.12494,22.707 L47.12494,73.539 L41.08194,73.539 C36.49994,73.539 32.95694,77.289 32.95694,83.121 L33.58194,83.121 C26.70694,83.121 21.28894,88.539 21.28894,95.414 L21.292847,97.9179 C21.292847,98.9609 22.124877,99.9999 23.374847,99.9999 L75.042847,99.9999 C76.085847,99.9999 77.124847,99.16787 77.124847,97.9179 L77.124847,95.6249 C77.124847,88.7499 71.706847,83.3319 64.831847,83.3319 L65.667787,83.3319 C65.460757,77.2889 61.917787,73.7499 57.335787,73.7499 L51.292787,73.7499 L51.292787,22.7069 C57.335787,21.2499 60.042787,17.0819 60.667787,10.8319 L76.081787,7.2928 L61.499787,38.1248 C61.292757,38.33183 61.292757,38.7498 61.292757,38.95683 C61.292757,48.95683 69.417757,57.28883 79.624757,57.28883 C89.831757,57.28883 97.956757,49.16383 97.956757,38.95683 C97.956757,38.7498 97.956757,38.33183 97.749727,38.1248 L97.75,38.125 Z M18.375,68.332 C11.293,68.332 5.25,63.125 4.418,56.039 L32.332,56.042907 C31.49997,63.124907 25.457,68.331907 18.375,68.331907 L18.375,68.332 Z M31.293,52.082 L5.25,52.082 L18.375,24.164 L31.293,52.082 Z M64.625,87.293 C69.207,87.293 72.75,91.043 72.75,95.418 L72.75,95.83206 L25.457,95.83206 L25.457,95.41409 C25.457,90.83209 29.207,87.28909 33.582,87.28909 L64.625,87.293 Z M57.332,77.7071 C59.625,77.7071 61.5,79.5821 61.5,81.8751 L61.5,83.3321 L36.918,83.3321 L36.918,81.8751 C36.918,79.5821 38.793,77.7071 41.086,77.7071 L57.332,77.7071 Z M49.207,18.9571 C45.039,18.9571 41.914,15.6251 41.914,11.6641 C41.917907,7.7071 45.0429,4.168 49.207,4.168 C53.375,4.168 56.5,7.5 56.5,11.461 C56.5,15.418 53.168,18.9571 49.207,18.9571 Z M79.625,8.9571 L92.75,36.8751 L66.707,36.8751 L79.625,8.9571 Z M79.625,53.3321 C72.543,53.3321 66.5,48.1251 65.668,41.0391 L93.793,41.0391 C92.75,47.918 86.918,53.3321 79.625,53.3321 Z"/>
</svg>
