<svg xmlns="http://www.w3.org/2000/svg" width="51" height="100" viewBox="0 0 51 100">
  <path fill="#232323" d="M50.332,37.891 L50.332,32.3363 L28.109,32.3363 L28.109,28.2269 C34.441,26.8949 39.218,21.3363 39.218,14.5589 C39.218,6.8909 32.9953,0.6679 25.327,0.6679 C17.6587,0.6679 11.436,6.8906 11.436,14.5589 C11.436,21.3362 16.2133,26.8909 22.545,28.2269 L22.545,32.3363 L0.322,32.3363 L0.322,37.891 L22.545,37.891 L22.545,60.336 L7.998,97.668 L13.2207,99.668 L25.4437,68.445 L37.6667,99.668 L42.8894,97.668 L28.1084,60.332 L28.1084,37.891 L50.332,37.891 Z M17,14.555 C17,9.887 20.7773,6.223 25.332,6.223 C30,6.223 33.664,10.0003 33.664,14.555 C33.664,19.223 29.8867,22.887 25.332,22.887 C20.6679,22.890906 17,19.1097 17,14.555 Z"/>
</svg>
