<svg xmlns="http://www.w3.org/2000/svg" width="90" height="86" viewBox="0 0 90 86">
  <path fill="#232323" d="M36.688,9.797 C36.27394,20.766 34.9732,27.188 28.5942,36.672 C27.5083,35.6173 26.0434,34.9532 24.438,34.9532 L6.438,34.9532 C3.1646,34.9532 0.438,37.6798 0.438,40.9532 L0.438,76.9532 C0.438,80.2266 3.1646,82.9532 6.438,82.9532 L24.438,82.9532 C26.1216,82.9532 27.6528,82.22664 28.7505,81.0782 C29.53175,81.69929 30.2622,82.2657 31.0943,82.7657 C32.8638,83.8243 34.9263,84.461 37.5631,84.7345 C42.8365,85.28138 51.1371,84.87122 70.4381,84.95325 C71.1256,84.95325 71.8131,84.70325 72.3443,84.26575 C76.1646,81.15245 78.0396,77.94545 78.9068,74.54695 C79.23883,74.36726 79.53961,74.12117 79.7818,73.8282 C82.6763,70.211 83.8443,66.0313 83.3443,62.2662 C83.50446,62.13729 83.65289,61.98886 83.7818,61.8287 C87.1412,57.6334 88.2037,52.6646 87.0006,48.4847 C88.9694,45.93 89.8209,42.9261 89.5006,40.1409 C89.10998,36.7229 86.9225,33.6448 83.6256,32.2034 C83.2506,32.03934 82.84435,31.9534 82.4381,31.9534 L57.8131,31.9534 C59.1295,22.1136 58.1256,13.0904 54.6569,6.9844 C52.6921,3.5235 49.6921,1.4961 46.6881,1.0469 C41.2897,0.38284 37.2037,4.1758 36.6881,9.7969 L36.688,9.797 Z M49.438,9.95325 C52.1685,14.76575 53.4497,24.23025 51.5005,34.39125 C51.17238,36.11785 52.6802,37.94985 54.438,37.95375 L81.563,37.95375 C82.6841,38.57875 83.3833,39.53965 83.5318,40.82875 C83.66852,42.03575 83.14899,43.49285 81.938,44.95375 L71.438,44.95375 C69.8521,44.95375 68.395,46.36785 68.395,47.95375 C68.395,49.53965 69.852,50.97715 71.438,50.95375 L81.3755,50.95375 C81.60206,52.65295 81.18409,54.78575 79.813,56.95375 L71.438,56.95375 C69.8521,56.95375 68.395,58.36785 68.395,59.95375 C68.395,61.53965 69.852,62.97715 71.438,62.95375 L77.3755,62.95375 C77.60206,64.65295 77.18409,66.78575 75.813,68.95375 L71.438,68.95375 C69.8521,68.95375 68.395,70.36785 68.395,71.95375 C68.395,73.53965 69.852,74.97715 71.438,74.95375 L72.4692,74.95375 C71.85592,76.27795 70.8794,77.44985 69.1567,78.95375 C50.9497,78.899063 42.2697,79.19203 38.1567,78.76625 C36.0395,78.5475 35.2036,78.235 34.1567,77.61005 C33.28561,77.09052 32.0864,76.09445 30.4379,74.76625 L30.4379,44.36025 C39.8207,31.81325 42.1879,23.04025 42.6879,10.07925 C43.6254,4.91515 48.102,7.05585 49.4379,9.95425 L49.438,9.95325 Z M6.438,40.95325 L24.438,40.95325 C24.371594,52.87125 24.438,64.94125 24.438,76.95325 L6.438,76.95325 L6.438,40.95325 Z"/>
</svg>
