<svg xmlns="http://www.w3.org/2000/svg" width="78" height="78" viewBox="0 0 78 78">
  <path fill="#232323" d="M29.855,60.348 C30.33547,60.78941 30.9409,61.00425 31.5425,61.00425 C32.20656,61.00425 32.8706,60.73863 33.3628,60.21909 L65.7608,25.85609 C66.70611,24.85219 66.65924,23.27019 65.65533,22.32089 C64.65143,21.37558 63.06943,21.42245 62.12013,22.42636 L31.42113,54.99636 L17.02613,41.77736 C16.01053,40.84377 14.42843,40.91017 13.49493,41.9297 C12.56134,42.9453 12.62774,44.5274 13.64727,45.4609 L29.855,60.348 Z M75.273,0.227 L2.726,0.227 C1.3432,0.227 0.226,1.3442 0.226,2.727 L0.226,75.274 C0.226,76.6568 1.3432,77.774 2.726,77.774 L75.273,77.774 C76.6558,77.774 77.773,76.6568 77.773,75.274 L77.773,2.727 C77.773,1.3481 76.6519,0.227 75.273,0.227 L75.273,0.227 Z M72.773,72.774 L5.226,72.774 L5.226,5.227 L72.773,5.227 L72.773,72.774 Z"/>
</svg>
