<svg xmlns="http://www.w3.org/2000/svg" width="78" height="78" viewBox="0 0 78 78">
  <g fill="#232323">
    <path d="M39,77.5 C60.199,77.5 77.5,60.199 77.5,39 C77.5,17.801 60.199,0.5 39,0.5 C17.801,0.5 0.5,17.801 0.5,39 C0.5,60.199 17.801,77.5 39,77.5 Z M39,5.5 C57.5,5.5 72.5,20.5 72.5,39 C72.5,57.5 57.5,72.5 39,72.5 C20.5,72.5 5.5,57.5 5.5,39 C5.5,20.5 20.5,5.5 39,5.5 Z"/>
    <path d="M22,42 L36,42 L36,56 C36,57.3984 37.1016,58.5 38.5,58.5 C39.8984,58.5 41,57.3984 41,56 L41,42 L56,42 C57.3984,42 58.5,40.8984 58.5,39.5 C58.5,38.1016 57.3984,37 56,37 L41,37 L41,22 C41,20.6016 39.8984,19.5 38.5,19.5 C37.1016,19.5 36,20.6016 36,22 L36,37 L22,37 C20.6016,37 19.5,38.1016 19.5,39.5 C19.5,40.8984 20.6016,42 22,42 Z"/>
  </g>
</svg>
