<svg xmlns="http://www.w3.org/2000/svg" width="61" height="52" viewBox="0 0 61 52">
  <path fill="#232323" d="M60.898,10.301 C60.49956,9.0002 59.2964,8.0002 57.898,8.0002 L44.3,8.0002 L44.3,5.1018 C44.3,2.5002 42.1984,0.4026 39.6008,0.4026 L22.3978,0.398694 C19.7962,0.398694 17.6986,2.500294 17.6986,5.097894 L17.6986,8.000194 L4.1006,8.000194 C2.7022,8.000194 1.499,8.898634 1.1006,10.300994 L0.99904,10.500214 L0.99904,21.898214 C0.99904,23.199014 1.29982,24.499814 1.69826,25.597414 L1.69826,48.398414 C1.69826,50.097614 3.09666,51.500014 4.79986,51.500014 L57.10086,51.500014 C58.80006,51.500014 60.20246,50.101614 60.20246,48.398414 L60.198554,25.601414 C60.698554,24.499814 60.897774,23.203014 60.897774,21.902214 L60.898,10.301 Z M20.699,5.1994 C20.699,4.30096 21.49978,3.5002 22.3982,3.5002 L39.5972,3.5002 C40.49564,3.5002 41.2964,4.30098 41.2964,5.1994 L41.300306,8.0002 L20.698306,8.0002 L20.699,5.1994 Z M57.301,48.3984 C57.301,48.49996 57.19944,48.49996 57.301,48.3984 L4.903,48.49996 C4.80144,48.49996 4.80144,48.49996 4.80144,48.3984 L4.80144,29.6014 C6.50064,30.9022 8.60224,31.703 10.90304,31.703 L26.40304,31.703 L26.40304,33.3046 C26.40304,35.9062 28.50464,38.0038 31.10224,38.0038 C33.70384,38.0038 35.80144,35.9022 35.80144,33.3046 L35.80144,31.703 L51.30144,31.703 C53.60224,31.703 55.69984,30.90222 57.40304,29.6014 L57.399134,48.3984 L57.301,48.3984 Z M29.301,33.3004 L29.301,28.9996 C29.301,28.10116 30.10178,27.3004 31.0002,27.3004 C31.89862,27.3004 32.6994,28.10118 32.6994,28.9996 L32.6994,33.3004 C32.6994,34.19884 31.89862,34.9996 31.0002,34.9996 C30.10178,34.9996 29.301,34.30038 29.301,33.3004 Z M58,21.8984 C58,25.6992 54.8984,28.6992 51.1992,28.6992 L35.6992,28.6992 C35.49998,26.3008 33.5,24.3008 31,24.3008 C28.5,24.3008 26.5,26.1992 26.3008,28.6992 L10.8008,28.6992 C7,28.6992 4,25.5976 4,21.8984 L4,11.1014 L4.10156,11.1014 L57.90656,11.1014 L58.00812,11.1014 L58,21.8984 Z"/>
</svg>
