<svg xmlns="http://www.w3.org/2000/svg" width="72" height="90" viewBox="0 0 72 90">
  <g fill="#232323">
    <path d="M69.91,90 L2.09,90 C1.21109,90 0.5002,89.28906 0.5002,88.4102 L0.5002,1.5902 C0.5002,0.71129 1.21114,0.0004 2.09,0.0004 L69.91,0.0004 C70.78891,0.0004 71.4998,0.71134 71.4998,1.5902 L71.4998,88.4142 C71.4998,89.2892 70.78886,90.0001 69.91,90.0001 L69.91,90 Z M3.68,86.8242 L68.321,86.8242 L68.321,3.1762 L3.68,3.1762 L3.68,86.8242 Z"/>
    <path d="M29.379,34.941 L12.422,34.941 C11.54309,34.941 10.8322,34.23006 10.8322,33.3512 L10.8322,16.4102 C10.8322,15.53129 11.54314,14.8204 12.422,14.8204 L29.375,14.8204 L29.378906,18.0001 L14.011906,18.0001 L14.011906,31.7661 L29.378906,31.7661 L29.379,34.941 Z"/>
    <path d="M25.137 29.383C24.71512 29.383 24.31278 29.21503 24.0159 28.91816L16.8636 21.77366 19.1097 19.52756 25.055 25.46896 33.8011 15.37096 36.2034 17.44906 26.3401 28.83606C26.05104 29.16809 25.63698 29.36731 25.1956 29.38293L25.137007 29.38293 25.137 29.383zM29.379 51.883L12.422 51.883C11.54309 51.883 10.8322 51.17206 10.8322 50.2932L10.8322 33.3522C10.8322 32.47329 11.54314 31.7624 12.422 31.7624L29.375 31.7624 29.375 34.9382 14.012 34.942106 14.012 48.708106 29.379 48.708106 29.379 51.883z"/>
    <path d="M25.137 46.324C24.71512 46.324 24.31278 46.15603 24.0159 45.85916L16.8636 38.71076 19.1097 36.46466 25.055 42.40606 33.8011 32.31206 36.2034 34.39016 26.3401 45.77316C26.05104 46.10519 25.63698 46.30441 25.1956 46.32003 25.176069 46.323937 25.156538 46.323937 25.137007 46.323937L25.137 46.324zM29.379 68.824L12.422 68.824C11.54309 68.824 10.8322 68.11306 10.8322 67.2342L10.8322 50.2932C10.8322 49.41429 11.54314 48.7034 12.422 48.7034L29.375 48.7034 29.375 51.8792 14.012 51.883106 14.012 65.649106 29.379 65.649106 29.379 68.824z"/>
    <path d="M25.137,63.266 C24.71512,63.266 24.31278,63.09803 24.0159,62.80116 L16.8636,55.65666 L19.1097,53.41056 L25.055,59.35196 L33.8011,49.25396 L36.2034,51.33206 L26.3401,62.71506 C26.05104,63.04709 25.63698,63.24631 25.1956,63.26194 C25.176069,63.265846 25.156538,63.265846 25.137007,63.265846 L25.137,63.266 Z"/>
    <polygon points="40.449 23.293 63.683 23.293 63.683 26.469 40.449 26.469"/>
    <polygon points="40.449 40.234 63.683 40.234 63.683 43.41 40.449 43.41"/>
    <polygon points="40.449 57.176 63.683 57.176 63.683 60.352 40.449 60.352"/>
  </g>
</svg>
