<svg xmlns="http://www.w3.org/2000/svg" width="72" height="90" viewBox="0 0 72 90">
  <g fill="#232323">
    <path d="M22.262 9.484L63.168 9.484C63.85941 9.484 64.418 8.92541 64.418 8.234 64.418 7.54259 63.85941 6.984 63.168 6.984L22.262 6.984C21.57059 6.984 21.012 7.54259 21.012 8.234 21.012 8.9215 21.57059 9.484 22.262 9.484zM63.168 68.344L59.8086 68.344C60.3086 67.37134 60.59766 66.2698 60.59766 65.1057 60.59766 61.1838 57.40626 57.9963 53.48436 57.9963 49.56246 57.9963 46.37496 61.1877 46.37496 65.1057 46.37496 66.2737 46.66402 67.3713 47.16402 68.344L22.26202 68.344C21.57061 68.344 21.01202 68.90259 21.01202 69.594 21.01202 70.28541 21.57061 70.844 22.26202 70.844L49.30502 70.844C50.48082 71.70338 51.92222 72.2151 53.48472 72.2151 55.04722 72.2151 56.49252 71.70338 57.66832 70.844L63.17222 70.844C63.86363 70.844 64.42222 70.28541 64.42222 69.594 64.418314 68.9065 63.85972 68.344 63.16832 68.344L63.168 68.344zM48.875 65.1057C48.875 62.5627 50.9414 60.4963 53.4844 60.4963 56.0274 60.4963 58.0977 62.5627 58.0977 65.1057 58.0977 67.6487 56.0274 69.719 53.4844 69.719 50.9414 69.715094 48.875 67.6487 48.875 65.1057z"/>
    <path d="M21.012 65.105C21.012 65.79641 21.57059 66.355 22.262 66.355L32.0979 66.355C32.78931 66.355 33.3479 65.79641 33.3479 65.105 33.3479 64.41359 32.78931 63.855 32.0979 63.855L22.262 63.855C21.57059 63.855 21.012 64.41359 21.012 65.105zM57.438 12.488C57.438 11.79659 56.87941 11.238 56.188 11.238L28.399 11.238C27.70759 11.238 27.149 11.79659 27.149 12.488 27.149 13.17941 27.70759 13.738 28.399 13.738L56.188 13.738C56.8755 13.738 57.438 13.17941 57.438 12.488zM61.0250755 37.523L25.0839245 37.523C22.654075 37.523 20.691 38.08159 20.691 38.773 20.691 39.46441 22.654075 40.023 25.0839245 40.023L61.0250755 40.023C63.454925 40.023 65.418 39.46441 65.418 38.773 65.418 38.08159 63.454925 37.523 61.0250755 37.523zM53.8108066 42.086L24.2981934 42.086C22.3029537 42.086 20.691 42.64459 20.691 43.336 20.691 44.02741 22.3029537 44.586 24.2981934 44.586L53.8108066 44.586C55.8060463 44.586 57.418 44.02741 57.418 43.336 57.418 42.64459 55.8060463 42.086 53.8108066 42.086zM61.0250755 46.645L25.0839245 46.645C22.654075 46.645 20.691 47.20359 20.691 47.895 20.691 48.58641 22.654075 49.145 25.0839245 49.145L61.0250755 49.145C63.454925 49.145 65.418 48.58641 65.418 47.895 65.418 47.2075 63.454925 46.645 61.0250755 46.645zM42.5965486 53.707C44.4768804 53.707 45.996 53.14841 45.996 52.457 45.996 51.76559 44.4768804 51.207 42.5965486 51.207L24.0907514 51.207C22.2104196 51.207 20.6913 51.76559 20.6913 52.457 20.6913 53.14841 22.2104196 53.707 24.0907514 53.707L42.5965486 53.707zM37.895 67.691C38.13328 68.0035 38.50047 68.17928 38.88719 68.17928 38.94969 68.17928 39.00828 68.175373 39.07078 68.163654 39.52 68.097248 39.89891 67.792564 40.05906 67.366784 40.92625 65.065984 43.76606 62.011284 43.79346 61.980084 44.26612 61.476174 44.23877 60.683184 43.734866 60.214484 43.230956 59.741824 42.437966 59.769174 41.969266 60.273078 41.867706 60.382448 39.938066 62.456678 38.613766 64.683278 37.617676 63.636378 36.832566 63.054378 36.785666 63.019178 36.230976 62.612928 35.449766 62.730118 35.039566 63.284798 34.629406 63.839488 34.750506 64.620698 35.301286 65.030898 35.313005 65.046523 36.613786 66.019178 37.895086 67.691098L37.895 67.691zM32.168 20.023L21.195 20.023C20.50359 20.023 19.945 20.58159 19.945 21.273L19.945 35.097C19.945 35.78841 20.50359 36.347 21.195 36.347L32.172 36.347C32.86341 36.347 33.422 35.78841 33.422 35.097L33.418094 21.273C33.418094 20.5855 32.859504 20.023 32.168094 20.023L32.168 20.023zM30.918 22.523L30.918 29.8668C30.47659 29.50742 29.98441 29.20664 29.4571 28.96836 30.03522 28.31211 30.39851 27.46056 30.39851 26.52306 30.39851 24.47226 28.73051 22.80426 26.67971 22.80426 24.62891 22.80426 22.96091 24.47226 22.96091 26.52306 22.96091 27.46447 23.32419 28.31216 23.90232 28.96836 23.37498 29.20664 22.88672 29.50742 22.44142 29.8668L22.44142 22.523 30.918 22.523zM26.6836 27.7378C26.01172 27.7378 25.4648 27.19092 25.4648 26.519 25.4648 25.84708 26.01168 25.3002 26.6836 25.3002 27.35552 25.3002 27.9024 25.84708 27.9024 26.519 27.898494 27.19478 27.35552 27.7378 26.6836 27.7378zM26.6836 30.8628C28.582 30.8628 30.1758 32.1245 30.7109 33.8511L22.6562 33.8511C23.19136 32.1245 24.7812 30.8628 26.6835 30.8628L26.6836 30.8628zM56.176 62.41C54.7346 60.9725 52.2268 60.9725 50.7932 62.41L50.773669 62.429532 52.558869 64.175632C53.051059 63.683442 53.914369 63.683442 54.406569 64.175632 54.652659 64.421722 54.789379 64.749852 54.789379 65.101412 54.789379 65.449072 54.652659 65.777192 54.410469 66.023292 53.926089 66.515482 53.929999 67.304492 54.422188 67.792792 54.664378 68.034982 54.984688 68.152172 55.301098 68.152172 55.621408 68.152172 55.945628 68.027172 56.191718 67.781082 56.902658 67.062332 57.293318 66.109182 57.293318 65.101382 57.293318 64.089682 56.894878 63.132582 56.176118 62.409982L56.176 62.41z"/>
    <path d="M70.297,0.3555 L14.465,0.3555 C13.77359,0.3555 13.215,0.91409 13.215,1.6055 L13.215,76.0075 C13.215,76.69891 13.77359,77.2575 14.465,77.2575 L70.297,77.2575 C70.98841,77.2575 71.547,76.69891 71.547,76.0075 L71.547,1.6055 C71.547,0.91409 70.9845,0.3555 70.297,0.3555 Z M69.047,74.7575 L15.715,74.7575 L15.715,2.8555 L69.047,2.8555 L69.047,74.7575 Z"/>
    <path d="M66.215,78.883 L11.633,78.883 L11.633,5.731 C11.633,5.03959 11.07441,4.481 10.383,4.481 C9.69159,4.481 9.133,5.03959 9.133,5.731 L9.133,80.133 C9.133,80.82441 9.69159,81.383 10.383,81.383 L66.215,81.383 C66.90641,81.383 67.465,80.82441 67.465,80.133 C67.465,79.44159 66.90641,78.883 66.215,78.883 Z"/>
    <path d="M62.137,83.004 L7.555,83.004 L7.555,9.852 C7.555,9.16059 6.99641,8.602 6.305,8.602 C5.61359,8.602 5.055,9.16059 5.055,9.852 L5.055,84.254 C5.055,84.94541 5.61359,85.504 6.305,85.504 L62.137,85.504 C62.82841,85.504 63.387,84.94541 63.387,84.254 C63.387,83.56259 62.8245,83.004 62.137,83.004 Z"/>
    <path d="M58.055,87.129 L3.473,87.129 L3.473,13.973 C3.473,13.28159 2.91441,12.723 2.223,12.723 C1.53159,12.723 0.973,13.28159 0.973,13.973 L0.973,88.375 C0.973,89.06641 1.53159,89.625 2.223,89.625 L58.055,89.625 C58.74641,89.625 59.305,89.06641 59.305,88.375 C59.305,87.6875 58.74641,87.1289 58.055,87.1289 L58.055,87.129 Z"/>
  </g>
</svg>
