<svg xmlns="http://www.w3.org/2000/svg" width="84" height="68" viewBox="0 0 84 68">
  <g fill="#232323">
    <path d="M28.738,21.691 L28.738,46.777 C28.738,50.5036 31.7653,53.5309 35.488,53.5309 L58.121,53.5309 L71.297,66.7069 C71.63294,67.04284 72.08216,67.21862 72.5392,67.21862 C72.76576,67.21862 72.99233,67.175651 73.21108,67.08581 C73.86342,66.81628 74.29308,66.17175 74.29308,65.46471 L74.29308,53.52671 L76.42198,53.52671 C80.14858,53.52671 83.17198,50.49941 83.17198,46.77281 L83.17198,21.69081 C83.17198,17.96421 80.14468,14.93691 76.42198,14.93691 L35.49198,14.93691 C31.76538,14.93691 28.73808,17.96421 28.73808,21.69081 L28.738,21.691 Z M79.664,21.691 L79.664,46.777 C79.664,48.57 78.2109,50.0231 76.4218,50.0231 L72.539,50.0231 C71.57416,50.0231 70.7851,50.80826 70.7851,51.777 L70.7851,61.2301 L60.0901,50.5351 C59.76198,50.20698 59.31666,50.02338 58.8479,50.02338 L35.4889,50.02338 C33.6998,50.02338 32.2467,48.57028 32.2467,46.77728 L32.2467,21.69128 C32.2467,19.90218 33.6998,18.44518 35.4889,18.44518 L76.4189,18.44518 C78.208,18.44518 79.665,19.89828 79.665,21.69128 L79.664,21.691 Z"/>
    <path d="M6.73,33.367 L8.1909,33.367 L8.1909,42.9568 C8.1909,43.66383 8.62059,44.3084 9.2729,44.5779 C9.48774,44.667744 9.71821,44.71071 9.94477,44.71071 C10.3979,44.71071 10.84711,44.53102 11.18697,44.19899 L22.01897,33.36699 L24.13227,33.36699 C25.09711,33.36699 25.88617,32.58183 25.88617,31.61309 C25.88617,30.64043 25.09711,29.85919 24.13227,29.85919 L21.29247,29.85919 C20.82763,29.85919 20.37841,30.04278 20.05027,30.37091 L11.69477,38.72641 L11.69477,31.61311 C11.69477,30.64045 10.90571,29.85921 9.94087,29.85921 L6.72997,29.85921 C5.40967,29.85921 4.33937,28.78891 4.33937,27.47251 L4.335464,6.67551 C4.335464,5.35911 5.409664,4.28491 6.726064,4.28491 L40.648064,4.28491 C41.964464,4.28491 43.034764,5.35521 43.034764,6.67551 L43.034764,10.34741 C43.034764,11.32007 43.823824,12.10131 44.788664,12.10131 C45.753504,12.10131 46.542564,11.31615 46.542564,10.34741 L46.54647,6.67551 C46.54647,3.42161 43.90197,0.77711 40.65197,0.77711 L6.72997,0.773204 C3.47607,0.773204 0.83157,3.417704 0.83157,6.671604 L0.83157,27.468604 C0.827664,30.722504 3.47607,33.367004 6.72997,33.367004 L6.73,33.367 Z"/>
  </g>
</svg>
