<svg xmlns="http://www.w3.org/2000/svg" width="94" height="91" viewBox="0 0 94 91">
  <path fill="#232323" d="M33.293,0.25 C33.13675,0.253906 32.9805,0.28125 32.83206,0.328125 C30.05086,1.179685 28.32816,3.871125 28.26956,6.804725 C21.83986,7.988325 16.51156,12.757825 14.77356,19.242725 C13.03136,25.742725 15.27747,32.554725 20.27356,36.793725 C17.75406,37.809325 15.39076,39.180425 13.23446,40.844525 L12.24618,39.856245 C12.222742,39.828901 12.195398,39.801557 12.168055,39.77812 C11.875085,39.48124 11.476645,39.31328 11.062555,39.31328 C10.863335,39.31328 10.668025,39.348436 10.484435,39.42266 L10.453185,39.42266 L3.593785,42.16876 C3.148475,42.34845 2.812535,42.71954 2.675815,43.17656 C1.039115,48.70776 0.125015,54.10656 0.125015,59.24656 C0.125015,69.15676 2.753915,77.75856 8.476615,83.09456 C14.015715,88.25866 21.937615,90.87576 31.363615,90.87576 L31.387053,90.87576 C40.812853,90.87576 48.735053,88.25856 54.274053,83.09456 C54.817023,82.58675 55.309253,82.02036 55.797453,81.45786 C55.85214,81.56333 55.891203,81.6727 55.949793,81.77427 C55.953699,81.789894 55.957605,81.80552 55.961512,81.817238 L55.97323,81.848488 L55.977136,81.848488 C56.016199,81.914894 56.027918,81.981298 56.063074,82.043798 C56.074793,82.063329 56.082605,82.078954 56.094324,82.098485 L56.113855,82.133641 C56.238855,82.332861 56.406825,82.500831 56.606045,82.621921 C58.891245,86.106321 62.430245,88.360221 66.469345,89.539921 C70.762345,90.789921 75.598245,91.043821 80.430345,90.743021 C84.746745,90.469581 88.844445,89.864111 92.680345,88.942221 C93.262375,88.801601 93.711545,88.340661 93.836545,87.754721 C93.965455,87.168781 93.746701,86.563321 93.277955,86.196121 L89.207655,82.985221 L91.813155,73.235221 C92.004565,72.516471 91.664715,71.758621 90.992845,71.430521 L83.473345,67.707821 L84.020225,59.313321 C84.059288,58.684411 83.715535,58.094521 83.153035,57.813321 L75.438235,53.993021 L74.106235,44.715721 C74.000765,43.957911 73.360145,43.391521 72.598435,43.371921 L72.598435,43.379733 C72.196095,43.368015 71.805465,43.512543 71.504635,43.782073 C68.246835,46.735173 65.188235,50.285973 62.344435,54.274073 C62.133495,52.274073 61.817095,50.250673 61.375685,48.192073 C61.266305,47.684263 60.910845,47.266293 60.426465,47.070973 L53.004565,44.098273 C52.930347,43.938113 52.828785,43.789683 52.699875,43.664683 C49.801475,40.672483 46.297575,38.363883 42.453875,36.816983 C47.469475,32.582583 49.723375,25.754983 47.977275,19.242983 C46.360075,13.203883 41.610075,8.687983 35.778275,7.133983 C39.106375,6.294143 42.625975,6.290233 46.005275,7.196483 C46.411525,7.325393 46.852935,7.282421 47.227975,7.075393 C47.599065,6.872273 47.876415,6.524613 47.985785,6.114453 C48.095165,5.700393 48.03266,5.262893 47.813905,4.899653 C47.595155,4.532463 47.235785,4.274653 46.817815,4.180903 C43.817815,3.376213 40.716215,3.184813 37.692815,3.583243 C35.681115,3.848863 33.708415,4.395743 31.817815,5.177043 C32.235785,4.270793 32.915515,3.567643 33.743615,3.313743 C34.497525,3.098903 34.970215,2.360623 34.856915,1.587143 C34.743635,0.813703 34.075665,0.243343 33.294415,0.251243 L33.293,0.25 Z M31.375,9.6328 C37.7461,9.6328 43.313,13.9023 44.961,20.0548 C46.5899,26.1368 43.97662,32.5158 38.5899,35.7428 C37.90631,35.9303 37.4337,36.5553 37.4376,37.2623 C37.445412,37.97324 37.92588,38.5865 38.6134,38.7623 C41.7267,39.64511 44.6251,41.1139 47.2032,43.0318 L39.1876,48.3756 L30.6798,42.6998 C30.15636,42.35214 29.4689,42.35214 28.9454,42.6998 L20.6407,48.2428 L15.4688,43.0787 C18.0977,41.1099 21.0586,39.6139 24.2266,38.7271 C24.93363,38.53179 25.4063,37.87163 25.3672,37.1412 C25.328137,36.41073 24.78907,35.8053 24.0703,35.6803 C18.7461,32.4381 16.1758,26.1022 17.793,20.0553 C19.4453,13.903 25.0039,9.6333 31.375,9.6333 L31.375,9.6328 Z M25.9062,17.4375 C24.6132,17.4375 23.5624,18.4883 23.5624,19.7813 C23.5624,21.0743 24.6132,22.1251 25.9062,22.1251 C27.1992,22.1251 28.25,21.0743 28.25,19.7813 C28.25,18.4883 27.1992,17.4375 25.9062,17.4375 Z M38.4062,17.4375 C37.1132,17.4375 36.0624,18.4883 36.0624,19.7813 C36.0624,21.0743 37.1132,22.1251 38.4062,22.1251 C39.6992,22.1251 40.75,21.0743 40.75,19.7813 C40.75,18.4883 39.6992,17.4375 38.4062,17.4375 Z M31.4414,25.25 C30.2461,25.226562 29.0937,25.88672 28.25,27.082 L31.375,31.5 L34.5,27.082 C33.6875,25.9336 32.5898,25.2734 31.4414,25.25 Z M10.6914,42.711 L19.332,51.3555 C19.85934,51.87894 20.6875,51.95706 21.3047,51.543 L29.8125,45.8789 L38.3203,51.5508 C38.84374,51.89846 39.5312,51.89846 40.0547,51.5508 L48.7461,45.7578 L58.4063,49.6289 C59.07036,52.9375 59.5001,56.1719 59.5001,59.2461 C59.5001,68.6016 56.9728,76.2971 52.1407,80.8051 C47.2969,85.3168 40.2387,87.7504 31.3867,87.7504 L31.363262,87.7504 C22.511662,87.7504 15.453262,85.3168 10.609262,80.8051 C5.777262,76.2973 3.249862,68.6021 3.249862,59.2461 C3.249862,54.6914 4.120952,49.7969 5.558462,44.7621 L10.6914,42.711 Z M71.5034,48.5977 L72.45652,55.2539 C72.530739,55.76562 72.85105,56.20312 73.31199,56.4336 L80.83149,60.1563 L80.28852,68.5469 C80.245552,69.17971 80.5893,69.7696 81.15571,70.0508 L88.46041,73.668 L85.92131,83.1719 C85.76115,83.77346 85.975997,84.4141 86.46428,84.8008 L88.50338,86.4141 C85.81588,86.91019 83.15958,87.4453 80.23388,87.6289 C75.64798,87.91406 71.14008,87.66015 67.34688,86.5469 C63.56568,85.4453 60.51878,83.5157 58.78048,80.5 C58.772668,80.488281 58.768761,80.472656 58.760949,80.460938 C58.417199,79.863278 58.151569,79.238238 57.928919,78.593738 C61.100819,73.484338 62.596919,66.812738 62.616419,59.398738 C62.850789,59.027648 63.092979,58.664358 63.339079,58.293238 C65.850779,54.504138 68.667179,51.484638 71.503179,48.597938 L71.5034,48.5977 Z"/>
</svg>
