<svg xmlns="http://www.w3.org/2000/svg" width="56" height="56" viewBox="0 0 56 56">
  <g fill="#232323" transform="translate(4 4)">
    <path d="M35.1524,26.566 C36.5508,26.566 37.7383,25.4176 37.7383,23.9996 C37.7383,22.5777 36.5547,21.4332 35.1524,21.4332 L12.8672,21.4332 C11.4492,21.4332 10.2852,22.5777 10.2852,23.9996 C10.2852,25.4176 11.4532,26.566 12.8672,26.566 L35.1524,26.566 Z"/>
    <path d="M7.699,40.312 C11.8474,44.4995 17.6365,47.0815 24.008,47.0815 C30.3088,47.0815 36.02,44.5542 40.176,40.4565 L40.32053,40.31197 C44.48853,36.16357 47.07443,30.37447 47.07443,24.00297 C47.07443,17.63147 44.49243,11.86197 40.32053,7.69397 C36.13303,3.49867 30.37913,0.91667 24.00853,0.91667 C17.70773,0.91667 11.99653,3.44397 7.80553,7.54167 L7.6649,7.69011 C3.4969,11.85811 0.9305,17.62761 0.9305,23.99911 C0.9305,30.37061 3.4969,36.15911 7.6649,40.30811 L7.700057,40.30811 L7.699,40.312 Z M11.3006,11.312 L11.40998,11.187 C14.64828,7.9839 19.09358,6.0542 24.00798,6.0542 C28.95718,6.0542 33.43768,8.0542 36.69598,11.2964 L36.69598,11.312025 C39.95768,14.534725 41.95768,19.050325 41.95768,24.000025 C41.95768,28.949725 39.95768,33.464825 36.69988,36.703025 L36.57097,36.812405 C33.36787,39.980405 28.88737,41.941305 24.01197,41.941305 C19.02367,41.941305 14.54717,39.941305 11.30497,36.699105 C8.06277,33.464705 6.04327,28.949105 6.04327,24.000105 C6.04327,19.051105 8.06277,14.535305 11.30107,11.312105 L11.3006,11.312 Z"/>
  </g>
</svg>
