<svg xmlns="http://www.w3.org/2000/svg" width="102" height="87" viewBox="0 0 102 87">
  <g fill="#232323">
    <path d="M100.691,62.461 L100.691,62.30866 C100.53866,60.76956 100.07381,59.23056 99.1519,57.69146 L99.1519,57.53912 C98.38237,56.15632 97.1519,55.07822 95.7691,54.15632 C95.30816,53.84773 94.84722,53.69538 94.23,53.53913 L86.5386,50.76963 L83.4605,56.76963 C83.15191,56.61729 82.84331,56.46104 82.53862,56.30869 L74.07772,53.23059 L70.38632,60.30869 L61.46442,57.07819 L52.69492,73.38719 L49.31212,73.38719 L40.54262,57.07819 L31.62072,60.30869 L27.92932,53.23059 L19.46842,56.30869 C19.15983,56.46103 18.85123,56.61728 18.54654,56.76963 L15.46844,50.76963 L7.77704,53.53913 C7.3161,53.69147 6.69894,54.00007 6.23794,54.15632 C4.85514,54.92585 3.62074,56.15632 2.85514,57.38682 L2.7028,57.69541 C1.78092,59.23451 1.32,60.77351 1.1637,62.15631 L1.1637,62.30865 C1.01136,62.92584 0.85511,64.92585 0.54651,68.15635 C0.39417,69.84775 1.00745,71.38685 2.08561,72.61725 C3.16371,73.84775 4.70281,74.46495 6.39421,74.46495 L11.47231,74.46495 C11.62465,75.69545 12.0895,76.77355 13.01141,77.69545 C14.08951,78.92595 15.62861,79.54315 17.32001,79.54315 L21.78091,79.54315 C21.78091,79.85174 21.78091,80.31268 21.62857,80.62125 C21.47623,82.16035 22.08951,83.85175 23.16767,85.08215 C24.24583,86.31255 25.78487,86.92985 27.47627,86.92985 L74.39827,86.92985 C75.93737,86.92985 77.62877,86.31266 78.70687,85.08215 C79.78497,83.85164 80.39827,82.31265 80.24597,80.62125 C80.24597,80.16031 80.24597,79.85172 80.09363,79.54315 L84.71083,79.54315 C86.40223,79.54315 87.94133,78.92596 89.01943,77.69545 C89.78896,76.77358 90.40223,75.69545 90.55853,74.46495 L95.63663,74.46495 C97.32803,74.46495 98.86713,73.84776 99.94523,72.61725 C101.02333,71.38675 101.63663,69.84775 101.48433,68.15635 C100.99995,65.07825 100.84761,63.23055 100.69136,62.46105 L100.691,62.461 Z M12.382,66.0001 L12.382,66.30869 C12.22966,67.07822 12.07341,69.07819 11.76481,72.30869 L6.38201,72.30869 C5.46014,72.30869 4.53431,71.84775 3.76481,71.23059 C3.14762,70.46106 2.84293,69.53919 2.84293,68.61339 C3.15152,65.38289 3.46012,63.53529 3.46012,62.92199 L3.46012,62.6134 C3.61246,61.3829 4.07731,60.1525 4.84292,58.7657 C5.46011,57.6876 6.22572,56.918 7.30382,56.3048 C7.61241,56.15246 8.07335,55.99621 8.38192,55.84386 L14.22962,53.84386 L16.53822,58.15246 C15.46012,58.92199 14.69052,59.84386 14.07732,60.92196 L13.92498,61.23055 C12.9992,62.61725 12.53828,64.30865 12.38198,66.00005 L12.382,66.0001 Z M22.691,72.461 C22.53866,72.92194 22.23006,74.6133 21.92147,77.3829 L17.15197,77.3829 C16.23009,77.3829 15.30427,76.92196 14.53477,76.3048 C13.91758,75.53527 13.61289,74.6134 13.61289,73.6876 C13.92148,69.8399 14.23008,67.379 14.38242,66.6095 L14.38242,66.30091 C14.53476,64.91811 14.99961,63.53141 15.92152,61.99231 C16.53871,60.91421 17.61292,59.84001 18.84342,59.22281 C19.30436,59.07047 19.61295,58.76187 20.07392,58.60562 L26.69112,56.29702 L29.30832,61.37512 C27.30832,62.45322 25.61692,63.99232 24.53882,65.83602 C23.46072,68.00012 22.84742,70.30872 22.69112,72.46102 L22.691,72.461 Z M77,83.691 C76.38281,84.46053 75.4609,84.7691 74.3828,84.7691 L27.4608,84.7691 C26.53892,84.7691 25.6131,84.30816 24.8436,83.691 C24.22641,82.92147 23.7655,81.9996 23.92172,81.0738 C24.38266,75.691 24.99982,72.9215 24.99982,72.9215 L24.99982,72.61291 C24.99982,70.76521 25.61701,68.92151 26.69122,66.92151 C27.76932,65.07381 29.46072,63.69101 31.61312,62.76921 L39.30452,59.99971 L47.76542,75.84771 L53.91772,75.84771 L62.53882,59.99971 L70.23022,62.76921 C70.84741,62.92155 71.30832,63.23015 71.76932,63.3864 C73.15212,64.15593 74.23022,65.2341 75.15212,66.6169 L75.15212,66.76924 C76.074,68.46064 76.69122,70.15204 76.84352,71.69114 L76.84352,72.15208 C76.99586,73.07396 77.46071,75.99978 77.7654,81.07398 C78.0779,81.99976 77.769306,82.92168 76.99978,83.69118 L77,83.691 Z M87.309,76.3082 C86.69181,77.07773 85.7699,77.3863 84.6918,77.3863 L79.9223,77.3863 C79.61371,74.4644 79.30511,72.6168 79.30511,71.8472 L79.30511,71.53861 C79.15277,69.69091 78.53558,67.69091 77.30511,65.69091 L77.30511,65.53857 C76.38323,63.84717 74.84421,62.46047 73.15281,61.38627 C73.00047,61.23393 72.84422,61.23393 72.69187,61.23393 L75.30907,56.15583 L81.92627,58.46443 C82.38721,58.61677 82.84815,58.77302 83.15677,59.08162 C84.38727,59.69881 85.30907,60.62072 86.07867,61.85112 L86.07867,62.00346 C86.8482,63.38626 87.46147,64.92536 87.46147,66.15576 L87.46147,66.46435 C87.61381,67.23388 87.92241,69.54245 88.231,73.54245 C88.231,74.61665 87.92241,75.53855 87.30912,76.30805 L87.309,76.3082 Z M98.231,71.0777 C97.61381,71.84723 96.6919,72.1558 95.6138,72.1558 L90.3833,72.1558 C90.07471,68.9253 89.76611,66.773 89.76611,66.1558 L89.76611,65.84721 C89.61377,64.15581 88.99658,62.46441 88.07471,60.76911 L88.07471,60.61677 C87.45752,59.53867 86.53561,58.61677 85.61381,57.84727 L87.92241,53.53867 L93.61381,55.53867 C94.07475,55.69101 94.38334,55.84726 94.69191,55.99961 C95.77001,56.6168 96.53961,57.38241 97.15281,58.46051 L97.15281,58.61285 C97.92234,59.84335 98.38331,61.07375 98.38331,62.30425 L98.38331,62.61284 C98.53565,63.38237 98.6919,65.23004 99.0005,68.30424 C99.15284,69.53864 98.84816,70.46044 98.23097,71.07764 L98.231,71.0777 Z"/>
    <path d="M23.461,50.77 C25.3087,50.77 27.0001,50.30906 28.5391,49.5395 C30.6914,51.6918 33.7696,53.0786 37,53.0786 C38.5391,53.0786 39.9219,52.77001 41.1523,52.30907 C43.6132,54.92627 47.1523,56.46137 51,56.46137 C54.8477,56.46137 58.2305,54.92227 60.8477,52.30907 C62.2305,52.77001 63.6172,53.0786 65,53.0786 C68.3828,53.0786 71.3086,51.6958 73.4609,49.5395 C75,50.30903 76.6914,50.77 78.539,50.77 C84.539,50.77 89.309,45.8481 89.309,40 C89.309,34 84.3871,29.23 78.539,29.23 C76.2304,29.23 73.9218,29.99953 72.0781,31.3823 C70.0781,29.9995 67.7695,29.0737 65.1562,29.0737 C62.6953,29.0737 60.2343,29.84323 58.2343,31.226 C56.2343,29.9955 53.7734,29.226 51.1562,29.226 C48.539,29.226 46.0781,29.99553 44.0781,31.226 C42.0781,29.8432 39.6172,29.0737 37.1562,29.0737 C34.539,29.0737 32.0781,29.99558 30.2343,31.3823 C28.3866,29.9995 26.082,29.23 23.7734,29.23 C17.7734,29.23 13.0034,34.1519 13.0034,40 C12.6909,45.8477 17.4604,50.77 23.4604,50.77 L23.461,50.77 Z M87,40 C87,44.7695 83.1523,48.4609 78.5391,48.4609 C77.3086,48.4609 76.0782,48.15231 75,47.69137 C76.2305,45.84367 77,43.53907 77,41.07417 C77,37.99607 75.7695,35.07417 73.7695,32.92187 C75.1523,31.99999 76.8476,31.38277 78.539,31.38277 C83.1523,31.38277 86.9999,35.23047 86.9999,39.99997 L87,40 Z M65,31.3828 C70.3828,31.3828 74.6914,35.6914 74.6914,41.0742 C74.6914,46.457 70.3828,50.7656 65,50.7656 C64.07812,50.7656 63.1523,50.61326 62.3828,50.30466 C63.7656,48.15236 64.6914,45.53516 64.6914,42.76556 C64.6914,38.76556 63,35.22646 60.2305,32.61356 C61.6172,31.84794 63.3086,31.38306 65,31.38306 L65,31.3828 Z M62.3828,42.7698 C62.3828,49.0784 57.3047,53.9998 50.9998,53.9998 C44.6912,53.9998 39.7698,48.9217 39.7698,42.7698 C39.7698,36.4612 44.8479,31.3868 50.9998,31.3868 C57.1521,31.382893 62.3828,36.6173 62.3828,42.7698 Z M41.9218,32.6178 C39.1523,35.0787 37.4609,38.7701 37.4609,42.7698 C37.4609,45.5393 38.23043,48.1526 39.7695,50.3089 C38.84762,50.61749 38.0781,50.76984 37.1523,50.76984 C31.7695,50.76984 27.4609,46.46124 27.4609,41.07844 C27.4609,35.69564 31.7695,31.38704 37.1523,31.38704 C38.6914,31.383133 40.3828,31.84798 41.9218,32.61754 L41.9218,32.6178 Z M23.4608,31.3834 C25.1522,31.3834 26.8436,31.84434 28.2303,32.9225 C26.2303,35.0748 24.9998,37.8444 24.9998,41.0748 C24.9998,43.5357 25.76933,45.8443 26.9998,47.692 C25.9217,48.15294 24.6912,48.46153 23.4607,48.46153 C18.6912,48.46153 14.9998,44.61383 14.9998,40.00063 C14.9998,35.38343 18.8475,31.38343 23.4607,31.38343 L23.4608,31.3834 Z"/>
    <polygon points="49.922 .922 52.231 .922 52.231 11.539 49.922 11.539"/>
    <polygon points="67.738 3.941 69.871 4.824 65.808 14.629 63.675 13.746"/>
    <polygon points="83.141 13.617 84.774 15.25 77.266 22.758 75.633 21.125"/>
    <polygon points="34.238 4.008 38.3 13.817 36.168 14.699 32.105 4.891"/>
    <polygon points="18.918 13.723 26.426 21.231 24.793 22.864 17.285 15.356"/>
  </g>
</svg>
