<svg xmlns="http://www.w3.org/2000/svg" width="91" height="78" viewBox="0 0 91 78">
  <path fill="#232323" d="M3.9336,37.527 L22.7656,48.289 L28.707,51.6874 L28.707,70.7964 C28.707,75.48 30.6015,76.8784 31.7265,77.2925 C32.04291,77.40969 32.46088,77.51125 32.9609,77.51125 C34.2343,77.51125 36.0625,76.87844 38.2461,74.32765 L48.1406,62.79265 L63.8636,71.77315 C64.82454,72.32002 65.8558,72.60127 66.8675,72.60127 C67.55109,72.60127 68.2191,72.47236 68.848,72.21846 C70.4105,71.58174 71.598,70.19896 72.1058,68.41766 L82.3908,32.41766 L89.6955,6.85566 C90.53534,3.91036 89.45722,2.31656 88.73847,1.62516 C88.01972,0.93766 86.37907,-0.07404 83.47287,0.8986 L35.23487,16.9726 L4.96887,27.0586 C0.94157,28.4024 0.14077,30.6367 0.01967,31.8516 C-0.10142,33.0704 0.24623,35.4219 3.93377,37.5274 L3.9336,37.527 Z M35.8316,72.25 C34.1441,74.2227 33.0972,74.4062 32.8316,74.3047 C32.56988,74.207043 31.89019,73.38673 31.89019,70.7891 L31.89019,53.5001 L45.32819,61.1798 L35.8316,72.25 Z M86.5546,6.238 L79.3241,31.539 L69.0431,67.543 C68.80091,68.38675 68.30482,69 67.6447,69.2696 C66.98845,69.53913 66.2033,69.44538 65.4416,69.00788 L32.3046,50.06988 L86.5546,6.238 Z M5.9766,30.078 L36.2386,19.988 L84.2976,3.968 L29.3366,48.374 L24.3405,45.5185 L5.5125,34.7645 C3.7078,33.7333 3.1297,32.7489 3.1883,32.1668 C3.242988,31.58868 4.00861,30.7332 5.9774,30.077 L5.9766,30.078 Z"/>
</svg>
