<svg xmlns="http://www.w3.org/2000/svg" width="52" height="52" viewBox="0 0 52 52">
  <g fill="#232323">
    <path d="M26 36.0083043C29.8858696 36.0083043 33.0652174 32.8289565 33.0652174 28.943087 33.0652174 25.0572174 29.8858696 21.8778696 26 21.8778696 22.1141304 21.8778696 18.9347826 25.0572174 18.9347826 28.943087 18.9347826 32.8289565 22.1141304 36.0083043 26 36.0083043zM26 24.2336957C28.5898261 24.2336957 30.7093913 26.3532609 30.7093913 28.943087 30.7093913 31.532913 28.5898261 33.6524783 26 33.6524783 23.4101739 33.6524783 21.2906087 31.532913 21.2906087 28.943087 21.2906087 26.3532609 23.4101739 24.2336957 26 24.2336957zM39.540913 46.1358696C39.540913 41.7797391 36.1253043 38.1278696 31.8285217 37.8339565L31.2986304 37.774343 30.9453696 38.1276039C29.5919565 39.4236474 27.8256522 40.1301691 25.9997174 40.1301691 24.1737826 40.1301691 22.4074783 39.4236474 21.0540652 38.1276039L20.7008043 37.774343 20.170913 37.774343C15.8721522 38.1276039 12.4585217 41.779417 12.4585217 46.1356039L12.4585217 51.9047778 39.5426087 51.9047778 39.540913 46.1358696zM37.1872913 49.5514783L14.8125957 49.5514783 14.8125957 46.1358696C14.8125957 43.1927826 16.9917913 40.6603261 19.8752478 40.2474348 21.5841261 41.6604783 23.7036913 42.4862043 25.9999435 42.4862043 28.2961957 42.4862043 30.4157043 41.6626826 32.1223783 40.1900087 35.0080957 40.6602865 37.1850304 43.1330957 37.1850304 46.0784435L37.1872913 49.5514783zM35.4210435 31.298913C35.4210435 34.5378913 38.0705 37.1873478 41.3094783 37.1873478 44.5484565 37.1873478 47.197913 34.5378913 47.197913 31.298913 47.197913 28.0599348 44.5484565 25.4104783 41.3094783 25.4104783 38.0705 25.4104783 35.4210435 28.0599348 35.4210435 31.298913L35.4210435 31.298913zM44.8398261 31.298913C44.8398261 33.2418478 43.2501522 34.8315217 41.3072174 34.8315217 39.3642826 34.8315217 37.7746087 33.2418478 37.7746087 31.298913 37.7746087 29.3559783 39.3642826 27.7663043 41.3072174 27.7663043 43.2501522 27.7663043 44.8398261 29.3559783 44.8398261 31.298913zM46.0188696 38.9536522L44.8994565 38.9536522 44.5461957 39.306913C43.6630435 40.2474913 42.6032609 40.7199565 41.3072174 40.7199565L41.3072174 43.0757826C43.0735217 43.0757826 44.6631957 42.4862609 45.8996087 41.3094783L46.0188357 41.30727C47.9617704 41.30727 49.5514443 42.8969439 49.5514443 44.8398787L49.5514443 47.1957047 41.3071835 47.1957047 41.3071835 49.5515308 51.9050096 49.5515308 51.9050096 44.8421395C51.9050096 41.6031613 49.255553 38.9537047 46.0188357 38.9537047L46.0188696 38.9536522zM10.6927826 25.4104783C7.45380435 25.4104783 4.80434783 28.0599348 4.80434783 31.298913 4.80434783 34.5378913 7.45380435 37.1873478 10.6927826 37.1873478 13.9317609 37.1873478 16.5812174 34.5378913 16.5812174 31.298913 16.5790091 28.0599348 13.9295565 25.4104783 10.6927826 25.4104783L10.6927826 25.4104783zM10.6927826 34.8315217C8.74984783 34.8315217 7.16017391 33.2418478 7.16017391 31.298913 7.16017391 29.3559783 8.74984783 27.7663043 10.6927826 27.7663043 12.6357174 27.7663043 14.2253913 29.3559783 14.2253913 31.298913 14.2253913 33.2418478 12.6357174 34.8315217 10.6927826 34.8315217zM10.6927826 47.1956522L2.44852174 47.1956522 2.44852174 44.8398261C2.44852174 42.8968913 4.03819565 41.3072174 5.98113043 41.3072174L6.09814739 41.3072174C7.39419087 42.484 8.92423435 43.0735217 10.6905387 43.0735217L10.6905387 40.7176957C9.39449522 40.7176957 8.27734304 40.2474178 7.39419087 39.3046522L7.04093 38.9536013 5.98114739 38.9536013C2.74437348 38.9536013.0949734783 41.6030578.0949734783 44.8397752L.0949734783 49.5491665 10.6927996 49.5491665 10.6927826 47.1956522zM2.44852174 21.2906087L5.33423913 21.2906087 7.86669565 25.5297391 9.86926087 21.2906087 13.0464043 21.2906087C14.3424478 21.2906087 15.4022304 20.2308261 15.4022304 18.9347826L15.4022304 13.6358696C15.4022304 12.3398261 14.3424478 11.2800435 13.0464043 11.2800435L2.44857826 11.2800435C1.15253478 11.2800435.0927521739 12.3398261.0927521739 13.6358696L.0927521739 18.9347826C.0949604783 20.2308261 1.15473913 21.2906087 2.44857826 21.2906087L2.44852174 21.2906087zM2.44852174 13.6358696L13.0463478 13.6358696 13.0463478 18.9347826 8.39432609 18.9347826 7.62817391 20.584087 6.63022609 18.9347826 2.44852174 18.9347826 2.44852174 13.6358696zM20.1115652 17.1684783L29.9435217 17.1684783 32.3567174 22.7610217 35.5360652 17.1684783 40.7201826 17.1684783C42.0162261 17.1684783 43.0760087 16.1086957 43.0760087 14.8126522L43.0738004 2.44852174C43.0738004 1.15247826 42.0140178.0926956522 40.7179743.0926956522L20.1118439.0949039565C18.8158004.0949039565 17.7560178 1.15468657 17.7560178 2.45073004L17.7560178 14.8148605C17.7582261 16.1086996 18.8180047 17.1684822 20.1118439 17.1684822L20.1115652 17.1684783zM20.1115652 2.44852174L40.7176957 2.44852174 40.7176957 14.8126522 34.125 14.8126522 32.5949565 17.4621087 31.4755435 14.8126522 20.1118478 14.8126522 20.1115652 2.44852174z"/>
    <polygon points="23.644 4.804 36.598 4.804 36.598 7.16 23.644 7.16"/>
    <polygon points="23.644 9.514 31.886 9.514 31.886 11.87 23.644 11.87"/>
  </g>
</svg>
