<svg xmlns="http://www.w3.org/2000/svg" width="100" height="100" viewBox="0 0 100 100">
  <g fill="#232323">
    <path d="M2.082,1.55431223e-15 C0.9336,1.55431223e-15 0,0.93359 0,2.082 L0,97.918 C0,99.0664 0.93359,100 2.082,100 L79.168,100 C80.3164,100 81.25,99.06641 81.25,97.918 L81.25,66.668 C81.257812,66.10941 81.04297,65.5703 80.64844,65.1758 C80.25781,64.77736 79.72266,64.55471 79.16794,64.55471 C78.60935,64.55471 78.07414,64.77737 77.68354,65.1758 C77.29292,65.57033 77.07416,66.10939 77.08198,66.668 L77.08198,95.832 L4.16798,95.832 L4.16798,4.168 L58.33198,4.168 L58.33198,25.078 C58.33198,25.60925 58.55073,26.121 58.94136,26.496 C59.33199,26.871 59.86324,27.08194 60.41796,27.08194 L77.05496,27.08194 L77.082303,27.08194 L77.082303,45.83194 C77.074491,46.39053 77.293243,46.92964 77.683863,47.32414 C78.074483,47.72258 78.609643,47.94523 79.168263,47.94523 C79.722953,47.94523 80.258063,47.72257 80.648763,47.32414 C81.043293,46.92961 81.258133,46.39055 81.250323,45.83194 L81.250323,24.99994 C81.250323,24.51947 81.082353,24.05463 80.777663,23.68354 L62.027663,0.76554 C61.633133,0.28116 61.043283,-8e-05 60.418263,-8e-05 L2.082,1.55431223e-15 Z M62.5,7.9219 L74.898,23.0739 L62.5,23.0739 L62.5,7.9219 Z"/>
    <path d="M88.566 35.422C88.02303 35.425906 87.5074 35.64466 87.1207 36.02747L56.2417 66.90647C56.03076 67.11741 55.87061 67.37131 55.76514 67.64866L50.13234 82.60166C49.84718 83.36729 50.03078 84.23056 50.6089 84.80866 51.18702 85.38676 52.0503 85.57428 52.8159 85.28522L67.7729 79.65632C68.05024 79.55085 68.30024 79.38679 68.51118 79.17585L99.39018 48.29685C100.20268 47.48044 100.20268 46.16405 99.39018 45.34765L90.06598 36.02735C89.66754 35.62891 89.12848 35.41407 88.56598 35.42188L88.566 35.422zM88.593344 40.4493L94.972244 46.8204 67.160244 74.6324 60.781344 68.2574 88.593344 40.4493zM58.593344 71.9613L63.460544 76.8246 55.655844 79.766 58.593344 71.9613zM14.613 35.414C14.05441 35.406188 13.5153 35.62103 13.1208 36.01556 12.72236 36.40618 12.49971 36.94134 12.49971 37.49606 12.49971 38.05465 12.72237 38.58986 13.1208 38.98046 13.51533 39.37108 14.05439 39.58984 14.613 39.58202L60.39 39.58202 60.386094 39.58202C60.944684 39.589833 61.483794 39.37108 61.878294 38.98046 62.276734 38.58984 62.499384 38.05468 62.499384 37.49606 62.499384 36.94137 62.276724 36.40626 61.878294 36.01556 61.483764 35.62103 60.944704 35.40618 60.386094 35.414L14.609094 35.414 14.613 35.414zM14.613 60.414C14.05441 60.406188 13.5153 60.62103 13.1208 61.01556 12.72236 61.40618 12.49971 61.94134 12.49971 62.49606 12.49971 63.05465 12.72237 63.58986 13.1208 63.98046 13.51533 64.37108 14.05439 64.58984 14.613 64.58202L37.472 64.58202C38.02669 64.589833 38.5658 64.37108 38.9642 63.98046 39.35873 63.58984 39.58529 63.05468 39.58529 62.49606 39.58529 61.94137 39.35873 61.40626 38.9642 61.01556 38.56576 60.62103 38.0267 60.40618 37.472 60.414L14.613 60.414zM14.613 72.914C14.05441 72.906188 13.5153 73.12103 13.1208 73.51556 12.72236 73.90618 12.49971 74.44134 12.49971 74.99606 12.49971 75.55465 12.72237 76.08986 13.1208 76.48046 13.51533 76.87108 14.05439 77.08984 14.613 77.08202L37.472 77.08202C38.02669 77.089833 38.5658 76.87108 38.9642 76.48046 39.35873 76.08984 39.58529 75.55468 39.58529 74.99606 39.58529 74.44137 39.35873 73.90626 38.9642 73.51556 38.56576 73.12103 38.0267 72.90618 37.472 72.914L14.613 72.914zM14.613 47.914C14.05441 47.906188 13.5153 48.12103 13.1208 48.51556 12.72236 48.90618 12.49971 49.44134 12.49971 49.99606 12.49971 50.55465 12.72237 51.08986 13.1208 51.48046 13.51533 51.87108 14.05439 52.08984 14.613 52.08202L60.39 52.08202 60.386094 52.08202C60.944684 52.089833 61.483794 51.87108 61.878294 51.48046 62.276734 51.08984 62.499384 50.55468 62.499384 49.99606 62.499384 49.44137 62.276724 48.90626 61.878294 48.51556 61.483764 48.12103 60.944704 47.90618 60.386094 47.914L14.609094 47.914 14.613 47.914z"/>
  </g>
</svg>
