<svg xmlns="http://www.w3.org/2000/svg" width="79" height="79" viewBox="0 0 79 79">
  <path fill="#232323" d="M77.84,18.84 L60.16,1.16 C59.18344,0.18344 57.6014,0.18344 56.6248,1.16 L45.9648,11.824 C45.960894,11.824 45.960894,11.827906 45.960894,11.827906 C45.960894,11.831812 45.956987,11.831812 45.956987,11.831812 L5.479987,52.308812 C5.132327,52.656472 4.894047,53.097872 4.796397,53.582212 L0.319797,75.738212 C0.155737,76.558522 0.409641,77.410112 1.003387,77.999912 C1.476047,78.472572 2.112787,78.730382 2.772887,78.730382 C2.936947,78.730382 3.104917,78.714757 3.268977,78.679601 L25.424977,74.199101 C25.905447,74.101444 26.350757,73.863161 26.698377,73.515511 L77.846377,22.367511 C78.315127,21.898761 78.576847,21.262011 78.576847,20.598011 C78.569034,19.941761 78.307317,19.308911 77.838567,18.840211 L77.84,18.84 Z M31.996,61.149 L17.851,47.004 L47.73,17.129 L61.871,31.274 L31.996,61.149 Z M23.6874,69.4537 L5.9604,73.0357 L9.5424,55.3087 L14.3119,50.5392 L28.4599,64.6842 L23.6874,69.4537 Z M65.4064,27.7387 L51.2654,13.5937 L58.3943,6.4648 L72.5393,20.6058 L65.4064,27.7387 Z"/>
</svg>
