<svg xmlns="http://www.w3.org/2000/svg" width="45" height="45" viewBox="0 0 45 45">
  <g fill="#232323">
    <path d="M43,-7.10542736e-15 L28.5,-7.10542736e-15 C27.3748625,0.000149198325 26.4405175,0.926819998 26.5,2 C26.4405175,3.21532338 27.3748625,4.14199418 28.5,4 L38,4 L17.5,24.5 C16.7957985,25.2724557 16.7957985,26.5837598 17.5,27.5 C18.0200296,27.7979357 18.554772,28 19,28 C19.6242568,28 20.1589992,27.7979606 20.5,27.5 L41,7.5 L41,16.5 C40.8238544,17.4825127 41.7581994,18.4091835 43,18.5 C44.065655,18.4091835 45,17.4825127 45,16.5 L45,2 C45,0.926670799 44.065655,-7.10542736e-15 43,-7.10542736e-15 L43,-7.10542736e-15 Z"/>
    <path d="M35.5,21 C34.2806773,21.0355578 33.352739,21.963496 33.5,23 L33.5,39.5 C33.352739,40.2188247 32.7205179,40.852988 32,41 L5.5,41 C4.7814243,40.852988 4.14726096,40.2207669 4,39.5 L4,13 C4.14726096,12.2816733 4.77948207,11.64751 5.5,11.5 L22,11.5 C23.0950199,11.64751 24.0229582,10.7195717 24,9.5 C24.0229582,8.42793825 23.0950199,7.5 22,7.5 L5.5,7.5 C2.48202191,7.5 0,9.98032869 0,13 L0,39.5 C0,42.5179781 2.48032869,45 5.5,45 L32,45 C35.0179781,45 37.5,42.5196713 37.5,39.5 L37.5,23 C37.5,21.963247 36.5720618,21.0353088 35.5,21 L35.5,21 Z"/>
  </g>
</svg>
