<svg xmlns="http://www.w3.org/2000/svg" width="94" height="91" viewBox="0 0 94 91">
  <path fill="#232323" d="M31.988,0.3828 C26.7263,0.3828 22.0778,2.9375 18.254,6.6016 C14.4376,10.2618 11.3009,15.0782 8.7384,20.2346 C3.6446,30.4926 0.7501,40.6726 0.7501,49.9966 C0.7501,59.9068 3.379,68.5046 9.1017,73.8366 C14.6408,79.0046 22.5627,81.6257 31.9887,81.6257 L32.012138,81.6257 C41.437938,81.6257 49.360138,79.0046 54.899138,73.8366 C60.621838,68.5046 63.250738,59.9066 63.250738,49.9966 C63.250738,40.6724 60.356238,30.4926 55.262438,20.2346 C52.699938,15.0784 49.563238,10.2619 45.746838,6.6016 C41.922638,2.9375 37.274138,0.3828 32.012838,0.3828 L31.988,0.3828 Z M31.988,3.5078 L32.011438,3.5078 C36.261438,3.5078 40.140338,5.5586 43.577438,8.8516 C47.018838,12.1524 50.011038,16.6875 52.464138,21.6286 C57.401638,31.5661 60.124338,41.3236 60.124338,49.9956 C60.124338,59.3511 57.597038,67.0466 52.764938,71.5546 C47.921138,76.0663 40.862938,78.4999 32.010938,78.4999 L31.9875,78.4999 C23.1359,78.4999 16.0775,76.0663 11.2335,71.5546 C6.4015,67.0468 3.8741,59.3516 3.8741,49.9956 C3.8741,41.3237 6.5968,31.5656 11.5343,21.6286 C13.9874,16.6872 16.9796,12.152 20.421,8.8516 C23.8585,5.5586 27.7374,3.5078 31.987,3.5078 L31.988,3.5078 Z M27.3239,9.75 C27.07781,9.75 26.83562,9.804688 26.61687,9.91406 C24.85517,10.76172 23.24967,11.95316 21.80047,13.35156 C18.90207,16.14456 16.54267,19.80466 14.61687,23.70656 C14.14031,24.67531 13.68718,25.64016 13.26137,26.60886 C13.05043,27.08933 12.8434,27.5698 12.64418,28.05416 C12.48012,28.43697 12.47621,28.87057 12.632461,29.26116 C12.788711,29.64788 13.097301,29.95647 13.484021,30.11663 C13.866831,30.27679 14.304331,30.27288 14.687121,30.112723 C15.073841,29.948663 15.378531,29.640063 15.530871,29.249443 C15.722281,28.792413 15.921491,28.331473 16.124621,27.870543 C16.530871,26.948663 16.960561,26.022843 17.417621,25.093243 C19.237921,21.409643 21.444921,18.042443 23.968421,15.608843 C25.226221,14.394043 26.573921,13.409643 27.972321,12.741643 C28.640291,12.436953 29.007521,11.706443 28.851231,10.987743 C28.694941,10.269043 28.058261,9.757243 27.323931,9.757243 L27.3239,9.75 Z M12.0579,32.664 C11.37431,32.675719 10.7767,33.13666 10.5891,33.7968 C10.44457,34.27336 10.31176,34.74602 10.18676,35.2187 C10.06176,35.62495 10.108635,36.05854 10.31567,36.4296 C10.51879,36.79679 10.86645,37.07022 11.2727,37.1796 C11.67895,37.28897 12.11254,37.230381 12.4758,37.01554 C12.83908,36.8007 13.1008,36.44913 13.20236,36.03898 C13.31955,35.59367 13.45236,35.14445 13.58517,34.69518 C13.73751,34.21471 13.64767,33.69128 13.34298,33.28498 C13.0422,32.88264 12.56173,32.65217 12.05778,32.66389 L12.0579,32.664 Z" transform="translate(0 9)"/>
</svg>
