<svg xmlns="http://www.w3.org/2000/svg" width="78" height="76" viewBox="0 0 78 76">
  <g fill="#232323">
    <polygon points="34 0 34 27 30 27 30 6.828 2.921 33.909 .125 31.047 27.172 4 7 4 7 0" transform="translate(43 2)"/>
    <path d="M52.9811019,20.3680328 C52.1394657,19.4165439 51.2446668,18.4608353 50.296,17.5 C47.8976,15 45.296,12.6992 42.8976,10.3984 C39.796,7.5976 36.5968,4.5976 33.796,1.5 C33.296,0.89844 32.4952,0.60156 31.6944,0.69922 C30.89362,0.80078 30.1944,1.19922 29.796,1.80082 C25.6944,8.19922 25.5968,17.19882 29.59678,25.30082 C29.99522,26.00004 30.39756,26.80082 30.69838,27.50002 C31.19838,28.50002 31.79998,29.50002 32.19838,30.50002 C33.59678,33.60162 33.39758,37.00002 31.79994,39.69922 C29.60074,43.30082 25.79994,44.09762 22.79994,43.69922 C18.99914,43.09766 15.99914,40.50002 15.19834,37.00002 C14.99912,36.3008 14.99912,35.50002 15.09678,34.60162 C15.296,31.50002 15.59678,28.10162 15.89756,25.40242 C16.49912,18.60162 16.49912,18.60162 15.69834,18.10162 C15.2999,17.80084 14.69834,17.80084 14.19834,18.00006 C12.49914,18.8985 11.09674,20.30086 9.89754,21.50006 L9.69832,21.69928 C0.09672,31.39848 -2.00068,47.59728 4.69832,59.50028 C10.10062,69.10188 20.99932,75.30128 31.99932,75.30128 L33.30012,75.30128 C44.69812,74.80128 55.60112,67.50048 60.49912,57.19928 C63.10072,51.39848 63.99912,44.89828 62.89752,38.89828 C62.1428324,34.7764481 60.4458869,30.6887995 57.746328,26.5577044 L55.4518642,28.6025662 C57.7843305,32.2802212 59.2776665,35.8896389 60.00013,39.49918 C60.89857,44.89758 60.19935,50.69818 57.69933,55.89718 C53.3004,65.2964 43.3978,71.898 33.0968,72.296 C22.6988,72.79991 12.2998,66.9991 7.1988,57.999 C1.0972,47.3 2.9996,32.601 11.6988,23.8 L11.89802,23.60078 L13.09722,22.40158 C12.99566,23.20236 12.898,24.20238 12.898,25.10078 C12.69878,27.79998 12.398,31.20238 12.09722,34.29998 C11.99566,35.49918 12.09722,36.60078 12.29644,37.60078 C13.39804,42.29998 17.29644,45.79998 22.39844,46.60078 C27.39844,47.40156 32.00004,45.29998 34.39844,41.20238 C36.50004,37.70238 36.69924,33.20238 34.89844,29.20238 C34.39844,28.10078 33.89844,27.00318 33.29684,26.00318 C32.8984,25.30396 32.49606,24.60478 32.19524,23.90158 C28.89834,17.19848 28.80074,9.39758 31.99993,3.99958 C34.80073,6.99958 37.89833,9.89798 40.89833,12.60118 C43.29673,14.80038 45.89833,17.20278 48.19913,19.60118 C49.1293368,20.5590463 50.0036616,21.5092237 50.8231716,22.4527808 L52.9811019,20.3680328 Z"/>
  </g>
</svg>
