<svg xmlns="http://www.w3.org/2000/svg" width="94" height="94" viewBox="0 0 94 94">
  <path fill="#232323" d="M60.688,15.184 C59.90284,12.3715 61.63331,9.2504 65.0083,8.7582 L70.1255,7.96133 L72.3677,3.41053 C74.3091,-0.52307 79.6841,-0.58167 81.6568,3.41053 L83.9224,8.01993 L89.0162,8.75821 C93.356,9.39102 95.0748,14.48481 91.8873,17.59411 L88.1959,21.10581 L89.07481,26.24641 C89.817,30.56671 85.50451,33.77761 81.55921,31.70341 L78.73891,30.16821 C79.52016,28.58231 79.81701,26.92211 79.68032,25.33621 L83.77802,27.48851 C84.2038,27.71117 84.46161,27.508041 84.38349,27.05101 L83.23119,20.34791 C83.153065,19.87525 83.3601,19.25411 83.69603,18.92601 L88.56323,14.18381 C88.90698,13.84787 88.7937,13.53928 88.33276,13.47287 L81.60616,12.4924 C81.1296,12.425993 80.60226,12.03537 80.39526,11.61349 L77.38746,5.51969 C77.17262,5.09 76.84449,5.10172 76.63746,5.51969 L73.62966,11.61349 C73.41872,12.04708 72.88357,12.42599 72.41876,12.4924 L65.69216,13.47287 C65.2195,13.539276 65.12966,13.85568 65.46169,14.18381 L67.95779,16.61351 L61.53589,15.67992 C61.38745,15.660388 61.01636,15.42992 60.68823,15.18383 L60.688,15.184 Z M15.782,30.211 L12.9422,31.7032 C9.0594,33.7462 4.6727,30.6329 5.4266,26.2462 L6.40316,21.2853 L2.61406,17.5939 C-0.52654,14.5314 1.07886,9.3986 5.48516,8.758 L10.59846,7.96113 L12.84456,3.41033 C14.78596,-0.52327 20.16096,-0.58187 22.13366,3.41033 L24.39926,8.01973 L29.49306,8.75801 C32.82116,9.24239 34.61026,12.35181 33.82116,15.17991 C33.48913,15.426 33.11413,15.65647 32.96569,15.67991 L26.54769,16.6135 L29.03989,14.1838 C29.38364,13.84786 29.27036,13.53927 28.80942,13.47286 L22.08282,12.49239 C21.60626,12.425983 21.07892,12.03536 20.87192,11.61348 L17.86412,5.51968 C17.64928,5.08999 17.32115,5.10171 17.11412,5.51968 L14.10632,11.61348 C13.89538,12.04707 13.36023,12.42598 12.89542,12.49239 L6.16882,13.47286 C5.69616,13.539266 5.60632,13.85567 5.93835,14.1838 L10.80555,18.926 C11.1493,19.26194 11.34852,19.89084 11.27039,20.3479 L10.11809,27.051 C10.039964,27.52366 10.3134,27.70725 10.72356,27.4885 L14.82126,25.3362 C14.68454,26.9339 14.98923,28.6096 15.7822,30.2112 L15.782,30.211 Z M49.255,54.777 C48.31359,54.28091 46.1886,54.28091 45.2472,54.777 L36.6105,59.3161 C30.7863,62.3786 25.1765,58.2966 26.2865,51.8122 L27.9349,42.1989 C28.11459,41.1481 27.45834,39.1286 26.6966,38.3864 L19.7122,31.5739 C14.9974,26.9801 17.1458,20.3829 23.6536,19.4369 L33.3098,18.0346 C34.3645,17.88226 36.0832,16.6323 36.552,15.6791 L40.8723,6.9291 C43.7825,1.0307 50.72,1.0307 53.6343,6.9291 L57.9507,15.6791 C58.41945,16.63222 60.1421,17.8822 61.1929,18.0346 L70.8491,19.4369 C77.3608,20.38612 79.5014,26.9838 74.7905,31.5739 L67.8061,38.3864 C67.04438,39.12859 66.3881,41.1481 66.5678,42.1989 L68.2162,51.8122 C69.3295,58.3005 63.7123,62.3742 57.8922,59.3161 L49.255,54.777 Z M60.107,55.10122 C62.4351,56.32392 63.9664,55.2145 63.5211,52.61682 L61.8727,43.00352 C61.42739,40.40972 62.59536,36.81212 64.4821,34.97622 L71.4665,28.16372 C73.3532,26.32782 72.7712,24.53092 70.1618,24.15202 L60.5095,22.74972 C57.9079,22.37081 54.8454,20.14812 53.6814,17.78492 L49.3611,9.03882 C48.197,6.67942 46.3064,6.67552 45.1423,9.03882 L40.822,17.78492 C39.6579,20.14432 36.5993,22.37082 33.9939,22.74972 L24.3416,24.15202 C21.7361,24.53093 21.1502,26.32782 23.0369,28.16372 L30.0213,34.97622 C31.9041,36.81212 33.076,40.40982 32.6307,43.00352 L30.9823,52.61682 C30.53699,55.21062 32.0643,56.32382 34.3964,55.10122 L43.0292,50.56212 C45.3573,49.33552 49.1425,49.33552 51.4745,50.56212 L60.107,55.10122 Z" transform="translate(0 17)"/>
</svg>
