<svg xmlns="http://www.w3.org/2000/svg" width="101" height="90" viewBox="0 0 101 90">
  <g fill="#232323">
    <path d="M89.582,89.793 L10.418,89.793 C4.6719,89.793 -7.10542736e-15,85.1172 -7.10542736e-15,79.375 L-7.10542736e-15,10.625 C-7.10542736e-15,4.8828 4.6719,0.207 10.418,0.207 L89.586,0.207 C95.3282,0.207 100.004,4.8789 100.004,10.625 L100.004,79.375 C100.000094,85.1172 95.3282,89.793 89.582,89.793 Z M10.418,4.375 C6.9727,4.375 4.168,7.1797 4.168,10.625 L4.168,79.375 C4.168,82.8203 6.9727,85.625 10.418,85.625 L89.586,85.625 C93.0313,85.625 95.836,82.8203 95.836,79.375 L95.832093,10.625 C95.832093,7.1797 93.027393,4.375 89.582093,4.375 L10.418,4.375 Z"/>
    <path d="M79.168 20L39.582 20C38.4336 20 37.5 19.06641 37.5 17.918 37.5 16.7696 38.43359 15.836 39.582 15.836L79.164 15.836C80.3124 15.836 81.246 16.76959 81.246 17.918 81.249906 19.0664 80.31631 20 79.1679 20L79.168 20zM69.047 80.418L30.953 80.418C29.8046 80.418 28.871 79.48441 28.871 78.336L28.871 65.832C28.871 64.6836 29.80459 63.75 30.953 63.75L69.047 63.75C70.1954 63.75 71.129 64.68359 71.129 65.832L71.129 78.332C71.129 79.4843 70.19931 80.4179 69.047 80.4179L69.047 80.418zM33.035 76.25L66.961 76.25 66.961 67.918 33.035 67.918 33.035 76.25zM25 24.168C21.5547 24.168 18.75 21.3633 18.75 17.918 18.75 14.4727 21.5547 11.668 25 11.668 28.4453 11.668 31.25 14.4727 31.25 17.918 31.25 21.3633 28.4453 24.168 25 24.168zM25 15.8321C23.8516 15.8321 22.918 16.76569 22.918 17.9141 22.918 19.0625 23.85159 19.9961 25 19.9961 26.14841 19.9961 27.082 19.06251 27.082 17.9141 27.082 16.7696 26.14841 15.8321 25 15.8321zM79.168 36.668L39.582 36.668C38.4336 36.668 37.5 35.73441 37.5 34.586 37.5 33.4376 38.43359 32.504 39.582 32.504L79.164 32.504C80.3124 32.504 81.246 33.43759 81.246 34.586 81.249906 35.7344 80.31631 36.668 79.1679 36.668L79.168 36.668zM25 40.832C21.5547 40.832 18.75 38.0273 18.75 34.582 18.75 31.1367 21.5547 28.332 25 28.332 28.4453 28.332 31.25 31.1367 31.25 34.582 31.25 38.0312 28.4453 40.832 25 40.832zM25 32.5C23.8516 32.5 22.918 33.43359 22.918 34.582 22.918 35.7304 23.85159 36.664 25 36.664 26.14841 36.664 27.082 35.73041 27.082 34.582 27.082 33.4336 26.14841 32.5 25 32.5zM79.168 53.332L39.582 53.332C38.4336 53.332 37.5 52.39841 37.5 51.25 37.5 50.10159 38.43359 49.168 39.582 49.168L79.164 49.168C80.3124 49.168 81.246 50.10159 81.246 51.25 81.249906 52.3984 80.31631 53.332 79.1679 53.332L79.168 53.332zM25 57.5C21.5547 57.5 18.75 54.6953 18.75 51.25 18.75 47.8047 21.5547 45 25 45 28.4453 45 31.25 47.8047 31.25 51.25 31.25 54.6953 28.4453 57.5 25 57.5zM25 49.168C23.8516 49.168 22.918 50.10159 22.918 51.25 22.918 52.39841 23.85159 53.332 25 53.332 26.14841 53.332 27.082 52.39841 27.082 51.25 27.082 50.10159 26.14841 49.168 25 49.168z"/>
  </g>
</svg>
