<svg xmlns="http://www.w3.org/2000/svg" width="88" height="82" viewBox="0 0 88 82">
  <path fill="#232323" d="M53.141,17.637 L55.059,5.504 C55.32853,4.375106 55.066812,3.183706 54.34806,2.269606 C53.6254,1.355546 52.52776,0.820406 51.36366,0.820406 C48.74646,0.964936 46.58246,2.914206 46.17226,5.507906 L44.25426,17.640906 L28.98826,17.637 L30.91796,5.504 C31.18749,4.375106 30.921866,3.179806 30.19921,2.265706 C29.47655,1.351646 28.37501,0.816506 27.21091,0.820406 C24.58591,0.949316 22.41791,2.910206 22.02731,5.507906 L20.09761,17.640906 L9.59761,17.637 C7.05851,17.715125 4.91401,19.5511 4.44921,22.0511 C4.23046,23.1566 4.523429,24.2972 5.2539,25.1566 C5.98046,26.01598 7.0625,26.4964 8.1875,26.4613 L18.6875,26.4613 L16.2695,41.7933 L5.7695,41.7933 C3.2304,41.867519 1.0859,43.7035 0.6211,46.2035 C0.40626,47.309 0.703131,48.4496 1.42969,49.309 C2.16016,50.16447 3.23439,50.6449 4.35939,50.6137 L14.88239,50.6137 L12.99569,62.5277 C12.72616,63.6566 12.987877,64.8519 13.70663,65.766 C14.42929,66.68006 15.52693,67.2113 16.69103,67.2152 C19.30823,67.06676 21.46833,65.1136 21.88243,62.5277 L23.70273,50.6797 L39.01173,50.6797 L37.13673,62.5277 C36.87111,63.6605 37.13673,64.8519 37.85939,65.766 C38.58205,66.67616 39.67969,67.2113 40.84379,67.2152 C43.45709,67.06676 45.61719,65.1136 46.02739,62.5277 L47.90239,50.6837 L58.40239,50.6837 C60.94149,50.601668 63.08209,48.765694 63.55079,46.269594 C63.76954,45.164094 63.476571,44.019594 62.7461,43.164094 C62.01954,42.304724 60.9375,41.824294 59.8125,41.859394 L49.3125,41.859394 L51.7266,26.593394 L62.2306,26.593394 C64.7697,26.519175 66.9142,24.679294 67.379,22.183194 C67.64462,21.058194 67.371188,19.874594 66.63681,18.983994 C65.90243,18.089464 64.79301,17.593394 63.64071,17.636294 L53.141,17.637 Z M40.426,41.793 L25.16,41.793 L27.5741,26.527 L42.8401,26.527 L40.426,41.793 Z" transform="translate(10 7)"/>
</svg>
