<svg xmlns="http://www.w3.org/2000/svg" width="58" height="53" viewBox="0 0 58 53">
  <g fill="#232323">
    <g transform="translate(0 33)">
      <path d="M25.77,4.84575 L18.5005,4.84575 L16.385275,9.38375 L14.27005,4.84575 L12.154825,4.84575 C11.500525,2.2305 9.654825,0.34575 9.539575,0.2305 L9.3471925,0.0381175 L9.15481,0.2305 C9.0776625,0.345735 7.23196,2.2305 6.53956,4.84575 L0.23106,4.84575 L2.692985,10.15325 L2.692985,19.999 L23.270235,19.999 L23.270235,10.11525 L25.77,4.84575 Z M18.84625,5.4229 L24.84625,5.4229 L22.808175,9.76965 L16.846175,9.76965 L18.84625,5.4229 Z M13.88525,5.4229 L15.923325,9.76865 L13.500475,9.76865 C13.270005,9.153425 12.77,8.653425 12.27,8.383875 C12.3471475,7.8458 12.385235,7.26865 12.385235,6.6534 C12.385235,6.23055 12.34715,5.8077 12.27,5.422925 L13.88525,5.4229 Z M13.115725,10.76965 C13.115725,10.9239475 13.07764,11.039175 13.0385775,11.1925 C12.7690525,10.6925 12.3081025,10.307725 11.9233525,10.11535 C12.0385875,9.76965 12.115735,9.422975 12.1538225,9.0382 C12.6547975,9.345825 13.1547975,10.000125 13.1157475,10.76965 L13.115725,10.76965 Z M9.308225,0.8459 C9.92345,1.576375 11.77015,3.92315 11.77015,6.6534 C11.77015,8.191475 11.53968,9.6534 11.077775,10.76865 L10.30825,10.76865 L10.423485,9.653425 C10.46157,9.3839 10.3854,9.11535 10.193015,8.8839 C10.0006325,8.6915175 9.73109,8.576275 9.46254,8.576275 L9.154915,8.576275 C8.88539,8.576275 8.61684,8.69151 8.42444,8.8839 C8.2320575,9.0762825 8.154915,9.3839 8.1939725,9.653425 L8.3092075,10.76865 L7.5396825,10.76865 C7.0777575,9.653425 6.8473075,8.1914 6.8473075,6.6534 C6.84633075,3.9229 8.6930075,1.57715 9.3082575,0.8459 L9.308225,0.8459 Z M8.77015,9.6154 C8.77015,9.500165 8.808235,9.38493 8.885385,9.307775 C8.9625325,9.2306275 9.0777675,9.19254 9.19301,9.19254 L9.500635,9.19254 C9.61587,9.19254 9.731105,9.230625 9.80826,9.307775 C9.8854075,9.3849225 9.923495,9.5001575 9.923495,9.6154 L9.65397,11.7697 L9.07682,11.7697 L8.77015,9.6154 Z M6.7311,10.077325 C6.346325,10.2697075 5.8854,10.654475 5.615875,11.154475 C5.57779,11.0001775 5.57779,10.88495 5.5387275,10.731625 C5.5006425,10.00115 6.0006525,9.308775 6.4615775,9.00115 C6.538725,9.38495 6.615875,9.73065 6.7311025,10.077325 L6.7311,10.077325 Z M6.3854,5.423075 C6.3082525,5.80785 6.270165,6.2307 6.270165,6.65355 C6.270165,7.2307 6.30825,7.80785 6.3854,8.384025 C5.8854,8.65355 5.3854,9.15355 5.115875,9.7688 L3.193025,9.7697765 L1.15495,5.4230265 L6.3854,5.423075 Z M3.27015,10.345825 L4.962525,10.345825 C4.962525,10.5001225 4.92444,10.61535 4.962525,10.768675 C5.00061,11.268675 5.1549075,11.768675 5.385375,12.15345 L5.8473,12.961075 L5.9244475,12.038225 C5.9625325,11.423 6.4625225,10.883925 6.9244475,10.615375 C7.001595,10.8077575 7.0396825,10.961075 7.11683,11.115375 L7.1939775,11.2696725 L8.4244525,11.2696725 L8.5396875,12.2696725 L10.1158625,12.2696725 L10.2310975,11.2696725 L11.4615725,11.2696725 L11.53872,11.115375 C11.6158675,10.9610775 11.6930175,10.769675 11.7311025,10.615375 C12.1539525,10.8849 12.6539525,11.423 12.6930275,12.038225 L12.770175,12.961075 L13.2321,12.15345 C13.46257,11.768675 13.616875,11.268675 13.65495,10.768675 L13.65495,10.345825 L16.0778,10.345825 L16.0778,19.383825 L3.2703,19.3848015 L3.27015,10.345825 Z M22.73115,19.384825 L16.6549,19.384825 L16.6549,10.345825 L22.6929,10.345825 L22.6929,19.384825 L22.73115,19.384825 Z"/>
      <polygon points="5.077 17.962 5.654 17.962 5.654 18.539 5.077 18.539"/>
      <polygon points="7.769 17.962 8.347 17.962 8.347 18.539 7.769 18.539"/>
      <polygon points="6.423 17.962 7 17.962 7 18.539 6.423 18.539"/>
      <path d="M9.8075,6.61525 C10.537975,6.61525 11.1532,6.000025 11.1532,5.26955 C11.1532,4.539075 10.537975,3.92385 9.8075,3.92385 C9.077025,3.92385 8.4618,4.539075 8.4618,5.26955 C8.499885,6.0381 9.077025,6.61525 9.8075,6.61525 L9.8075,6.61525 Z M9.8075,4.5381 C10.23035,4.5381 10.577025,4.8838 10.577025,5.307625 C10.577025,5.730475 10.231325,6.07715 9.8075,6.07715 C9.38465,6.07715 9.037975,5.73145 9.037975,5.307625 C9.0770375,4.884775 9.38465,4.5381 9.8075,4.5381 Z"/>
      <polygon points="8.077 12.615 8.654 12.615 8.654 14.153 8.077 14.153"/>
      <polygon points="9.538 13.462 10.115 13.462 10.115 14.924 9.538 14.924"/>
      <polygon points="10.962 12.615 11.539 12.615 11.539 14.153 10.962 14.153"/>
    </g>
    <g transform="translate(32 28)">
      <polygon points="7.902 4.615 14.255 4.615 14.255 5.192 7.902 5.192"/>
      <polygon points="7.902 6.615 17.353 6.615 17.353 7.192 7.902 7.192"/>
      <polygon points="7.902 8.654 17.353 8.654 17.353 9.231 7.902 9.231"/>
      <path d="M21.7054118,10.7305 L21.7054118,7.34575 L19.6273745,7.34575 L19.6273745,3.30775 L16.3335314,0.07725 L5.66639412,0.07725 L5.66639412,4.84675 L0.0972960784,4.84577325 L0.0972960784,24.9230232 L21.7440804,24.9230232 L25.8612569,10.7687732 L21.7050804,10.7697497 L21.7054118,10.7305 Z M21.1179392,7.923 L21.1179392,10.7305 L19.627349,10.7305 L19.627349,7.923 L21.1179392,7.923 Z M16.5297039,1.07725 L18.6475824,3.1544 L16.5297039,3.1544 L16.5297039,1.07725 Z M6.25486078,0.6544 L15.9411353,0.6544 L15.9411353,3.6924 L19.0387039,3.6924 L19.0387039,10.7304 L6.25486078,10.7304 L6.25486078,0.6544 Z M0.685762745,5.4229 L5.62652745,5.4229 L5.62652745,10.76865 L4.13693137,10.7696265 L0.685813725,22.5771265 L0.685762745,5.4229 Z M21.3139588,24.34565 L0.803272549,24.34565 L4.56817451,11.30765 L25.0778412,11.30765 L21.3139588,24.34565 Z"/>
      <polygon points="9.549 22.423 20.334 22.423 20.334 23 9.549 23"/>
      <polygon points="19.745 20.654 20.333 20.654 20.333 21.231 19.745 21.231"/>
      <polygon points="14.255 20.654 14.843 20.654 14.843 21.231 14.255 21.231"/>
      <polygon points="18.373 20.654 18.961 20.654 18.961 21.231 18.373 21.231"/>
      <polygon points="15.628 20.654 16.216 20.654 16.216 21.231 15.628 21.231"/>
      <polygon points="17 20.654 17.588 20.654 17.588 21.231 17 21.231"/>
    </g>
    <g transform="translate(32)">
      <path d="M25.6663333,15.7947356 L25.6663333,15.7562129 C25.6275016,15.3670152 25.5090104,14.9778428 25.2740137,14.5886451 L25.2740137,14.5501223 C25.077859,14.2004487 24.7642098,13.9278257 24.4117314,13.6947016 C24.2942369,13.6166674 24.1767424,13.5781421 24.0194118,13.5386306 L22.0588588,12.8382972 L21.2742451,14.3555386 C21.1955849,14.3170159 21.1169222,14.2775044 21.0392561,14.2389791 L18.8825561,13.460609 L17.941611,15.2504733 L15.6674012,14.4335653 L13.4320384,18.5576802 L12.5697561,18.5576802 L10.3343933,14.4335653 L8.06018353,15.2504733 L7.11923843,13.460609 L4.96253843,14.2389791 C4.88387824,14.2775018 4.80521549,14.3170133 4.72754941,14.3555386 L3.94293569,12.8382972 L1.98238275,13.5386306 C1.86488824,13.5771533 1.70757294,13.6551901 1.59006314,13.6947016 C1.23758471,13.8892954 0.922933725,14.2004487 0.727780784,14.5116097 L0.68894902,14.5896439 C0.45396,14.9788416 0.336470588,15.368014 0.296629412,15.7176876 L0.296629412,15.7562103 C0.257797647,15.9122814 0.217969216,16.418031 0.139306471,17.2349391 C0.100474706,17.6626494 0.25680098,18.0518471 0.531626078,18.3629828 C0.806435882,18.6741437 1.19875549,18.8302172 1.62989667,18.8302172 L2.92431431,18.8302172 C2.96314608,19.1413782 3.08163725,19.4140011 3.31663392,19.6471253 C3.59144373,19.9582862 3.98376333,20.1143598 4.41490451,20.1143598 L5.55199667,20.1143598 C5.55199667,20.192394 5.55199667,20.3089536 5.5131649,20.3869828 C5.47433314,20.7761805 5.63065941,21.2038908 5.90548451,21.5150264 C6.18030961,21.8261621 6.57261392,21.9822609 7.0037551,21.9822609 L18.9642649,21.9822609 C19.3565845,21.9822609 19.7877257,21.8261899 20.0625355,21.5150264 C20.3373453,21.203863 20.4936767,20.8146931 20.4548551,20.3869828 C20.4548551,20.2704232 20.4548551,20.192389 20.4160233,20.1143598 L21.5929567,20.1143598 C22.0240978,20.1143598 22.4164175,19.9582887 22.6912273,19.6471253 C22.887382,19.4140087 23.0437057,19.1413782 23.0835469,18.8302172 L24.3779645,18.8302172 C24.8091057,18.8302172 25.2014253,18.6741462 25.4762351,18.3629828 C25.7510449,18.0518218 25.9073763,17.6626494 25.8685547,17.2349391 C25.7450853,16.456569 25.7062535,15.9893345 25.6664251,15.7947483 L25.6663333,15.7947356 Z M3.15619608,16.6896805 L3.15619608,16.7677147 C3.11736431,16.9623085 3.07753588,17.468048 2.99887314,18.2849561 L1.62678686,18.2849561 C1.39180039,18.2849561 1.15580451,18.1683966 0.959657451,18.0123331 C0.80233451,17.8177393 0.724668431,17.5846228 0.724668431,17.3505124 C0.803328627,16.5336044 0.881991373,16.0663952 0.881991373,15.9113078 L0.881991373,15.8332736 C0.920823137,15.5221126 1.03931431,15.210977 1.2344698,14.860292 C1.39179275,14.587669 1.58694824,14.3930575 1.86175804,14.2379954 C1.94041824,14.1994726 2.05791275,14.1599611 2.13656784,14.1214359 L3.62715804,13.6156887 L4.21562471,14.7052198 C3.9408149,14.8998136 3.74464235,15.1329301 3.58833647,15.4055531 L3.54950471,15.4835874 C3.31352157,15.8342471 3.19603216,16.2619575 3.15619098,16.6896678 L3.15619608,16.6896805 Z M5.78398039,18.3234713 C5.74514863,18.4400308 5.66648588,18.867731 5.58782569,19.5680897 L4.37207078,19.5680897 C4.13708176,19.5680897 3.90108843,19.4515301 3.70494137,19.2954667 C3.54761843,19.1008729 3.46995235,18.8677563 3.46995235,18.633646 C3.54861255,17.6606644 3.62727529,17.0383678 3.66610706,16.8437816 L3.66610706,16.7657474 C3.70493882,16.4160738 3.82343,16.065414 4.05842667,15.6762163 C4.21574961,15.4035933 4.48956784,15.1319566 4.80322471,14.975883 C4.92071922,14.9373602 4.99937941,14.8593234 5.11688157,14.819812 L6.80361882,14.236028 L7.47074824,15.5201453 C6.96094431,15.7927683 6.52980314,16.181966 6.25499333,16.648189 C5.98018353,17.1954326 5.82385216,17.7792166 5.78401098,18.3234763 L5.78398039,18.3234713 Z M19.627451,21.1632414 C19.470128,21.3578352 19.2351314,21.4358644 18.9603216,21.4358644 L6.99981176,21.4358644 C6.76482275,21.4358644 6.52882941,21.3193048 6.33268235,21.1632414 C6.17535941,20.9686476 6.05787255,20.735531 6.09769333,20.5014207 C6.21518784,19.1402529 6.37250314,18.4399195 6.37250314,18.4399195 L6.37250314,18.3618853 C6.37250314,17.8946508 6.52982608,17.4284278 6.80364431,16.9226807 C7.07845412,16.4554462 7.50959529,16.1057726 8.05824627,15.8726738 L10.0187992,15.1723405 L12.1754992,19.1798807 L13.7437325,19.1798807 L15.9412678,15.1723405 L17.9018208,15.8726738 C18.0591437,15.9111966 18.1766306,15.9892333 18.2941404,16.0287448 C18.6466188,16.2233386 18.9214286,16.4959793 19.1564227,16.8456529 L19.1564227,16.8841756 C19.3914118,17.311886 19.5487424,17.7395963 19.5875639,18.128794 L19.5875639,18.2453536 C19.6263957,18.4784726 19.7448869,19.2183352 19.8225529,20.5014662 C19.9022098,20.7355715 19.8235486,20.9687007 19.6273949,21.1632869 L19.627451,21.1632414 Z M22.2552353,19.2963264 C22.0979124,19.4909202 21.8629157,19.5689494 21.5881059,19.5689494 L20.372351,19.5689494 C20.2936908,18.8300782 20.215028,18.362869 20.215028,18.1682575 L20.215028,18.0902232 C20.1761963,17.6229887 20.0188733,17.1172416 19.7052241,16.6114945 L19.7052241,16.5729717 C19.4702351,16.1452614 19.0779359,15.7946016 18.6467947,15.5229648 C18.6079629,15.4844421 18.5681345,15.4844421 18.5293002,15.4844421 L19.1964296,14.2003248 L20.8831669,14.7841087 C21.0006614,14.8226315 21.1181559,14.862143 21.1968237,14.9401798 C21.5104806,15.0962508 21.7454492,15.3293775 21.9416218,15.6405131 L21.9416218,15.6790359 C22.1377765,16.0287094 22.2941002,16.4179071 22.2941002,16.7290428 L22.2941002,16.807077 C22.332932,17.0016708 22.4115947,17.5854471 22.4902549,18.5969414 C22.4902549,18.8685782 22.4115947,19.1017023 22.2552659,19.2962885 L22.2552353,19.2963264 Z M25.0392745,17.9736713 C24.8819516,18.1682651 24.6469549,18.2462943 24.3721451,18.2462943 L23.0388804,18.2462943 C22.9602202,17.4293862 22.8815575,16.8851264 22.8815575,16.7290529 L22.8815575,16.6510186 C22.8427257,16.2233083 22.6854027,15.7955979 22.4504163,15.3669014 L22.4504163,15.3283786 C22.2930933,15.0557556 22.0580967,14.8226315 21.823128,14.6280453 L22.4115947,13.5385143 L23.8623437,14.0442614 C23.9798382,14.0827841 24.0584984,14.1222956 24.1371535,14.1608209 C24.4119633,14.316892 24.6081359,14.5104945 24.7644418,14.7831175 L24.7644418,14.8216402 C24.9605965,15.1328011 25.0780986,15.4439368 25.0780986,15.7550977 L25.0780986,15.833132 C25.1169304,16.0277257 25.1567588,16.4949526 25.2354216,17.2723366 C25.2742533,17.5844837 25.1965898,17.8175825 25.0392669,17.9736561 L25.0392745,17.9736713 Z"/>
      <path d="M5.9802549,12.8383908 C6.45123725,12.8383908 6.88237843,12.7218313 7.27467255,12.5272299 C7.82329804,13.0714897 8.60793725,13.4221747 9.43137255,13.4221747 C9.82369216,13.4221747 10.1761706,13.3441405 10.489802,13.2275809 C11.1170902,13.8894016 12.0192137,14.2775878 13,14.2775878 C13.9807863,14.2775878 14.8430686,13.8883901 15.510198,13.2275809 C15.8626765,13.3441405 16.216149,13.4221747 16.5686275,13.4221747 C17.4309098,13.4221747 18.176702,13.0725011 18.7253275,12.5272299 C19.1176471,12.7218237 19.5487882,12.8383908 20.0197451,12.8383908 C21.5491569,12.8383908 22.7650392,11.5937724 22.7650392,10.1149425 C22.7650392,8.59770115 21.5104373,7.39149425 20.0197451,7.39149425 C19.4312784,7.39149425 18.8428118,7.58608805 18.372849,7.93575402 C17.8630451,7.58608046 17.2745784,7.35197011 16.6084431,7.35197011 C15.9811549,7.35197011 15.3538412,7.54656391 14.8440373,7.89622989 C14.3342333,7.58506897 13.7069451,7.39048276 13.0398157,7.39048276 C12.3726863,7.39048276 11.745398,7.58507655 11.2355941,7.89622989 C10.7257902,7.54655632 10.098502,7.35197011 9.47118824,7.35197011 C8.80405882,7.35197011 8.17677059,7.5850892 7.70678235,7.93575402 C7.2358,7.58608046 6.64835294,7.39149425 6.05988627,7.39149425 C4.53047451,7.39149425 3.31459216,8.63611264 3.31459216,10.1149425 C3.23493529,11.5936713 4.4506902,12.8383908 5.98010196,12.8383908 L5.9802549,12.8383908 Z M22.1764706,10.1149425 C22.1764706,11.321023 21.1956843,12.2544805 20.0197706,12.2544805 C19.7061137,12.2544805 19.3924824,12.1764462 19.1176471,12.0598867 C19.4313039,11.5926522 19.627451,11.0098798 19.627451,10.3865717 C19.627451,9.60820161 19.3137941,8.86933034 18.8039902,8.32507057 C19.1564686,8.09195149 19.5886039,7.93587287 20.0197451,7.93587287 C21.1956843,7.93587287 22.1764451,8.90885448 22.1764451,10.1149349 L22.1764706,10.1149425 Z M16.5686275,7.93588046 C17.9407137,7.93588046 19.0389843,9.02541149 19.0389843,10.3865793 C19.0389843,11.7477471 17.9407137,12.8372782 16.5686275,12.8372782 C16.3336384,12.8372782 16.0976451,12.7987554 15.901498,12.7207186 C16.2539765,12.1764589 16.4899647,11.5146382 16.4899647,10.8142795 C16.4899647,9.80278529 16.0588235,8.90784046 15.3528725,8.24710713 C15.7063451,8.05350207 16.1374863,7.93594621 16.5686275,7.93594621 L16.5686275,7.93588046 Z M15.901498,10.8153517 C15.901498,12.4106299 14.6070804,13.6551218 12.999949,13.6551218 C11.3918745,13.6551218 10.1374,12.3710046 10.1374,10.8153517 C10.1374,9.22007356 11.4318176,7.93689195 12.999949,7.93689195 C14.5681824,7.93590398 15.901498,9.25954713 15.901498,10.8153517 Z M10.685949,8.24817931 C9.97999804,8.87047586 9.54885686,9.80393333 9.54885686,10.8153517 C9.54885686,11.5156851 9.74501157,12.1765195 10.1373235,12.7217908 C9.90233451,12.7998251 9.70618235,12.8383503 9.47019412,12.8383503 C8.09810784,12.8383503 6.99983725,11.7488193 6.99983725,10.3876515 C6.99983725,9.02648368 8.09810784,7.93695264 9.47019412,7.93695264 C9.86251373,7.93596467 10.2936549,8.05351218 10.685949,8.24811356 L10.685949,8.24817931 Z M5.98020392,7.93603218 C6.4113451,7.93603218 6.84248627,8.05259172 7.19595882,8.32522989 C6.6861549,8.86948966 6.37249804,9.56984828 6.37249804,10.386731 C6.37249804,11.0090276 6.56865275,11.5928115 6.88230196,12.060046 C6.60749216,12.1766055 6.29383529,12.2546398 5.98017843,12.2546398 C4.76442353,12.2546398 3.82347843,11.2816582 3.82347843,10.1151018 C3.82347843,8.94753402 4.80426471,7.93603977 5.98017843,7.93603977 L5.98020392,7.93603218 Z"/>
      <polygon points="12.725 .233 13.314 .233 13.314 2.918 12.725 2.918"/>
      <polygon points="17.267 .997 17.81 1.22 16.775 3.699 16.231 3.476"/>
      <polygon points="21.193 3.443 21.609 3.856 19.695 5.755 19.279 5.342"/>
      <polygon points="8.727 1.014 9.763 3.494 9.219 3.717 8.184 1.237"/>
      <polygon points="4.822 3.47 6.736 5.369 6.32 5.782 4.406 3.883"/>
    </g>
  </g>
</svg>
