<svg xmlns="http://www.w3.org/2000/svg" width="84" height="79" viewBox="0 0 84 79">
  <g fill="#232323">
    <path d="M73.582,0.527 L10.535,0.527 C5.1834,0.527 0.828,4.8825 0.828,10.234 L0.828,68.925 C0.828,74.2766 5.1835,78.632 10.535,78.632 L73.582,78.632 C78.9336,78.632 83.289,74.2765 83.289,68.925 L83.289,10.234 C83.289,4.8785 78.9335,0.527 73.582,0.527 Z M79.125,68.922 C79.125,71.9767 76.6367,74.465 73.582,74.465 L10.535,74.468906 C7.4803,74.468906 4.992,71.980606 4.992,68.925906 L4.988093,24.765906 L79.125093,24.765906 L79.125,68.922 Z M79.125,20.598 L4.988,20.598 L4.988,10.235 C4.988,7.1803 7.4763,4.692 10.531,4.692 L73.578,4.692 C76.6327,4.692 79.121,7.1803 79.121,10.235 L79.125,20.598 Z"/>
    <polygon points="11.352 11.16 17.415 11.16 17.415 15.324 11.352 15.324"/>
    <polygon points="21.156 11.16 27.218 11.16 27.218 15.324 21.156 15.324"/>
    <polygon points="30.961 11.16 37.023 11.16 37.023 15.324 30.961 15.324"/>
    <path d="M13.242,63.062 L30.734,63.062 C31.8824,63.062 32.816,62.12841 32.816,60.98 L32.816,37.613 C32.816,36.4646 31.88241,35.531 30.734,35.531 L13.242,35.531 C12.0936,35.531 11.16,36.46459 11.16,37.613 L11.16,60.98 C11.16,62.1284 12.08969,63.062 13.242,63.062 Z M15.324,39.695 L28.652,39.695 L28.652,58.898 L15.324,58.898 L15.324,39.695 Z"/>
    <polygon points="37.441 37.496 56.644 37.496 56.644 41.66 37.441 41.66"/>
    <polygon points="37.441 47.215 70.527 47.215 70.527 51.379 37.441 51.379"/>
    <polygon points="37.441 56.93 70.527 56.93 70.527 61.094 37.441 61.094"/>
  </g>
</svg>
