<svg xmlns="http://www.w3.org/2000/svg" width="82" height="77" viewBox="0 0 82 77">
  <g fill="#232323">
    <path d="M72.668,0.566 L9.621,0.566 C4.8437,0.566 0.953,4.4527 0.953,9.234 L0.953,67.925 C0.953,72.7023 4.8436,76.593 9.621,76.593 L72.668,76.593 C77.4453,76.593 81.3321,72.7063 81.3321,67.925 L81.336007,9.234 C81.336007,4.4528 77.449307,0.566 72.668007,0.566 L72.668,0.566 Z M79.2539,67.921 C79.2539,71.5499 76.3008,74.5069 72.6719,74.5069 L9.6209,74.5069 C5.992,74.5069 3.035,71.5538 3.035,67.921 L3.035,22.722 L79.254,22.722 L79.2539,67.921 Z M79.2539,20.64 L3.0349,20.64 L3.0349,9.234 C3.0349,5.6051 5.988,2.6481 9.6208,2.6481 L72.6678,2.6481 C76.2967,2.6481 79.2498,5.6012 79.2498,9.234 L79.2539,20.64 Z"/>
    <path d="M13.125 46.137L36.496 46.137C37.07022 46.137 37.539 45.67216 37.539 45.094L37.535094 29.844C37.535094 29.26978 37.070254 28.801 36.492094 28.801L13.125094 28.804907C12.550874 28.804907 12.082094 29.269747 12.082094 29.847907L12.082094 45.097907C12.082094 45.672127 12.550844 46.137007 13.125094 46.137007L13.125 46.137zM14.1641 30.887L35.4531 30.887 35.4531 44.055 14.1641 44.055 14.1641 30.887zM45.449 46.137L68.82 46.137C69.39422 46.137 69.863 45.67216 69.863 45.094L69.859094 29.844C69.859094 29.26978 69.394254 28.801 68.816094 28.801L45.449094 28.804907C44.874874 28.804907 44.406094 29.269747 44.406094 29.847907L44.406094 45.097907C44.406094 45.672127 44.874844 46.137007 45.449094 46.137007L45.449 46.137zM46.492 30.887L67.781 30.887 67.781 44.055 46.492 44.055 46.492 30.887zM13.125 68.016L36.496 68.016C37.07022 68.016 37.539 67.55116 37.539 66.973L37.535094 51.727C37.535094 51.15278 37.070254 50.684 36.492094 50.684L13.125094 50.684C12.550874 50.684 12.082094 51.14884 12.082094 51.727L12.082094 66.977C12.082094 67.55122 12.550844 68.0161 13.125094 68.0161L13.125 68.016zM14.1641 52.766L35.4531 52.766 35.4531 65.934 14.1641 65.934 14.1641 52.766zM45.449 68.016L68.82 68.016C69.39422 68.016 69.863 67.55116 69.863 66.973L69.859094 51.727C69.859094 51.15278 69.394254 50.684 68.816094 50.684L45.449094 50.684C44.874874 50.684 44.406094 51.14884 44.406094 51.727L44.406094 66.977C44.406094 67.55122 44.874844 68.0161 45.449094 68.0161L45.449 68.016zM46.492 52.766L67.781 52.766 67.781 65.934 46.492 65.934 46.492 52.766zM9.398 16.312L17.5425 16.312 17.538593 8.1675 9.397993 8.1675 9.398 16.312zM11.48 10.2495L15.4605 10.2495 15.4605 14.23 11.48 14.23 11.48 10.2495zM19.203 16.312L27.3475 16.312 27.3475 8.1675 19.203 8.1675 19.203 16.312zM21.285 10.2495L25.2655 10.2495 25.2655 14.23 21.285 14.23 21.285 10.2495zM29.008 16.312L37.1525 16.312 37.1525 8.1675 29.008 8.1675 29.008 16.312zM31.09 10.2495L35.0705 10.2495 35.0705 14.23 31.09 14.23 31.09 10.2495z"/>
  </g>
</svg>
