<svg xmlns="http://www.w3.org/2000/svg" width="104" height="80" viewBox="0 0 104 80">
  <g fill="#232323">
    <path d="M103.08,19.383 L74.002,19.383 L65.5411,37.535 L57.0802,19.383 L48.6193,19.383 C46.0021,8.922 38.6193,1.383 38.1583,0.922 L37.38877,0.15247 L36.61924,0.922 C36.31065,1.38294 28.92784,8.922 26.15824,19.383 L0.92424,19.383 L10.77194,40.613 L10.77194,79.996 L93.08094,79.996 L93.08094,40.461 L103.08,19.383 Z M75.385,21.6916 L99.385,21.6916 L91.2327,39.0786 L67.3847,39.0786 L75.385,21.6916 Z M55.541,21.6916 L63.6933,39.0746 L54.0019,39.0746 C53.08002,36.6137 51.08,34.6137 49.08,33.5355 C49.38859,31.3832 49.54094,29.0746 49.54094,26.6136 C49.54094,24.9222 49.3886,23.2308 49.08,21.6917 L55.541,21.6916 Z M52.4629,43.0786 C52.4629,43.69579 52.31056,44.1567 52.15431,44.77 C51.07621,42.77 49.23241,41.2309 47.69341,40.4614 C48.15435,39.0786 48.46294,37.6919 48.61529,36.1528 C50.61919,37.3833 52.61919,40.0005 52.46299,43.0786 L52.4629,43.0786 Z M37.2329,3.3836 C39.6938,6.3055 47.0806,15.6926 47.0806,26.6136 C47.0806,32.7659 46.15872,38.6136 44.3111,43.0746 L41.233,43.0746 L41.69394,38.6137 C41.84628,37.5356 41.5416,36.4614 40.77206,35.5356 C40.00253,34.76607 38.92436,34.3051 37.85016,34.3051 L36.61966,34.3051 C35.54156,34.3051 34.46736,34.76604 33.69776,35.5356 C32.92823,36.30513 32.61966,37.5356 32.77589,38.6137 L33.23683,43.0746 L30.15873,43.0746 C28.31103,38.6137 27.38923,32.7656 27.38923,26.6136 C27.385323,15.6916 34.77203,6.3086 37.23303,3.3836 L37.2329,3.3836 Z M35.0806,38.4616 C35.0806,38.00066 35.23294,37.53972 35.54154,37.2311 C35.85013,36.92251 36.31107,36.77016 36.77204,36.77016 L38.00254,36.77016 C38.46348,36.77016 38.92442,36.9225 39.23304,37.2311 C39.54163,37.53969 39.69398,38.00063 39.69398,38.4616 L38.61588,47.0788 L36.30728,47.0788 L35.0806,38.4616 Z M26.9244,40.3093 C25.3853,41.07883 23.5416,42.6179 22.4635,44.6179 C22.31116,44.00071 22.31116,43.5398 22.15491,42.9265 C22.00257,40.0046 24.00261,37.2351 25.84631,36.0046 C26.1549,37.5398 26.4635,38.9226 26.92441,40.3093 L26.9244,40.3093 Z M25.5416,21.6923 C25.23301,23.2314 25.08066,24.9228 25.08066,26.6142 C25.08066,28.9228 25.233,31.2314 25.5416,33.5361 C23.5416,34.6142 21.5416,36.6142 20.4635,39.0752 L12.7721,39.079106 L4.6198,21.692106 L25.5416,21.6923 Z M13.0806,41.3833 L19.8501,41.3833 C19.8501,42.00049 19.69776,42.4614 19.8501,43.0747 C20.00244,45.0747 20.61963,47.0747 21.5415,48.6138 L23.3892,51.8443 L23.69779,48.1529 C23.85013,45.692 25.85009,43.5357 27.69779,42.4615 C28.00638,43.23103 28.15873,43.8443 28.46732,44.4615 L28.77591,45.07869 L33.69781,45.07869 L34.15875,49.07869 L40.46345,49.07869 L40.92439,45.07869 L45.84629,45.07869 L46.15488,44.4615 C46.46347,43.84431 46.77207,43.0787 46.92441,42.4615 C48.61581,43.5396 50.61581,45.692 50.77211,48.1529 L51.0807,51.8443 L52.9284,48.6138 C53.85028,47.0747 54.4675,45.0747 54.6198,43.0747 L54.6198,41.3833 L64.3112,41.3833 L64.3112,77.5353 L13.0812,77.539206 L13.0806,41.3833 Z M90.9246,77.5393 L66.6196,77.5393 L66.6196,41.3833 L90.7716,41.3833 L90.7716,77.5393 L90.9246,77.5393 Z"/>
    <polygon points="18.309 71.848 20.618 71.848 20.618 74.157 18.309 74.157"/>
    <polygon points="29.078 71.848 31.387 71.848 31.387 74.157 29.078 74.157"/>
    <polygon points="23.691 71.848 26 71.848 26 74.157 23.691 74.157"/>
    <path d="M37.23,26.461 C40.1519,26.461 42.6128,24.0001 42.6128,21.0782 C42.6128,18.1563 40.1519,15.6954 37.23,15.6954 C34.3081,15.6954 31.8472,18.1563 31.8472,21.0782 C31.99954,24.1524 34.3081,26.461 37.23,26.461 L37.23,26.461 Z M37.23,18.1524 C38.9214,18.1524 40.3081,19.5352 40.3081,21.2305 C40.3081,22.9219 38.9253,24.3086 37.23,24.3086 C35.5386,24.3086 34.1519,22.9258 34.1519,21.2305 C34.30815,19.5391 35.5386,18.1524 37.23,18.1524 Z"/>
    <polygon points="30.309 50.461 32.618 50.461 32.618 56.613 30.309 56.613"/>
    <polygon points="36.152 53.848 38.461 53.848 38.461 59.696 36.152 59.696"/>
    <polygon points="41.848 50.461 44.157 50.461 44.157 56.613 41.848 56.613"/>
  </g>
</svg>
