<svg xmlns="http://www.w3.org/2000/svg" width="74" height="90" viewBox="0 0 74 90">
  <g fill="#232323">
    <path d="M5.555,90 L67.485,90 C70.0358,90 72.11,87.9258 72.11,85.375 L72.11,81.168 C72.11,78.6172 70.0358,76.543 67.485,76.543 L65.9459,76.543 L58.3951,66.496 C67.4849,60.8358 73.0711,50.879 73.0711,40.094 C73.0711,22.953 59.1221,9.004 41.9731,9.004 C39.8364,9.004 36.7153,9.30869 35.02,9.48838 L35.02,9.11729 C35.02,6.85169 33.1802,5.01179 30.9145,5.01179 L30.42231,5.019602 L30.42231,1.500102 C30.42231,0.671982 29.75043,0.000102 28.92231,0.000102 L20.83641,0.000102 C20.00828,0.000102 19.33641,0.671982 19.33641,1.500102 L19.33641,5.019602 L18.84032,5.019602 C16.57862,5.019602 14.73482,6.859402 14.73482,9.125102 L14.73482,41.840102 C14.73482,43.820602 16.14502,45.476802 18.01212,45.859602 L18.01212,50.578402 C18.01212,51.406522 18.684,52.078402 19.51212,52.078402 L30.24612,52.078402 C31.07424,52.078402 31.74612,51.406522 31.74612,50.578402 L31.74612,45.859602 C33.61332,45.476792 35.02342,43.820502 35.02342,41.840102 L35.019513,21.328102 C36.441413,21.027322 39.796813,20.374982 41.972613,20.374982 C52.851613,20.374982 61.702613,29.222682 61.702613,40.097982 C61.702613,47.269882 57.722113,53.925982 51.472613,57.374982 C49.984313,55.773382 47.921813,54.863282 45.699213,54.863282 C45.417963,54.863282 45.140623,54.882813 44.863273,54.910157 C44.699213,54.890626 44.535153,54.863282 44.367183,54.863282 L9.156183,54.863282 C7.882783,54.863282 6.679583,55.359372 5.745983,56.281282 C4.843643,57.199252 4.343683,58.402382 4.343683,59.667982 C4.343683,62.320282 6.503883,64.480482 9.156183,64.480482 L34.519183,64.480482 L25.452783,76.539482 L5.554783,76.543389 C3.003983,76.543389 0.929783,78.617589 0.929783,81.168389 L0.929783,85.375389 C0.929783,87.926189 3.003983,90.000389 5.554783,90.000389 L5.555,90 Z M22.336,3 L27.4219,3 L27.4219,5.0195 L22.336,5.0195 L22.336,3 Z M28.7462,49.078 L21.0118,49.078 L21.0118,45.9413 L28.7462,45.9413 L28.7462,49.078 Z M32.0196,41.8358 C32.0196,42.44517 31.52351,42.9413 30.9141,42.9413 L18.8361,42.9413 C18.22672,42.9413 17.7306,42.44521 17.7306,41.8358 L17.734506,9.1248 C17.734506,8.51542 18.230596,8.0193 18.840006,8.0193 L30.918006,8.0193 C31.527386,8.0193 32.023506,8.51539 32.023506,9.1248 L32.0196,41.8358 Z M64.7036,40.0975 C64.7036,27.5705 54.5086,17.3745 41.9736,17.3745 C39.8017,17.3745 36.7588,17.91356 35.0205,18.26512 L35.0205,12.51512 C36.5517,12.34715 39.8603,12.01121 41.9736,12.01121 C57.4656,12.01121 70.0716,24.61321 70.0716,40.10121 C70.0716,49.93321 64.931,58.99921 56.5836,64.08921 L53.3375,59.77281 C60.2945,55.73371 64.7045,48.20281 64.7045,40.09681 L64.7036,40.0975 Z M9.1566,61.4845 C8.1566,61.4845 7.3441,60.672 7.3441,59.672 C7.3441,59.19934 7.53551,58.74231 7.86754,58.4064 C8.2191,58.05874 8.68004,57.86734 9.15664,57.86734 L39.50864,57.86734 C39.465672,57.922027 39.418797,57.9689 39.37583,58.02359 L36.77423,61.48449 L9.1566,61.4845 Z M41.7736,59.8243 C42.7111,58.5782 44.1408,57.8634 45.6994,57.8634 C47.258,57.8634 48.6877,58.57824 49.6252,59.8243 L62.1912,76.5433 L29.2072,76.5433 L41.7736,59.8243 Z M3.9296,81.1683 C3.9296,80.27377 4.66007,79.5433 5.5546,79.5433 L67.4766,79.5433 C68.37113,79.5433 69.1016,80.27377 69.1016,81.1683 L69.1016,85.3753 C69.1016,86.26983 68.37113,87.0003 67.4766,87.0003 L5.5546,87.0003 C4.66007,87.0003 3.9296,86.26983 3.9296,85.3753 L3.9296,81.1683 Z"/>
    <path d="M48.629,62.984 C48.629,66.8902 42.7696,66.8902 42.7696,62.984 C42.7696,59.0817 48.629,59.0817 48.629,62.984"/>
  </g>
</svg>
