<svg xmlns="http://www.w3.org/2000/svg" width="65" height="66" viewBox="0 0 65 66">
  <g fill="#232323">
    <polygon points=".34 31.438 11.82 31.438 11.82 35.172 .34 35.172"/>
    <polygon points="53.5 31.438 64.98 31.438 64.98 35.172 53.5 35.172"/>
    <polygon points="30.793 54.145 34.527 54.145 34.527 65.625 30.793 65.625"/>
    <polygon points="30.793 .984 34.527 .984 34.527 12.464 30.793 12.464"/>
    <polygon points="19.246 49.363 11.129 57.48 8.488 54.84 16.605 46.722"/>
    <polygon points="54.191 9.129 56.832 11.77 48.714 19.887 46.074 17.246"/>
    <polygon points="56.836 54.836 54.195 57.477 46.078 49.359 48.719 46.719"/>
    <polygon points="16.605 19.891 8.484 11.77 11.124 9.129 19.246 17.25"/>
  </g>
</svg>
