<svg xmlns="http://www.w3.org/2000/svg" width="91" height="91" viewBox="0 0 91 91">
  <path fill="#232323" d="M57,0 C51.5,0 47,4.5 47,10 C47,13.4766 48.7891,16.5508 51.5,18.3438 L46.5938,34.7498 C45.1407,34.27714 43.6055,33.9998 42,33.9998 C38.5273,33.9998 35.3281,35.1951 32.7812,37.1873 L17.3432,24.1873 C18.3862,22.7185 18.9994,20.9256 18.9994,18.9998 C18.9994,14.0545 14.9447,9.9998 9.9994,9.9998 C5.0541,9.9998 0.9994,14.0545 0.9994,18.9998 C0.9994,23.9451 5.0541,27.9998 9.9994,27.9998 C11.5619,27.9998 13.0267,27.58183 14.3119,26.8748 L29.9679,40.0628 C28.1046,42.5628 26.9991,45.6566 26.9991,49.0003 C26.9991,52.4065 28.1671,55.5394 30.0929,58.0628 L19.9369,68.2508 C17.9721,66.8446 15.5853,66.0008 12.9994,66.0008 C6.3939,66.0008 0.9994,71.3953 0.9994,78.0008 C0.9994,84.6063 6.3939,90.0008 12.9994,90.0008 C19.6049,90.0008 24.9994,84.6063 24.9994,78.0008 C24.9994,75.4149 24.15565,73.0281 22.7494,71.0633 L32.9054,60.9073 C35.4327,62.8448 38.5851,64.0011 41.9992,64.0011 C47.5578,64.0011 52.4092,60.923 54.9992,56.4073 L69.1552,61.1261 C69.04973,61.73548 68.99895,62.3644 68.99895,63.0011 C68.99895,69.0519 73.94815,74.0011 79.99895,74.0011 C86.04975,74.0011 90.99895,69.0519 90.99895,63.0011 C90.99895,56.9503 86.04975,52.0011 79.99895,52.0011 C75.99505,52.0011 72.48725,54.1886 70.56145,57.4073 L56.49945,52.7198 C56.80804,51.5284 56.99945,50.2862 56.99945,49.001 C56.99945,47.544 56.76507,46.1494 56.37445,44.8135 L71.24945,34.9073 C72.90175,36.794 75.31195,38.0011 77.99945,38.0011 C82.94475,38.0011 86.99945,33.9464 86.99945,29.0011 C86.99945,24.0558 82.94475,20.0011 77.99945,20.0011 C73.05415,20.0011 68.99945,24.0558 68.99945,29.0011 C68.99945,29.8136 69.10883,30.5949 69.31195,31.3449 L54.71795,41.0949 C53.56565,39.2551 52.03045,37.6652 50.21795,36.4699 L55.21795,19.8139 C55.79998,19.91937 56.38985,20.0014 56.99915,20.0014 C62.49915,20.0014 66.99915,15.5014 66.99915,10.0014 C66.99915,4.5014 62.49915,0.0014 56.99915,0.0014 L57,0 Z M57,4 C60.3359,4 63,6.6641 63,10 C63,13.3359 60.3359,16 57,16 C53.6641,16 51,13.3359 51,10 C51,6.6641 53.6641,4 57,4 Z M10,14 C12.7852,14 15,16.2148 15,19 C15,21.7852 12.7852,24 10,24 C7.2148,24 5,21.7852 5,19 C5,16.2148 7.2148,14 10,14 Z M78,24 C80.7852,24 83,26.2148 83,29 C83,31.7852 80.7852,34 78,34 C75.2148,34 73,31.7852 73,29 C73,26.2148 75.2148,24 78,24 Z M42,38 C48.0977,38 53,42.9023 53,49 C53,55.0977 48.0977,60 42,60 C35.9023,60 31,55.0977 31,49 C31,42.9023 35.9023,38 42,38 Z M80,56 C83.8906,56 87,59.1094 87,63 C87,66.8906 83.8906,70 80,70 C76.1094,70 73,66.8906 73,63 C73,59.1094 76.1094,56 80,56 Z M13,70 C17.4414,70 21,73.5586 21,78 C21,82.4414 17.4414,86 13,86 C8.5586,86 5,82.4414 5,78 C5,73.5586 8.5586,70 13,70 Z"/>
</svg>
