<svg xmlns="http://www.w3.org/2000/svg" width="90" height="102" viewBox="0 0 90 102">
  <path fill="#232323" d="M12.594,68.773 C13.9534,68.773 15.0588,67.6675 15.0588,66.3082 L15.0588,51.3672 L42.5318,51.3672 L42.527894,66.3082 C42.527894,67.6715 43.633394,68.773 44.992694,68.773 C46.355994,68.773 47.457494,67.6675 47.457494,66.3082 L47.461401,51.3672 L74.930401,51.3672 L74.930401,66.3082 C74.930401,67.6715 76.035901,68.773 77.395201,68.773 C78.758501,68.773 79.860001,67.6675 79.860001,66.3082 L79.863907,48.9022 C79.863907,47.5389 78.758407,46.4374 77.399107,46.4374 L47.461107,46.4374 L47.461107,34.8514 C47.461107,33.4881 46.355607,32.3866 44.996307,32.3866 C43.637007,32.3866 42.531507,33.4921 42.531507,34.8514 L42.531507,46.4374 L12.593507,46.4374 C11.230207,46.4374 10.128707,47.5429 10.128707,48.9022 L10.124801,66.3082 C10.124801,67.6715 11.230301,68.773 12.593601,68.773 L12.594,68.773 Z M44.992,13.726 C46.1053,13.726 47.1287,13.10881 47.8748,11.9916 C48.11308,11.63613 48.01542,11.15566 47.65996,10.9174 C47.30449,10.67912 46.82012,10.77678 46.58576,11.13224 C46.32404,11.52287 45.77326,12.17914 44.99196,12.17914 C44.21462,12.17914 43.65996,11.52289 43.39816,11.13224 C43.16378,10.77677 42.67941,10.67912 42.32396,10.9174 C41.96851,11.15568 41.87084,11.63615 42.10912,11.9916 C42.85912,13.1088 43.88252,13.726 44.99192,13.726 L44.992,13.726 Z M34.926,28.515 L55.059,28.515 L55.070718,28.515 C55.933998,28.515 56.637118,27.81578 56.637118,26.9486 C56.637118,26.874381 56.633211,26.80016 56.621493,26.72594 C56.527743,21.81184 53.371493,17.64784 48.988693,16.03794 C49.601973,15.68638 50.176193,15.2606 50.687893,14.74494 C52.207393,13.22154 53.047293,11.20194 53.047293,9.04964 C53.047293,6.90124 52.207453,4.87774 50.687893,3.35434 C49.168393,1.83874 47.144893,0.99884 44.992593,0.99884 C42.844193,0.99884 40.820693,1.83868 39.297293,3.35824 C37.777793,4.87774 36.941793,6.90124 36.941793,9.05354 C36.941793,11.20584 37.777733,13.22544 39.301193,14.74884 C39.812913,15.26056 40.387093,15.69025 40.996493,16.03794 C36.547293,17.67464 33.359793,21.94024 33.359793,26.94794 C33.359793,27.81513 34.062913,28.51434 34.926193,28.51434 L34.926,28.515 Z M44.992,3.683 C46.3943,3.683 47.7068,4.22206 48.7147,5.1947 C48.44908,5.67517 47.80454,5.92126 46.7733,5.92126 C45.453,5.92126 43.7303,5.46423 41.9217,4.65956 C42.81623,4.03065 43.8748,3.683 44.992,3.683 L44.992,3.683 Z M39.6248,9.0541 C39.6248,7.9525 39.96074,6.9057 40.57402,6.015 C42.84742,7.1127 45.02322,7.7142 46.76932,7.7142 C48.08962,7.7142 49.12482,7.34701 49.79272,6.6986 C50.14819,7.42516 50.35913,8.222 50.35913,9.0541 C50.35913,10.4877 49.80054,11.8353 48.78883,12.851 C47.77323,13.8666 46.42553,14.4252 44.99193,14.4252 C43.55833,14.4252 42.21073,13.86661 41.19503,12.8549 C40.18333,11.8354 39.62473,10.4877 39.62473,9.0541 L39.6248,9.0541 Z M44.992,18.4486 C49.1443,18.4486 52.6131,21.4408 53.3475,25.3822 L36.6365,25.3822 C37.37478,21.4408 40.8396,18.4486 44.992,18.4486 Z M44.992,86.2106 C46.1053,86.2106 47.1287,85.59341 47.8748,84.4762 C48.11308,84.12073 48.01542,83.64026 47.65996,83.402 C47.30449,83.16372 46.82012,83.26138 46.58576,83.61684 C46.32404,84.00746 45.77326,84.66374 44.99196,84.66374 C44.21462,84.66374 43.65996,84.00749 43.39816,83.61684 C43.15988,83.26137 42.67941,83.16371 42.32396,83.402 C41.96849,83.64028 41.87084,84.12075 42.10912,84.4762 C42.85912,85.5973 43.88252,86.2106 44.99192,86.2106 L44.992,86.2106 Z M48.9881,88.5231 C49.60138,88.17154 50.1756,87.74576 50.6873,87.2301 C52.2068,85.7106 53.0467,83.6871 53.0467,81.5348 C53.0467,79.3864 52.20686,77.3629 50.6873,75.8395 C49.1678,74.32 47.1443,73.4801 44.992,73.4801 C42.8436,73.4801 40.8201,74.31604 39.2967,75.8395 C37.7772,77.3629 36.9373,79.3825 36.9373,81.5348 C36.9373,83.6871 37.77324,85.7067 39.2967,87.2301 C39.80842,87.74182 40.3826,88.17151 40.992,88.5231 C36.5467,90.1598 33.3553,94.4254 33.3553,99.4331 C33.3553,100.29638 34.05452,100.9995 34.9217,100.9995 L55.0667,100.9995 C55.92998,100.9995 56.6331,100.30028 56.6331,99.4331 C56.6331,99.358881 56.629194,99.28466 56.617476,99.21044 C56.531538,94.30024 53.371376,90.13624 48.988576,88.52244 L48.9881,88.5231 Z M39.6248,81.5387 C39.6248,80.1051 40.18339,78.7575 41.1951,77.7418 C42.2107,76.7262 43.5584,76.1715 44.992,76.1715 C46.4256,76.1715 47.7732,76.73009 48.7889,77.7418 C49.8045,78.7574 50.3631,80.1051 50.3631,81.5387 C50.3631,82.9723 49.80451,84.3199 48.7928,85.3356 C47.7772,86.3512 46.4295,86.9098 44.9959,86.9098 C43.5623,86.9098 42.2147,86.35121 41.199,85.3356 C40.1834,84.32 39.6248,82.9723 39.6248,81.5387 Z M36.6365,97.8667 C37.37088,93.9253 40.8396,90.9331 44.992,90.9331 C49.1443,90.9331 52.6131,93.9253 53.3475,97.8667 L36.6365,97.8667 Z M16.5895,88.5229 C17.20278,88.17134 17.7731,87.74556 18.2887,87.2299 C19.8082,85.7104 20.6442,83.6869 20.6442,81.5346 C20.6442,79.3862 19.80436,77.3627 18.2848,75.8393 C16.7653,74.3198 14.7418,73.4799 12.5934,73.4799 C10.4411,73.4799 8.4215,74.31584 6.8981,75.8393 C5.3786,77.3627 4.5387,79.3823 4.5387,81.5346 C4.5387,83.6869 5.37854,85.7065 6.8981,87.2299 C7.40982,87.74162 7.984,88.17131 8.5973,88.5229 C4.1481,90.1596 0.9606,94.4252 0.9606,99.4329 C0.9606,100.29618 1.66372,100.9993 2.527,100.9993 L22.672,100.9993 C23.53528,100.9993 24.2384,100.30008 24.2384,99.4329 C24.2384,99.358681 24.234494,99.28446 24.222775,99.21024 C24.129025,94.30004 20.972775,90.13604 16.589975,88.52224 L16.5895,88.5229 Z M12.5934,76.1679 C13.7106,76.1679 14.7731,76.51556 15.6637,77.14446 C13.8551,77.94915 12.1364,78.40616 10.8121,78.40616 C9.7809,78.40616 9.1324,78.16007 8.8707,77.67569 C9.8785,76.71085 11.191,76.16789 12.5934,76.16789 L12.5934,76.1679 Z M7.2223,81.539 C7.2223,80.70306 7.43324,79.9101 7.78871,79.1835 C8.45668,79.83194 9.49181,80.1991 10.81211,80.1991 C12.55821,80.1991 14.73401,79.59754 17.00741,78.4999 C17.62069,79.39052 17.95663,80.4374 17.95663,81.539 C17.95663,82.9726 17.39804,84.3202 16.38633,85.3359 C15.37073,86.3515 14.02303,86.9101 12.58943,86.9101 C11.15583,86.9101 9.80823,86.35151 8.79253,85.3359 C7.78083,84.3203 7.22223,82.9726 7.22223,81.539 L7.2223,81.539 Z M4.234,97.867 C4.96838,93.9256 8.4371,90.9334 12.5895,90.9334 C16.7419,90.9334 20.2067,93.9256 20.945,97.867 L4.234,97.867 Z M89.027,99.2147 C88.93325,94.3006 85.777,90.1366 81.3942,88.5267 C82.00358,88.17514 82.5778,87.74936 83.0895,87.2376 C84.609,85.7181 85.4489,83.6946 85.4489,81.5423 C85.4489,79.3939 84.60906,77.3704 83.0895,75.847 C81.57,74.3275 79.5465,73.4876 77.3942,73.4876 C75.2458,73.4876 73.2223,74.32354 71.6989,75.847 C70.1794,77.3665 69.3395,79.3939 69.3395,81.5423 C69.3395,83.6946 70.17934,85.7181 71.6989,87.2376 C72.21062,87.74932 72.7848,88.17901 73.3981,88.5306 C68.9489,90.1673 65.7614,94.4329 65.7614,99.4406 C65.7614,100.30388 66.46062,101.007 67.3278,101.007 L87.4728,101.007 C88.33608,101.007 89.0392,100.30778 89.0392,99.4406 C89.043107,99.358569 89.035294,99.28435 89.027482,99.21404 L89.027,99.2147 Z M72.027,81.5387 C72.027,80.1051 72.58559,78.7575 73.5973,77.7418 C74.6129,76.7262 75.9606,76.1715 77.3942,76.1715 C78.8278,76.1715 80.1754,76.73009 81.1911,77.7418 C82.2067,78.7574 82.7653,80.1051 82.7653,81.5387 C82.7653,82.9723 82.20671,84.3199 81.1911,85.3356 C80.1755,86.3512 78.8317,86.9059 77.3942,86.9059 C75.9606,86.9059 74.613,86.34731 73.5973,85.3356 C72.5856,84.32 72.027,82.9723 72.027,81.5387 Z M69.0387,97.8667 C69.77698,93.9253 73.2418,90.9331 77.3942,90.9331 C81.5465,90.9331 85.0153,93.9253 85.7497,97.8667 L69.0387,97.8667 Z"/>
</svg>
