<svg xmlns="http://www.w3.org/2000/svg" width="68" height="79" viewBox="0 0 68 79">
  <g fill="#232323">
    <path d="M16.199 31.602C24.5974 31.602 31.597 24.8012 31.597 16.204 31.597 7.6024 24.7962.806 16.199.806 7.8006.806.801 7.6068.801 16.204.801 24.8012 7.6018 31.602 16.199 31.602zM16.199 5.801C21.8006 5.801 26.597 10.4026 26.597 16.199 26.597 21.9998 21.9954 26.597 16.199 26.597 10.3982 26.597 5.801 21.9954 5.801 16.199 5.801 10.3982 10.3987 5.801 16.199 5.801zM38 40L64.801 40C66.1994 40 67.1994 38.8008 67.1994 37.6016 67.1994 37.00004 67.00018 36.4024 66.59784 36L53.39884 13.199C52.59806 11.5974 50.00044 11.5974 49.00044 13.199L35.60244 36.398C35.204 37.19878 35.204 38.1988 35.60244 38.7964 36.2001 39.60109 37.00084 39.9995 38.00084 39.9995L38 40zM51.199 19.398L60.199 35 42.199 35 51.199 19.398zM16.801 50.398C15.4026 50.398 14.4026 51.5972 14.4026 52.7964L14.4026 76.5974C14.4026 77.9958 15.6018 78.9958 16.801 78.9958L40.602 78.9958C42.0004 78.9958 43.0004 77.7966 43.0004 76.5974L43.0004 52.8004C43.0004 51.402 41.8012 50.402 40.602 50.402L16.801 50.398zM38 74.199L19.199 74.199 19.199 55.398 38 55.398 38 74.199z"/>
  </g>
</svg>
