<svg xmlns="http://www.w3.org/2000/svg" width="56" height="56" viewBox="0 0 56 56">
  <path fill="#232323" d="M11.461,16.566 L11.461,25.1363 C11.461,26.5582 12.5899,27.6871 14.0118,27.6871 C15.4337,27.6871 16.5626,26.5582 16.5626,25.1363 L16.5626,16.566 L25.1524,16.566 C26.5508,16.566 27.7383,15.4176 27.7383,13.9996 C27.7383,12.5777 26.5547,11.4332 25.1524,11.4332 L16.5626,11.4332 L16.5626,2.859 C16.5626,1.4371 15.4337,0.3121 14.0118,0.3121 C12.5899,0.3121 11.461,1.441 11.461,2.859 L11.461,11.4332 L2.8672,11.4332 C1.4492,11.4332 0.2852,12.5777 0.2852,13.9996 C0.2852,15.4176 1.4532,16.566 2.8672,16.566 L11.461,16.566 Z" transform="translate(14 14)"/>
</svg>
