<svg xmlns="http://www.w3.org/2000/svg" width="88" height="88" viewBox="0 0 88 88">
  <path fill="#232323" d="M44,0 C19.723,0 0,19.723 0,44 C0,68.277 19.723,88 44,88 C68.277,88 88,68.277 88,44 C88,19.723 68.277,0 44,0 Z M41.9375,4.0625 L42,4.0625 L42,6 C41.992188,6.53516 42.19922,7.0508 42.57422,7.4336 C42.95313,7.81251 43.46484,8.02735 44.00002,8.02735 C44.5352,8.02735 45.04692,7.81251 45.42582,7.4336 C45.80082,7.05079 46.00785,6.53516 46.00004,6 L46.00004,4.0625 C51.94144,4.35547 57.52004,5.9609 62.50004,8.5625 L61.21884,11.0937 C60.92196,11.57026 60.83993,12.1523 60.99228,12.6953 C61.14462,13.23436 61.51962,13.68749 62.02348,13.9414 C62.52739,14.1914 63.11328,14.21874 63.63678,14.015619 C64.16412,13.812499 64.57819,13.398429 64.78128,12.875019 L65.93748,10.562519 C70.51168,13.562519 74.42968,17.460919 77.43748,22.031519 L75.09368,23.187719 C74.61712,23.429909 74.25384,23.847879 74.08978,24.355719 C73.92181,24.863529 73.96087,25.414319 74.20306,25.890919 C74.70306,26.883109 75.91396,27.281519 76.90616,26.781539 L79.46866,25.500339 C82.07026,30.480839 83.64446,36.059339 83.93746,42.000339 L75.99996,42.000339 C75.93746,41.996433 75.87496,41.996433 75.81246,42.000339 C75.28121,42.023777 74.78126,42.258149 74.42576,42.652679 C74.06638,43.043299 73.88279,43.562839 73.90623,44.094079 C73.92967,44.625319 74.16404,45.125279 74.55857,45.480779 C74.94919,45.840159 75.46873,46.023749 75.99997,46.000309 L83.93747,46.000309 C83.64841,51.918309 82.08197,57.504309 79.49997,62.469309 L76.90617,61.188109 C76.60539,61.035769 76.27336,60.961549 75.93742,60.969359 C74.99992,60.969359 74.19132,61.621699 73.98822,62.535759 C73.7851,63.453729 74.24603,64.383459 75.09372,64.781859 L77.43752,65.969359 C74.43752,70.527959 70.52732,74.438159 65.96852,77.438359 L64.78102,75.094559 C64.42555,74.360179 63.65992,73.914859 62.84352,73.969559 C62.17555,74.02034 61.57792,74.403149 61.25372,74.989059 C60.9256,75.571089 60.91388,76.282059 61.218564,76.875759 L62.499764,79.469559 C57.519264,82.071159 51.940764,83.676559 45.999764,83.969559 L45.999764,76.000759 C46.011483,75.426539 45.777104,74.871859 45.351324,74.481259 C44.925544,74.094539 44.355234,73.907039 43.781024,73.969539 C42.749824,74.082819 41.976324,74.965629 41.999824,76.000739 L41.999824,83.969539 C36.058424,83.676569 30.479824,82.071139 25.499824,79.469539 L26.781024,76.875739 C27.105244,76.239019 27.066184,75.481239 26.679464,74.883539 C26.292744,74.285879 25.616964,73.938229 24.906064,73.969479 C24.179504,74.008541 23.534964,74.442139 23.218564,75.094479 L22.031064,77.438279 C17.472464,74.438279 13.562264,70.528079 10.562064,65.969279 L12.905864,64.781779 C13.765244,64.379439 14.226164,63.430179 14.007464,62.504479 C13.788714,61.582599 12.948864,60.938079 11.999664,60.969279 C11.683254,60.969279 11.374664,61.043498 11.093414,61.188029 L8.499614,62.469229 C5.917614,57.504429 4.351214,51.918229 4.062114,46.000229 L11.999614,46.000229 C12.534774,46.008041 13.050414,45.801009 13.433214,45.426009 C13.812124,45.047099 14.026964,44.535389 14.026964,44.000209 C14.026964,43.465029 13.812124,42.953309 13.433214,42.574409 C13.050404,42.199409 12.534774,41.992379 11.999614,42.000189 L4.062114,42.000189 C4.355084,36.058789 5.929314,30.480189 8.530914,25.500189 L11.093414,26.781389 C12.085604,27.281389 13.296514,26.882949 13.796514,25.890769 C14.296514,24.898589 13.898074,23.687669 12.905894,23.187669 L10.562094,22.031469 C13.569894,17.461169 17.487894,13.562669 22.062094,10.562469 L23.218294,12.874969 C23.421414,13.398409 23.835484,13.812469 24.362794,14.015569 C24.886234,14.218689 25.472194,14.191349 25.976094,13.94135 C26.480004,13.68744 26.855004,13.23432 27.007294,12.69525 C27.159634,12.15228 27.077607,11.57025 26.780734,11.09365 L25.499534,8.56245 C30.464334,5.96865 36.019534,4.36325 41.937534,4.06245 L41.9375,4.0625 Z M43.7813,11.9687 C42.7501,12.08198 41.9766,12.96479 42.0001,13.9999 L42.0001,40.4999 L38.0626,38.2499 C37.71494,38.04287 37.3126,37.94131 36.9064,37.96865 C36.02359,38.035056 35.2853,38.67177 35.0978,39.53895 C34.9103,40.40614 35.31655,41.29285 36.09389,41.71865 L42.00009,45.06245 L42.00009,51.99995 C41.992278,52.53511 42.19931,53.05075 42.57431,53.43355 C42.95322,53.81246 43.46493,54.0273 44.00011,54.0273 C44.53529,54.0273 45.04701,53.81246 45.42591,53.43355 C45.80091,53.05074 46.00794,52.53511 46.00013,51.99995 L46.00013,47.34375 L66.00013,58.71875 C66.46107,58.98828 67.00793,59.0625 67.52353,58.92187 C68.03915,58.78515 68.47665,58.44921 68.74233,57.98828 C69.00795,57.52734 69.07827,56.98048 68.94155,56.46488 C68.80093,55.95316 68.46108,55.51566 68.00014,55.25008 L46.00014,42.75008 L46.00014,14.00008 C46.011859,13.42586 45.77748,12.87118 45.3517,12.48058 C44.92592,12.09386 44.35561,11.90636 43.7814,11.96886 L43.7813,11.9687 Z"/>
</svg>
