<svg xmlns="http://www.w3.org/2000/svg" width="60" height="54" viewBox="0 0 60 54">
  <path fill="#232323" d="M53.301,29 L35.102,50.199 C34.40278,50.99978 34.50044,52.3006 35.30122,52.9998 C35.69966,53.30058 36.102,53.4998 36.60202,53.4998 C37.20358,53.4998 37.70362,53.30058 38.10202,52.80058 L59.10202,28.30058 C59.70358,27.60136 59.70358,26.40218 59.10202,25.69898 L38.10202,1.19898 C37.4028,0.3982 36.10202,0.30054 35.30122,0.99976 C34.50042,1.69898 34.40278,2.99976 35.102,3.80056 L53.301,24.99956 L2.399,24.99956 C1.2974,24.99956 0.399,25.898 0.399,26.99956 C0.399,28.10112 1.29744,28.99956 2.399,28.99956 L53.301,29 Z"/>
</svg>
