<svg xmlns="http://www.w3.org/2000/svg" width="89" height="89" viewBox="0 0 89 89">
  <g fill="#232323">
    <path d="M30.148 20.852C32.0972 18.602 33.148 15.8012 33.148 12.8012 33.101124 6.0512 27.6011.5002 20.8.5002 13.9989.5002 8.448 6.051 8.448 12.8012 8.448 15.8012 9.4988 18.6528 11.448 20.852 4.698 23.852.249 30.6528.249 38L.249 41 41.3 41 41.3 38.0508C41.3 30.6485 36.8508 23.8518 30.148 20.8518L30.148 20.852zM19 23.9497L22.5 23.9497C29.6016 23.9497 35.602 29.3013 36.449 36.2507L5.051 36.2507C5.94944 29.3523 11.9494 23.9497 19 23.9497L19 23.9497zM20.8008 5.1997C25 5.1997 28.4492 8.5981 28.4492 12.8481 28.4492 17.102 25 20.4497 20.8008 20.4497 16.6016 20.4497 13.1524 17.0513 13.1524 12.8013 13.148494 8.5513 16.6016 5.1997 20.8008 5.1997zM77.051 68.398C79.0002 66.148 80.051 63.3472 80.051 60.3472 80.051 53.5464 74.5002 48.0462 67.75 48.0462 60.9998 48.0462 55.449 53.597 55.449 60.3472 55.449 63.3472 56.4998 66.1988 58.449 68.398 51.699 71.398 47.25 78.1988 47.25 85.546L47.25 88.4952 88.301 88.4952 88.301 85.546C88.250219 78.1476 83.801 71.398 77.051 68.398zM67.6994 52.699C71.8986 52.699 75.3478 56.0974 75.3478 60.3474 75.3478 64.5466 71.9494 67.9958 67.6994 67.9958 63.4494 67.9958 60.051 64.5974 60.051 60.3474 60.101781 56.1482 63.5002 52.699 67.6994 52.699L67.6994 52.699zM65.9494 71.5L69.4494 71.5C76.551 71.5 82.5514 76.8516 83.3984 83.801L52.0004 83.801C52.85196 76.8518 58.8988 71.5 65.9494 71.5zM41.602 71.5L29.899 71.5C26.3482 71.5 23.4498 68.6016 23.4498 65.0508L23.4498 53.1018 28.2506 57.9026C28.69982 58.35182 29.3014 58.60182 29.899 58.60182 30.50056 58.60182 31.0982 58.35182 31.5474 57.9026 32.44584 57.00416 32.44584 55.5042 31.5474 54.6018L22.7505 45.7502C21.85206 44.85176 20.3521 44.85176 19.4497 45.7502L10.6489 54.551C9.75046 55.44944 9.75046 56.9494 10.6489 57.8518 11.54734 58.75024 13.0473 58.75024 13.9497 57.8518L18.7505 53.051 18.7505 65C18.7505 71.1484 23.7505 76.148 29.8985 76.148L41.6485 76.148C42.9493 76.148 44.0001 75.0972 44.0001 73.7964 44.0001 72.4995 42.8985 71.4995 41.6017 71.4995L41.602 71.5zM78.449 31.102C77.55056 30.20356 76.0506 30.20356 75.1482 31.102L70.3474 35.9028 70.351306 25.1488C70.351306 19.0004 65.351306 13.9498 59.152306 13.9498L44.550306 13.9498C43.249506 13.9498 42.198706 15.0006 42.198706 16.3014 42.198706 17.6022 43.249506 18.653 44.550306 18.653L59.198306 18.653C62.799906 18.653 65.698306 21.5514 65.698306 25.153L65.698306 35.903 60.897506 31.1022C59.999066 30.20376 58.499106 30.20376 57.596706 31.1022 56.698266 32.00064 56.698266 33.5006 57.596706 34.403L66.397506 43.2038C66.846726 43.65302 67.448306 43.90302 68.045906 43.90302 68.647466 43.90302 69.245106 43.65302 69.694306 43.2038L78.495106 34.403C79.397446 33.50066 79.397446 32.0007 78.448231 31.1022L78.449 31.102z"/>
  </g>
</svg>
