<svg xmlns="http://www.w3.org/2000/svg" width="67" height="89" viewBox="0 0 67 89">
  <g fill="#232323">
    <path d="M9 71.898C4.5 71.898.8984 75.4996.8984 79.9996.8984 84.4996 4.5 88.1012 9 88.1012 13.5 88.1012 17.1016 84.4996 17.1016 79.9996 17.199257 75.4996 13.5 71.898 9 71.898zM37.5 62.801L33 67.1994 28.6016 62.801C27.80082 62.00022 26.5 62.00022 25.7032 62.801 24.90242 63.60178 24.90242 64.9026 25.7032 65.6994L30.1016 70.0978 25.7032 74.4962C24.90242 75.29698 24.90242 76.5978 25.7032 77.3946 26.50398 78.19538 27.8048 78.19538 28.6016 77.3946L33 73.0001 37.3984 77.3985C38.19918 78.19928 39.5 78.19928 40.2968 77.3985 41.09758 76.59772 41.09758 75.2969 40.2968 74.5001L35.8984 70.1017 40.2968 65.7033C41.09758 64.90252 41.09758 63.6017 40.2968 62.8049 39.49992 62.00021 38.1991 62.00021 37.4999 62.800993L37.5 62.801zM53.199 38.699C52.89822 39.39822 52.49978 39.9998 51.9998 40.5974 50.8982 41.9958 49.3982 43.0974 47.8006 43.7966 46.699 44.2966 45.3006 44.7966 44.9022 45.9958 44.60142 46.9958 45.20298 48.195 46.203 48.4958 47.203 48.79658 48.203 48.29658 49.203 47.89424 52.8046 46.29264 55.9022 43.39424 57.5038 39.79264 59.1054 36.19104 59.1054 32.19104 59.203 28.29264 60.4022 29.29264 61.6014 30.29264 62.8046 31.29264 63.20304 31.59342 63.70304 31.99186 64.203 31.99186 64.80456 31.99186 65.3046 31.59342 65.703 31.19108 66.00378 30.8903 66.30456 30.58952 66.40222 30.08948 66.50378 29.2887 66.00378 28.58948 65.40222 28.08948 63.20302 25.78868 61.00382 23.48788 58.70302 21.39028 58.20302 20.89028 57.60142 20.49184 57.00382 20.39028 56.20304 20.39028 55.60542 20.99184 55.00382 21.49188 53.50382 22.99188 52.10542 24.49188 50.60542 25.89028L48.40622 28.08948C47.80466 28.69104 47.40622 29.39028 47.60544 30.19108 47.707 30.69108 48.10544 31.08952 48.50388 31.49188 48.90232 31.79266 49.40232 31.99188 49.90228 31.89032 50.30072 31.78876 50.6015 31.58954 51.00388 31.28876 52.20308 30.28876 53.40228 29.28876 54.60548 28.28876 54.60548 30.39036 54.70704 32.58956 54.40626 34.68716 54.19923 36.10126 53.80079 37.49966 53.19926 38.69886L53.199 38.699zM37.699 21L33.3006 25.3984 28.8983 21C28.09752 20.19922 26.7967 20.19922 25.9999 21 25.19912 21.80078 25.19912 23.1016 25.9999 23.8984L30.3983 28.2968 25.9999 32.6991C25.19912 33.49988 25.19912 34.8007 25.9999 35.5975 26.80068 36.39828 28.1015 36.39828 28.8983 35.5975L33.2967 31.1991 37.6951 35.5975C38.49588 36.39828 39.7967 36.39828 40.5935 35.5975 41.39428 34.79672 41.39428 33.4959 40.5935 32.6991L36.1951 28.3007 40.5935 23.9023C41.39428 23.10152 41.39428 21.8007 40.5935 21.0039 39.80053 20.19921 38.4997 20.19921 37.699 20.999994L37.699 21zM61.602 52.602L57.102 57.0004 52.7036 52.602C51.90282 51.80122 50.602 51.80122 49.8052 52.602 49.00442 53.40278 49.00442 54.7036 49.8052 55.5004L54.2036 59.8988 49.8052 64.2972C49.00442 65.09798 49.00442 66.3988 49.8052 67.1956 50.60598 67.99638 51.9068 67.99638 52.7036 67.1956L57.102 62.7972 61.5004 67.1956C62.30118 67.99638 63.602 67.99638 64.3988 67.1956 65.19958 66.39482 65.19958 65.094 64.3988 64.2972L60.0004 59.8988 64.3988 55.5004C65.19958 54.69962 65.19958 53.3988 64.3988 52.602 63.60192 51.80122 62.3988 51.80122 61.6019 52.602L61.602 52.602zM56.898.8008C52.398.8008 48.7964 4.4024 48.7964 8.9024 48.7964 13.4024 52.398 17.004 56.898 17.004 61.398 17.004 64.9996 13.4024 64.9996 8.9024 64.9996 4.3985 61.398.8008 56.898.8008zM11.5 66C11.5 69.332 6.5 69.332 6.5 66 6.5 62.668 11.5 62.668 11.5 66M11.5 57.5C11.5 60.832 6.5 60.832 6.5 57.5 6.5 54.168 11.5 54.168 11.5 57.5M16.898 51.102C16.898 54.434 11.898 54.434 11.898 51.102 11.898 47.7661 16.898 47.7661 16.898 51.102M24.5 47.5C24.5 50.832 19.5 50.832 19.5 47.5 19.5 44.168 24.5 44.168 24.5 47.5M33 47.301C33 50.633 28 50.633 28 47.301 28 43.9651 33 43.9651 33 47.301M41.5 47.301C41.5 50.633 36.5 50.633 36.5 47.301 36.5 43.9651 41.5 43.9651 41.5 47.301"/>
  </g>
</svg>
