<svg xmlns="http://www.w3.org/2000/svg" width="96" height="96" viewBox="0 0 96 96">
  <g fill="#232323" transform="translate(3 18)">
    <path d="M47.715 17.207C47.715 26.3164 55.1252 33.727 64.235 33.727 73.3448 33.727 80.755 26.3168 80.755 17.207 80.755 8.0972 73.3448.687 64.235.687 55.1256.683094 47.715 8.0972 47.715 17.207L47.715 17.207zM75.777 17.207C75.777 23.5742 70.5973 28.75 64.23 28.75 57.8667 28.75 52.687 23.5703 52.687 17.207 52.687 10.8437 57.8667 5.66 64.23 5.66 70.6011 5.66 75.777 10.8397 75.777 17.207zM83.758 55.93L89.2892 55.93C89.2892 45.45 80.7619 36.922 70.2812 36.922L58.1872 36.922C52.1403 36.922 46.7532 39.7697 43.2732 44.1876 40.0818 41.7618 36.1209 40.3087 31.8122 40.3087L19.7222 40.3087C9.2422 40.3087.7142 48.836.7142 59.3167L6.2415 59.3167C6.2415 51.8831 12.2884 45.8397 19.7185 45.8397L31.8085 45.8397C39.2421 45.8397 45.2855 51.8866 45.2855 59.3167L50.8128 59.3167C50.8128 58.1605 50.69171 57.0315 50.49249 55.9339 49.97686 53.0745 48.82059 50.4456 47.17609 48.18 49.61749 44.723 53.63699 42.4534 58.18409 42.4534L70.27409 42.4534C77.71159 42.4534 83.75809 48.5003 83.75809 55.9304L83.758 55.93zM9.246 20.59C9.246 29.6994 16.6562 37.11 25.766 37.11 34.8758 37.11 42.286 29.6998 42.286 20.59 42.286 11.4802 34.8758 4.07 25.766 4.07 16.6562 4.07 9.246 11.4802 9.246 20.59zM25.766 9.047C32.1293 9.047 37.309 14.2267 37.309 20.59 37.309 26.9533 32.1293 32.137 25.766 32.137 19.3988 32.137 14.219 26.9573 14.219 20.59 14.222906 14.2228 19.3987 9.047 25.766 9.047z"/>
  </g>
</svg>
