<svg xmlns="http://www.w3.org/2000/svg" width="100" height="82" viewBox="0 0 100 82">
  <path fill="#232323" d="M86.102,34.898 C87.102,34.898 87.9028,34.09722 87.9028,33.0972 L87.898894,6.3982 C87.898894,2.9998 85.098094,0.199 81.699694,0.199 L7.000694,0.199 C3.602294,0.199 0.801494,2.9998 0.801494,6.3982 L0.801494,64.3982 C0.801494,67.7966 3.602294,70.5974 7.000694,70.5974 L50.102694,70.5974 C51.102694,70.5974 51.903494,69.79662 51.903494,68.7966 C51.899588,67.80051 51.102714,66.9997 50.200394,66.9997 L7.001394,66.9997 C5.501394,66.9997 4.302194,65.8005 4.302194,64.3005 L4.302194,20.3985 L84.302194,20.3985 L84.302194,33.1995 C84.399851,34.10184 85.200634,34.8987 86.102994,34.8987 L86.102,34.898 Z M4.301,16.898 L4.301,6.398 C4.301,4.898 5.5002,3.6988 7.0002,3.6988 L81.6992,3.6988 C83.1992,3.6988 84.3984,4.898 84.3984,6.398 L84.3984,16.898 L4.301,16.898 Z M12.1994,9.1011 C12.50018,9.40188 12.6994,9.90188 12.6994,10.3003 C12.6994,10.8003 12.50018,11.19874 12.1994,11.4995 C11.89862,11.80026 11.39862,11.9995 11.0002,11.9995 C10.5002,11.9995 10.10176,11.80028 9.801,11.4995 C9.50024,11.19872 9.301,10.69872 9.301,10.3003 C9.301,9.8003 9.50022,9.40186 9.801,9.1011 C10.39866,8.39798 11.5002,8.39798 12.1994,9.1011 Z M20.6017,9.1011 C20.90248,9.40188 21.1017,9.90188 21.1017,10.3003 C21.1017,10.8003 20.90248,11.19874 20.6017,11.4995 C20.30092,11.80028 19.80092,11.9995 19.4025,11.9995 C19.00406,11.9995 18.50406,11.80028 18.2033,11.4995 C17.90254,11.19872 17.7033,10.69872 17.7033,10.3003 C17.7033,9.8003 17.90252,9.40186 18.2033,9.1011 C18.69939,8.39798 19.8986,8.39798 20.6017,9.1011 L20.6017,9.1011 Z M28.8986,9.1011 C29.19938,9.40188 29.3986,9.90188 29.3986,10.3003 C29.3986,10.8003 29.19938,11.19874 28.8986,11.4995 C28.59782,11.80028 28.09782,11.9995 27.6994,11.9995 C27.30096,11.9995 26.80096,11.80028 26.5002,11.4995 C26.19944,11.19872 26.0002,10.69872 26.0002,10.3003 C26.0002,9.8003 26.19942,9.40186 26.5002,9.1011 C27.10176,8.39798 28.301,8.39798 28.8986,9.1011 L28.8986,9.1011 Z M77.8006,39.1011 C65.9996,39.1011 56.4996,48.7027 56.4996,60.4021 C56.4996,72.2031 66.1012,81.7031 77.8006,81.7031 C89.5,81.7031 99.1016,72.1015 99.1016,60.4021 C99.199257,48.6991 89.6016,39.1011 77.8006,39.1011 Z M77.8006,78.3001 C67.9998,78.3001 59.9996,70.3001 59.9996,60.4991 C59.9996,50.6981 67.9996,42.6981 77.8006,42.6981 C87.6016,42.6981 95.6016,50.6981 95.6016,60.4991 C95.699257,70.2999 87.6993,78.3001 77.8006,78.3001 Z M87.8006,59.3001 C88.40216,59.99932 88.40216,60.9993 87.8006,61.6985 L82.199,67.8001 C81.89822,68.19854 81.39822,68.40166 80.8982,68.40166 C80.49976,68.40166 80.09742,68.20244 79.699,67.90166 C78.99978,67.20244 78.89822,66.10086 79.59744,65.40166 L82.49584,62.20246 L69.49584,62.20246 C68.49584,62.20246 67.69504,61.40168 67.69504,60.40166 C67.69504,59.40164 68.49582,58.60086 69.49584,58.60086 L82.49584,58.60086 L79.59744,55.40166 C78.89822,54.70244 78.99588,53.60086 79.699,52.90166 C80.39822,52.20244 81.4998,52.3001 82.199,53.00322 L87.8006,59.3001 Z"/>
</svg>
