<svg xmlns="http://www.w3.org/2000/svg" width="102" height="162" viewBox="0 0 102 162">
  <g fill="#232323">
    <g transform="translate(0 84)">
      <polygon points="74.23 4.539 76.539 4.539 76.539 6.848 74.23 6.848"/>
      <polygon points="63.461 4.539 65.77 4.539 65.77 6.848 63.461 6.848"/>
      <polygon points="68.848 4.539 71.157 4.539 71.157 6.848 68.848 6.848"/>
      <polygon points="13.152 30.848 18.074 30.848 18.074 33.157 13.152 33.157"/>
      <path d="M18.691,66.539 L12.5387,66.539 C11.92151,66.539 11.3082,66.99994 11.3082,67.7695 C11.3082,68.53906 11.76914,69 12.5387,69 L18.691,69 C19.30819,69 19.9215,68.53906 19.9215,67.7695 C19.9215,66.99994 19.30822,66.539 18.691,66.539 Z"/>
      <polygon points="76.848 25.77 83.309 25.77 83.309 28.079 76.848 28.079"/>
      <path d="M84.078,71.617 L76.078,71.617 C75.46081,71.617 74.8475,72.07794 74.8475,72.8475 C74.8475,73.46469 75.30844,74.078 76.078,74.078 L84.078,74.078 C84.69519,74.078 85.3085,73.61706 85.3085,72.8475 C85.15225,72.07797 84.69131,71.617 84.078,71.617 Z"/>
      <path d="M97.77,21.922 L82.54,21.922 L82.54,3.922 C82.54,1.7697 80.8486,0.0743 78.6923,0.0743 L11.6183,0.078206 C9.466,0.078206 7.7706,1.769606 7.7706,3.925906 L7.7706,27.773906 L3.7706,27.769999 C2.0792,27.769999 0.6925,29.152799 0.6925,30.848099 L0.6925,68.696099 C0.6925,70.387499 2.0753,71.774199 3.7706,71.774199 L27.4616,71.774199 C29.153,71.774199 30.5397,70.391399 30.5397,68.696099 L30.5397,59.156999 L61.1567,59.156999 L61.1567,74.078999 C61.1567,76.078999 62.8481,77.770399 64.8481,77.770399 L97.7701,77.770399 C99.7701,77.770399 101.4615,76.078999 101.4615,74.078999 L101.4615,25.617999 C101.30916,23.617999 99.7701,21.922699 97.7701,21.922699 L97.77,21.922 Z M99.0005,25.6173 L99.0005,29.7696 L63.4615,29.7696 L63.4615,25.6173 C63.4615,24.84777 64.07869,24.2345 64.8443,24.2345 L97.7663,24.2345 C98.53974,24.230594 99.0007,24.84778 99.0007,25.6173 L99.0005,25.6173 Z M63.4615,32.0782 L99.0005,32.0782 L99.0005,67.6172 L63.4615,67.6172 L63.4615,32.0782 Z M11.6175,2.3832 L78.6955,2.3832 C79.61738,2.3832 80.2346,3.15273 80.2346,3.9223 L80.2346,8.5395 L10.0786,8.5395 L10.0786,3.9223 C10.0786,3.15277 10.84813,2.3832 11.6177,2.3832 L11.6175,2.3832 Z M10.0784,10.848 L80.2304,10.848 L80.2304,21.926 L64.8474,21.926 C62.8474,21.926 61.156,23.6174 61.156,25.6174 L61.156,49.9264 L30.539,49.922494 L30.539,31.000494 C30.539,29.309094 29.1562,27.922394 27.4609,27.922394 L10.0779,27.922394 L10.0784,10.848 Z M3.7698,30.078 L27.4608,30.078 C27.92174,30.078 28.23033,30.38659 28.23033,30.84753 L28.23033,33.92563 L3.00033,33.921724 L3.00033,30.843624 C3.00033,30.538934 3.30892,30.078004 3.76986,30.078004 L3.7698,30.078 Z M28.2308,36.2303 L28.2308,63.3083 L3.0008,63.3083 L3.0008,36.2303 L28.2308,36.2303 Z M27.46127,69.6173 L3.77027,69.6173 C3.30933,69.6173 3.00074,69.30871 3.00074,68.84777 L3.00074,65.76967 L28.23074,65.76967 L28.23074,68.84777 C28.23074,69.30871 27.92215,69.6173 27.46121,69.6173 L27.46127,69.6173 Z M30.53937,57.0003 L30.53937,52.0784 L61.15637,52.0784 L61.15637,57.0003 L30.53937,57.0003 Z M97.76937,75.6173 L64.84737,75.6173 C64.07784,75.6173 63.46457,75.00011 63.46457,74.2345 L63.46457,69.9259 L99.00357,69.9259 L99.00357,74.2345 C98.999664,75.00012 98.53873,75.6173 97.76917,75.6173 L97.76937,75.6173 Z"/>
    </g>
    <path d="M44.23,9.539 C46.6909,9.539 48.9995,10.46088 50.6909,12.1562 L52.3823,10.4648 C50.23,8.3125 47.3042,7.082 44.23,7.082 C38.9995,7.082 34.3823,10.6211 33.152,15.6992 L35.4606,16.31639 C36.38247,12.46089 39.9215,9.53909 44.2301,9.53909 L44.23,9.539 Z"/>
    <path d="M101.15,36.922 L100.99766,36.46106 C99.61486,29.84386 93.76716,24.92206 86.84566,24.92206 L84.99796,24.92206 C84.38077,17.53926 78.22846,11.84406 70.68896,11.84406 C67.61086,11.84406 64.68896,12.92216 62.22806,14.61356 C60.07576,6.61356 52.84526,0.92256 44.22806,0.92256 C34.53666,0.92256 26.53706,8.30536 25.61106,17.84456 C23.45876,17.07503 21.30246,16.61406 18.99386,16.61406 C8.99776,16.617967 0.68886,24.92266 0.68886,35.23106 C0.68886,45.54006 8.99746,53.84806 19.30586,53.84806 L28.68866,53.84806 L28.68866,51.53946 L19.30586,51.53946 C10.22776,51.53946 2.99686,44.15276 2.99686,35.23046 C2.99686,26.15236 10.22736,18.76946 19.30586,18.76946 C21.61446,18.76946 23.76676,19.2304 25.76676,20.15226 C25.76676,21.84366 26.07535,23.53506 26.68864,25.23036 L28.84094,24.46083 C28.22375,22.76943 28.07141,21.07803 28.07141,19.38273 C28.07141,10.30463 35.45421,3.07373 44.38041,3.07373 C52.22811,3.07373 58.84141,8.61283 60.38041,16.30373 C59.30231,17.53423 58.38041,18.76463 57.76321,20.30373 L59.91551,21.2256 C61.91551,16.917 66.22411,14.1475 70.83751,14.1475 C77.45471,14.1475 82.83751,19.5303 82.83751,26.1475 L82.83751,27.378 L86.98981,27.378 C92.68121,27.378 97.75981,31.378 98.83781,37.0694 L98.83781,37.53034 C98.99015,38.14753 98.99015,38.91314 98.99015,39.53034 C98.99015,46.14754 93.60735,51.68234 86.83815,51.68234 L52.99815,51.690152 L52.99815,53.998752 L86.99815,53.998752 C94.99815,53.998752 101.45915,47.537852 101.45915,39.537752 C101.30681,38.615882 101.30681,37.690052 101.15056,36.920552 L101.15,36.922 Z"/>
    <path d="M40.848,29.691 L25.926,44.613 L33.6174,44.613 L33.6174,75.074 L48.0784,75.074 L48.0784,44.617 L55.7698,44.617 L40.848,29.691 Z M45.6175,42.308 L45.6175,72.769 L35.7698,72.769 L35.7698,42.308 L31.3089,42.308 L40.6917,32.9252 L50.0745,42.308 L45.6175,42.308 Z"/>
  </g>
</svg>
