<svg xmlns="http://www.w3.org/2000/svg" width="70" height="79" viewBox="0 0 70 79">
  <path fill="#232323" d="M65.199,13 L57.199,13 L57.199,11 C57.199,8.6016 55.3006,6.6992 52.8982,6.6992 L45.2966,6.6992 L45.2966,4.8984 C45.2966,2.5 43.3982,0.5976 40.9958,0.5976 L5.1008,0.601506 C2.7024,0.601506 0.8,2.499906 0.8,4.902306 L0.8,49.203306 C0.8,51.601706 2.6984,53.504106 5.1008,53.504106 L7.6008,53.504106 L7.6008,61.504106 C7.6008,63.902506 9.4992,65.804906 11.9016,65.804906 L14.7024,65.804906 L14.7024,74.105706 C14.7024,76.504106 16.6008,78.406506 19.0032,78.406506 L65.1052,78.406506 C67.5036,78.406506 69.406,76.508106 69.406,74.105706 L69.398188,17.398706 C69.499748,15.000306 67.601288,13.000306 65.198988,13.000306 L65.199,13 Z M7.5,11 L7.5,50.5 L5,50.5 C4.30078,50.5 3.6992,49.89844 3.6992,49.1992 L3.6992,4.8982 C3.6992,4.19898 4.30076,3.5974 5,3.5974 L40.699,3.5974 C41.39822,3.5974 41.9998,4.19896 41.9998,4.8982 L41.9998,6.699 L11.8978,6.699 C9.4994,6.601343 7.4994,8.6013 7.4994,10.9998 L7.5,11 Z M14.6992,17.3984 L14.6992,62.8984 L11.8984,62.8984 C11.19918,62.8984 10.5976,62.29684 10.5976,61.5976 L10.601506,10.9996 C10.601506,10.30038 11.203066,9.6988 11.902306,9.6988 L52.800306,9.6988 C53.499526,9.6988 54.101106,10.30036 54.101106,10.9996 L54.101106,12.9996 L19.101106,12.9996 C16.698806,12.9996 14.698806,14.9996 14.698806,17.398 L14.6992,17.3984 Z M66.5002,74.1994 C66.5002,74.89862 65.89864,75.5002 65.1994,75.5002 L19.1014,75.5002 C18.40218,75.5002 17.8006,74.89864 17.8006,74.1994 L17.8006,17.3984 C17.8006,16.69918 18.40216,16.0976 19.1014,16.0976 L65.2034,16.0976 C65.90262,16.0976 66.5042,16.69916 66.5042,17.3984 L66.5002,74.1994 Z M42.0002,31.5004 C37.8986,31.5004 34.1018,33.102 31.1992,35.8988 C28.8008,38.2972 27.1992,41.3988 26.6992,44.6996 L24.5,44.6996 C23.80078,44.6996 23.3008,45.50038 23.69922,46.098 L27.59762,52.8988 C27.99606,53.50036 28.89842,53.50036 29.19922,52.8988 L33.09762,46.098 C33.49606,45.49644 32.99606,44.6996 32.29684,44.6996 L29.69524,44.6996 C30.19524,42.1996 31.39444,39.8988 33.19524,38.098 C35.59364,35.7972 38.69524,34.4964 41.89444,34.4964 C48.79284,34.4964 54.39444,40.098 54.39444,46.9964 C54.398347,53.8987 48.89834,59.5004 41.99944,59.5004 C39.10104,59.5004 36.19864,58.5004 33.99944,56.602 C33.39788,56.102 32.39784,56.102 31.89784,56.80122 C31.39784,57.40278 31.39784,58.40282 32.09706,58.90282 C34.89786,61.20362 38.39786,62.50442 42.09706,62.50442 C50.59706,62.50442 57.59706,55.50442 57.59706,47.00442 C57.600966,38.50052 50.49936,31.50042 41.99906,31.50042 L42.0002,31.5004 Z"/>
</svg>
